<?xml version="1.0" encoding="UTF-8"?>
<svg width="216px" height="216px" viewBox="0 0 216 216" version="1.1" xmlns="http://www.w3.org/2000/svg" xmlns:xlink="http://www.w3.org/1999/xlink">
    <title>platform</title>
    <g id="platform" stroke="none" stroke-width="1" fill="none" fill-rule="evenodd">
        <g id="Asset-9" transform="translate(0.000000, 19.000000)">
            <polygon id="Path" fill="#00ECBB" fill-rule="nonzero" points="108.63 95.1578281 4.57 136.407828 108.63 177.647828 212.69 136.407828"></polygon>
            <polygon id="Path" fill="#232357" fill-rule="nonzero" opacity="0.2" points="32.94 125.157828 108.63 155.157828 184.31 125.157828 108.63 95.1578281"></polygon>
            <path d="M108.78,96.4578281 C107.57,95.1078281 113.78,98.1278281 116.47,99.0278281 C117.77,99.1378281 121.92,100.927828 124.18,101.597828 C127.86,103.087828 132.58,104.797828 134.41,105.907828 C138.94,107.177828 144.29,109.547828 149.86,111.537828 C152.46,112.467828 154.69,113.087828 157.64,114.117828 C160.59,115.147828 163.41,116.277828 166.69,117.447828 C178.93,121.777828 198.13,128.687828 213.16,135.217828 L216.16,136.527828 L213.16,137.587828 L210.48,138.527828 C206.85,140.007828 205.29,141.057828 201.67,142.527828 C171.81,153.707828 154.67,160.247828 124.48,172.607828 C117.87,174.887828 114.59,176.827828 110.17,177.757828 L108.89,178.297828 L108.64,178.397828 L108.37,178.297828 C97.25,174.117828 86.21,169.647828 76.37,165.297828 C72.04,164.027828 67.91,162.777828 63.19,161.097828 C51.66,157.017828 42.57,152.647828 28.52,147.367828 C28.94,147.517828 28,146.747828 27.33,146.637828 C24.25,146.127828 14.84,142.117828 9.18,139.957828 L3.93,137.957828 L0,136.467828 L3.94,134.817828 L34.65,121.947828 C41.65,119.417828 49.51,116.397828 58,112.947828 C74.06,107.257828 92.73,99.6178281 108.45,94.5178281 C109.57,94.8378281 105.11,96.3278281 104.6,96.9978281 C103.39,97.9278281 111.93,94.2378281 107.17,96.4678281 C108.35,96.8778281 100.43,99.5878281 99.49,99.7578281 C95.1,101.607828 92.32,102.507828 89.24,103.587828 C76.83,108.767828 61.81,114.237828 48.17,119.377828 C40.55,122.317828 37.65,124.037828 31.5,126.037828 C24.78,129.167828 15,133.337828 5,137.607828 L5,135.197828 L18.09,139.937828 C32.27,146.027828 38.64,147.737828 48.73,152.587828 C65.15,157.957828 80.36,164.037828 103,173.037828 L109.36,175.687828 L107.83,175.687828 C128.58,167.797828 148.09,159.847828 169.59,151.597828 C174.53,150.057828 183.59,145.977828 186.59,145.597828 C192.65,142.597828 203.48,138.877828 209.78,136.667828 C210.591449,136.169423 211.433069,135.721895 212.3,135.327828 L212.3,137.327828 C211.19,136.947828 210.3,136.547828 208.48,135.987828 C195.05,130.327828 184.26,126.217828 170.03,121.247828 C156.3,115.987828 152.29,114.017828 143.18,111.067828 C137.83,108.967828 136.1,107.797828 131.71,106.497828 C129.54,105.577828 128.39,105.587828 127.9,104.967828 C122.37,102.547828 120.84,102.367828 119,100.967828 C115.13,99.3978281 109.07,97.3178281 108.78,96.4578281 Z" id="Path" fill="#2E316A"></path>
            <polygon id="Path" fill="#2E316A" fill-rule="nonzero" points="45.87 120.037828 108.63 144.907828 171.38 120.037828 108.63 95.1578281"></polygon>
            <path d="M47.2,120.037828 C45.6,120.317828 49.91,118.867828 51.36,118.247828 C51.74,117.917828 54.36,116.957828 55.53,116.397828 C57.6439241,115.498589 59.8035571,114.71084 62,114.037828 C64.2,112.837828 67.67,111.637828 70.82,110.227828 C72.29,109.567828 73.4,108.927828 75.05,108.137828 C76.7,107.347828 78.44,106.677828 80.32,105.797828 C83.82,104.157828 88.32,102.027828 93.32,99.8778281 C98.32,97.7278281 103.49,95.6078281 108.24,94.0178281 L108.79,93.8378281 L109.18,94.0178281 L110.73,94.7478281 C112.94,95.5778281 114.12,95.6178281 116.33,96.4478281 C133.97,104.097828 144.15,108.377828 162.6,115.307828 C166.39,117.147828 168.72,117.427828 170.94,119.127828 L171.73,119.407828 L173.4,120.017828 L171.73,120.737828 C165.15,123.567828 158.44,126.137828 152.28,128.157828 C149.91,129.537828 147.64,130.827828 144.9,132.157828 C138.21,135.287828 132.31,136.857828 123.99,140.437828 C124.24,140.337828 123.45,140.247828 123.13,140.527828 C121.66,141.817828 115.84,143.847828 112.47,145.267828 L109.34,146.567828 L108.75,146.817828 L108.08,146.567828 C103.73,144.987828 95.96,142.187828 88.66,139.447828 C84.49,137.447828 79.73,135.447828 74.47,133.277828 C69.83,131.027828 64.65,128.767828 59.58,126.527828 C54.51,124.287828 49.46,122.037828 45.29,120.037828 C45.39,119.767828 47.8,120.837828 48.58,120.947828 C49.75,121.217828 44.29,119.217828 47.51,120.337828 C47.68,120.057828 52.03,121.857828 52.39,122.097828 C55.15,123.097828 56.62,123.747828 58.33,124.497828 C66.07,127.297828 74.59,130.867828 82.57,134.277828 C87.07,136.167828 89.23,136.487828 92.57,138.227828 C96.96,139.497828 102.97,141.567828 109.07,143.667828 L108.12,143.667828 L115.77,140.177828 C124.57,137.177828 127.97,134.997828 134.52,133.257828 C143.79,128.467828 152.99,124.877828 166.68,119.477828 L170.59,118.057828 L170.59,121.927828 C158.26,116.697828 146.37,112.207828 133.59,106.857828 C130.84,105.357828 125.1,103.557828 123.79,102.197828 C119.79,101.197828 113.58,98.1978281 109.94,96.4478281 C109.360015,96.3980248 108.786868,96.2874176 108.23,96.1178281 L109,96.1178281 C108.255203,96.4101272 107.527392,96.7439852 106.82,97.1178281 C98.64,99.9978281 92.25,102.727828 84.39,106.317828 C76.39,109.467828 73.69,110.217828 68.89,112.437828 C65.73,113.587828 64.21,113.847828 62.01,114.907828 C60.65,115.367828 60.43,115.707828 59.71,115.737828 C56.16,116.907828 55.71,117.287828 53.84,117.627828 C51.6756534,118.560201 49.4585181,119.364915 47.2,120.037828 Z" id="Path" fill="#2E316A"></path>
            <polygon id="Path" fill="#00ECBB" fill-rule="nonzero" points="108.63 53.9178281 4.57 95.1578281 108.63 136.407828 212.69 95.1578281"></polygon>
            <polygon id="Path" fill="#232357" fill-rule="nonzero" opacity="0.2" points="34.37 83.3478281 108.63 112.777828 182.89 83.3478281 108.63 53.9178281"></polygon>
            <path d="M108.78,55.2078281 C107.57,53.8678281 113.78,56.8778281 116.47,57.7778281 C117.77,57.8978281 121.92,59.6878281 124.18,60.3578281 C127.86,61.8478281 132.58,63.5578281 134.41,64.6678281 C138.94,65.9278281 144.29,68.3078281 149.86,70.2878281 C152.46,71.2178281 154.69,71.8478281 157.64,72.8678281 C160.59,73.8878281 163.41,75.0378281 166.69,76.1978281 C178.93,80.5378281 198.13,87.4378281 213.16,93.9778281 L216.16,95.2778281 L213.16,96.3378281 L210.48,97.3378281 C206.85,98.8178281 205.29,99.8678281 201.67,101.337828 C171.81,112.507828 154.67,119.047828 124.48,131.417828 C117.87,133.687828 114.59,135.637828 110.17,136.567828 L108.89,137.107828 L108.64,137.207828 L108.37,137.107828 C97.25,132.917828 86.21,128.457828 76.37,124.107828 C72.04,122.837828 67.91,121.587828 63.19,119.917828 C51.66,115.837828 42.57,111.467828 28.52,106.177828 C28.94,106.337828 28,105.557828 27.33,105.447828 C24.25,104.937828 14.84,100.937828 9.18,98.7678281 L3.93,96.7678281 L0,95.2278281 L3.94,93.5778281 L34.65,80.7078281 C41.65,78.1778281 49.51,75.1478281 58,71.7078281 C74.06,66.0378281 92.73,58.4078281 108.45,53.2978281 C109.57,53.6278281 105.11,55.1178281 104.6,55.7878281 C103.39,56.7078281 111.93,53.0178281 107.17,55.2478281 C108.35,55.6678281 100.43,58.3678281 99.49,58.5378281 C95.1,60.3978281 92.32,61.2978281 89.24,62.3678281 C76.83,67.5478281 61.81,73.0378281 48.17,78.1678281 C40.55,81.0678281 37.65,82.7678281 31.5,84.7778281 C24.78,87.9278281 15,92.0878281 5,96.3578281 L5,93.9578281 L18.09,98.6878281 C32.27,104.777828 38.64,106.487828 48.73,111.347828 C65.11,116.717828 80.32,122.807828 102.99,131.827828 L109.35,134.467828 L107.82,134.467828 C128.57,126.587828 148.08,118.627828 169.58,110.387828 C174.52,108.837828 183.58,104.767828 186.58,104.437828 C192.64,101.437828 203.47,97.7178281 209.77,95.4978281 C210.583721,95.0034046 211.4251,94.5560049 212.29,94.1578281 L212.29,96.1578281 C211.18,95.7678281 210.29,95.3778281 208.47,94.8178281 C195,89.1578281 184.25,85.0378281 170,80.0378281 C156.27,74.7878281 152.26,72.8178281 143.15,69.8578281 C137.8,67.7678281 136.07,66.5878281 131.68,65.2878281 C129.51,64.3678281 128.36,64.3878281 127.87,63.7678281 C122.34,61.3478281 120.81,61.1678281 118.97,59.7678281 C115.13,58.1478281 109.07,56.0378281 108.78,55.2078281 Z" id="Path" fill="#2E316A"></path>
            <polygon id="Path" fill="#2E316A" fill-rule="nonzero" points="45.87 78.7878281 108.63 103.667828 171.38 78.7878281 108.63 53.9178281"></polygon>
            <path d="M47.2,78.7578281 C45.6,79.0278281 49.91,77.5778281 51.36,76.9678281 C51.74,76.6378281 54.36,75.6678281 55.53,75.1078281 C57.78,74.2478281 60.46,73.1078281 61.95,72.7478281 C64.15,71.5578281 67.62,70.3478281 70.77,68.9478281 C72.24,68.2878281 73.35,67.6378281 75,66.8578281 C76.65,66.0778281 78.39,65.3978281 80.27,64.5178281 C83.77,62.8778281 88.27,60.7378281 93.27,58.5978281 C98.27,56.4578281 103.44,54.3278281 108.19,52.7378281 L108.74,52.5478281 L109.13,52.7378281 L110.68,53.4578281 C112.89,54.2978281 114.07,54.3278281 116.28,55.1678281 C133.92,62.8178281 144.1,67.0878281 162.55,74.0178281 C166.34,75.8678281 168.67,76.1478281 170.89,77.8378281 L171.68,78.1278281 L173.35,78.7278281 L171.68,79.4478281 C165.1,82.2878281 158.39,84.8478281 152.23,86.8678281 C149.86,88.2478281 147.59,89.5478281 144.85,90.8678281 C138.16,94.0078281 132.26,95.5778281 123.94,99.1578281 C124.19,99.0478281 123.4,98.9578281 123.08,99.2378281 C121.61,100.537828 115.79,102.567828 112.42,103.977828 L109.29,105.287828 L108.7,105.527828 L108.03,105.287828 C103.68,103.707828 95.91,100.897828 88.61,98.1678281 C84.44,96.1678281 79.68,94.1678281 74.42,91.9878281 C69.78,89.7478281 64.6,87.4878281 59.53,85.2378281 C54.46,82.9878281 49.53,80.7978281 45.32,78.8678281 C45.42,78.5978281 47.83,79.6778281 48.61,79.7778281 C49.78,80.0478281 44.32,78.0578281 47.54,79.1678281 C47.71,78.8878281 52.06,80.6978281 52.42,80.9378281 C55.18,81.9378281 56.65,82.5878281 58.36,83.3278281 C66.1,86.1278281 74.62,89.7078281 82.6,93.1178281 C87.1,94.9978281 89.26,95.3278281 92.6,97.0678281 C96.99,98.3278281 103,100.397828 109.1,102.497828 L108.15,102.497828 L115.8,99.0178281 C124.6,96.0178281 128,93.8378281 134.55,92.0978281 C143.82,87.2978281 153.02,83.7178281 166.71,78.3178281 L170.62,76.8978281 L170.62,80.7578281 C158.29,75.5378281 146.4,71.0478281 133.62,65.6878281 C130.87,64.1878281 125.13,62.3978281 123.82,61.0278281 C119.82,60.0278281 113.61,57.0278281 109.97,55.2878281 C109.390672,55.2333655 108.817992,55.1228482 108.26,54.9578281 L109,54.9578281 C108.256599,55.2534011 107.528963,55.5871792 106.82,55.9578281 C98.64,58.8478281 92.25,61.5678281 84.39,65.1678281 C76.39,68.3178281 73.69,69.0678281 68.89,71.2778281 C65.73,72.4278281 64.21,72.6978281 62.01,73.7578281 C60.65,74.2178281 60.43,74.5478281 59.71,74.5778281 C56.16,75.7578281 55.71,76.1378281 53.84,76.4778281 C51.6728168,77.366117 49.455728,78.1274065 47.2,78.7578281 L47.2,78.7578281 Z" id="Path" fill="#2E316A"></path>
            <polygon id="Path" fill="#C7C7D4" fill-rule="nonzero" points="108.63 12.6678281 4.57 53.9178281 108.63 95.1578281 212.69 53.9178281"></polygon>
            <path d="M108.78,13.9678281 C107.57,12.6178281 113.78,15.6378281 116.47,16.5378281 C117.77,16.6578281 121.92,18.4378281 124.18,19.1178281 C127.86,20.6078281 132.58,22.3078281 134.41,23.4178281 C138.94,24.6878281 144.29,27.0578281 149.86,29.0478281 C152.46,29.9778281 154.69,30.5978281 157.64,31.6278281 C160.59,32.6578281 163.41,33.7878281 166.69,34.9578281 C178.93,39.2878281 198.13,46.1978281 213.16,52.7278281 L216.16,54.0378281 L213.16,55.0978281 L210.48,56.0378281 C206.85,57.5278281 205.29,58.5778281 201.67,60.0378281 C171.81,71.2178281 154.67,77.7578281 124.48,90.1178281 C117.87,92.3978281 114.59,94.3378281 110.17,95.2678281 L108.89,95.8078281 L108.64,95.9078281 L108.37,95.8078281 C97.25,91.6278281 86.21,87.1578281 76.37,82.8078281 C72.04,81.5378281 67.91,80.2878281 63.19,78.6178281 C51.66,74.5278281 42.57,70.1578281 28.52,64.8778281 C28.94,65.0278281 28,64.2578281 27.33,64.1478281 C24.25,63.6378281 14.84,59.6278281 9.18,57.4678281 L3.93,55.4678281 L0,53.9778281 L3.94,52.3278281 L34.65,39.4578281 C41.65,36.9278281 49.51,33.9078281 58,30.4578281 C74.06,24.7978281 92.73,17.1578281 108.45,12.0378281 C109.57,12.3578281 105.11,13.8578281 104.6,14.5278281 C103.39,15.4478281 111.93,11.7578281 107.17,13.9878281 C108.35,14.3978281 100.43,17.1078281 99.49,17.2778281 C95.1,19.1478281 92.32,20.0378281 89.24,21.1278281 C76.83,26.3078281 61.81,31.7878281 48.17,36.9278281 C40.55,39.8278281 37.65,41.5278281 31.5,43.5378281 C24.78,46.6778281 15,50.8478281 5,55.1178281 L5,52.7078281 L18.09,57.4478281 C32.27,63.5378281 38.64,65.2478281 48.73,70.1078281 C65.15,75.4678281 80.36,81.5678281 103,90.5778281 L109.36,93.2278281 L107.83,93.2278281 C128.58,85.3478281 148.09,77.3878281 169.59,69.1378281 C174.53,67.5978281 183.59,63.5178281 186.59,63.1978281 C192.65,60.1978281 203.48,56.4778281 209.78,54.2578281 C210.593721,53.7634046 211.4351,53.3160049 212.3,52.9178281 L212.3,54.9178281 C211.19,54.5278281 210.3,54.1278281 208.48,53.5678281 C195,47.9078281 184.25,43.7978281 170,38.8278281 C156.27,33.5678281 152.26,31.5978281 143.15,28.6478281 C137.8,26.5478281 136.07,25.3778281 131.68,24.0778281 C129.51,23.1578281 128.36,23.1678281 127.87,22.5578281 C122.34,20.1278281 120.81,19.9478281 118.97,18.5578281 C115.13,16.9078281 109.07,14.8278281 108.78,13.9678281 Z" id="Path" fill="#2E316A"></path>
            <path d="M192.06,51.0978281 C192.27,51.9378281 192.06,51.4378281 192.06,51.5778281 C192.07927,51.7372479 192.07927,51.8984083 192.06,52.0578281 C192.06,52.0578281 192.06,52.2078281 191.91,51.8478281 C191.99,52.3578281 191.91,52.1278281 191.91,52.3478281 C191.91,52.5678281 191.91,52.6978281 191.91,52.8278281 C191.91,52.9578281 191.91,52.9478281 191.91,53.0878281 C191.91,53.6078281 191.91,54.3178281 191.59,53.6478281 C191.59,53.6478281 191.59,54.0878281 191.59,54.1378281 C191.19,53.5978281 190.99,53.4178281 190.8,53.8278281 C190.67,53.5278281 190.8,54.1178281 190.57,53.3878281 C190.52,53.6478281 190.4,53.5978281 190.22,53.2178281 C190.22,53.6278281 190.32,53.9878281 190.32,54.2178281 C190.32,54.6878281 190.07,54.0078281 190.01,54.2878281 C190.01,54.2878281 189.92,53.9178281 189.94,54.0578281 C190.07,54.7078281 189.94,54.4778281 189.89,54.5678281 C189.815019,54.819516 189.761494,55.0771037 189.73,55.3378281 C189.62,55.1278281 189.53,55.0778281 189.47,55.1478281 C189.19,54.5778281 189.09,54.8878281 188.71,53.8478281 C188.53,53.0978281 188.63,53.3578281 188.53,52.9078281 C188.43,52.4578281 188.43,52.7778281 188.4,52.4378281 C188.19,51.5778281 188.4,51.9978281 188.4,52.1878281 C188.4,52.0778281 188.48,52.2678281 188.54,52.4078281 C188.6,52.1478281 188.84,52.5778281 189.01,52.7878281 C189.18,52.9978281 189.01,52.3778281 189.16,52.7878281 C189.12346,52.2918335 189.12346,51.7938227 189.16,51.2978281 C189.38,51.6978281 189.27,50.9478281 189.54,51.7078281 C189.45,50.6578281 189.6,50.7078281 189.8,50.6578281 C190.11,51.0878281 190.24,50.7678281 190.52,50.9978281 C190.64,51.3578281 190.63,50.9078281 190.82,51.6578281 C190.76,51.1378281 190.97,51.6578281 191.08,51.8478281 C191.04935,51.6895949 191.03262,51.5289811 191.03,51.3678281 C191.22,51.6378281 191.28,51.4678281 191.27,50.8278281 C191.35,50.6078281 191.46,50.9478281 191.4,50.2978281 C191.4,50.2978281 191.56,50.7078281 191.51,50.2978281 C191.51,50.2978281 191.44,49.8878281 191.51,50.2978281 C191.61,50.4978281 191.51,50.0778281 191.7,50.7478281 C191.92,50.7178281 191.9,50.3678281 192.06,51.0978281 Z" id="Path" fill="#2F326A"></path>
            <path d="M20.15,58.7078281 C19.37,58.3278281 19.93,58.4078281 19.84,58.2778281 C19.51,58.0478281 19.69,58.0078281 19.53,57.8378281 C19.61,57.7578281 19.53,57.5578281 19.89,57.6878281 C19.5,57.3278281 19.79,57.2978281 19.68,57.0478281 C19.57,56.7978281 19.45,56.7578281 19.37,56.6178281 C19.29,56.4778281 19.37,56.4178281 19.29,56.2678281 C19.02,55.6878281 18.71,54.8178281 19.56,54.7478281 C19.56,54.6378281 19.25,54.3978281 19.27,54.2878281 C20.27,53.7978281 20.67,53.4478281 20.79,52.4778281 C21.16,52.4778281 20.69,52.0878281 21.42,52.3378281 C21.37,51.9178281 21.6,51.6478281 22.1,51.5678281 C21.8435886,51.3371847 21.6213545,51.0711772 21.44,50.7778281 C21.21,50.2578281 21.97,50.3578281 21.94,49.8578281 C21.94,49.8578281 22.28,50.0278281 22.17,49.9378281 C21.62,49.5478281 21.98,49.4278281 22,49.2378281 C22.0045088,48.8048439 21.9642956,48.3725514 21.88,47.9478281 L21.88,47.9478281 L25.54,50.8278281 L25.54,50.8278281 L25.54,50.6678281 C25.5357219,50.6246003 25.5357219,50.5810558 25.54,50.5378281 C25.5350798,50.4840243 25.5576454,50.4313713 25.6,50.3978281 C25.4583024,50.2764886 25.2764699,50.2123125 25.09,50.2178281 C24.7880953,50.2772547 24.5180323,50.4442673 24.33,50.6878281 C23.73,51.1678281 23.89,50.9178281 23.48,51.1378281 C23.07,51.3578281 23.53,51.4778281 23.14,51.4878281 C22.44,52.0578281 22.56,51.3878281 22.74,51.2778281 C22.55,51.1178281 22.74,50.8978281 22.81,50.7378281 C22.6410434,50.472437 22.6410434,50.1332191 22.81,49.8678281 C22.9813627,49.6086336 23.2107604,49.3929313 23.48,49.2378281 C23.66,49.1178281 23.53,48.8578281 23.68,48.7778281 L27.32,46.5378281 L24.32,49.2978281 C24.2584636,49.3191638 24.1915364,49.3191638 24.13,49.2978281 C24.4528737,49.8387972 24.692237,50.4254057 24.84,51.0378281 C24.25,51.2078281 24.84,51.7278281 23.98,51.6278281 C24.242471,51.8650135 24.3987525,52.1976282 24.4137927,52.5510709 C24.4288328,52.9045137 24.3013727,53.2492024 24.06,53.5078281 C23.31,53.8778281 23.25,54.5778281 22.66,55.0678281 C22.26,55.0178281 22.52,55.4678281 21.79,55.1678281 C22.17,55.5878281 21.57,55.6278281 21.25,55.6678281 C21.68,55.9978281 21.39,55.8578281 21.58,56.0678281 C21.12,56.2778281 21.1,56.6278281 21.45,57.3078281 C21.45,57.7578281 21.06,57.6978281 21.45,58.2478281 C21.45,58.4078281 20.97,58.2478281 21.29,58.5578281 C21.21,58.5578281 21.6,58.8378281 21.23,58.6578281 C20.97,58.6578281 21.31,58.9378281 20.68,58.6578281 C20.6,58.7278281 20.81,59.0378281 20.15,58.7078281 Z" id="Path" fill="#2F326A"></path>
            <path d="M111.71,22.8378281 C111.43,23.6878281 110.85,22.7078281 110.37,22.6378281 C110.01,22.8878281 109.43,22.4778281 108.99,22.5878281 C108.39,22.3678281 107.63,22.5078281 107.22,22.2378281 C106.87,22.5678281 106.53,22.7878281 106.22,23.0678281 C105.852907,23.3326256 105.604988,23.7314517 105.53,24.1778281 C105.511405,24.4213111 105.582544,24.6631834 105.73,24.8578281 L105.47,24.6378281 C105.579162,24.5585603 105.679711,24.4680656 105.77,24.3678281 C106.019647,24.1479342 106.173873,23.8394821 106.2,23.5078281 C106.206337,23.2888438 106.147142,23.0729551 106.03,22.8878281 C105.91,22.7178281 105.78,22.6978281 105.7,22.7278281 L106.93,22.7878281 C105.521206,24.0218049 103.826638,24.8845562 102,25.2978281 C101.49,25.5778281 101.42,26.0678281 100.91,26.2978281 C96.9791928,27.3324154 93.1343735,28.6697439 89.41,30.2978281 C88.34,30.2978281 88.02,31.0878281 87.16,30.5778281 C85.6025934,31.3811616 83.9049788,31.8768651 82.16,32.0378281 C81.7177182,32.6402771 81.1807634,33.1671007 80.57,33.5978281 C79.04,34.5978281 77.43,34.4078281 75.47,35.3778281 C75.53,35.3778281 75.24,35.0478281 75.2,35.2178281 C75.01,35.9978281 73.54,36.2178281 72.75,36.6278281 C71.63,37.1778281 69.62,38.2578281 67.87,39.3578281 C66.7087789,39.5969817 65.589775,40.0081819 64.55,40.5778281 C63.2878936,40.8729953 62.0559344,41.2847642 60.87,41.8078281 C59.641019,42.3726291 58.3379813,42.7598367 57,42.9578281 C56.45,42.3878281 57.2,42.2778281 57,41.8378281 C56.8,41.3978281 55.92,42.2878281 56.41,41.6278281 C55.79,40.9678281 57.12,40.7178281 57.35,40.8178281 C57.8010312,40.4916182 58.3274549,40.2851775 58.88,40.2178281 C60.7542475,39.1265846 62.774606,38.3083394 64.88,37.7878281 C66.01,37.3978281 66.26,36.7878281 67.29,36.7878281 C68.00792,36.0941366 68.8070475,35.4897544 69.67,34.9878281 C70.67,34.3878281 71.67,33.7778281 72.6,33.1578281 C74.87,32.7778281 75.52,31.7678281 77.32,31.9778281 C79.32,30.1678281 81.65,29.4578281 85,28.3378281 C88.54,27.6278281 91.58,26.2578281 95.07,25.1578281 C95.9,25.2478281 97.07,24.2878281 97.73,24.8378281 C98.41,23.9678281 100.12,23.7878281 101.1,23.5878281 C101.29,22.9078281 101.49,23.1678281 101.79,22.7278281 C103.202524,22.3012206 104.512756,21.5899514 105.64,20.6378281 L106.18,20.2078281 L107.04,20.7078281 C107.495739,20.9686341 107.875043,21.3444896 108.14,21.7978281 C108.391559,22.2550975 108.54803,22.7585243 108.6,23.2778281 C108.586275,24.1881618 108.22909,25.059693 107.6,25.7178281 C107.045973,26.302614 106.293425,26.6592721 105.49,26.7178281 L103.84,26.8278281 L103.62,25.1578281 C103.493778,23.954287 103.825852,22.7473916 104.55,21.7778281 C104.987836,21.3842152 105.523004,21.1149049 106.1,20.9978281 C106.605479,20.8867198 107.100596,20.7328322 107.58,20.5378281 C108.16,20.5378281 108.49,20.1678281 108.58,20.5878281 C109.25,20.7978281 109.58,20.8878281 109.89,20.9878281 C110.161603,21.0672383 110.340803,21.3256197 110.32,21.6078281 C111,21.9478281 112.06,22.1878281 111.71,22.8378281 Z" id="Path" fill="#2F326A"></path>
            <path d="M134.42,32.2078281 C134.05,32.9978281 134.07,32.4078281 133.9,32.4778281 C133.66,32.7978281 133.57,32.5978281 133.38,32.7378281 C133.25,32.6378281 133,32.6878281 133.11,32.3178281 C132.7,32.6878281 132.61,32.3178281 132.3,32.4378281 C132.15,32.4378281 131.96,32.6578281 131.79,32.7178281 C131.62,32.7778281 131.52,32.7178281 131.34,32.7178281 C130.62,32.9278281 129.56,33.1778281 129.28,32.2478281 C129.12,32.2478281 128.89,32.5578281 128.73,32.5278281 C128.126691,31.5762829 127.120728,30.9535439 126,30.8378281 C125.87,30.4378281 125.51,30.9478281 125.63,30.1678281 C125.103189,30.225529 124.601708,29.9279021 124.4,29.4378281 C124.158553,29.7205529 123.871198,29.9605788 123.55,30.1478281 C122.96,30.4078281 122.83,29.6078281 122.19,29.6578281 C122.19,29.6578281 122.28,29.2878281 122.19,29.4178281 C121.86,30.0078281 121.57,29.6278281 121.33,29.6278281 C120.773612,29.6482114 120.220752,29.7252767 119.68,29.8578281 C119.492446,29.5686032 119.183133,29.3808056 118.84,29.3478281 C118.38,28.5678281 117.56,28.6278281 117.2,27.3978281 C117.35,26.6378281 117.47,26.9578281 117.61,26.5078281 C117.75,26.0578281 117.34,26.2878281 117.61,26.0178281 C117.79,25.1478281 118.01,25.6778281 118,25.8778281 C118.21,25.8278281 118.27,26.0478281 118.36,26.2278281 C118.95,26.1378281 119.44,26.7678281 119.93,27.1678281 C120.21,27.3778281 120.48,26.9178281 120.61,27.3778281 C121.259686,26.9950182 121.964693,26.7150394 122.7,26.5478281 C123.15,27.1578281 123.7,26.5478281 123.81,27.4378281 C124.81,26.6878281 125.44,26.9778281 126.35,27.3678281 C127.11,28.1878281 128.09,28.2878281 128.92,28.9678281 C128.92,29.3978281 129.51,29.1578281 129.29,29.9178281 C129.76,29.5478281 129.97,30.2078281 130.1,30.5578281 C130.44,30.1278281 130.33,30.4278281 130.56,30.2378281 C130.96,30.7678281 131.44,30.8278281 132.28,30.5378281 C132.9,30.6378281 132.9,31.0378281 133.55,30.6478281 C133.77,30.7378281 133.63,31.1878281 134,30.8878281 C134.06,30.9778281 134.32,30.5978281 134.15,30.9678281 C134.27,31.2678281 134.52,30.9678281 134.27,31.5778281 C134.37,31.7278281 134.77,31.5478281 134.42,32.2078281 Z" id="Path" fill="#2F326A"></path>
            <path d="M98.62,75.6678281 C97.89,75.1878281 98.43,75.3478281 98.36,75.2078281 C98.06,74.9478281 98.24,74.9278281 98.1,74.7478281 C98.18,74.6778281 98.1,74.4778281 98.47,74.6578281 C98.14,74.2478281 98.47,74.2678281 98.35,74.0178281 C98.23,73.7678281 98.17,73.6978281 98.11,73.5378281 C98.05,73.3778281 98.11,73.3378281 98.11,73.1878281 C97.94,72.5778281 97.82,71.6578281 98.67,71.7678281 C98.67,71.6578281 98.44,71.3578281 98.49,71.2478281 C99.49,70.9878281 100.03,70.7878281 100.43,69.8978281 C100.79,69.9878281 100.43,69.4878281 101.06,69.8978281 C101.14,69.4978281 101.44,69.3078281 101.94,69.4078281 C101.768015,69.0955653 101.646514,68.7580604 101.58,68.4078281 C101.58,67.8378281 102.22,68.1978281 102.37,67.7278281 C102.37,67.7278281 102.63,68.0078281 102.55,67.8878281 C102.19,67.3278281 102.55,67.3378281 102.67,67.1778281 C102.840718,66.7721205 102.981103,66.3543073 103.09,65.9278281 C103.351286,65.9968127 103.628793,65.9069161 103.8,65.6978281 C104.56,65.9178281 104.87,65.3678281 105.86,66.0278281 C106.31,66.6478281 106.06,66.4878281 106.3,66.8878281 C106.54,67.2878281 106.55,66.8878281 106.63,67.2478281 C107.14,67.9678281 106.71,67.7178281 106.63,67.5678281 C106.63,67.7178281 106.41,67.5678281 106.26,67.5678281 C106.1,67.9678281 105.49,67.8178281 105.03,67.8578281 C104.79,67.8578281 105.03,68.3578281 104.65,68.1378281 C104.714753,68.7427669 104.714753,69.3528893 104.65,69.9578281 C104.06,69.8678281 104.43,70.5578281 103.65,70.1378281 C104,71.2178281 103.65,71.4378281 103.2,71.8378281 C102.41,71.9178281 102.2,72.5378281 101.56,72.8378281 C101.19,72.6678281 101.34,73.1578281 100.71,72.6878281 C100.99,73.1678281 100.42,73.0478281 100.1,73.0078281 C100.45,73.4178281 100.2,73.2178281 100.35,73.4578281 C99.87,73.5478281 99.78,73.8778281 100.04,74.5878281 C99.95,74.9878281 99.61,74.8678281 99.96,75.4578281 C99.9,75.5878281 99.5,75.3478281 99.78,75.7078281 C99.7,75.7078281 100.05,76.0178281 99.71,75.7878281 C99.46,75.7878281 99.77,76.0678281 99.18,75.6978281 C99.05,75.7578281 99.23,76.0878281 98.62,75.6678281 Z" id="Path" fill="#2F326A"></path>
            <path d="M113.39,71.1178281 C113.93,71.7878281 113.39,71.4978281 113.39,71.6778281 C113.58,72.0378281 113.39,72.0178281 113.39,72.2478281 C113.26,72.3078281 113.2,72.5378281 112.92,72.2478281 C113.08,72.7578281 112.77,72.6878281 112.72,72.9878281 C112.72,73.1278281 112.72,73.3678281 112.72,73.5478281 C112.72,73.7278281 112.6,73.7678281 112.57,73.9478281 C112.46,74.6578281 112.22,75.6778281 111.31,75.4478281 C111.21,75.5578281 111.39,75.9278281 111.31,76.0378281 C110.238704,76.0330543 109.228959,76.5379269 108.59,77.3978281 C108.2,77.2878281 108.43,77.8478281 107.86,77.3278281 C107.6586,77.7905412 107.144001,78.0306875 106.66,77.8878281 C106.813042,78.2522129 106.894524,78.642647 106.9,79.0378281 C106.81,79.6678281 106.09,79.2978281 105.8,79.8278281 C105.8,79.8278281 105.56,79.5278281 105.62,79.6578281 C105.92,80.2678281 105.47,80.2678281 105.33,80.4578281 C105.050525,80.9031141 104.809647,81.3714877 104.61,81.8578281 C104.283369,81.8179912 103.958044,81.9413902 103.74,82.1878281 C102.87,82.0378281 102.45,82.6878281 101.31,82.1878281 C100.83,81.5878281 101.13,81.7078281 100.88,81.3278281 C100.63,80.9478281 100.56,81.3278281 100.52,80.9878281 C99.96,80.2978281 100.52,80.4778281 100.62,80.6178281 C100.7,80.4378281 100.9,80.5378281 101.09,80.6178281 C101.34,80.1378281 102.09,80.1778281 102.67,80.0678281 C102.97,79.9878281 102.77,79.5078281 103.2,79.6978281 C103.237372,78.9876665 103.378884,78.2868491 103.62,77.6178281 C104.33,77.6178281 104.08,76.8978281 104.88,77.3078281 C104.78,76.0978281 105.29,75.7978281 106.03,75.3078281 C107.03,75.1778281 107.55,74.4578281 108.47,74.1578281 C108.84,74.3578281 108.88,73.7878281 109.47,74.3578281 C109.36,73.7878281 109.99,73.9578281 110.34,74.0378281 C110.12,73.5278281 110.34,73.7778281 110.26,73.4978281 C110.88,73.4378281 111.13,73.0678281 111.26,72.2378281 C111.58,71.7678281 111.92,71.9578281 111.83,71.2378281 C111.98,71.0878281 112.31,71.4378281 112.2,70.9778281 C112.3,70.9778281 112.07,70.5678281 112.32,70.8878281 C112.62,70.8878281 112.43,70.5578281 112.89,71.0778281 C113,70.9278281 113,70.5178281 113.39,71.1178281 Z" id="Path" fill="#2F326A"></path>
            <path d="M42.68,82.5278281 C43.05,83.3078281 42.47,82.9678281 42.35,83.1678281 C42.35,83.5678281 42.09,83.5478281 42.02,83.8078281 C41.78,83.8678281 41.54,84.1278281 41.28,83.8078281 C41.19,84.4078281 40.77,84.3278281 40.5,84.6678281 C40.38,84.8378281 40.35,85.1178281 40.22,85.3178281 C40.09,85.5178281 39.92,85.5778281 39.78,85.7878281 C39.21,86.6078281 38.34,87.7878281 37.09,87.6778281 C36.89,87.8278281 36.98,88.2278281 36.79,88.3778281 C35.0349347,88.606316 33.3861946,89.3472055 32.05,90.5078281 C31.51,90.4478281 31.6,91.0878281 30.98,90.5678281 C30.4462114,91.1570426 29.6849783,91.4884886 28.89,91.4778281 C28.8780708,91.9140367 28.7759255,92.3430471 28.59,92.7378281 C28.13,93.5178281 27.21,93.1778281 26.48,93.8578281 C26.48,93.8578281 26.27,93.5378281 26.3,93.6878281 C26.42,94.3678281 25.71,94.4278281 25.39,94.6878281 C25.07,94.9478281 24.13,95.6878281 23.39,96.3878281 C22.8218651,96.3726163 22.2597238,96.5071164 21.76,96.7778281 C21.1362509,96.7206173 20.5077263,96.744145 19.89,96.8478281 C19.236282,96.9108865 18.5785475,96.7786436 18,96.4678281 C17.74,95.7378281 18.1,95.9278281 18,95.4678281 C17.9,95.0078281 17.49,95.4678281 17.72,95.0478281 C17.42,94.2178281 18.03,94.5078281 18.14,94.6778281 C18.39,94.4978281 18.62,94.6778281 18.85,94.6778281 C19.7214127,94.336402 20.6551595,94.1830494 21.59,94.2278281 C22.11,94.1378281 22.1,93.5878281 22.59,93.8078281 C23.1161867,92.9487961 23.7186166,92.1388625 24.39,91.3878281 C25.39,91.3878281 25.44,90.4978281 26.39,90.8778281 C26.83,89.4578281 27.73,89.0278281 29.07,88.2978281 C30.65,87.9478281 31.76,86.9678281 33.31,86.4178281 C33.78,86.5978281 34.11,85.8978281 34.65,86.4878281 C34.77,85.8278281 35.65,85.9178281 36.15,85.9478281 C36.08,85.3778281 36.26,85.6478281 36.32,85.3178281 C37.2644562,85.1645357 38.0745681,84.5597518 38.49,83.6978281 C39.28,83.0978281 39.7,83.3278281 40.03,82.4778281 C40.37,82.2978281 40.66,82.6778281 40.79,82.1578281 C40.95,82.1578281 40.86,81.6978281 41.04,82.0578281 C41.49,82.1178281 41.45,81.6878281 41.81,82.2778281 C42.13,82.3078281 42.42,81.8278281 42.68,82.5278281 Z" id="Path" fill="#2F326A"></path>
            <path d="M42.87,89.6678281 C43.26,90.4378281 42.94,90.0078281 42.96,90.1578281 C43.12,90.5278281 42.96,90.4278281 43.06,90.6378281 C42.99,90.6378281 42.99,90.8178281 42.8,90.4978281 C42.96,90.9878281 42.8,90.8078281 42.8,91.0478281 C42.8,91.2878281 42.89,91.3878281 42.9,91.5278281 C42.91,91.6678281 42.9,91.6678281 42.9,91.8078281 C42.9,92.3578281 42.98,93.1078281 42.43,92.5878281 C42.43,92.6578281 42.56,93.0178281 42.53,93.0778281 C41.83,92.7578281 41.48,92.6978281 41.24,93.2478281 C40.99,93.0178281 41.24,93.5678281 40.8,92.9378281 C40.8,93.2478281 40.57,93.2678281 40.22,93.0078281 C40.349393,93.3085243 40.4530966,93.6196353 40.53,93.9378281 C40.62,94.4078281 40.12,93.8778281 40.07,94.2178281 C40.07,94.2178281 39.86,93.8978281 39.92,94.0278281 C40.24,94.6178281 39.98,94.4778281 39.92,94.5878281 C39.8578226,94.8836068 39.8309682,95.1857196 39.84,95.4878281 C39.63,95.3578281 39.49,95.3678281 39.41,95.4878281 C38.86,95.1078281 38.78,95.4878281 37.95,94.7378281 C37.7628082,94.4775511 37.5956606,94.203429 37.45,93.9178281 C37.22,93.5378281 37.27,93.9178281 37.14,93.5478281 C36.62,92.8278281 36.99,93.1178281 37.14,93.2778281 C37.14,93.1478281 37.3,93.2778281 37.42,93.3778281 C37.42,93.0578281 37.93,93.3078281 38.25,93.3778281 C38.42,93.3778281 38.18,92.9478281 38.48,93.2278281 C38.3429805,92.7154115 38.2690995,92.1881697 38.26,91.6578281 C38.7,91.8978281 38.39,91.1978281 38.96,91.7878281 C38.64,90.7878281 38.96,90.6678281 39.25,90.4978281 C39.84,90.7178281 40.01,90.2878281 40.5,90.3378281 C40.76,90.6378281 40.68,90.1678281 41.09,90.8378281 C40.94,90.3278281 41.33,90.6878281 41.55,90.8378281 C41.34,90.3478281 41.55,90.6278281 41.42,90.3678281 C41.76,90.5378281 41.85,90.3678281 41.78,89.6378281 C41.9,89.3678281 42.12,89.6378281 41.98,89.0078281 C42.05,88.9378281 42.28,89.3478281 42.16,88.9178281 C42.16,88.9178281 42.03,88.5278281 42.16,88.9178281 C42.34,89.0678281 42.16,88.6778281 42.51,89.2878281 C42.6,89.3478281 42.55,89.0378281 42.87,89.6678281 Z" id="Path" fill="#2F326A"></path>
            <path d="M103,117.947828 C103.29,118.767828 102.85,118.337828 102.77,118.507828 C102.77,118.907828 102.58,118.827828 102.53,119.067828 C102.35,119.067828 102.16,119.287828 102,118.947828 C101.89,119.487828 101.59,119.287828 101.34,119.527828 C101.225778,119.701048 101.102264,119.867959 100.97,120.027828 C100.81,120.157828 100.66,120.137828 100.46,120.247828 C99.9614936,120.526172 99.3814275,120.621671 98.82,120.517828 C98.1283897,120.397751 97.594293,119.843423 97.5,119.147828 C97.31,118.947828 96.89,119.007828 96.73,118.737828 C96.6400461,118.209826 96.6570489,117.669135 96.78,117.147828 C96.87,116.737828 96.98,116.397828 97.07,116.087828 C97.2710709,115.493049 97.3293082,114.859291 97.24,114.237828 C97.58,113.977828 96.98,113.887828 97.72,113.697828 C97.5406941,113.481113 97.4417795,113.209098 97.44,112.927828 L98.36,113.097828 C98.1972841,113.117912 98.0327159,113.117912 97.87,113.097828 C97.9441597,113.477575 97.9441597,113.868081 97.87,114.247828 C97.63,114.927828 96.87,114.557828 96.41,115.147828 C96.41,115.147828 96.18,114.837828 96.23,114.977828 C96.46,115.617828 95.92,115.637828 95.72,115.847828 C95.3045507,116.333947 94.9236207,116.848537 94.58,117.387828 C94.1776139,117.376648 93.785478,117.515678 93.48,117.777828 C92.48,117.657828 91.86,118.377828 90.62,117.847828 C90.17,117.217828 90.5,117.337828 90.28,116.927828 C90.06,116.517828 89.9,116.987828 89.92,116.587828 C89.41,115.857828 89.98,116.037828 90.12,116.177828 C90.25,115.977828 90.48,116.077828 90.68,116.117828 C91.08,115.597828 91.96,115.607828 92.68,115.467828 C93.06,115.367828 92.92,114.847828 93.39,115.037828 C93.592319,114.249281 93.9018723,113.492222 94.31,112.787828 C95.15,112.787828 95.01,111.987828 95.86,112.397828 C95.8665076,111.675048 96.2442673,111.006413 96.86,110.627828 L98.5,109.517828 L99.76,111.167828 C100.117681,111.637466 100.366977,112.180453 100.49,112.757828 C100.475858,113.589332 100.375318,114.417114 100.19,115.227828 C100.099177,115.742502 99.9619505,116.247898 99.78,116.737828 C99.37,116.917828 99.78,117.147828 99.06,117.297828 C99.61,117.407828 99.16,117.697828 99.06,118.047828 C99.53,117.797828 99.28,117.997828 99.54,117.867828 C99.54,118.327828 100.13,118.437828 100.54,117.867828 C100.88,117.717828 101.09,118.037828 101.3,117.367828 C101.47,117.367828 101.63,117.757828 101.71,117.297828 C101.81,117.297828 101.71,116.867828 101.86,117.297828 C102.13,117.457828 102.1,117.027828 102.35,117.677828 C102.57,117.637828 102.76,117.237828 103,117.947828 Z" id="Path" fill="#2F326A"></path>
            <path d="M177.19,86.0378281 C177.9,86.5278281 177.3,86.4378281 177.33,86.6278281 C177.61,86.9278281 177.33,86.9978281 177.48,87.2178281 C177.34,87.3378281 177.33,87.6178281 176.98,87.4578281 C177.25,87.9478281 176.89,87.9978281 176.9,88.3478281 C176.9,88.5078281 177.03,88.7378281 177.05,88.9378281 C177.07,89.1378281 176.97,89.2178281 176.97,89.4278281 C176.97,90.2278281 176.97,91.4278281 175.92,91.5878281 C175.84,91.7478281 176.11,92.0578281 176.04,92.2178281 C174.854118,92.7421567 173.918298,93.7066612 173.43,94.9078281 C172.99,94.9678281 173.37,95.4578281 172.64,95.1678281 C172.525549,95.7473512 172.077445,96.2033164 171.5,96.3278281 C171.699152,96.6573033 171.837989,97.0196352 171.91,97.3978281 C171.96,98.0978281 171.12,98.0478281 170.91,98.7478281 C170.91,98.7478281 170.58,98.5578281 170.68,98.6678281 C171.14,99.1578281 170.68,99.3878281 170.57,99.6678281 C170.391047,100.266956 170.257338,100.878676 170.17,101.497828 C169.802798,101.635292 169.504579,101.911953 169.34,102.267828 C168.4,102.547828 168.13,103.437828 166.79,103.447828 C166.12,103.067828 166.47,103.037828 166.1,102.757828 C165.73,102.477828 165.78,102.967828 165.63,102.587828 C164.87,102.147828 165.46,102.077828 165.63,102.147828 C165.63,101.907828 165.9,101.907828 166.11,101.867828 C166.25,101.237828 167.05,100.867828 167.63,100.497828 C167.93,100.257828 167.63,99.8478281 168.09,99.8378281 C167.955443,99.0415861 167.931885,98.2305376 168.02,97.4278281 C168.78,97.1078281 168.34,96.4278281 169.28,96.4278281 C168.89,95.1878281 169.37,94.6178281 170.05,93.7378281 C171.1,93.1178281 171.49,92.1078281 172.41,91.3578281 C172.85,91.3578281 172.77,90.7678281 173.47,91.1378281 C173.23,90.5778281 173.95,90.4678281 174.34,90.3878281 C174,89.9578281 174.27,90.1278281 174.15,89.8478281 C174.8,89.5178281 174.99,89.0078281 174.91,88.0778281 C175.17,87.4278281 175.57,87.4878281 175.34,86.7378281 C175.48,86.5178281 175.9,86.7378281 175.69,86.2978281 C175.79,86.2478281 175.47,85.9178281 175.8,86.1478281 C176.14,86.0678281 175.85,85.7478281 176.45,86.1478281 C176.68,86.0378281 176.59,85.5878281 177.19,86.0378281 Z" id="Path" fill="#2F326A"></path>
            <path d="M185.81,91.8678281 C186.51,92.3778281 185.97,92.2078281 186.03,92.3678281 C186.31,92.6478281 186.12,92.6678281 186.25,92.8578281 C186.15,92.9378281 186.18,93.1478281 185.85,92.9678281 C186.16,93.3978281 185.85,93.3778281 185.92,93.6578281 C185.92,93.7778281 186.09,93.9878281 186.13,94.1478281 C186.17,94.3078281 186.13,94.3578281 186.13,94.5278281 C186.27,95.1678281 186.39,96.1078281 185.52,96.0478281 C185.52,96.1678281 185.75,96.4578281 185.71,96.5778281 C184.64,96.9378281 184.12,97.2278281 183.78,98.2078281 C183.4,98.2078281 183.78,98.6378281 183.12,98.2678281 C183.12,98.7078281 182.79,98.9478281 182.26,98.9578281 C182.470335,99.2370501 182.635669,99.5474736 182.75,99.8778281 C182.88,100.447828 182.13,100.227828 182.05,100.747828 C182.05,100.747828 181.74,100.527828 181.84,100.627828 C182.3,101.117828 181.91,101.197828 181.84,101.377828 C181.741241,101.824657 181.687638,102.280279 181.68,102.737828 C181.399293,102.746211 181.147521,102.912768 181.03,103.167828 C180.22,103.167828 180.03,103.817828 178.89,103.517828 C178.27,103.067828 178.57,103.127828 178.22,102.827828 C177.87,102.527828 177.96,102.917828 177.8,102.587828 C177.08,102.067828 177.59,102.147828 177.8,102.247828 C177.8,102.067828 178.02,102.127828 178.2,102.137828 C178.26,101.667828 178.93,101.587828 179.4,101.407828 C179.64,101.287828 179.3,100.887828 179.74,100.987828 C179.53997,100.373802 179.432129,99.7335004 179.42,99.0878281 C180.05,98.9978281 179.58,98.3678281 180.42,98.6078281 C179.992465,97.9717407 180.142422,97.1116907 180.76,96.6578281 C181.6,96.3778281 181.81,95.6578281 182.51,95.2478281 C182.91,95.3678281 182.75,94.8578281 183.41,95.2478281 C183.12,94.7578281 183.73,94.8078281 184.06,94.8178281 C183.71,94.4078281 183.97,94.5978281 183.82,94.3578281 C184.33,94.2078281 184.43,93.8478281 184.22,93.0878281 C184.35,92.6178281 184.71,92.7378281 184.39,92.0878281 C184.47,91.9378281 184.88,92.1878281 184.62,91.7978281 C184.71,91.7978281 184.37,91.4578281 184.7,91.6978281 C184.98,91.6978281 184.7,91.3978281 185.26,91.7778281 C185.36,91.7778281 185.22,91.4078281 185.81,91.8678281 Z" id="Path" fill="#2F326A"></path>
            <path d="M191.48,94.9478281 C192.13,95.5278281 191.7,95.2078281 191.8,95.3178281 C191.91253,95.4331551 192.01616,95.5568425 192.11,95.6878281 C192.11,95.6878281 192.11,95.8278281 191.88,95.5878281 C192.23,95.9578281 192.02,95.8178281 192.15,95.9978281 C192.28,96.1778281 192.38,96.2578281 192.46,96.3678281 C192.54,96.4778281 192.46,96.4778281 192.59,96.5878281 C192.9,97.0078281 193.29,97.5878281 192.68,97.1878281 C192.68,97.1878281 192.98,97.5178281 192.99,97.5678281 C192.38,97.3278281 192.12,97.2778281 192.22,97.6878281 C191.95,97.5178281 192.38,97.9378281 191.79,97.4478281 C191.91,97.6778281 191.79,97.6978281 191.44,97.4478281 C191.666909,97.6789164 191.880582,97.922638 192.08,98.1778281 C192.35,98.5478281 191.77,98.1178281 191.89,98.3778281 C191.89,98.3778281 191.61,98.1178281 191.71,98.2178281 C192.18,98.6878281 191.94,98.5678281 191.97,98.6478281 C192.058483,98.8907117 192.168941,99.1250161 192.3,99.3478281 C192.1,99.2278281 192.01,99.2278281 192,99.3478281 C191.46,99.0178281 191.57,99.3478281 190.68,98.6578281 C190.443379,98.4623507 190.216442,98.2554377 190,98.0378281 C189.68,97.7378281 189.85,98.0378281 189.63,97.7278281 C188.98,97.1378281 189.35,97.3978281 189.5,97.5278281 C189.44,97.4278281 189.61,97.5278281 189.73,97.6278281 C189.62,97.3878281 190.05,97.6278281 190.3,97.7078281 C190.55,97.7878281 190.06,97.3778281 190.39,97.6178281 C190.084111,97.2308204 189.800325,96.8268436 189.54,96.4078281 C189.94,96.6278281 189.42,96.0778281 190.06,96.5578281 C189.38,95.7578281 189.5,95.7078281 189.64,95.5578281 C190.12,95.7578281 190.03,95.4378281 190.36,95.4978281 C190.67,95.7278281 190.36,95.3678281 190.98,95.8878281 C190.62,95.4878281 191.05,95.7678281 191.28,95.8878281 C190.9,95.5178281 191.14,95.7278281 190.96,95.5278281 C191.26,95.6578281 191.21,95.5278281 190.81,94.9778281 C190.75,94.7778281 191.03,94.9778281 190.6,94.4978281 C190.6,94.4978281 190.96,94.7578281 190.66,94.4278281 C190.66,94.4278281 190.38,94.1378281 190.66,94.4278281 C190.84,94.5378281 190.54,94.2478281 191.06,94.7078281 C191.15,94.7078281 190.93,94.4478281 191.48,94.9478281 Z" id="Path" fill="#2F326A"></path>
            <path d="M46.91,123.037828 C47.34,123.797828 46.73,123.487828 46.63,123.697828 C46.71,124.087828 46.39,124.077828 46.34,124.337828 C46.1,124.417828 45.88,124.697828 45.61,124.407828 C45.54,124.997828 45.11,124.917828 44.85,125.267828 C44.73,125.437828 44.69,125.717828 44.57,125.917828 C44.45,126.117828 44.26,126.177828 44.11,126.387828 C43.52,127.207828 42.54,128.387828 41.28,128.177828 C41.07,128.317828 41.13,128.727828 40.92,128.857828 C39.1291655,128.948191 37.3984262,129.533181 35.92,130.547828 C35.39,130.437828 35.42,131.077828 34.85,130.497828 C34.2610489,131.03318 33.4714932,131.291514 32.68,131.207828 C32.6306894,131.640545 32.4946458,132.058879 32.28,132.437828 C31.76,133.157828 30.88,132.767828 30.13,133.437828 C30.13,133.437828 29.94,133.107828 29.96,133.257828 C30.05,133.937828 29.38,133.967828 29.07,134.187828 C28.4576598,134.679726 27.907002,135.243814 27.43,135.867828 C26.9619532,135.878741 26.51681,136.072594 26.19,136.407828 C25.683985,136.460844 25.1992714,136.639604 24.78,136.927828 C24.294459,137.237448 23.749404,137.441843 23.18,137.527828 C22.49,137.187828 22.88,137.087828 22.52,136.797828 C22.16,136.507828 22.1,137.167828 22.01,136.697828 C21.21,136.307828 21.94,136.007828 22.14,136.077828 C22.26,135.747828 22.55,135.697828 22.81,135.627828 C23.24,134.757828 24.42,134.377828 25.32,134.077828 C25.82,133.877828 25.73,133.337828 26.32,133.467828 C26.7832447,132.524529 27.4018771,131.66588 28.15,130.927828 C29.24,130.927828 29.3,130.057828 30.27,130.497828 C30.83,129.097828 31.8,128.737828 33.22,128.137828 C34.84,127.937828 36.05,127.137828 37.63,126.697828 C38.09,126.907828 38.48,126.247828 38.96,126.887828 C39.13,126.237828 39.96,126.407828 40.49,126.467828 C40.49,125.907828 40.62,126.187828 40.69,125.857828 C41.6316664,125.774047 42.46161,125.205593 42.88,124.357828 C43.66,123.797828 44.06,124.007828 44.36,123.167828 C44.68,122.997828 44.98,123.367828 45.08,122.847828 C45.23,122.847828 45.08,122.387828 45.31,122.747828 C45.75,122.747828 45.67,122.357828 46.07,122.937828 C46.35,122.857828 46.59,122.377828 46.91,123.037828 Z" id="Path" fill="#2F326A"></path>
            <path d="M40.36,135.267828 C41.15,135.627828 40.61,135.517828 40.72,135.627828 C41.06,135.827828 40.9,135.847828 41.07,135.997828 C41.01,135.997828 41.07,136.217828 40.76,136.077828 C41.16,136.407828 40.89,136.397828 41.02,136.607828 C41.15,136.817828 41.26,136.867828 41.35,136.997828 C41.44,137.127828 41.35,137.167828 41.44,137.297828 C41.74,137.807828 41.97,138.687828 41.14,138.567828 C41.14,138.667828 41.38,138.957828 41.35,139.067828 C40.553117,139.096062 39.8051222,139.459167 39.29,140.067828 C39,139.857828 39.12,140.447828 38.74,139.787828 C38.6441727,139.957214 38.4646137,140.061933 38.27,140.061933 C38.0753863,140.061933 37.8958273,139.957214 37.8,139.787828 C37.7574384,140.14572 37.630638,140.488424 37.43,140.787828 C36.99,141.207828 36.78,140.457828 36.31,140.587828 C36.31,140.587828 36.4,140.217828 36.31,140.347828 C36.02,140.947828 35.78,140.597828 35.58,140.567828 C35.0502661,140.559319 34.5233483,140.488839 34.01,140.357828 C33.9446316,139.984828 33.7747108,139.638051 33.52,139.357828 C33.58,138.877828 33.52,138.497828 33.52,138.087828 C33.569084,137.617361 33.8966249,137.222733 34.35,137.087828 C35.12,137.147828 34.84,137.227828 35.35,137.267828 C35.86,137.307828 35.5,137.167828 35.83,137.267828 C36.71,137.347828 36.27,137.337828 36.07,137.357828 C36.17,137.357828 35.98,137.427828 35.84,137.487828 C36.09,137.547828 35.69,137.857828 35.68,138.247828 C35.68,138.447828 36.09,138.117828 35.91,138.487828 C36.3696192,138.258532 36.783161,137.946681 37.13,137.567828 C37.13,137.797828 37.2,137.737828 37.25,137.717828 C37.3,137.697828 37.33,137.717828 37.33,138.117828 C37.67,137.117828 37.61,137.117828 37.66,137.167828 C37.6889921,137.242233 37.7464518,137.302009 37.8196535,137.333917 C37.8928551,137.365826 37.9757574,137.367233 38.05,137.337828 C38.1844333,137.261928 38.3356467,137.220688 38.49,137.217828 C38.8,137.447828 38.59,137.037828 39.18,137.557828 C38.87,137.117828 39.36,137.327828 39.64,137.397828 C39.27,137.007828 39.52,137.207828 39.34,136.997828 C39.74,136.997828 39.75,136.707828 39.34,136.147828 C39.34,135.837828 39.65,135.937828 39.17,135.477828 C39.17,135.377828 39.62,135.567828 39.27,135.287828 C39.34,135.287828 38.94,135.047828 39.27,135.227828 C39.51,135.227828 39.14,135.007828 39.78,135.287828 C39.94,135.207828 39.69,134.947828 40.36,135.267828 Z" id="Path" fill="#2F326A"></path>
            <path d="M49.71,136.227828 C48.92,136.577828 49.38,136.317828 49.24,136.347828 C49.0870852,136.401301 48.9298327,136.44145 48.77,136.467828 C48.77,136.467828 48.62,136.467828 48.95,136.277828 C48.47,136.467828 48.66,136.277828 48.45,136.367828 L48,136.537828 C47.87,136.537828 47.88,136.537828 47.75,136.587828 C47.25,136.737828 46.62,137.027828 47.17,136.587828 C47.12,136.587828 46.78,136.807828 46.74,136.817828 C47.15,136.327828 47.21,136.057828 46.82,136.157828 C47.02,135.897828 46.57,136.297828 47.1,135.747828 C46.86,135.857828 46.87,135.747828 47.1,135.397828 C46.8,135.687828 46.54,135.937828 46.4,136.057828 C46.06,136.367828 46.46,135.777828 46.23,135.927828 C46.23,135.927828 46.46,135.617828 46.37,135.737828 C45.96,136.257828 46.07,136.017828 46,136.057828 C45.800755,136.206221 45.6195268,136.377381 45.46,136.567828 C45.55,136.357828 45.55,136.277828 45.46,136.307828 C45.68,135.717828 45.46,135.937828 45.82,134.877828 C46.11,134.167828 46.04,134.437828 46.23,134.007828 C46.42,133.577828 46.23,133.847828 46.39,133.557828 C46.73,132.747828 46.64,133.187828 46.56,133.377828 C46.65,133.297828 46.56,133.497828 46.56,133.637828 C46.78,133.477828 46.71,133.967828 46.69,134.247828 C46.67,134.527828 46.98,133.947828 46.82,134.317828 C47.1499838,133.927691 47.537821,133.590441 47.97,133.317828 C47.84,133.767828 48.36,133.207828 47.97,133.907828 C48.77,133.207828 48.91,133.397828 49.09,133.617828 C48.95,134.157828 49.33,134.147828 49.28,134.557828 C49.01,134.837828 49.44,134.647828 48.83,135.137828 C49.29,134.887828 48.95,135.277828 48.77,135.477828 C49.23,135.197828 48.96,135.387828 49.2,135.257828 C49.03,135.557828 49.2,135.557828 49.84,135.387828 C50.09,135.437828 49.84,135.647828 50.42,135.457828 C50.48,135.507828 50.07,135.727828 50.49,135.587828 C50.49,135.587828 50.88,135.457828 50.49,135.587828 C50.32,135.737828 50.72,135.587828 50.09,135.887828 C50.05,136.037828 50.4,135.947828 49.71,136.227828 Z" id="Path" fill="#2F326A"></path>
            <path d="M109.78,155.357828 C110.18,156.127828 109.91,155.667828 109.97,155.797828 C110.14,156.157828 110.06,156.047828 110.15,156.247828 C110.15,156.247828 110.15,156.377828 110,156.047828 C110.07348,156.193394 110.127285,156.348082 110.16,156.507828 C110.16,156.607828 110.29,156.827828 110.34,156.957828 C110.39,157.087828 110.34,157.067828 110.41,157.187828 C110.59,157.667828 110.81,158.327828 110.41,157.717828 C110.41,157.717828 110.59,158.117828 110.59,158.157828 C110.2,157.667828 110.03,157.507828 110.07,157.887828 C109.9,157.607828 110.16,158.157828 109.8,157.477828 C109.86,157.717828 109.8,157.677828 109.56,157.337828 C109.73,157.707828 109.88,158.047828 109.94,158.217828 C110.1,158.647828 109.74,158.027828 109.8,158.287828 C109.8,158.287828 109.63,157.947828 109.69,158.077828 C109.98,158.677828 109.82,158.457828 109.83,158.537828 C109.84,158.617828 109.93,158.947828 110.01,159.257828 C109.88,159.067828 109.82,159.017828 109.81,159.087828 C109.50322,158.710759 109.222566,158.313166 108.97,157.897828 C108.62,157.207828 108.76,157.447828 108.56,157.027828 C108.36,156.607828 108.47,156.907828 108.34,156.607828 C107.94,155.817828 108.17,156.197828 108.26,156.377828 C108.26,156.277828 108.33,156.447828 108.41,156.567828 C108.35,156.327828 108.62,156.717828 108.78,156.917828 C108.94,157.117828 108.65,156.537828 108.85,156.917828 C108.6,156.317828 108.54,156.047828 108.36,155.547828 C108.62,155.917828 108.3,155.217828 108.7,155.917828 C108.3,154.917828 108.38,154.967828 108.49,154.917828 C108.79,155.307828 108.75,155.007828 108.97,155.217828 C109.19,155.427828 108.97,155.127828 109.36,155.827828 C109.15,155.347828 109.41,155.827828 109.56,155.997828 C109.488343,155.854897 109.424907,155.707992 109.37,155.557828 C109.56,155.807828 109.53,155.647828 109.31,155.047828 C109.31,154.847828 109.45,155.157828 109.2,154.567828 C109.2,154.567828 109.42,154.947828 109.2,154.567828 C109.2,154.617828 109.03,154.197828 109.2,154.567828 C109.32,154.747828 109.13,154.367828 109.45,154.977828 C109.58,155.037828 109.45,154.687828 109.78,155.357828 Z" id="Path" fill="#2F326A"></path>
            <path d="M119.77,155.617828 C120.4,156.217828 119.97,155.897828 120.04,156.027828 C120.31,156.317828 120.18,156.257828 120.31,156.427828 C120.31,156.427828 120.31,156.597828 120.05,156.357828 C120.38,156.757828 120.15,156.627828 120.26,156.827828 C120.37,157.027828 120.46,157.117828 120.53,157.237828 C120.6,157.357828 120.53,157.367828 120.62,157.487828 C120.86,157.967828 121.17,158.627828 120.52,158.267828 C120.52,158.327828 120.79,158.617828 120.78,158.677828 C120.08,158.507828 119.78,158.507828 119.78,159.027828 C119.49,158.857828 119.89,159.317828 119.31,158.817828 C119.38,159.087828 119.22,159.137828 118.84,158.947828 C119.050623,159.195649 119.241223,159.459814 119.41,159.737828 C119.63,160.157828 119.04,159.737828 119.1,160.047828 C119.1,160.047828 118.82,159.777828 118.92,159.887828 C119.36,160.377828 119.1,160.287828 119.1,160.387828 C119.131444,160.67084 119.195193,160.949321 119.29,161.217828 C119.06,161.117828 118.94,161.137828 118.91,161.217828 C118.33,160.917828 118.36,161.287828 117.45,160.647828 C117.217161,160.426491 116.999973,160.189254 116.8,159.937828 C116.5,159.607828 116.63,159.937828 116.44,159.617828 C115.8,159.007828 116.19,159.247828 116.34,159.377828 C116.34,159.267828 116.47,159.377828 116.6,159.457828 C116.54,159.177828 117.01,159.377828 117.3,159.457828 C117.59,159.537828 117.12,159.087828 117.45,159.317828 C117.191235,158.877392 116.970438,158.415725 116.79,157.937828 C117.23,158.127828 116.79,157.537828 117.4,158.007828 C116.81,157.127828 116.98,157.007828 117.2,156.847828 C117.75,156.987828 117.74,156.587828 118.15,156.577828 C118.47,156.807828 118.23,156.407828 118.81,156.937828 C118.49,156.517828 118.94,156.777828 119.18,156.937828 C118.83,156.537828 119.07,156.757828 118.9,156.537828 C119.24,156.637828 119.23,156.437828 118.9,155.857828 C118.9,155.597828 119.17,155.857828 118.8,155.277828 C118.8,155.207828 119.17,155.517828 118.9,155.177828 C118.9,155.177828 118.64,154.857828 118.9,155.177828 C119.1,155.277828 118.82,154.967828 119.32,155.437828 C119.43,155.387828 119.24,155.087828 119.77,155.617828 Z" id="Path" fill="#2F326A"></path>
            <path d="M183.4,126.927828 C184.18,127.307828 183.56,127.317828 183.62,127.507828 C183.94,127.757828 183.71,127.877828 183.85,128.077828 C183.73,128.227828 183.75,128.507828 183.38,128.407828 C183.71,128.857828 183.38,128.967828 183.38,129.317828 C183.38,129.477828 183.56,129.697828 183.61,129.887828 C183.66,130.077828 183.61,130.197828 183.61,130.397828 C183.73,131.207828 183.82,132.397828 182.81,132.757828 C182.75,132.937828 183.05,133.207828 183,133.387828 C181.858535,134.090809 181.023232,135.197406 180.66,136.487828 C180.22,136.607828 180.66,137.057828 179.88,136.857828 C179.826033,137.454994 179.438694,137.970155 178.88,138.187828 C179.115067,138.483763 179.288478,138.823785 179.39,139.187828 C179.5,139.907828 178.65,139.947828 178.53,140.687828 C178.53,140.687828 178.18,140.527828 178.29,140.627828 C178.79,141.077828 178.29,141.357828 178.29,141.627828 C178.151398,142.260047 178.061137,142.901903 178.02,143.547828 C177.653319,143.72868 177.370397,144.043834 177.23,144.427828 C176.3,144.807828 176.08,145.747828 174.73,145.877828 C174.04,145.547828 174.39,145.487828 174,145.227828 C173.61,144.967828 173.69,145.477828 173.52,145.107828 C172.72,144.717828 173.31,144.587828 173.52,144.647828 C173.52,144.407828 173.78,144.387828 173.99,144.327828 C174.09,143.667828 174.87,143.247828 175.43,142.777828 C175.72,142.507828 175.35,142.117828 175.85,142.057828 C175.652109,141.25694 175.56795,140.43218 175.6,139.607828 C176.33,139.207828 175.83,138.607828 176.78,138.517828 C176.27,137.297828 176.71,136.667828 177.3,135.697828 C178.3,134.937828 178.58,133.867828 179.42,132.987828 C179.87,132.987828 179.71,132.347828 180.42,132.617828 C180.12,132.087828 180.82,131.877828 181.2,131.737828 C180.82,131.337828 181.1,131.477828 180.95,131.217828 C181.56,130.777828 181.69,130.217828 181.49,129.307828 C181.67,128.617828 182.08,128.607828 181.75,127.897828 C181.86,127.647828 182.31,127.807828 182.04,127.397828 C182.14,127.327828 181.77,127.047828 182.14,127.227828 C182.46,127.087828 182.14,126.817828 182.78,127.077828 C182.89,127.037828 182.75,126.567828 183.4,126.927828 Z" id="Path" fill="#2F326A"></path>
            <path d="M51.54,17.2878281 C51.12,17.7878281 51.27,17.3878281 51.15,17.4178281 C50.92,17.6178281 50.92,17.4678281 50.76,17.5578281 C50.76,17.4778281 50.54,17.4778281 50.69,17.2478281 C50.35,17.4478281 50.38,17.2478281 50.16,17.2478281 C49.94,17.2478281 49.9,17.3578281 49.78,17.3778281 C49.66,17.3978281 49.61,17.3778281 49.49,17.3778281 C48.99,17.4378281 48.26,17.4678281 48.33,16.8078281 C48.25,16.8078281 48.01,16.9578281 47.92,16.9178281 C47.68,16.0678281 47.48,15.6578281 46.73,15.3278281 C46.78,15.0378281 46.41,15.3278281 46.73,14.8178281 C46.56853,14.7961147 46.423226,14.7085981 46.3285287,14.5760218 C46.2338314,14.4434456 46.1981711,14.2776122 46.23,14.1178281 C46.0011447,14.2523911 45.7557508,14.3565995 45.5,14.4278281 C45.06,14.4778281 45.25,13.9278281 44.86,13.8278281 C44.86,13.8278281 45.04,13.6078281 44.95,13.6778281 C44.56,13.9878281 44.52,13.6778281 44.38,13.6778281 C44.0534455,13.5765074 43.7189263,13.5029132 43.38,13.4578281 C43.3775417,13.2388053 43.2596992,13.0373326 43.07,12.9278281 C43.07,12.3178281 42.61,12.1578281 42.87,11.2778281 C43.24,10.8378281 43.19,11.0578281 43.43,10.8178281 C43.67,10.5778281 43.37,10.6078281 43.63,10.5078281 C44.06,9.99782807 43.98,10.3778281 43.89,10.5078281 C44.03,10.5078281 43.98,10.6878281 43.96,10.8178281 C44.32,10.8978281 44.36,11.4178281 44.48,11.8178281 C44.57,12.0078281 44.89,11.8178281 44.79,12.0978281 C45.2763671,11.9963627 45.773977,11.9593782 46.27,11.9878281 C46.27,12.4778281 46.81,12.1678281 46.6,12.7878281 C47.0678172,12.5341865 47.6488831,12.6379482 48,13.0378281 C48.18,13.6978281 48.72,13.9078281 49,14.4778281 C48.89,14.7678281 49.29,14.6778281 48.94,15.1578281 C49.33,14.9778281 49.27,15.4378281 49.25,15.6878281 C49.58,15.4478281 49.42,15.6278281 49.62,15.5278281 C49.71,15.9378281 49.99,16.0378281 50.62,15.9278281 C50.97,16.0578281 50.87,16.3278281 51.36,16.1278281 C51.48,16.1978281 51.27,16.4878281 51.58,16.3278281 C51.58,16.3878281 51.85,16.1578281 51.65,16.3878281 C51.65,16.5978281 51.89,16.3878281 51.57,16.8078281 C51.62,16.9578281 51.91,16.8778281 51.54,17.2878281 Z" id="Path" fill="#CCCFDB"></path>
            <path d="M64.34,12.1678281 C63.73,12.3878281 64.05,12.0878281 63.93,12.0478281 C63.63,12.0978281 63.69,11.9478281 63.52,11.9278281 C63.35,11.9078281 63.35,11.7078281 63.6,11.5778281 C63.19,11.5778281 63.33,11.3478281 63.12,11.2278281 C62.91,11.1078281 62.84,11.1578281 62.71,11.0978281 C62.58,11.0378281 62.59,10.9578281 62.47,10.8878281 C61.99,10.6178281 61.33,10.1378281 61.73,9.53782807 C61.67,9.43782807 61.37,9.46782807 61.31,9.36782807 C61.5892946,8.57727159 61.5089202,7.70411373 61.09,6.97782807 C61.28,6.72782807 60.82,6.72782807 61.35,6.47782807 C61.108141,6.19454103 61.0876053,5.78382779 61.3,5.47782807 C61.0278614,5.44454482 60.7637765,5.36328793 60.52,5.23782807 C60.11,4.96782807 60.58,4.57782807 60.31,4.23782807 C60.31,4.23782807 60.58,4.15782807 60.47,4.15782807 C59.97,4.15782807 60.1,3.84782807 60.02,3.68782807 C59.8012244,3.33473136 59.55372,3.00026594 59.28,2.68782807 C59.4081666,2.46208479 59.4301245,2.19127063 59.34,1.94782807 C59.72,1.38782807 59.42,0.857828066 60.16,0.257828066 C60.72,0.137828066 60.54,0.257828066 60.89,0.257828066 C61.24,0.257828066 61,-0.0321719339 61.23,0.0378280661 C61.88,-0.102171934 61.59,0.187828066 61.45,0.237828066 C61.54,0.357828066 61.45,0.457828066 61.32,0.567828066 C61.55,0.907828066 61.32,1.41782807 61.17,1.85782807 C61.12,2.09782807 61.52,2.11782807 61.25,2.34782807 C61.78,2.55782807 62.07,2.99782807 62.53,3.34782807 C62.29,3.83782807 62.89,3.90782807 62.36,4.34782807 C63.23,4.65782807 63.28,5.10782807 63.36,5.77782807 C63.16,6.52782807 63.52,7.09782807 63.48,7.83782807 C63.24,8.04782807 63.63,8.23782807 63.08,8.45782807 C63.51,8.53782807 63.22,8.94782807 63.08,9.17782807 C63.49,9.17782807 63.26,9.23782807 63.48,9.26782807 C63.36,9.72782807 63.55,10.0078281 64.13,10.2678281 C64.37,10.6278281 64.13,10.8178281 64.7,10.9478281 C64.76,11.0978281 64.44,11.2478281 64.79,11.2778281 C64.79,11.3478281 65.11,11.2778281 64.79,11.3878281 C64.69,11.5878281 65,11.5478281 64.52,11.7478281 C64.57,11.8978281 64.87,12.0378281 64.34,12.1678281 Z" id="Path" fill="#CCCFDB"></path>
            <path d="M77.76,5.93782807 C78.29,6.31782807 77.9,6.16782807 77.95,6.27782807 C78.17,6.47782807 78.04,6.47782807 78.14,6.61782807 C78.08,6.61782807 78.14,6.80782807 77.88,6.61782807 C78.13,6.91782807 77.88,6.88782807 77.99,7.06782807 C78.1,7.24782807 78.14,7.29782807 78.19,7.40782807 C78.24,7.51782807 78.19,7.54782807 78.19,7.64782807 C78.34,8.07782807 78.53,8.64782807 77.92,8.64782807 C77.92,8.71782807 78.13,8.92782807 78.11,8.99782807 C77.41,9.18782807 77.11,9.35782807 76.97,9.99782807 C76.71,9.99782807 77.04,10.2778281 76.52,9.99782807 C76.52,10.2778281 76.38,10.4278281 76.01,10.4278281 C76.1915384,10.6070327 76.3494794,10.8086595 76.48,11.0278281 C76.64,11.3978281 76.09,11.2478281 76.11,11.5778281 C76.11,11.5778281 75.86,11.4378281 75.95,11.5078281 C76.34,11.8178281 76.08,11.8678281 76.06,11.9878281 C76.0635101,12.2766512 76.0936375,12.564536 76.15,12.8478281 C75.9758948,12.8485143 75.8222306,12.9617406 75.77,13.1278281 C75.21,13.1278281 75.21,13.5478281 74.35,13.3778281 C73.84,13.0978281 74.06,13.1278281 73.77,12.9378281 C73.48,12.7478281 73.6,13.0078281 73.44,12.7978281 C72.86,12.4678281 73.23,12.5078281 73.36,12.5778281 C73.36,12.4578281 73.5,12.4878281 73.62,12.4978281 C73.62,12.1978281 74.05,12.1278281 74.35,12.0078281 C74.65,11.8878281 74.2,11.6678281 74.52,11.7278281 C74.2979536,11.3437254 74.132896,10.9293971 74.03,10.4978281 C74.46,10.4378281 74.03,10.0278281 74.66,10.1878281 C74.18,9.48782807 74.39,9.25782807 74.66,8.89782807 C75.22,8.72782807 75.28,8.25782807 75.73,8.00782807 C76.02,8.09782807 75.85,7.74782807 76.36,8.00782807 C76.11,7.67782807 76.54,7.73782807 76.77,7.74782807 C76.48,7.46782807 76.68,7.60782807 76.55,7.43782807 C76.89,7.35782807 76.93,7.12782807 76.71,6.61782807 C76.76,6.30782807 77.02,6.40782807 76.71,5.96782807 C76.71,5.87782807 77.06,6.05782807 76.85,5.78782807 C76.91,5.78782807 76.65,5.54782807 76.85,5.72782807 C77.04,5.72782807 76.85,5.52782807 77.24,5.80782807 C77.44,5.84782807 77.31,5.59782807 77.76,5.93782807 Z" id="Path" fill="#CCCFDB"></path>
            <path d="M172.07,1.62782807 C172.29,2.25782807 171.45,1.96782807 171.13,2.11782807 C171.01,2.42782807 170.47,2.40782807 170.22,2.62782807 C169.76,2.69782807 169.22,2.91782807 168.91,2.70782807 C168.45,3.22782807 167.75,3.18782807 167.14,3.57782807 C166.85,3.74782807 166.65,3.99782807 166.34,4.20782807 C166.03,4.41782807 165.71,4.53782807 165.34,4.76782807 C163.799069,6.02510609 162.101577,7.07721529 160.29,7.89782807 C159.94,8.15782807 159.96,8.54782807 159.63,8.81782807 C158.304493,9.57111944 157.083994,10.49574 156,11.5678281 C154.884592,12.6737253 153.946852,13.9454095 153.22,15.3378281 C153.000346,15.5206273 152.845946,15.7697727 152.78,16.0478281 C152.72,16.2378281 152.67,16.3278281 152.38,16.4878281 C152.425006,16.6813062 152.538715,16.8518694 152.7,16.9678281 C152.86,17.0378281 152.84,17.0378281 152.97,16.9678281 C153.187698,16.8155587 153.380055,16.6299511 153.54,16.4178281 L154.15,15.6778281 C154.08,15.0978281 153.97,14.5878281 153.95,14.0678281 C153.931276,13.4906815 153.947974,12.9129298 154,12.3378281 C154.091146,11.6952533 153.986604,11.0401235 153.7,10.4578281 C153.7,10.4578281 153.95,10.2878281 153.82,10.2778281 C153.25,10.1778281 153.08,9.61782807 152.56,9.45782807 C151.33117,9.1844707 150.054173,9.21536581 148.84,9.54782807 C148.003613,9.45563873 147.157486,9.57602262 146.38,9.89782807 C145.445986,10.0077703 144.544245,10.3072164 143.73,10.7778281 C142.87,11.2278281 142.06,11.7778281 141.15,12.2078281 C140.62,11.9378281 141.15,11.6578281 140.92,11.3778281 C140.69,11.0978281 140.21,12.0178281 140.43,11.3778281 C139.82,11.0678281 140.8,10.4678281 141,10.5078281 C141.296637,10.1496613 141.693667,9.88845688 142.14,9.75782807 C143.529824,8.60879564 145.249755,7.93273334 147.05,7.82782807 C148,7.71782807 148.35,7.27782807 149.15,7.53782807 C149.918351,7.22903429 150.742303,7.08262952 151.57,7.10782807 C152.69184,7.03796441 153.807389,7.32122292 154.76,7.91782807 C155.34838,8.64974376 155.789803,9.48844761 156.06,10.3878281 C156.288764,11.0348699 156.288764,11.7407862 156.06,12.3878281 C156.455443,13.5484013 156.455443,14.8072549 156.06,15.9678281 C155.843584,16.6316437 155.533813,17.2612878 155.14,17.8378281 C154.813689,18.3695066 154.341681,18.7963966 153.78,19.0678281 C153.294361,19.2760701 152.755229,19.3250822 152.24,19.2078281 C151.773765,19.1005226 151.345275,18.869 151,18.5378281 C150.727216,18.2330701 150.519631,17.8757512 150.39,17.4878281 C150.263438,17.1150442 150.215762,16.7200188 150.25,16.3278281 C150.312695,15.7586981 150.496844,15.2096607 150.79,14.7178281 C151.03,14.3078281 151.24,14.0278281 151.45,13.7178281 L152.08,12.8078281 C152.958841,11.5852705 153.964425,10.4590157 155.08,9.44782807 C155.73,9.21782807 156.37,8.12782807 157.08,8.36782807 C157.43,7.52782807 158.76,6.97782807 159.52,6.69782807 C159.61,6.15782807 159.8,6.32782807 160.01,5.94782807 C161.527729,5.23552944 162.951812,4.33876007 164.25,3.27782807 C165.88,2.46782807 166.47,2.57782807 167.49,1.76782807 C168.18,1.56782807 168.49,1.84782807 168.98,1.39782807 C169.27,1.39782807 169.35,1.00782807 169.48,1.29782807 C170.24,1.29782807 170.38,0.957828066 170.71,1.43782807 C171.2,1.43782807 172,1.03782807 172.07,1.62782807 Z" id="Path" fill="#CCCFDB"></path>
            <path d="M170.28,21.2678281 C169.78,20.8378281 170.23,20.9578281 170.22,20.8178281 C170.05,20.5678281 170.22,20.5378281 170.17,20.3578281 C170.28,20.2778281 170.33,20.0678281 170.57,20.2178281 C170.42,19.8278281 170.69,19.8278281 170.73,19.5678281 C170.77,19.3078281 170.73,19.2578281 170.73,19.1078281 C170.73,18.9578281 170.83,18.8978281 170.86,18.7478281 C170.94,18.1478281 171.18,17.2378281 171.97,17.2578281 C172.06,17.1378281 171.91,16.8778281 171.97,16.7578281 C172.950929,16.5378298 173.824422,15.982614 174.44,15.1878281 C174.78,15.1878281 174.61,14.7878281 175.08,15.1878281 C175.298438,14.78449 175.732415,14.5459982 176.19,14.5778281 C176.132355,14.2940593 176.132355,14.0015968 176.19,13.7178281 C176.34,13.1878281 176.94,13.4178281 177.26,12.9578281 C177.26,12.9578281 177.44,13.1778281 177.4,13.0778281 C177.21,12.6078281 177.61,12.5678281 177.76,12.3978281 C178.060617,12.0126628 178.340995,11.6121217 178.6,11.1978281 C178.912924,11.1986482 179.215308,11.0848095 179.45,10.8778281 C180.2,10.9578281 180.7,10.4078281 181.62,10.8278281 C181.95,11.3078281 181.7,11.2178281 181.86,11.5278281 C182.02,11.8378281 182.15,11.5278281 182.12,11.7878281 C182.49,12.3378281 182.12,12.1978281 181.97,12.0878281 C181.87,12.2378281 181.71,12.1578281 181.55,12.0878281 C181.25,12.4778281 180.6,12.4678281 180.08,12.5778281 C179.79,12.6578281 179.91,13.0378281 179.55,12.9078281 C179.413923,13.4996296 179.209203,14.0735162 178.94,14.6178281 C178.32,14.6178281 178.46,15.2378281 177.81,14.9578281 C177.81,15.9578281 177.32,16.2178281 176.66,16.6978281 C175.78,16.9178281 175.3,17.5678281 174.51,17.9578281 C174.19,17.8478281 174.15,18.3178281 173.69,17.9578281 C173.78,18.4078281 173.24,18.3778281 172.93,18.3778281 C173.11,18.7478281 172.93,18.5778281 172.99,18.8078281 C172.47,18.9578281 172.25,19.3078281 172.19,20.0078281 C171.92,20.4578281 171.64,20.3678281 171.73,20.9478281 C171.61,21.0978281 171.31,20.8878281 171.43,21.2278281 C171.35,21.2278281 171.56,21.5378281 171.33,21.3278281 C171.08,21.3278281 171.26,21.6178281 170.85,21.3278281 C170.66,21.3178281 170.68,21.6578281 170.28,21.2678281 Z" id="Path" fill="#CCCFDB"></path>
            <path d="M186.41,20.5378281 C186.85,21.0178281 186.46,20.8178281 186.48,20.9478281 C186.65,21.1978281 186.48,21.1878281 186.55,21.3578281 C186.62,21.5278281 186.45,21.5778281 186.23,21.3578281 C186.38,21.7278281 186.16,21.6778281 186.15,21.8978281 C186.14,22.1178281 186.22,22.1778281 186.22,22.2978281 C186.22,22.4178281 186.16,22.4678281 186.15,22.5878281 C186.15,23.1078281 186.05,23.8478281 185.39,23.7078281 C185.33,23.7878281 185.49,24.0478281 185.44,24.1378281 C184.705455,24.1400818 184.022895,24.517187 183.63,25.1378281 C183.35,25.0678281 183.57,25.4778281 183.11,25.1378281 C183.008549,25.4736482 182.658923,25.6683768 182.32,25.5778281 C182.425033,25.8229685 182.492459,26.0825597 182.52,26.3478281 C182.52,26.7978281 181.97,26.5478281 181.81,26.9378281 C181.81,26.9378281 181.61,26.7278281 181.67,26.8278281 C181.93,27.2578281 181.61,27.2678281 181.53,27.4078281 C181.374941,27.7296691 181.247808,28.0642316 181.15,28.4078281 C180.921502,28.3860016 180.698074,28.4844613 180.56,28.6678281 C179.93,28.5778281 179.69,29.0578281 178.84,28.6678281 C178.45,28.2478281 178.67,28.3278281 178.46,28.0478281 C178.25,27.7678281 178.24,28.0478281 178.17,27.8178281 C177.72,27.3378281 178.1,27.4478281 178.17,27.5478281 C178.17,27.4178281 178.37,27.4778281 178.5,27.5478281 C178.64,27.1978281 179.17,27.2078281 179.57,27.1178281 C179.78,27.0578281 179.57,26.7078281 179.91,26.8378281 C179.880293,26.3313705 179.920675,25.8232367 180.03,25.3278281 C180.53,25.3278281 180.29,24.7878281 180.89,25.0678281 C180.71,24.1978281 181.05,23.9678281 181.53,23.5978281 C182.23,23.4778281 182.53,22.9478281 183.15,22.7078281 C183.43,22.8478281 183.4,22.4278281 183.84,22.8278281 C183.71,22.4178281 184.17,22.5278281 184.42,22.5778281 C184.23,22.2178281 184.42,22.3978281 184.32,22.1878281 C184.75,22.1278281 184.89,21.8578281 184.88,21.2478281 C185.07,20.9078281 185.32,21.0378281 185.19,20.5078281 C185.29,20.3978281 185.55,20.6378281 185.43,20.3178281 C185.5,20.3178281 185.3,20.0278281 185.51,20.2478281 C185.73,20.2478281 185.51,20.0078281 185.92,20.3678281 C186.08,20.4178281 186,20.1178281 186.41,20.5378281 Z" id="Path" fill="#CCCFDB"></path>
        </g>
    </g>
</svg>