<?xml version="1.0" encoding="UTF-8"?>
<svg width="216px" height="216px" viewBox="0 0 216 216" version="1.1" xmlns="http://www.w3.org/2000/svg" xmlns:xlink="http://www.w3.org/1999/xlink">
    <title>fork</title>
    <g id="fork" stroke="none" stroke-width="1" fill="none" fill-rule="evenodd">
        <g id="Group-11" transform="translate(45.000000, 2.000000)">
            <g id="Group-10">
                <path d="M27,8 C13.7436823,8 3,18.7436823 3,32 C3,45.2563177 13.7436823,56 27,56 C40.2563177,56 51,45.2563177 51,32 C51,18.7436823 40.2563177,8 27,8 Z" id="Path" fill="#2E316A" fill-rule="nonzero"></path>
                <path d="M26.8430058,10.1904325 C26.420345,8.93057235 28.6065213,9.75599797 29.5247153,9.66911106 C30.0348231,9.19123307 31.492274,9.52429955 32.3230209,9.46637495 C33.6055777,9.77047912 35.2816461,10.1759514 35.7043069,10.9000089 C36.5787774,10.8565655 37.4240989,11.1896319 38.2839949,11.5516607 C39.0855928,12.0295387 39.9892124,12.4639733 40.8636829,12.9708135 C41.7090044,13.4052481 42.5834749,13.6079842 43.5162434,14.2161926 C44.50731,14.7809575 45.1485884,15.6063831 46.1250804,16.4028464 C47.9614685,18.0247353 50.1184957,20.5299745 51.4593505,23.6868655 C52.8439288,26.8147941 53.3103131,30.4930065 52.6398857,33.4906049 C52.6253112,34.2001813 52.7856308,34.7359839 52.8876523,35.2717865 C52.9750994,35.8075891 53.0479719,36.3578728 52.9605249,37.0819304 C51.415627,42.8309474 48.7047684,46.7118959 45.5421001,49.9267115 C43.9389042,51.5341193 42.1753886,52.9967156 40.0766594,54.2710569 C38.0070792,55.5598793 35.6168598,56.7328526 32.7456817,57.5148348 C31.4776994,57.630684 30.5157819,57.7610143 29.6704604,57.9492693 C28.8251389,58.0651185 28.05269,58.0071939 27.2656665,57.5148348 C22.893314,58.0216751 18.3606418,56.6459657 15.1979735,54.3434626 C13.5364796,54.1262454 11.9187091,53.7352543 10.3009387,52.8084606 C8.36252906,51.6210062 6.91965273,50.071523 5.73911754,48.246898 C4.48570982,46.4512352 3.50921775,44.3804306 2.29953355,41.9186349 C2.3724061,42.0634464 2.73676881,41.4697192 2.44527864,41.3249077 C1.01697681,40.6442936 0.492294507,36.7778262 0.259102372,34.5766912 C0.084208271,32.9982457 -0.148983864,30.724705 0.127931796,28.1615412 C0.346549423,25.6128586 0.958678777,22.7600718 2.05176691,20.2113892 C3.64038833,17.8075181 5.53507443,15.2443543 7.99816635,12.8115209 C10.6653014,10.9000089 13.6676501,9.08986501 16.9469145,8.03274097 C20.2116044,6.94665463 23.7094864,6.6570316 26.6972607,7.45349492 C27.1199214,8.55406242 25.4584275,8.23547709 25.3126824,8.9160912 C24.9191706,9.58222416 27.9215194,8.98849695 26.2454509,9.567743 C26.6681117,10.8420843 23.9864021,10.2773194 23.6220394,10.1325079 C22.1354395,10.4655744 21.1880965,10.4800555 20.0804338,10.523499 C18.0691517,11.3489246 15.8684009,12.2322748 13.7259482,13.4486915 C11.5980699,14.6795894 9.57221326,16.2580349 7.93986832,18.0681788 C7.02167429,19.0818594 6.65731158,19.9941719 6.29294886,20.7906352 C5.88486263,21.5726174 5.65167049,22.3401184 4.89379605,23.1800252 C4.68975294,24.9901691 4.22336867,27.2057852 4.2816667,29.6241375 C4.31081572,32.0135274 4.64602941,34.5477289 5.47677639,36.7054204 C5.60794697,37.8639125 5.75369205,38.8775931 6.10348026,39.7174999 C6.26379985,40.1374533 6.42411944,40.5429255 6.56986452,40.9194354 C6.74475863,41.2814642 6.94880174,41.6290119 7.12369585,41.9620783 C7.44433503,42.6426924 7.82327225,43.2509008 8.15848594,43.9170337 C8.46455062,44.612129 8.79976432,45.2927431 9.10582899,46.1616122 C11.3794523,47.7979823 13.4781815,49.202654 15.9121244,50.4914764 C18.3460673,51.7513366 21.1589475,52.9098287 24.7588511,53.3008198 C28.3587546,53.9379904 32.0752543,53.4745936 35.3982422,52.0554407 C38.7066556,50.6073256 41.7235789,48.3772283 44.1866708,45.3941112 C44.9153962,44.9596766 45.4983766,43.9459961 46.0959314,43.0481647 C46.6206137,42.1068898 47.174445,41.2959454 47.8594469,41.0787281 C47.8594469,40.4994821 47.9906175,39.8912737 48.1800861,39.254103 C48.3404057,38.6024512 48.5298743,37.9218371 48.777641,37.2557042 C49.1857272,35.894476 49.6521115,34.4898043 49.8561546,33.4181991 C49.1565782,32.3755562 49.5792389,32.2307447 49.1420037,31.2315453 C49.2585997,30.0730532 49.0691311,29.001448 48.9525351,27.9298428 C48.6901939,26.901681 48.5007253,25.8735193 48.034341,24.9322445 C47.2473176,23.0062514 45.9793353,21.2395509 44.2158198,19.6611054 C42.7729435,17.9378484 41.7090044,16.938649 40.7470868,16.1132234 C39.7560202,15.3457223 38.8086772,14.7519951 37.3220773,14.447891 C36.6079264,13.9989753 36.1123931,13.6948711 35.6897324,13.3618046 C35.2524971,13.0287382 34.7861129,12.8404832 34.0136639,12.9128889 C33.3723855,12.6087848 32.8622777,13.1011439 32.8622777,12.5074167 C32.0461053,12.1453879 31.4776994,12.0729822 31.0696132,11.957133 C30.661527,11.8847272 30.4137603,11.7543968 30.1805682,11.2041131 C28.941735,10.7986409 26.9304528,11.3199623 26.8430058,10.1904325 Z" id="Path" fill="#2E316A"></path>
                <path d="M27,48 C40.2548736,48 51,37.2548736 51,24 C51,10.7451264 40.2548736,0 27,0 C13.7451264,0 3,10.7451264 3,24 C3,37.2548736 13.7451264,48 27,48 Z" id="Path" fill="#FFCD00" fill-rule="nonzero"></path>
                <path d="M26.9140571,2.01173021 C26.6071963,0.721407625 28.2437872,1.58651026 28.9305709,1.41055718 C29.3251062,0.824046921 30.4064253,1.23460411 31.0493717,1 C32.0284038,1.16129032 33.3142967,1.35190616 33.6503824,1.96774194 C35.0093374,1.63049853 36.2952302,2.4516129 37.7710846,2.87683284 C38.4870931,3.03812317 39.1738769,3.05278592 39.9775599,3.31671554 C40.8104678,3.55131965 41.4241894,4.07917889 42.2717097,4.48973607 C43.1484549,4.85630499 44.0252001,5.47214076 45.0188446,6.11730205 C45.9248146,6.83577713 46.9622963,7.61290323 47.7805918,8.60997067 C49.5486946,10.5014663 50.8345874,12.9941349 51.1414483,15.340176 C51.5652084,16.3225806 52.3250542,16.6158358 52.631915,17.686217 C53.3186987,22.1583578 52.9533882,25.6480938 52.281217,29.0058651 C51.5359836,32.3489736 50.4985018,35.7067449 48.1459023,39.5337243 C47.3714441,40.1495601 47.0499709,40.8240469 46.6408231,41.3225806 C46.2316754,41.8211144 45.7933028,42.202346 45.0042321,42.2463343 C42.9877183,44.8709677 40.0067848,46.7624633 37.0843009,47.3929619 C36.6897656,47.9501466 36.2221682,48.3753666 35.7399583,48.829912 C35.2431361,49.255132 34.717089,49.7096774 34.0741425,49.9882698 C32.5252261,50.7800587 30.9324724,50.941349 29.2958814,51 C28.4775859,50.9853372 27.6300656,50.9560117 26.7240956,50.941349 C25.832738,50.8533724 24.8829308,50.8533724 23.845449,50.8240469 C23.9623484,50.8240469 23.7139372,50.2375367 23.5093634,50.4134897 C23.0417659,50.8093842 22.0773463,50.8826979 21.0690893,50.6774194 C20.0608324,50.4428152 18.9502885,50.1495601 18.1466055,49.8709677 C16.9776119,49.5630499 15.341021,49.0351906 13.5583058,48.2434018 C11.8048155,47.4222874 9.86136374,46.3958944 8.19554794,45.1055718 C6.79275569,43.4193548 5.33151376,41.5278592 3.82643457,39.372434 C2.84740248,37.085044 1.94143248,34.6070381 1.37154813,32.0703812 C0.816276195,29.5337243 0.874725873,26.8797654 1.60534684,24.6363636 C2.7158907,24.3284457 2.37980506,25.5601173 3.06658877,25.6774194 C3.72414764,25.9706745 3.18348812,23.71261 3.72414764,24.973607 C5.01004053,24.6510264 4.4547686,26.6744868 4.17713263,26.9677419 C4.5278307,28.0674487 4.27941957,28.829912 4.27941957,29.6656891 C5.30228892,32.7595308 6.32515827,36.6158358 8.40012181,39.7536657 C9.01384342,40.5894428 9.61295261,41.0146628 10.1243873,41.4398827 C10.6796592,41.8211144 11.1472566,42.1876833 11.5710168,42.9648094 C12.2285757,43.2140762 12.9738091,43.4780059 13.7336549,43.829912 C14.5081131,44.1231672 15.341021,44.431085 16.2031537,44.7536657 C17.956644,45.2668622 19.8124213,45.7800587 21.580524,45.7653959 C22.3842071,46.1759531 23.1440529,46.3079179 23.8162242,46.4252199 C24.4883955,46.5571848 25.1021171,46.542522 25.6720014,46.542522 C26.8263825,46.601173 27.8054146,46.5131965 29.1789821,47.0410557 C31.1078214,45.9853372 32.8613117,45.2961877 34.717089,44.3431085 C36.5582538,43.4046921 38.5747677,42.3489736 40.6497312,40.5894428 C42.9584934,39.0498534 44.7412086,36.8944282 46.0124891,34.4897361 C47.298382,32.0703812 48.102065,29.4017595 48.55505,26.5131965 C48.8472984,25.941349 48.9203605,25.0615836 48.9349729,24.2404692 C48.9349729,23.4340176 49.0226475,22.6715543 49.5779194,22.2756598 C48.5988873,20.7800587 48.8619108,18.0234604 48.5112128,16.3519062 C47.5321807,15.8973607 47.926716,15.6187683 47.2253199,15.0909091 C46.1440009,11.7771261 44.1128746,9.47507331 40.8835299,7.87683284 C40.1821338,7.39296188 39.597637,7.01173021 39.1154272,6.64516129 C38.6186049,6.30791789 38.1656199,6.05865103 37.7564722,5.80938416 C36.9527891,5.31085044 36.1198812,5.1202346 34.9655001,5.06158358 C33.7526693,4.69501466 33.5627078,3.80058651 32.349877,4.19648094 C31.8530548,3.99120235 31.4585195,4.57771261 31.4585195,3.96187683 C30.2018514,3.39002933 29.7488664,3.99120235 29.4273932,2.90615836 C28.4921983,2.64222874 26.9871192,3.12609971 26.9140571,2.01173021 Z" id="Path" fill="#2E316A"></path>
            </g>
            <g id="Group-10-Copy" transform="translate(87.000000, 17.000000)">
                <path d="M27,8 C13.7436823,8 3,18.7436823 3,32 C3,45.2563177 13.7436823,56 27,56 C40.2563177,56 51,45.2563177 51,32 C51,18.7436823 40.2563177,8 27,8 Z" id="Path" fill="#2E316A" fill-rule="nonzero"></path>
                <path d="M26.8430058,10.1904325 C26.420345,8.93057235 28.6065213,9.75599797 29.5247153,9.66911106 C30.0348231,9.19123307 31.492274,9.52429955 32.3230209,9.46637495 C33.6055777,9.77047912 35.2816461,10.1759514 35.7043069,10.9000089 C36.5787774,10.8565655 37.4240989,11.1896319 38.2839949,11.5516607 C39.0855928,12.0295387 39.9892124,12.4639733 40.8636829,12.9708135 C41.7090044,13.4052481 42.5834749,13.6079842 43.5162434,14.2161926 C44.50731,14.7809575 45.1485884,15.6063831 46.1250804,16.4028464 C47.9614685,18.0247353 50.1184957,20.5299745 51.4593505,23.6868655 C52.8439288,26.8147941 53.3103131,30.4930065 52.6398857,33.4906049 C52.6253112,34.2001813 52.7856308,34.7359839 52.8876523,35.2717865 C52.9750994,35.8075891 53.0479719,36.3578728 52.9605249,37.0819304 C51.415627,42.8309474 48.7047684,46.7118959 45.5421001,49.9267115 C43.9389042,51.5341193 42.1753886,52.9967156 40.0766594,54.2710569 C38.0070792,55.5598793 35.6168598,56.7328526 32.7456817,57.5148348 C31.4776994,57.630684 30.5157819,57.7610143 29.6704604,57.9492693 C28.8251389,58.0651185 28.05269,58.0071939 27.2656665,57.5148348 C22.893314,58.0216751 18.3606418,56.6459657 15.1979735,54.3434626 C13.5364796,54.1262454 11.9187091,53.7352543 10.3009387,52.8084606 C8.36252906,51.6210062 6.91965273,50.071523 5.73911754,48.246898 C4.48570982,46.4512352 3.50921775,44.3804306 2.29953355,41.9186349 C2.3724061,42.0634464 2.73676881,41.4697192 2.44527864,41.3249077 C1.01697681,40.6442936 0.492294507,36.7778262 0.259102372,34.5766912 C0.084208271,32.9982457 -0.148983864,30.724705 0.127931796,28.1615412 C0.346549423,25.6128586 0.958678777,22.7600718 2.05176691,20.2113892 C3.64038833,17.8075181 5.53507443,15.2443543 7.99816635,12.8115209 C10.6653014,10.9000089 13.6676501,9.08986501 16.9469145,8.03274097 C20.2116044,6.94665463 23.7094864,6.6570316 26.6972607,7.45349492 C27.1199214,8.55406242 25.4584275,8.23547709 25.3126824,8.9160912 C24.9191706,9.58222416 27.9215194,8.98849695 26.2454509,9.567743 C26.6681117,10.8420843 23.9864021,10.2773194 23.6220394,10.1325079 C22.1354395,10.4655744 21.1880965,10.4800555 20.0804338,10.523499 C18.0691517,11.3489246 15.8684009,12.2322748 13.7259482,13.4486915 C11.5980699,14.6795894 9.57221326,16.2580349 7.93986832,18.0681788 C7.02167429,19.0818594 6.65731158,19.9941719 6.29294886,20.7906352 C5.88486263,21.5726174 5.65167049,22.3401184 4.89379605,23.1800252 C4.68975294,24.9901691 4.22336867,27.2057852 4.2816667,29.6241375 C4.31081572,32.0135274 4.64602941,34.5477289 5.47677639,36.7054204 C5.60794697,37.8639125 5.75369205,38.8775931 6.10348026,39.7174999 C6.26379985,40.1374533 6.42411944,40.5429255 6.56986452,40.9194354 C6.74475863,41.2814642 6.94880174,41.6290119 7.12369585,41.9620783 C7.44433503,42.6426924 7.82327225,43.2509008 8.15848594,43.9170337 C8.46455062,44.612129 8.79976432,45.2927431 9.10582899,46.1616122 C11.3794523,47.7979823 13.4781815,49.202654 15.9121244,50.4914764 C18.3460673,51.7513366 21.1589475,52.9098287 24.7588511,53.3008198 C28.3587546,53.9379904 32.0752543,53.4745936 35.3982422,52.0554407 C38.7066556,50.6073256 41.7235789,48.3772283 44.1866708,45.3941112 C44.9153962,44.9596766 45.4983766,43.9459961 46.0959314,43.0481647 C46.6206137,42.1068898 47.174445,41.2959454 47.8594469,41.0787281 C47.8594469,40.4994821 47.9906175,39.8912737 48.1800861,39.254103 C48.3404057,38.6024512 48.5298743,37.9218371 48.777641,37.2557042 C49.1857272,35.894476 49.6521115,34.4898043 49.8561546,33.4181991 C49.1565782,32.3755562 49.5792389,32.2307447 49.1420037,31.2315453 C49.2585997,30.0730532 49.0691311,29.001448 48.9525351,27.9298428 C48.6901939,26.901681 48.5007253,25.8735193 48.034341,24.9322445 C47.2473176,23.0062514 45.9793353,21.2395509 44.2158198,19.6611054 C42.7729435,17.9378484 41.7090044,16.938649 40.7470868,16.1132234 C39.7560202,15.3457223 38.8086772,14.7519951 37.3220773,14.447891 C36.6079264,13.9989753 36.1123931,13.6948711 35.6897324,13.3618046 C35.2524971,13.0287382 34.7861129,12.8404832 34.0136639,12.9128889 C33.3723855,12.6087848 32.8622777,13.1011439 32.8622777,12.5074167 C32.0461053,12.1453879 31.4776994,12.0729822 31.0696132,11.957133 C30.661527,11.8847272 30.4137603,11.7543968 30.1805682,11.2041131 C28.941735,10.7986409 26.9304528,11.3199623 26.8430058,10.1904325 Z" id="Path" fill="#2E316A"></path>
                <path d="M27,48 C40.2548736,48 51,37.2548736 51,24 C51,10.7451264 40.2548736,0 27,0 C13.7451264,0 3,10.7451264 3,24 C3,37.2548736 13.7451264,48 27,48 Z" id="Path" fill="#FFCD00" fill-rule="nonzero"></path>
                <path d="M26.9140571,2.01173021 C26.6071963,0.721407625 28.2437872,1.58651026 28.9305709,1.41055718 C29.3251062,0.824046921 30.4064253,1.23460411 31.0493717,1 C32.0284038,1.16129032 33.3142967,1.35190616 33.6503824,1.96774194 C35.0093374,1.63049853 36.2952302,2.4516129 37.7710846,2.87683284 C38.4870931,3.03812317 39.1738769,3.05278592 39.9775599,3.31671554 C40.8104678,3.55131965 41.4241894,4.07917889 42.2717097,4.48973607 C43.1484549,4.85630499 44.0252001,5.47214076 45.0188446,6.11730205 C45.9248146,6.83577713 46.9622963,7.61290323 47.7805918,8.60997067 C49.5486946,10.5014663 50.8345874,12.9941349 51.1414483,15.340176 C51.5652084,16.3225806 52.3250542,16.6158358 52.631915,17.686217 C53.3186987,22.1583578 52.9533882,25.6480938 52.281217,29.0058651 C51.5359836,32.3489736 50.4985018,35.7067449 48.1459023,39.5337243 C47.3714441,40.1495601 47.0499709,40.8240469 46.6408231,41.3225806 C46.2316754,41.8211144 45.7933028,42.202346 45.0042321,42.2463343 C42.9877183,44.8709677 40.0067848,46.7624633 37.0843009,47.3929619 C36.6897656,47.9501466 36.2221682,48.3753666 35.7399583,48.829912 C35.2431361,49.255132 34.717089,49.7096774 34.0741425,49.9882698 C32.5252261,50.7800587 30.9324724,50.941349 29.2958814,51 C28.4775859,50.9853372 27.6300656,50.9560117 26.7240956,50.941349 C25.832738,50.8533724 24.8829308,50.8533724 23.845449,50.8240469 C23.9623484,50.8240469 23.7139372,50.2375367 23.5093634,50.4134897 C23.0417659,50.8093842 22.0773463,50.8826979 21.0690893,50.6774194 C20.0608324,50.4428152 18.9502885,50.1495601 18.1466055,49.8709677 C16.9776119,49.5630499 15.341021,49.0351906 13.5583058,48.2434018 C11.8048155,47.4222874 9.86136374,46.3958944 8.19554794,45.1055718 C6.79275569,43.4193548 5.33151376,41.5278592 3.82643457,39.372434 C2.84740248,37.085044 1.94143248,34.6070381 1.37154813,32.0703812 C0.816276195,29.5337243 0.874725873,26.8797654 1.60534684,24.6363636 C2.7158907,24.3284457 2.37980506,25.5601173 3.06658877,25.6774194 C3.72414764,25.9706745 3.18348812,23.71261 3.72414764,24.973607 C5.01004053,24.6510264 4.4547686,26.6744868 4.17713263,26.9677419 C4.5278307,28.0674487 4.27941957,28.829912 4.27941957,29.6656891 C5.30228892,32.7595308 6.32515827,36.6158358 8.40012181,39.7536657 C9.01384342,40.5894428 9.61295261,41.0146628 10.1243873,41.4398827 C10.6796592,41.8211144 11.1472566,42.1876833 11.5710168,42.9648094 C12.2285757,43.2140762 12.9738091,43.4780059 13.7336549,43.829912 C14.5081131,44.1231672 15.341021,44.431085 16.2031537,44.7536657 C17.956644,45.2668622 19.8124213,45.7800587 21.580524,45.7653959 C22.3842071,46.1759531 23.1440529,46.3079179 23.8162242,46.4252199 C24.4883955,46.5571848 25.1021171,46.542522 25.6720014,46.542522 C26.8263825,46.601173 27.8054146,46.5131965 29.1789821,47.0410557 C31.1078214,45.9853372 32.8613117,45.2961877 34.717089,44.3431085 C36.5582538,43.4046921 38.5747677,42.3489736 40.6497312,40.5894428 C42.9584934,39.0498534 44.7412086,36.8944282 46.0124891,34.4897361 C47.298382,32.0703812 48.102065,29.4017595 48.55505,26.5131965 C48.8472984,25.941349 48.9203605,25.0615836 48.9349729,24.2404692 C48.9349729,23.4340176 49.0226475,22.6715543 49.5779194,22.2756598 C48.5988873,20.7800587 48.8619108,18.0234604 48.5112128,16.3519062 C47.5321807,15.8973607 47.926716,15.6187683 47.2253199,15.0909091 C46.1440009,11.7771261 44.1128746,9.47507331 40.8835299,7.87683284 C40.1821338,7.39296188 39.597637,7.01173021 39.1154272,6.64516129 C38.6186049,6.30791789 38.1656199,6.05865103 37.7564722,5.80938416 C36.9527891,5.31085044 36.1198812,5.1202346 34.9655001,5.06158358 C33.7526693,4.69501466 33.5627078,3.80058651 32.349877,4.19648094 C31.8530548,3.99120235 31.4585195,4.57771261 31.4585195,3.96187683 C30.2018514,3.39002933 29.7488664,3.99120235 29.4273932,2.90615836 C28.4921983,2.64222874 26.9871192,3.12609971 26.9140571,2.01173021 Z" id="Path" fill="#2E316A"></path>
            </g>
            <path d="M15.9606395,47.91 C18.1028466,74.310155 19.1159667,95.050155 19,110.13 C18.8840333,125.209845 17.5375797,147.815161 14.9606395,177.945948 L40,178.725 C38.6666667,166.241967 40,156.188634 44,148.565 C50,137.129549 84.9921769,131.693725 100.48,116.734807 C110.805215,106.762194 118.478549,90.5105586 123.5,67.9799 L98.855,67.2203564 C99.2782408,81.6460019 94.1180464,93.5785914 83.3744168,103.018125 C72.2028478,112.833653 46.8008404,119.563063 44.5,118.780718 C39.5,117.080589 38.1666667,92.7073765 40.5,45.6610809 L15.9606395,47.91 Z" id="Path-2" fill="#2E316A"></path>
            <g id="Group-10-Copy-2" transform="translate(0.000000, 154.000000)">
                <path d="M27,8 C13.7436823,8 3,18.7436823 3,32 C3,45.2563177 13.7436823,56 27,56 C40.2563177,56 51,45.2563177 51,32 C51,18.7436823 40.2563177,8 27,8 Z" id="Path" fill="#2E316A" fill-rule="nonzero"></path>
                <path d="M26.8430058,10.1904325 C26.420345,8.93057235 28.6065213,9.75599797 29.5247153,9.66911106 C30.0348231,9.19123307 31.492274,9.52429955 32.3230209,9.46637495 C33.6055777,9.77047912 35.2816461,10.1759514 35.7043069,10.9000089 C36.5787774,10.8565655 37.4240989,11.1896319 38.2839949,11.5516607 C39.0855928,12.0295387 39.9892124,12.4639733 40.8636829,12.9708135 C41.7090044,13.4052481 42.5834749,13.6079842 43.5162434,14.2161926 C44.50731,14.7809575 45.1485884,15.6063831 46.1250804,16.4028464 C47.9614685,18.0247353 50.1184957,20.5299745 51.4593505,23.6868655 C52.8439288,26.8147941 53.3103131,30.4930065 52.6398857,33.4906049 C52.6253112,34.2001813 52.7856308,34.7359839 52.8876523,35.2717865 C52.9750994,35.8075891 53.0479719,36.3578728 52.9605249,37.0819304 C51.415627,42.8309474 48.7047684,46.7118959 45.5421001,49.9267115 C43.9389042,51.5341193 42.1753886,52.9967156 40.0766594,54.2710569 C38.0070792,55.5598793 35.6168598,56.7328526 32.7456817,57.5148348 C31.4776994,57.630684 30.5157819,57.7610143 29.6704604,57.9492693 C28.8251389,58.0651185 28.05269,58.0071939 27.2656665,57.5148348 C22.893314,58.0216751 18.3606418,56.6459657 15.1979735,54.3434626 C13.5364796,54.1262454 11.9187091,53.7352543 10.3009387,52.8084606 C8.36252906,51.6210062 6.91965273,50.071523 5.73911754,48.246898 C4.48570982,46.4512352 3.50921775,44.3804306 2.29953355,41.9186349 C2.3724061,42.0634464 2.73676881,41.4697192 2.44527864,41.3249077 C1.01697681,40.6442936 0.492294507,36.7778262 0.259102372,34.5766912 C0.084208271,32.9982457 -0.148983864,30.724705 0.127931796,28.1615412 C0.346549423,25.6128586 0.958678777,22.7600718 2.05176691,20.2113892 C3.64038833,17.8075181 5.53507443,15.2443543 7.99816635,12.8115209 C10.6653014,10.9000089 13.6676501,9.08986501 16.9469145,8.03274097 C20.2116044,6.94665463 23.7094864,6.6570316 26.6972607,7.45349492 C27.1199214,8.55406242 25.4584275,8.23547709 25.3126824,8.9160912 C24.9191706,9.58222416 27.9215194,8.98849695 26.2454509,9.567743 C26.6681117,10.8420843 23.9864021,10.2773194 23.6220394,10.1325079 C22.1354395,10.4655744 21.1880965,10.4800555 20.0804338,10.523499 C18.0691517,11.3489246 15.8684009,12.2322748 13.7259482,13.4486915 C11.5980699,14.6795894 9.57221326,16.2580349 7.93986832,18.0681788 C7.02167429,19.0818594 6.65731158,19.9941719 6.29294886,20.7906352 C5.88486263,21.5726174 5.65167049,22.3401184 4.89379605,23.1800252 C4.68975294,24.9901691 4.22336867,27.2057852 4.2816667,29.6241375 C4.31081572,32.0135274 4.64602941,34.5477289 5.47677639,36.7054204 C5.60794697,37.8639125 5.75369205,38.8775931 6.10348026,39.7174999 C6.26379985,40.1374533 6.42411944,40.5429255 6.56986452,40.9194354 C6.74475863,41.2814642 6.94880174,41.6290119 7.12369585,41.9620783 C7.44433503,42.6426924 7.82327225,43.2509008 8.15848594,43.9170337 C8.46455062,44.612129 8.79976432,45.2927431 9.10582899,46.1616122 C11.3794523,47.7979823 13.4781815,49.202654 15.9121244,50.4914764 C18.3460673,51.7513366 21.1589475,52.9098287 24.7588511,53.3008198 C28.3587546,53.9379904 32.0752543,53.4745936 35.3982422,52.0554407 C38.7066556,50.6073256 41.7235789,48.3772283 44.1866708,45.3941112 C44.9153962,44.9596766 45.4983766,43.9459961 46.0959314,43.0481647 C46.6206137,42.1068898 47.174445,41.2959454 47.8594469,41.0787281 C47.8594469,40.4994821 47.9906175,39.8912737 48.1800861,39.254103 C48.3404057,38.6024512 48.5298743,37.9218371 48.777641,37.2557042 C49.1857272,35.894476 49.6521115,34.4898043 49.8561546,33.4181991 C49.1565782,32.3755562 49.5792389,32.2307447 49.1420037,31.2315453 C49.2585997,30.0730532 49.0691311,29.001448 48.9525351,27.9298428 C48.6901939,26.901681 48.5007253,25.8735193 48.034341,24.9322445 C47.2473176,23.0062514 45.9793353,21.2395509 44.2158198,19.6611054 C42.7729435,17.9378484 41.7090044,16.938649 40.7470868,16.1132234 C39.7560202,15.3457223 38.8086772,14.7519951 37.3220773,14.447891 C36.6079264,13.9989753 36.1123931,13.6948711 35.6897324,13.3618046 C35.2524971,13.0287382 34.7861129,12.8404832 34.0136639,12.9128889 C33.3723855,12.6087848 32.8622777,13.1011439 32.8622777,12.5074167 C32.0461053,12.1453879 31.4776994,12.0729822 31.0696132,11.957133 C30.661527,11.8847272 30.4137603,11.7543968 30.1805682,11.2041131 C28.941735,10.7986409 26.9304528,11.3199623 26.8430058,10.1904325 Z" id="Path" fill="#2E316A"></path>
                <path d="M27,48 C40.2548736,48 51,37.2548736 51,24 C51,10.7451264 40.2548736,0 27,0 C13.7451264,0 3,10.7451264 3,24 C3,37.2548736 13.7451264,48 27,48 Z" id="Path" fill="#FFCD00" fill-rule="nonzero"></path>
                <path d="M26.9140571,2.01173021 C26.6071963,0.721407625 28.2437872,1.58651026 28.9305709,1.41055718 C29.3251062,0.824046921 30.4064253,1.23460411 31.0493717,1 C32.0284038,1.16129032 33.3142967,1.35190616 33.6503824,1.96774194 C35.0093374,1.63049853 36.2952302,2.4516129 37.7710846,2.87683284 C38.4870931,3.03812317 39.1738769,3.05278592 39.9775599,3.31671554 C40.8104678,3.55131965 41.4241894,4.07917889 42.2717097,4.48973607 C43.1484549,4.85630499 44.0252001,5.47214076 45.0188446,6.11730205 C45.9248146,6.83577713 46.9622963,7.61290323 47.7805918,8.60997067 C49.5486946,10.5014663 50.8345874,12.9941349 51.1414483,15.340176 C51.5652084,16.3225806 52.3250542,16.6158358 52.631915,17.686217 C53.3186987,22.1583578 52.9533882,25.6480938 52.281217,29.0058651 C51.5359836,32.3489736 50.4985018,35.7067449 48.1459023,39.5337243 C47.3714441,40.1495601 47.0499709,40.8240469 46.6408231,41.3225806 C46.2316754,41.8211144 45.7933028,42.202346 45.0042321,42.2463343 C42.9877183,44.8709677 40.0067848,46.7624633 37.0843009,47.3929619 C36.6897656,47.9501466 36.2221682,48.3753666 35.7399583,48.829912 C35.2431361,49.255132 34.717089,49.7096774 34.0741425,49.9882698 C32.5252261,50.7800587 30.9324724,50.941349 29.2958814,51 C28.4775859,50.9853372 27.6300656,50.9560117 26.7240956,50.941349 C25.832738,50.8533724 24.8829308,50.8533724 23.845449,50.8240469 C23.9623484,50.8240469 23.7139372,50.2375367 23.5093634,50.4134897 C23.0417659,50.8093842 22.0773463,50.8826979 21.0690893,50.6774194 C20.0608324,50.4428152 18.9502885,50.1495601 18.1466055,49.8709677 C16.9776119,49.5630499 15.341021,49.0351906 13.5583058,48.2434018 C11.8048155,47.4222874 9.86136374,46.3958944 8.19554794,45.1055718 C6.79275569,43.4193548 5.33151376,41.5278592 3.82643457,39.372434 C2.84740248,37.085044 1.94143248,34.6070381 1.37154813,32.0703812 C0.816276195,29.5337243 0.874725873,26.8797654 1.60534684,24.6363636 C2.7158907,24.3284457 2.37980506,25.5601173 3.06658877,25.6774194 C3.72414764,25.9706745 3.18348812,23.71261 3.72414764,24.973607 C5.01004053,24.6510264 4.4547686,26.6744868 4.17713263,26.9677419 C4.5278307,28.0674487 4.27941957,28.829912 4.27941957,29.6656891 C5.30228892,32.7595308 6.32515827,36.6158358 8.40012181,39.7536657 C9.01384342,40.5894428 9.61295261,41.0146628 10.1243873,41.4398827 C10.6796592,41.8211144 11.1472566,42.1876833 11.5710168,42.9648094 C12.2285757,43.2140762 12.9738091,43.4780059 13.7336549,43.829912 C14.5081131,44.1231672 15.341021,44.431085 16.2031537,44.7536657 C17.956644,45.2668622 19.8124213,45.7800587 21.580524,45.7653959 C22.3842071,46.1759531 23.1440529,46.3079179 23.8162242,46.4252199 C24.4883955,46.5571848 25.1021171,46.542522 25.6720014,46.542522 C26.8263825,46.601173 27.8054146,46.5131965 29.1789821,47.0410557 C31.1078214,45.9853372 32.8613117,45.2961877 34.717089,44.3431085 C36.5582538,43.4046921 38.5747677,42.3489736 40.6497312,40.5894428 C42.9584934,39.0498534 44.7412086,36.8944282 46.0124891,34.4897361 C47.298382,32.0703812 48.102065,29.4017595 48.55505,26.5131965 C48.8472984,25.941349 48.9203605,25.0615836 48.9349729,24.2404692 C48.9349729,23.4340176 49.0226475,22.6715543 49.5779194,22.2756598 C48.5988873,20.7800587 48.8619108,18.0234604 48.5112128,16.3519062 C47.5321807,15.8973607 47.926716,15.6187683 47.2253199,15.0909091 C46.1440009,11.7771261 44.1128746,9.47507331 40.8835299,7.87683284 C40.1821338,7.39296188 39.597637,7.01173021 39.1154272,6.64516129 C38.6186049,6.30791789 38.1656199,6.05865103 37.7564722,5.80938416 C36.9527891,5.31085044 36.1198812,5.1202346 34.9655001,5.06158358 C33.7526693,4.69501466 33.5627078,3.80058651 32.349877,4.19648094 C31.8530548,3.99120235 31.4585195,4.57771261 31.4585195,3.96187683 C30.2018514,3.39002933 29.7488664,3.99120235 29.4273932,2.90615836 C28.4921983,2.64222874 26.9871192,3.12609971 26.9140571,2.01173021 Z" id="Path" fill="#2E316A"></path>
            </g>
        </g>
        <path d="M48,180.563812 C53.3886568,190.600708 61.3886568,195.484101 72,195.213994 C82.6113432,194.943886 90.6113432,189.147047 96,177.823477 C92.6961453,195.963548 84.6961453,205.033583 72,205.033583 C59.3038547,205.033583 51.3038547,196.876993 48,180.563812 Z" id="Path-45" fill="#2F326A" opacity="0.2"></path>
        <path d="M134,43.563812 C139.388657,53.6007075 147.388657,58.4841014 158,58.2139937 C168.611343,57.9438859 176.611343,52.1470471 182,40.8234773 C178.696145,58.9635477 170.696145,68.0335829 158,68.0335829 C145.303855,68.0335829 137.303855,59.8769926 134,43.563812 Z" id="Path-45-Copy" fill="#2F326A" opacity="0.2"></path>
        <path d="M48,28.563812 C53.3886568,38.6007075 61.3886568,43.4841014 72,43.2139937 C82.6113432,42.9438859 90.6113432,37.1470471 96,25.8234773 C92.6961453,43.9635477 84.6961453,53.0335829 72,53.0335829 C59.3038547,53.0335829 51.3038547,44.8769926 48,28.563812 Z" id="Path-45-Copy-2" fill="#2F326A" opacity="0.2"></path>
    </g>
</svg>