<?xml version="1.0" encoding="UTF-8"?>
<svg width="216px" height="216px" viewBox="0 0 216 216" version="1.1" xmlns="http://www.w3.org/2000/svg" xmlns:xlink="http://www.w3.org/1999/xlink">
    <title>wave</title>
    <g id="wave" stroke="none" stroke-width="1" fill="none" fill-rule="evenodd">
        <g id="Asset-7" transform="translate(8.000000, 11.000000)">
            <path d="M128.570656,193.829098 L122.13835,193.829098 C120.798682,193.657747 119.449513,193.495915 118.109845,193.305525 C108.513643,191.953752 100.057583,187.869876 92.1810963,182.405668 C79.995185,173.806513 68.6506513,164.068872 58.2998507,153.323519 C41.0456886,135.607683 24.1905765,117.501546 7.21194897,99.509644 C5.42154098,97.5661799 3.78253028,95.4880029 2.30933463,93.2933942 C1.0240464,91.4210145 0.307906532,89.2155442 0.247576272,86.9438709 C0.105058413,82.9075923 2.14781439,79.927981 5.07418109,77.4243459 C8.00692377,74.786991 12.226051,74.1542111 15.8010252,75.8155461 C18.0530857,76.8384942 20.058943,78.3352383 21.6822622,80.2040472 L47.3829827,107.106225 C49.2072113,109.01013 51.0124375,110.914035 52.8556685,112.81794 C53.4976968,113.632613 54.5709463,113.972188 55.5635078,113.674697 C56.4534946,113.419753 57.1230859,112.682518 57.2927245,111.770792 C57.4520607,110.757487 57.0567445,109.736402 56.2570947,109.095806 L31.7535242,83.2217366 C23.6775122,74.6732031 15.6015002,66.1246696 7.52548825,57.5761361 C4.6968135,54.7943309 3.3384091,50.8417148 3.85802869,46.9047485 C4.92216204,38.3371759 13.3592193,33.9772334 20.7606467,38.2895783 C22.8263613,39.5448652 24.7121914,41.0756556 26.3663492,42.8399113 C41.5682541,58.6105911 56.7068178,74.4098296 71.7820401,90.2376266 C72.0967864,90.5764939 72.4332058,90.8944831 72.7891663,91.1895791 C73.5895902,91.8592761 74.7535889,91.8592761 75.5540128,91.1895791 C76.4441521,90.5551026 76.6822176,89.3331854 76.0955807,88.4098778 C75.7084889,87.7663529 75.249471,87.1691168 74.7274092,86.6297266 C70.3948663,81.9651593 66.0718246,77.300592 61.7107781,72.6645833 C48.4787867,58.5756862 35.234127,44.4899623 21.9767991,30.4074115 C20.2271555,28.6066176 18.8826809,26.451307 18.033805,24.0864469 C15.43998,16.5945807 19.9815491,9.15031206 27.7345206,8.45538673 C32.1247765,8.08429358 36.4424313,9.75083343 39.4494886,12.9771611 C42.5278743,16.0234092 45.4447399,19.2124501 48.4376149,22.3348543 L92.5231392,68.4569532 C93.4732582,69.4089058 94.4233773,70.4370145 95.3734963,71.3794474 C96.1598752,72.3490661 97.5777751,72.5059722 98.5563952,71.7316699 C99.5093267,70.888775 99.6958561,69.4708536 98.99345,68.4093556 C98.7489511,68.0144018 98.4622228,67.6473198 98.1383428,67.3146102 C95.5920237,64.6015456 93.0362035,61.90752 90.5373903,59.1944554 C78.9079331,46.8761899 67.3069794,34.567444 55.82004,22.1825419 C54.3549552,20.57638 53.1524687,18.7482862 52.2570935,16.7659321 C50.5200129,13.2485185 51.0957551,9.02580225 53.7107757,6.10406404 C56.4091138,2.81030836 59.8010388,1.06823528 64.1620853,1.83931681 C68.5231318,2.61039834 71.9720639,4.9522015 74.9839414,7.97941048 C80.4471259,13.4340983 85.8438022,18.9554229 91.2499796,24.4577084 C107.085297,40.533013 122.920615,56.6019714 138.755933,72.6645833 C142.698927,76.6532643 146.87945,80.3944377 150.964962,84.2498453 C153.226246,86.3917385 155.915083,84.4307163 156.29513,82.5077722 C156.426276,81.5953696 156.321592,80.664513 155.991092,79.8042271 C152.998217,71.4556036 149.948335,63.1260192 146.917455,54.7964348 C145.78687,51.7710086 145.182699,48.5736712 145.131231,45.3435464 C145.036219,35.7288261 149.378264,28.4463894 157.150237,23.1440139 C160.798695,20.6403788 165.254753,22.239659 166.831951,26.4568086 C174.179538,46.0860693 181.501789,65.7216764 188.798703,85.3636298 C190.698941,90.4280171 192.20013,95.6447168 194.375902,100.59487 C197.894186,108.485112 199.036734,117.232877 197.663314,125.764494 C196.086116,136.055101 191.829583,145.241442 186.128869,153.818535 C178.661254,164.874216 169.281831,174.503856 158.432898,182.253356 C151.501149,187.485783 143.494725,191.108145 134.993461,192.858107 C132.884197,193.248407 130.717925,193.514954 128.570656,193.829098 Z" id="Path" fill="#FFCD00" fill-rule="nonzero"></path>
            <path d="M171.734565,133.713298 C168.513661,125.726416 162.233374,118.482057 162.565916,109.866887 C162.945964,100.966131 170.470907,93.6836947 171.449529,84.8686145 C172.200123,78.0526345 168.969719,71.5412794 165.834326,65.4107052 L151.02197,36.5951028 C150.290378,35.1766936 149.007717,33.5393353 147.525531,33.8915577 C145.845877,37.4596807 145.019575,41.3710021 145.112229,45.3149878 C145.160655,48.5445579 145.761609,51.741878 146.888952,54.7678762 C149.919831,63.0974606 152.969714,71.4270451 155.962589,79.7756686 C156.293089,80.6359544 156.397772,81.566811 156.266627,82.4792137 C155.909565,84.0330712 154.532628,85.136746 152.94121,85.1446807 C152.069747,87.4210952 150.208234,89.1740138 147.886577,89.9044432 C143.135981,91.2086182 138.689424,87.2580153 135.38301,83.6025176 C128.83669,76.3581591 122.518398,68.9043709 115.981579,61.6504928 C103.753546,48.0851696 90.7939225,35.2242912 77.8533009,22.2967762 C71.2024675,15.6902258 64.5516341,9.08367538 57.6632709,2.75319121 C56.1273896,3.59029292 54.7764493,4.73012211 53.6917733,6.10406404 C51.0767527,9.02580225 50.5010105,13.2485185 52.2380911,16.7659321 C53.1392697,18.7495622 54.3482184,20.57773 55.82004,22.1825419 C64.9285147,32.0003454 74.0813283,41.783244 83.2784807,51.5312377 C85.6664466,53.9872751 88.0227419,56.4845639 90.3473665,59.0231039 L90.4803832,59.1658968 C93.0267023,61.8789614 95.5825225,64.572987 98.0813357,67.2860517 C98.4052157,67.6187612 98.6919439,67.9858432 98.9364428,68.380797 C99.638849,69.442295 99.4523196,70.8602164 98.499388,71.7031113 C98.5400833,73.6186851 97.5588433,75.4108178 95.9245654,76.4057567 C92.7321654,78.0907126 89.0647058,75.3681284 86.4993843,72.8264153 C68.4597905,55.0122107 51.0187717,36.6077955 34.1763278,17.6131698 C31.1169445,14.1290237 26.9364206,10.2926551 22.5658729,10.1308231 C18.1288169,12.8724464 16.0575574,18.4604076 18.0053015,24.0864469 C18.8541773,26.451307 20.198652,28.6066176 21.9482956,30.4074115 C35.1929552,44.4963086 48.4376149,58.5852057 61.6822745,72.6741029 C62.4613722,73.492782 63.2214674,74.3305002 63.9910639,75.1491794 C66.04147,77.0539807 67.9470091,79.1095701 69.6917782,81.2987926 C71.3544866,83.0789438 73.0171949,84.8495754 74.6704021,86.6392461 C75.1918864,87.1756621 75.6508844,87.7696786 76.0385735,88.4098778 C76.6252105,89.3331854 76.387145,90.5551026 75.4970057,91.1895791 C75.4280458,91.2457252 75.3550005,91.2966373 75.2784783,91.3418915 C75.9245592,93.8074485 75.763039,96.644267 73.5587628,97.6247781 C71.6585247,98.4529767 69.5967663,97.3106337 67.9150556,96.1492517 C47.7535292,82.212667 33.5112445,61.345868 16.038555,44.0869691 C13.7202645,41.7927635 11.002924,39.4319213 7.82002516,39.2129722 C5.58693337,41.1911508 4.17357227,43.9350345 3.85802869,46.9047485 C3.3384091,50.8417148 4.6968135,54.7943309 7.52548825,57.5761361 C15.5951661,66.1246696 23.6711781,74.6732031 31.7535242,83.2217366 L55.3639828,108.239049 C56.8471327,109.572869 58.1674835,111.077906 59.2974757,112.722745 C59.4684971,117.577703 53.4447423,120.690587 48.741653,119.500647 C44.0385636,118.310706 40.5991327,114.41722 37.4542386,110.723645 L19.3924753,89.4855841 C16.9696717,86.6297266 14.4708586,83.7738691 11.1739454,81.9556398 C8.31408707,80.3944377 4.58011918,79.9660591 1.66325367,81.3273511 C0.642787972,83.0168487 0.14364128,84.9709205 0.22857389,86.9438709 C0.292880779,89.2177738 1.01582348,91.4238619 2.30933463,93.2933942 C3.7829274,95.4847215 5.42192902,97.5597044 7.21194897,99.5001245 C24.1905765,117.492027 41.0456886,135.598164 58.2998507,153.314 C68.6506513,164.059352 79.995185,173.796994 92.1810963,182.396149 C100.02908,187.860356 108.513643,191.915674 118.109845,193.296005 C119.449513,193.486396 120.798682,193.648227 122.13835,193.819579 L128.570656,193.819579 C130.717925,193.505435 132.884197,193.257927 135.012463,192.867626 C143.50786,191.112143 151.507587,187.486623 158.432898,182.253356 C159.601545,181.396599 160.741688,180.520802 161.872329,179.635487 C164.280744,176.702864 166.414833,173.554505 168.247628,170.230196 C174.337891,159.149469 176.48516,145.431833 171.734565,133.713298 Z" id="Path" fill="#FFB800" fill-rule="nonzero"></path>
            <path d="M128.979207,193.771981 C127.306998,194.009969 130.793935,193.524474 135.573034,192.734353 C138.120383,192.211713 140.625946,191.502183 143.069473,190.611499 C145.237614,189.821273 147.356951,188.902605 149.416268,187.860356 C152.295753,186.384506 155.064687,184.701487 157.701307,182.824527 C161.064728,180.435127 164.532663,177.636386 166.879457,175.570649 C170.945505,172.03856 174.755599,168.221114 178.280885,164.147219 C181.691813,160.215655 184.371148,156.531599 185.881838,154.380187 C189.676954,148.756679 192.756959,142.680717 195.050487,136.293089 C197.397281,129.477109 198.850963,121.804372 197.957851,114.103076 C197.572791,110.670093 196.758817,107.299174 195.535047,104.069497 C194.936472,102.460697 194.204881,100.899495 193.454287,99.2240583 C192.703693,97.5486219 192.010106,95.7684707 191.297516,93.8645657 C189.89134,89.9996385 188.580176,86.2489456 187.078988,82.4411356 L182.499414,70.4750926 C179.335517,62.1835862 175.630053,52.6450221 171.658555,42.3924936 L165.568292,26.5710429 C165.09556,25.4469378 164.280984,24.5008724 163.240501,23.8674978 C162.22086,23.2682143 161.014845,23.0713496 159.858077,23.3153654 C159.269645,23.4397912 158.70712,23.6652352 158.195368,23.9817321 C157.905234,24.1547544 157.626005,24.3455055 157.359264,24.5529036 L156.494655,25.1907118 C155.356479,26.0633732 154.283179,27.0178451 153.283253,28.0465693 C152.277559,29.0611814 151.367888,30.1670027 150.565912,31.3498445 C149.746144,32.5153887 149.048849,33.762732 148.485152,35.0719788 C147.359474,37.7089115 146.715836,40.527039 146.584914,43.3920437 C146.414282,46.2781835 146.719233,49.1727766 147.487527,51.9596163 C147.848572,53.349467 148.371137,54.69172 148.893703,56.1291683 C149.416268,57.5666166 149.91033,58.9850258 150.413893,60.3653569 C152.428146,65.9913963 154.413895,71.5603184 156.352137,76.9864477 C156.599168,77.662334 156.836698,78.3477398 157.074228,79.0141065 C157.218123,79.3902495 157.338701,79.7749356 157.435273,80.1659691 C157.533135,80.588506 157.596684,81.0182893 157.625297,81.451105 C157.639769,81.912393 157.591827,82.3735201 157.482779,82.8219166 C157.369289,83.3071552 157.176679,83.770311 156.912708,84.1927282 C156.397755,84.9908578 155.665955,85.624987 154.803443,86.020477 C153.888236,86.4334954 152.853304,86.4944913 151.896079,86.1918285 C151.677552,86.1061527 151.449523,86.0109575 151.230996,85.9062427 C151.012468,85.8015279 150.831946,85.6682546 150.641922,85.5349812 L150.138359,85.1066026 L149.767812,84.7448606 L146.812942,81.8890031 C143.088475,78.4619741 140.285624,75.9773781 137.587286,73.3880672 C134.888948,70.7987564 132.219113,68.2380042 128.665668,64.6491432 L89.4067487,24.2958764 L80.4566271,15.1380933 L76.0575759,10.6448775 C75.3354854,9.90235454 74.6133949,9.15983159 73.8818033,8.42682816 C73.1730209,7.72710717 72.4243373,7.06915556 71.6395223,6.45628647 C70.1134424,5.24109498 68.4040036,4.27707759 66.5753877,3.60042894 C64.8166787,2.90330843 62.9208942,2.62311618 61.0361936,2.78174979 C59.1992615,3.01814913 57.4785172,3.81208263 56.1050757,5.05691628 C54.6690568,6.26725499 53.5338192,7.79577601 52.7891602,9.52157354 C52.1203014,11.2441106 52.0500145,13.1421635 52.5896352,14.9096247 C52.8756152,15.8219426 53.2544892,16.7023712 53.7202768,17.5370136 C54.1843054,18.4008681 54.7081527,19.2310983 55.2879733,20.0216097 C55.8883437,20.814656 56.5389308,21.5682496 57.2357174,22.2777371 L59.3449817,24.5338646 L63.5920139,29.0841976 L81.1217105,47.7995838 C84.1240867,51.010837 87.1866371,54.2728609 90.3093618,57.5856556 L95.0599571,62.6119649 L97.4732595,65.1631976 L98.698913,66.4483335 C99.1866682,66.9309023 99.6055162,67.4786979 99.943569,68.0761722 C100.333022,68.7974822 100.479645,69.6254946 100.361621,70.4370145 C100.229769,71.2943451 99.7739252,72.0680475 99.0884619,72.5979467 C98.3695071,73.1642139 97.4348821,73.3773562 96.5421428,73.1786377 C95.7669173,72.9810418 95.0645473,72.5647535 94.5183892,71.9791775 C92.7891725,70.2212386 91.0567888,68.4410874 89.3212379,66.638724 L78.6228974,55.5484773 C66.3948651,42.2972984 59.2784733,35.6717089 51.8580435,26.8566287 L43.5445017,18.2890561 L39.4019826,14.0052698 C38.1153734,12.6074709 36.5984086,11.441791 34.9174207,10.5592018 C31.5492479,8.84353875 27.5939036,8.71795146 24.1240682,10.2164989 C20.7652162,11.8151237 18.4997246,15.0733008 18.1668217,18.7840714 C17.973374,22.5061137 19.2498618,26.1548859 21.720267,28.9414047 C24.2285813,31.7401451 26.907917,34.5484049 29.4447349,37.3090672 L44.4186113,53.6445722 C52.6371411,61.8789614 60.5706353,69.6564134 69.4637496,79.0141065 L73.5112568,83.2502952 L75.4970057,85.3541102 C75.8200461,85.6872936 76.1810914,86.0775942 76.5231342,86.4869337 C76.6941557,86.6963633 76.8651771,86.9248319 77.0266973,87.1533005 C77.2042395,87.4130579 77.3660511,87.6832642 77.5112581,87.9624601 C77.8715384,88.697997 77.9623401,89.5370066 77.7677902,90.3328219 C77.5589151,91.078549 77.1280328,91.742724 76.5326354,92.2367269 C75.9344634,92.7619107 75.1792173,93.0732975 74.3853664,93.1220427 C73.6034098,93.1552914 72.8302765,92.9458433 72.1715889,92.5223126 C71.9224985,92.3512754 71.6902519,92.1568319 71.478002,91.9416216 L70.879427,91.3894891 C70.4993794,91.0182277 70.2143437,90.7040833 69.929308,90.3613804 L68.0290699,88.3337216 L52.3996114,72.0362947 L35.9530505,54.710759 L26.9744254,45.3245073 C25.4916467,43.6720989 23.8705373,42.1497742 22.1288182,40.7741743 C20.4413109,39.4163413 18.4486005,38.4915864 16.3235907,38.0801487 C16.8176526,38.2039026 16.4471062,37.975434 15.7155145,37.8516801 L15.1264407,37.7469654 L14.4613574,37.7469654 C14.0321534,37.7282825 13.6026555,37.7764534 13.1881978,37.8897582 C12.1058725,38.1551037 11.0751659,38.5990663 10.1383157,39.2034527 C8.85668865,40.0051591 7.77458148,41.0893544 6.9744192,42.3734546 C4.92647649,45.719631 4.71532949,49.8790066 6.41384896,53.4161036 C6.90926273,54.3710964 7.52210871,55.2601586 8.23807755,56.0625316 C8.5896216,56.4623517 9.03617756,56.9192889 9.44472875,57.3667065 L10.7083871,58.69944 L15.7250157,64.011335 C19.0219289,67.4954812 22.1668229,70.827315 24.8651611,73.6641335 L55.5065007,105.744933 L57.8437936,108.191451 C58.4420872,108.821779 58.8761057,109.590134 59.1074519,110.428539 C59.2239555,110.927687 59.2465107,111.444229 59.1739602,111.951663 C58.9761643,113.446173 58.0249805,114.733648 56.6561447,115.359653 C55.7274138,115.798839 54.672349,115.890026 53.6822721,115.61668 C52.8320867,115.356242 52.0631456,114.880873 51.4494923,114.236349 L50.2523423,112.998811 C47.0694434,109.705055 43.8295375,106.335143 40.5611279,102.99379 L20.9981765,82.8219166 C19.5837115,81.1157799 17.9176598,79.6359108 16.0575574,78.4334155 C15.1640595,77.9305112 14.2046021,77.5556008 13.2072002,77.3196311 C12.2274326,77.0813882 11.2103542,77.0393326 10.2143252,77.1958773 C9.23360618,77.3884205 8.29848363,77.7664221 7.45897992,78.3096617 C6.52025567,78.9315301 5.65626977,79.6598287 4.88415727,80.4801134 C3.33432646,81.9920303 2.40272385,84.0285401 2.27132986,86.1918285 C2.23930103,87.316206 2.39012452,88.4383118 2.71788582,89.5141427 C2.88055228,90.0534618 3.09369187,90.5761834 3.35446559,91.0753448 C3.63121434,91.6039772 3.94889362,92.110062 4.30458465,92.5889493 C5.07418109,93.6836947 5.87228109,94.759401 6.70838586,95.7970292 C7.12643825,96.3110836 7.55399183,96.8156184 8.00054778,97.3106337 C8.44710374,97.805649 8.90316089,98.2625862 9.3972228,98.7956796 C13.2800427,102.850997 17.2167026,107.026896 21.2072027,111.323375 L43.1549529,135.522007 C46.9554292,139.647135 50.7559054,143.807167 54.5563816,148.002105 C56.4566197,150.077361 58.3568578,152.219254 60.3236043,154.256433 C62.2903507,156.293611 64.2760996,158.340309 66.2998532,160.32989 C74.3207167,168.301676 82.9659357,175.61702 92.1525927,182.205758 C96.6157677,185.44928 101.455648,188.137608 106.565899,190.211679 C109.077096,191.20161 111.659244,192.000343 114.290367,192.60108 C116.893693,193.210329 119.535024,193.476876 122.13835,193.829098 L122.13835,193.829098 C119.962578,193.543513 117.938824,193.305525 117.387755,193.20081 L118.062339,193.305525 L122.109847,193.829098 L122.109847,193.829098 C120.789181,193.638708 119.050463,193.457837 117.18823,193.162732 C115.264042,192.870012 113.360068,192.456688 111.487516,191.925193 C108.854813,191.180339 106.279556,190.244967 103.78205,189.126453 C99.0280952,186.95217 94.5075366,184.298394 90.2903594,181.206208 C86.5848951,178.597858 83.3544903,176.122782 80.0195724,173.447795 C72.9483332,167.790926 66.1893425,161.75298 59.7725352,155.360698 C53.2072126,148.69703 46.5753815,141.662101 39.820035,134.617652 L19.7155158,113.284397 L9.72026328,102.689165 C6.40434777,99.2050192 3.06942987,95.6351973 0.931661993,91.3228525 C-0.0435835515,88.9899434 -0.259691604,86.4082983 0.314084606,83.9452205 C0.904906775,81.8224271 2.06099495,79.9006704 3.65850369,78.3858179 C5.00607418,76.9594936 6.65528068,75.853564 8.4851085,75.1491794 C10.2170839,74.5589426 12.0782374,74.4601045 13.8627824,74.8635936 C15.5730219,75.2326759 17.1897438,75.9486459 18.6133777,76.9674087 C19.9963123,77.998442 21.269828,79.1691475 22.4138539,80.4610744 C24.8556599,82.993268 27.3639742,85.6777741 30.1668254,88.7811393 C34.9934302,93.6075385 40.5421255,99.2526168 46.5848827,105.373671 L51.1929602,110.133434 L53.530253,112.522835 C54.0743945,113.164285 55.0153347,113.28779 55.7060257,112.808421 C56.3690337,112.389491 56.6273746,111.548263 56.3141019,110.828359 C56.0849984,110.398417 55.7827598,110.011836 55.42099,109.686016 L54.1953364,108.4104 L49.1977101,103.222259 L7.82952635,60.384396 L6.60387277,58.9374282 C6.19532157,58.49953 5.72026204,57.9854757 5.32121204,57.4619018 C4.51367926,56.419251 3.83718472,55.2810586 3.30695964,54.0729509 C1.42324445,49.4733782 2.03343668,44.2263874 4.92216204,40.1839638 C6.25106037,38.3670648 8.04732311,36.9457066 10.1193133,36.071529 C12.0789622,35.2543828 14.2171583,34.962397 16.3235907,35.2242912 C18.2815596,35.496839 20.1632863,36.1674044 21.8532836,37.1948329 C23.3754272,38.1330415 24.7984217,39.2238765 26.1003158,40.4505105 C27.3924778,41.6499706 28.4566111,42.8399113 29.5872528,43.9822543 C38.470866,53.2161936 46.3853577,61.4791414 56.0955745,72.1600485 L67.8200437,83.935701 L70.7464104,86.8867538 L72.2095937,88.3622802 L72.9411854,89.1048031 L73.568264,89.6854942 C73.6789939,89.830088 73.826742,89.9419354 73.9958175,90.009158 C74.0708271,90.0266278 74.1488365,90.0266278 74.2238461,90.009158 C74.2994837,89.9982212 74.3712712,89.9687969 74.4328723,89.9234823 C74.5299099,89.8458054 74.6133905,89.7525128 74.6799033,89.6474161 C74.7369104,89.4855841 74.7369104,89.5617403 74.6799033,89.3142327 C74.6799033,89.3142327 74.5943925,89.1714398 74.518383,89.0572055 L74.2808533,88.7240221 C74.1098318,88.505073 73.9103068,88.2766044 73.7012806,88.0481358 L49.8437911,62.9832263 L23.668011,35.2718889 L20.1430693,31.5116764 C18.8303958,30.0890885 17.7266725,28.4864027 16.8651586,26.7519139 C15.9732392,24.9166704 15.4287975,22.9315951 15.2594574,20.897406 C15.0977558,18.7735891 15.4227393,16.6408395 16.2095764,14.6621171 C17.8755148,10.4782309 21.5594126,7.43709993 25.9768004,6.59907934 C28.1449069,6.17372405 30.3777287,6.20614623 32.5326219,6.69427459 C34.7130363,7.21219125 36.763576,8.17462895 38.5563767,9.52157354 C39.4453672,10.1739109 40.2780681,10.8999497 41.0456886,11.6920253 L43.107447,13.862477 L47.2119613,18.1938609 L55.3544816,26.7614334 L71.4970044,43.7918638 L87.5730189,60.6509427 C90.2333522,63.4401635 92.9411916,66.3626577 95.5825225,69.0186052 L96.5326416,70.0467139 C96.6810324,70.2053308 96.8627758,70.3288947 97.0647083,70.4084559 C97.1882237,70.4084559 97.2072261,70.4084559 97.2547321,70.4084559 C97.3465971,70.3662792 97.4230034,70.2963823 97.4732595,70.2085459 C97.6353194,69.9022398 97.6017911,69.5289849 97.3877487,69.2565934 C97.1974887,68.9539606 96.9709396,68.6758224 96.7131642,68.4283947 L95.7630452,67.3622079 L63.6680234,33.0919176 L55.5350042,24.4291498 L54.5088757,23.3344044 C54.1383292,22.9250648 53.7867852,22.5062057 53.4447423,22.0778271 C52.7832973,21.2235229 52.1832141,20.3232518 51.6490173,19.3838015 C50.4384192,17.4376805 49.7178339,15.2260171 49.5492542,12.939083 C49.4781167,10.5644659 50.1673112,8.22935927 51.5160006,6.27541549 C52.1470017,5.33682745 52.8729324,4.46594366 53.6822721,3.67658515 C54.5026043,2.84547176 55.4253207,2.12250871 56.4281162,1.52517248 C58.501457,0.328383686 60.8980566,-0.184499166 63.2784746,0.0591656187 C65.5244834,0.311981656 67.7048896,0.976723788 69.7107806,2.02018778 C71.4226452,2.96867879 73.0171446,4.11573862 74.4613759,5.43769728 C76.0480747,6.87514557 77.4257473,8.41730863 78.9934438,9.97851074 L88.4946344,19.6884263 C94.8034249,26.1141057 100.532643,32.0638089 102.860435,34.9196664 C109.140721,40.9360063 117.378254,49.2941493 125.539776,57.7094094 L137.463771,70.084792 C141.216741,74.073473 144.865198,77.5480997 147.99109,80.5562696 L151.791566,83.7738691 C152.493154,84.3068577 153.468285,84.2871599 154.147861,83.7262715 C154.493996,83.4781869 154.777134,83.1521131 154.974465,82.774319 C155.064351,82.5879664 155.125231,82.3889234 155.154987,82.1841084 C155.18354,81.9278772 155.18354,81.669258 155.154987,81.4130269 C155.048562,80.7355514 154.850377,80.0757926 154.565914,79.4520047 L153.682303,76.8341353 C152.105105,72.3789976 150.565912,68.0476137 149.045722,63.8019055 L146.79394,57.4904604 C145.964951,55.4013855 145.291688,53.2536056 144.779687,51.0647809 C144.296273,48.8781118 144.085637,46.6397762 144.152609,44.4011134 C144.19854,42.1495141 144.517588,39.9118666 145.102728,37.7374458 C146.287247,33.4135875 148.580091,29.4754134 151.753561,26.3140158 C153.318027,24.7297473 155.040404,23.3102707 156.893705,22.0778271 C157.924458,21.3979365 159.104933,20.9797253 160.333136,20.8593279 C161.622172,20.7595816 162.913794,21.0164287 164.067104,21.6018509 C165.205606,22.1927442 166.183779,23.0519302 166.917461,24.1054859 C167.277001,24.623433 167.579628,25.1787888 167.820074,25.7618833 C168.076607,26.3330548 168.228626,26.7995115 168.437652,27.3230854 L170.784446,33.5298158 C174.014851,41.8594002 177.35927,50.4840899 180.931717,59.6704316 C184.295139,68.6378242 187.164499,75.9964171 189.482789,82.431616 C191.80108,88.866815 193.425783,94.5309324 195.468539,99.3763707 C197.651575,104.28221 198.975728,109.527859 199.38303,114.883677 C199.758723,120.698113 199.145071,126.534229 197.568302,132.142576 C196.669814,135.284766 195.522875,138.350233 194.138372,141.309879 C192.950724,143.851592 191.782077,145.993485 190.60393,147.973546 C188.038433,152.313379 185.181492,156.47348 182.052858,160.425085 C179.83514,163.23901 177.445777,165.912759 174.898461,168.431006 C171.047872,172.309915 166.95062,175.934919 162.632424,179.283264 C159.72506,181.501313 157.80582,182.891164 155.592042,184.300054 C153.106116,185.916632 150.51255,187.360636 147.82957,188.621918 C145.070585,189.913778 142.210676,190.977169 139.278498,191.80144 C137.910327,192.19174 136.599162,192.486845 135.402012,192.753392 C134.204862,193.019939 133.112225,193.105615 132.19061,193.257927 L128.979207,193.771981 Z" id="Path" fill="#2E316A"></path>
            <path d="M129.083721,194.942883 C127.354504,194.771531 130.879446,194.209879 135.734554,193.410239 C138.313578,192.881274 140.853224,192.175162 143.335506,191.296905 C145.536859,190.495293 147.679812,189.541031 149.74881,188.441047 C151.278502,187.489095 154.603918,185.58519 157.948337,183.110113 C161.118068,180.813657 164.156878,178.341051 167.050478,175.703923 C171.120143,172.175727 174.930506,168.358011 178.451907,164.280493 C181.862834,160.339409 184.570673,156.664873 186.166874,154.561058 C189.830976,148.840092 192.842699,142.725194 195.145499,136.331167 C197.47329,129.505668 198.879466,121.823411 197.995856,114.122115 C197.601326,110.691026 196.777764,107.323257 195.544549,104.098055 C194.945974,102.489255 194.204881,100.928053 193.454287,99.2526168 C192.703693,97.5771804 192.010106,95.7970292 191.307018,93.8836047 C189.900841,90.0186775 188.608679,86.2679847 187.116993,82.4601746 L182.537419,70.4941316 L171.658555,42.3924936 L165.568292,26.5710429 C165.09556,25.4469378 164.280984,24.5008724 163.240501,23.8674978 C162.22086,23.2682143 161.014845,23.0713496 159.858077,23.3153654 C159.269645,23.4397912 158.70712,23.6652352 158.195368,23.9817321 C157.905234,24.1547544 157.626005,24.3455055 157.359264,24.5529036 L156.494655,25.1907118 C155.356479,26.0633732 154.283179,27.0178451 153.283253,28.0465693 C152.277559,29.0611814 151.367888,30.1670027 150.565912,31.3498445 C149.746144,32.5153887 149.048849,33.762732 148.485152,35.0719788 C147.359474,37.7089115 146.715836,40.527039 146.584914,43.3920437 C146.414282,46.2781835 146.719233,49.1727766 147.487527,51.9596163 C147.848572,53.349467 148.371137,54.69172 148.893703,56.1291683 C149.416268,57.5666166 149.91033,58.9850258 150.413893,60.3653569 C152.428146,65.9913963 154.413895,71.5603184 156.352137,76.9864477 C156.599168,77.662334 156.836698,78.3477398 157.074228,79.0141065 C157.218123,79.3902495 157.338701,79.7749356 157.435273,80.1659691 C157.533135,80.588506 157.596684,81.0182893 157.625297,81.451105 C157.639769,81.912393 157.591827,82.3735201 157.482779,82.8219166 C157.369289,83.3071552 157.176679,83.770311 156.912708,84.1927282 C156.397755,84.9908578 155.665955,85.624987 154.803443,86.020477 C153.888236,86.4334954 152.853304,86.4944913 151.896079,86.1918285 C151.677552,86.1061527 151.449523,86.0109575 151.230996,85.9062427 C151.012468,85.8015279 150.831946,85.6682546 150.641922,85.5349812 L150.138359,85.1066026 L149.767812,84.7448606 L146.812942,81.8890031 C143.088475,78.4619741 140.285624,75.9773781 137.587286,73.3880672 C134.888948,70.7987564 132.219113,68.2380042 128.665668,64.6491432 L89.4067487,24.2958764 L80.4566271,15.1380933 L76.0575759,10.6448775 C75.3354854,9.90235454 74.6133949,9.15983159 73.8818033,8.42682816 C73.1730209,7.72710717 72.4243373,7.06915556 71.6395223,6.45628647 C70.1134424,5.24109498 68.4040036,4.27707759 66.5753877,3.60042894 C64.8166787,2.90330843 62.9208942,2.62311618 61.0361936,2.78174979 C59.1992615,3.01814913 57.4785172,3.81208263 56.1050757,5.05691628 C54.6690568,6.26725499 53.5338192,7.79577601 52.7891602,9.52157354 C52.1203014,11.2441106 52.0500145,13.1421635 52.5896352,14.9096247 C52.8756152,15.8219426 53.2544892,16.7023712 53.7202768,17.5370136 C54.1843054,18.4008681 54.7081527,19.2310983 55.2879733,20.0216097 C55.8883437,20.814656 56.5389308,21.5682496 57.2357174,22.2777371 L59.3449817,24.5338646 L63.5920139,29.0841976 L81.1217105,47.7995838 C84.1240867,51.010837 87.1866371,54.2728609 90.3093618,57.5856556 L95.0599571,62.6119649 L97.4732595,65.1631976 L98.698913,66.4483335 C99.1866682,66.9309023 99.6055162,67.4786979 99.943569,68.0761722 C100.333022,68.7974822 100.479645,69.6254946 100.361621,70.4370145 C100.229769,71.2943451 99.7739252,72.0680475 99.0884619,72.5979467 C98.3695071,73.1642139 97.4348821,73.3773562 96.5421428,73.1786377 C95.7669173,72.9810418 95.0645473,72.5647535 94.5183892,71.9791775 C92.7891725,70.2212386 91.0567888,68.4410874 89.3212379,66.638724 L78.6228974,55.5484773 C66.3948651,42.2972984 59.2784733,35.6717089 51.8580435,26.8566287 L43.5445017,18.2890561 L39.4019826,14.0052698 C38.1153734,12.6074709 36.5984086,11.441791 34.9174207,10.5592018 C31.5492479,8.84353875 27.5939036,8.71795146 24.1240682,10.2164989 C20.7652162,11.8151237 18.4997246,15.0733008 18.1668217,18.7840714 C17.973374,22.5061137 19.2498618,26.1548859 21.720267,28.9414047 C24.2285813,31.7401451 26.907917,34.5484049 29.4447349,37.3090672 L44.4186113,53.6445722 C52.6371411,61.8789614 60.5706353,69.6564134 69.4637496,79.0141065 L73.5112568,83.2502952 L75.4970057,85.3541102 C75.8200461,85.6872936 76.1810914,86.0775942 76.5231342,86.4869337 C76.6941557,86.6963633 76.8651771,86.9248319 77.0266973,87.1533005 C77.2042395,87.4130579 77.3660511,87.6832642 77.5112581,87.9624601 C77.8715384,88.697997 77.9623401,89.5370066 77.7677902,90.3328219 C77.5589151,91.078549 77.1280328,91.742724 76.5326354,92.2367269 C75.9344634,92.7619107 75.1792173,93.0732975 74.3853664,93.1220427 C73.6034098,93.1552914 72.8302765,92.9458433 72.1715889,92.5223126 C71.9224985,92.3512754 71.6902519,92.1568319 71.478002,91.9416216 L70.879427,91.3894891 C70.4993794,91.0182277 70.2143437,90.7040833 69.929308,90.3613804 L68.0290699,88.3337216 L52.3996114,72.0362947 L35.9530505,54.710759 L26.9744254,45.3245073 C25.4916467,43.6720989 23.8705373,42.1497742 22.1288182,40.7741743 C20.4413109,39.4163413 18.4486005,38.4915864 16.3235907,38.0801487 C16.8176526,38.2039026 16.4471062,37.975434 15.7155145,37.8516801 L15.1264407,37.7469654 L14.4613574,37.7469654 C14.0321534,37.7282825 13.6026555,37.7764534 13.1881978,37.8897582 C12.1058725,38.1551037 11.0751659,38.5990663 10.1383157,39.2034527 C8.85668865,40.0051591 7.77458148,41.0893544 6.9744192,42.3734546 C4.92647649,45.719631 4.71532949,49.8790066 6.41384896,53.4161036 C6.90926273,54.3710964 7.52210871,55.2601586 8.23807755,56.0625316 C8.5896216,56.4623517 9.03617756,56.9192889 9.44472875,57.3667065 L10.7083871,58.69944 L15.7250157,64.011335 C19.0219289,67.4954812 22.1668229,70.827315 24.8651611,73.6641335 L55.5065007,105.744933 L57.8437936,108.191451 C58.4420872,108.821779 58.8761057,109.590134 59.1074519,110.428539 C59.2239555,110.927687 59.2465107,111.444229 59.1739602,111.951663 C58.9761643,113.446173 58.0249805,114.733648 56.6561447,115.359653 C55.7274138,115.798839 54.672349,115.890026 53.6822721,115.61668 C52.8320867,115.356242 52.0631456,114.880873 51.4494923,114.236349 L50.2523423,112.998811 C47.0694434,109.705055 43.8295375,106.335143 40.5611279,102.99379 L20.9981765,82.8219166 C19.5837115,81.1157799 17.9176598,79.6359108 16.0575574,78.4334155 C15.1640595,77.9305112 14.2046021,77.5556008 13.2072002,77.3196311 C12.2274326,77.0813882 11.2103542,77.0393326 10.2143252,77.1958773 C9.23360618,77.3884205 8.29848363,77.7664221 7.45897992,78.3096617 C6.52025567,78.9315301 5.65626977,79.6598287 4.88415727,80.4801134 C3.33432646,81.9920303 2.40272385,84.0285401 2.27132986,86.1918285 C2.23930103,87.316206 2.39012452,88.4383118 2.71788582,89.5141427 C2.87644336,90.0549122 3.08974474,90.5780306 3.35446559,91.0753448 C3.6305615,91.6043534 3.94827243,92.1104886 4.30458465,92.5889493 C5.07418109,93.6932142 5.8627799,94.7689205 6.69888467,95.8065488 C7.11693706,96.3301227 7.54449064,96.8346575 7.9815454,97.3296728 C8.41860017,97.8246881 8.88415851,98.2816253 9.36871923,98.8242382 L21.2357063,111.380492 C28.3806016,119.081788 35.8675397,127.087708 43.4684922,135.236422 L55.0504435,147.554687 C56.9981876,149.601385 58.9174281,151.724239 60.9031769,153.732859 C62.8889258,155.741479 64.8841758,157.750098 66.9269317,159.701601 C75.0134399,167.514607 83.6570421,174.727266 92.7891725,181.282364 C97.1815062,184.47756 101.929003,187.151383 106.936445,189.250207 C109.388479,190.248129 111.909797,191.065798 114.480391,191.696725 C115.763051,192.00135 117.045712,192.248857 118.337874,192.467806 L122.242863,193.058017 L122.13835,193.058017 L128.019587,193.19129 C130.005336,193.648227 125.862817,193.714864 122.13835,193.819579 L122.13835,193.819579 C120.563028,193.60946 118.976787,193.491851 117.387755,193.467356 C116.71317,193.467356 117.102719,193.562552 118.052838,193.752942 C119.002957,193.943333 120.513647,194.133723 122.090844,194.352672 L122.157353,194.352672 C127.050466,194.352672 132.608662,194.352672 124.542151,194.562102 C125.49227,194.80009 124.361629,194.933363 122.157353,195 L122.109847,195 L122.005334,195 C120.665666,194.857207 118.955451,194.695375 117.045712,194.39075 C115.070833,194.075748 113.11885,193.630536 111.20248,193.058017 C108.527035,192.267759 105.928847,191.235401 103.440007,189.973691 C98.6231397,187.798293 94.0656208,185.087244 89.8533046,181.891614 C86.1763439,179.216627 82.993445,176.655875 79.6965319,173.914252 C72.6134849,168.224897 65.8687804,162.125149 59.4970007,155.646283 C52.979184,148.887421 46.4233625,141.823933 39.7345243,134.703328 L19.7155158,113.284397 L9.72976447,102.679646 C6.41384896,99.2050192 3.07893106,95.6351973 0.931661993,91.3228525 C-0.0435835515,88.9899434 -0.259691604,86.4082983 0.314084606,83.9452205 C0.904906775,81.8224271 2.06099495,79.9006704 3.65850369,78.3858179 C5.00607418,76.9594936 6.65528068,75.853564 8.4851085,75.1491794 C10.2170839,74.5589426 12.0782374,74.4601045 13.8627824,74.8635936 C15.5730219,75.2326759 17.1897438,75.9486459 18.6133777,76.9674087 C19.9963123,77.998442 21.269828,79.1691475 22.4138539,80.4610744 C24.8556599,82.993268 27.3639742,85.6777741 30.1668254,88.7811393 C34.9934302,93.6075385 40.5421255,99.2526168 46.5848827,105.373671 L51.1929602,110.133434 L53.530253,112.522835 C54.0743945,113.164285 55.0153347,113.28779 55.7060257,112.808421 C56.3690337,112.389491 56.6273746,111.548263 56.3141019,110.828359 C56.0849984,110.398417 55.7827598,110.011836 55.42099,109.686016 L54.1953364,108.4104 L49.1977101,103.222259 L7.82952635,60.384396 L6.60387277,58.9374282 C6.19532157,58.49953 5.72026204,57.9854757 5.32121204,57.4619018 C4.51367926,56.419251 3.83718472,55.2810586 3.30695964,54.0729509 C1.42324445,49.4733782 2.03343668,44.2263874 4.92216204,40.1839638 C6.25106037,38.3670648 8.04732311,36.9457066 10.1193133,36.071529 C12.0789622,35.2543828 14.2171583,34.962397 16.3235907,35.2242912 C18.2815596,35.496839 20.1632863,36.1674044 21.8532836,37.1948329 C23.3754272,38.1330415 24.7984217,39.2238765 26.1003158,40.4505105 C27.3924778,41.6499706 28.4566111,42.8399113 29.5872528,43.9822543 C38.470866,53.2161936 46.3853577,61.4791414 56.0955745,72.1600485 L67.8200437,83.935701 L70.7464104,86.8867538 L72.2095937,88.3622802 L72.9411854,89.1048031 L73.568264,89.6854942 C73.6789939,89.830088 73.826742,89.9419354 73.9958175,90.009158 C74.0708271,90.0266278 74.1488365,90.0266278 74.2238461,90.009158 C74.2994837,89.9982212 74.3712712,89.9687969 74.4328723,89.9234823 C74.5299099,89.8458054 74.6133905,89.7525128 74.6799033,89.6474161 C74.7369104,89.4855841 74.7369104,89.5617403 74.6799033,89.3142327 C74.6799033,89.3142327 74.5943925,89.1714398 74.518383,89.0572055 L74.2808533,88.7240221 C74.1098318,88.505073 73.9103068,88.2766044 73.7012806,88.0481358 L49.8437911,62.9832263 L23.668011,35.2718889 L20.1430693,31.5116764 C18.8303958,30.0890885 17.7266725,28.4864027 16.8651586,26.7519139 C15.9732392,24.9166704 15.4287975,22.9315951 15.2594574,20.897406 C15.0977558,18.7735891 15.4227393,16.6408395 16.2095764,14.6621171 C17.8755148,10.4782309 21.5594126,7.43709993 25.9768004,6.59907934 C28.1449069,6.17372405 30.3777287,6.20614623 32.5326219,6.69427459 C34.7130363,7.21219125 36.763576,8.17462895 38.5563767,9.52157354 C39.4453672,10.1739109 40.2780681,10.8999497 41.0456886,11.6920253 L43.107447,13.862477 L47.2119613,18.1938609 L55.3544816,26.7614334 L71.4970044,43.7918638 L87.5730189,60.6509427 C90.2333522,63.4401635 92.9411916,66.3626577 95.5825225,69.0186052 L96.5326416,70.0467139 C96.6810324,70.2053308 96.8627758,70.3288947 97.0647083,70.4084559 C97.1882237,70.4084559 97.2072261,70.4084559 97.2547321,70.4084559 C97.3465971,70.3662792 97.4230034,70.2963823 97.4732595,70.2085459 C97.6353194,69.9022398 97.6017911,69.5289849 97.3877487,69.2565934 C97.1974887,68.9539606 96.9709396,68.6758224 96.7131642,68.4283947 L95.7630452,67.3622079 L63.6680234,33.0919176 L55.5350042,24.4291498 L54.5088757,23.3344044 C54.1383292,22.9250648 53.7867852,22.5062057 53.4447423,22.0778271 C52.7832973,21.2235229 52.1832141,20.3232518 51.6490173,19.3838015 C50.4384192,17.4376805 49.7178339,15.2260171 49.5492542,12.939083 C49.4781167,10.5644659 50.1673112,8.22935927 51.5160006,6.27541549 C52.1470017,5.33682745 52.8729324,4.46594366 53.6822721,3.67658515 C54.5026043,2.84547176 55.4253207,2.12250871 56.4281162,1.52517248 C58.501457,0.328383686 60.8980566,-0.184499166 63.2784746,0.0591656187 C65.5244834,0.311981656 67.7048896,0.976723788 69.7107806,2.02018778 C71.4226452,2.96867879 73.0171446,4.11573862 74.4613759,5.43769728 C76.0480747,6.87514557 77.4257473,8.41730863 78.9934438,9.97851074 L88.4946344,19.6884263 C94.8034249,26.1141057 100.532643,32.0638089 102.860435,34.9196664 C109.140721,40.9360063 117.378254,49.2941493 125.539776,57.7094094 L137.463771,70.084792 C141.216741,74.073473 144.865198,77.5480997 147.99109,80.5562696 L151.791566,83.7738691 C152.493154,84.3068577 153.468285,84.2871599 154.147861,83.7262715 C154.493996,83.4781869 154.777134,83.1521131 154.974465,82.774319 C155.064351,82.5879664 155.125231,82.3889234 155.154987,82.1841084 C155.18354,81.9278772 155.18354,81.669258 155.154987,81.4130269 C155.048562,80.7355514 154.850377,80.0757926 154.565914,79.4520047 L153.682303,76.8341353 C152.105105,72.3789976 150.565912,68.0476137 149.045722,63.8019055 L146.79394,57.4904604 C145.964951,55.4013855 145.291688,53.2536056 144.779687,51.0647809 C144.296273,48.8781118 144.085637,46.6397762 144.152609,44.4011134 C144.19854,42.1495141 144.517588,39.9118666 145.102728,37.7374458 C146.287247,33.4135875 148.580091,29.4754134 151.753561,26.3140158 C153.318027,24.7297473 155.040404,23.3102707 156.893705,22.0778271 C157.924458,21.3979365 159.104933,20.9797253 160.333136,20.8593279 C161.622172,20.7595816 162.913794,21.0164287 164.067104,21.6018509 C165.205606,22.1927442 166.183779,23.0519302 166.917461,24.1054859 C167.277001,24.623433 167.579628,25.1787888 167.820074,25.7618833 C168.076607,26.3330548 168.228626,26.7995115 168.437652,27.3230854 L170.784446,33.5298158 C174.014851,41.8594002 177.35927,50.4840899 180.931717,59.6704316 C184.295139,68.6378242 187.078988,76.0249757 189.482789,82.4411356 C191.88659,88.8572955 193.5588,94.5023738 195.649062,99.309734 C197.906726,104.217944 199.317071,109.474295 199.820084,114.855118 C200.30096,120.717323 199.816264,126.61886 198.385405,132.323447 C197.543547,135.528955 196.437613,138.658929 195.07899,141.68114 C194.028054,144.016499 192.861115,146.297692 191.582552,148.516159 C189.022818,152.934942 186.231914,157.215172 183.221504,161.338959 C179.345019,166.174878 177.406776,168.764189 176.105113,169.582868 C172.219076,173.545005 168.094149,177.264603 163.753565,180.720712 C161.487764,182.60105 159.028992,184.234884 156.418646,185.594709 C153.878362,187.256199 151.231263,188.747668 148.494653,190.059366 C145.674788,191.413161 142.74396,192.521509 139.734555,193.372161 C138.318878,193.771981 136.969709,194.076606 135.734554,194.324114 C134.499399,194.571621 133.368757,194.657297 132.418638,194.781051 C131.321222,195 130.197206,195.055445 129.083721,194.942883 Z" id="Path" fill="#2E316A"></path>
            <path d="M61.5207543,108.448478 C62.0718234,109.057728 61.5967638,108.8007 61.6252674,108.962532 C61.8437948,109.276677 61.6252674,109.257638 61.7392817,109.467067 C61.6347686,109.524184 61.6252674,109.733614 61.3497329,109.467067 C61.5682603,109.924004 61.2832245,109.857368 61.3497329,110.133434 C61.3843822,110.297776 61.4288002,110.459896 61.4827495,110.61893 C61.4827495,110.780762 61.4257424,110.81884 61.4827495,110.980672 C61.4827495,111.599441 61.5872626,112.465718 60.7796614,112.332444 C60.7796614,112.437159 60.9791864,112.732264 60.9316805,112.836979 C59.9245543,113.084487 59.4209912,113.360553 59.1264543,114.274427 C58.7749102,114.274427 59.1264543,114.674247 58.5088769,114.341064 C58.5088769,114.759923 58.2523448,114.988392 57.7392805,115.02647 C57.9514233,115.280429 58.1331815,115.558385 58.2808483,115.854669 C58.4518698,116.368723 57.7392805,116.23545 57.7297793,116.720945 C57.7297793,116.720945 57.4067388,116.540074 57.5112519,116.62575 C58.0053138,117.03509 57.6632709,117.139804 57.6347674,117.320675 C57.617352,117.735504 57.6492467,118.150935 57.7297793,118.558214 C57.482965,118.603565 57.2857689,118.789958 57.2262162,119.03419 C56.4946245,119.186502 56.5136269,119.776713 55.3259781,119.795752 C54.6323911,119.538725 54.926928,119.519686 54.5373792,119.329295 C54.1478304,119.138905 54.3093507,119.481608 54.0813221,119.215061 C53.2927233,118.919956 53.7867852,118.853319 53.976809,118.900917 C53.976809,118.739085 54.1478304,118.729565 54.3093507,118.701007 C54.3093507,118.244069 54.8794221,117.996562 55.2594697,117.749054 C55.4589947,117.587222 55.0694459,117.282597 55.4969995,117.292117 C55.2056064,116.737007 55.0157549,116.134113 54.9364292,115.511966 C55.5255031,115.321575 55.02194,114.778962 55.8865483,114.893197 C55.42266,114.279576 55.5277226,113.40798 56.1240781,112.922655 C56.9411805,112.589471 57.1597078,111.865988 57.8722971,111.447128 C58.2523448,111.570882 58.1288293,111.066347 58.7464067,111.447128 C58.5088769,110.961633 59.0979507,111.028269 59.41149,111.056828 C59.1074519,110.637969 59.3354805,110.837879 59.2214662,110.590371 C59.7345305,110.485656 59.858046,110.142954 59.7725352,109.381392 C59.9720602,108.933974 60.3046019,109.095806 60.1145781,108.429439 C60.2285924,108.286646 60.5611341,108.581751 60.3996138,108.172412 C60.4851245,108.172412 60.2285924,107.81067 60.4946257,108.086736 C60.7701603,108.086736 60.5421317,107.782111 61.0171912,108.239049 C61.0741984,108.286646 61.0171912,107.915385 61.5207543,108.448478 Z" id="Path" fill="#2E316A"></path>
            <path d="M80.5231355,86.5630899 C81.150214,87.1057029 80.6371498,86.9057928 80.6751545,87.0676248 C80.9221855,87.36273 80.7321617,87.3722496 80.8271736,87.5721596 C80.7226605,87.6387963 80.7226605,87.8577453 80.4281236,87.6673548 C80.6751545,88.105253 80.4281236,88.0766944 80.4281236,88.3527606 C80.4281236,88.4765145 80.551639,88.6954635 80.5801426,88.8477759 C80.6086462,89.0000883 80.5801426,89.066725 80.5801426,89.2285569 C80.6466509,89.8758847 80.6751545,90.8087981 79.8295486,90.7326419 C79.7725414,90.8468762 80.0195724,91.1419815 79.9625652,91.2562158 C79.0452831,91.3869013 78.2688063,92.0012835 77.9293104,92.8650155 C77.558764,92.8650155 77.9293104,93.2838746 77.2737283,92.8650155 C77.2099095,93.2989768 76.8160577,93.6054307 76.3806164,93.5599409 C76.5683,93.8524943 76.7063501,94.1741605 76.7891676,94.5118934 C76.8746783,95.0735453 76.162089,94.8736353 76.0480747,95.3876897 C76.0480747,95.3876897 75.7535378,95.1687406 75.8485497,95.2734554 C76.2761033,95.7494316 75.8485497,95.8351073 75.8485497,96.0159783 C75.7286183,96.458017 75.6522432,96.9107748 75.6205211,97.3677509 C75.3382556,97.3898253 75.0887899,97.5600792 74.964939,97.8151686 C74.166839,97.8151686 74.0148199,98.5005744 72.8556747,98.2530667 C72.2570997,97.8246881 72.5516366,97.8722857 72.2190949,97.5867 C71.8865532,97.3011142 71.9625628,97.6914147 71.8105437,97.3677509 C71.126458,96.8822551 71.6300211,96.9298527 71.8105437,97.025048 C71.8105437,96.844177 72.0385723,96.8917746 72.2095937,96.9012942 C72.2856032,96.4253179 72.9506866,96.3110836 73.4257461,96.1111736 C73.6727771,95.9874197 73.3592378,95.5971192 73.7772902,95.6827949 C73.6157033,95.0618055 73.5484397,94.4199639 73.5777652,93.7788899 C74.2048437,93.6741752 73.7867913,93.0458865 74.5943925,93.2743551 C74.2372611,92.5839292 74.449058,91.735107 75.0884545,91.2942939 C75.9435616,91.0087081 76.2190961,90.2852242 76.9886926,89.8663651 C77.3687402,89.990119 77.2547259,89.4760646 77.8723033,89.8663651 C77.6442747,89.3713498 78.2333485,89.428467 78.556389,89.447506 C78.2523509,89.0286469 78.4898807,89.2190374 78.3663652,88.9715298 C78.8984319,88.8382564 79.0314485,88.4765145 78.9079331,87.7149525 C79.0979569,87.2484957 79.4304985,87.3722496 79.20247,86.763 C79.2974819,86.6106876 79.6680283,86.8677147 79.4685033,86.4774142 C79.554014,86.4774142 79.2594771,86.1251918 79.554014,86.382219 C79.8295486,86.382219 79.554014,86.0680746 80.0955819,86.4774142 C80.1145843,86.4583752 80.0195724,86.0775942 80.5231355,86.5630899 Z" id="Path" fill="#2E316A"></path>
            <path d="M103.154971,65.5439786 C103.877062,65.9342791 103.363998,65.8105253 103.440007,65.9342791 C103.725043,66.1817868 103.554021,66.2008258 103.668036,66.3912163 C103.573024,66.457853 103.573024,66.6672825 103.287988,66.457853 C103.525518,66.9052707 103.230981,66.857673 103.22148,67.1242197 C103.211979,67.3907664 103.30699,67.4859617 103.30699,67.6477936 C103.30699,67.8096255 103.211979,67.8477036 103.192976,68.0190551 C103.116967,68.6759023 103.021955,69.5612182 102.242857,69.3517886 C102.176349,69.4469839 102.375874,69.7801672 102.309365,69.884882 C101.406336,69.857041 100.574838,70.3749153 100.200101,71.1985765 C99.8295547,71.1319398 100.200101,71.607916 99.5540202,71.1985765 C99.467763,71.6386884 99.0441167,71.9273237 98.6039011,71.8459042 C98.7818097,72.143566 98.91921,72.4637182 99.0124523,72.7978567 C99.097963,73.3499891 98.3948749,73.1405596 98.299863,73.6450944 C98.299863,73.6450944 98.0053261,73.4356649 98.100338,73.5403796 C98.5373928,74.0068364 98.1668464,74.0829926 98.100338,74.2733831 C98.0079496,74.7015436 97.9728038,75.1401132 97.9958249,75.577558 C97.7270036,75.6083799 97.4987963,75.7890853 97.4067511,76.0440147 C96.6371547,76.13921 96.5706464,76.7770182 95.4115011,76.6913424 C94.755919,76.3581591 95.0504559,76.3581591 94.6799094,76.1201709 C94.309363,75.8821828 94.4328785,76.2724833 94.2428547,75.9678585 C93.4922606,75.5870775 94.0053249,75.5585189 94.1763463,75.6251556 C94.1763463,75.4442846 94.3853725,75.4538042 94.556394,75.4347651 C94.556394,74.9492693 95.2404797,74.7493593 95.6870356,74.4828126 C95.9150642,74.3305002 95.5825225,73.9687583 96.0100761,74.0163559 C95.8050882,73.4032043 95.7086252,72.758877 95.7250404,72.1124509 C96.3616202,71.969658 95.9435678,71.3508889 96.7606702,71.5507989 C96.352119,70.4846121 96.7606702,70.084792 97.349744,69.5231401 C98.2428559,69.2470738 98.5943999,68.5711875 99.4020011,68.161848 C99.7725476,68.3236799 99.7345428,67.781067 100.295113,68.2856018 C100.133593,67.7715474 100.732168,67.8953013 101.055208,67.9524184 C100.817679,67.4954812 101.055208,67.7239498 100.941194,67.4574031 C101.482762,67.400286 101.701289,67.0575831 101.729793,66.2865015 C101.967323,65.8866815 102.26186,66.0675525 102.033831,65.4678224 C102.090838,65.3726271 102.432881,65.6677324 102.195351,65.31551 C102.252358,65.31551 101.938819,65.0108852 102.195351,65.31551 C102.404377,65.3821466 102.100339,65.1251195 102.632406,65.5059005 C102.784425,65.4202247 102.537394,65.1917561 103.154971,65.5439786 Z" id="Path" fill="#2E316A"></path>
            <path d="M144.418642,130.648011 C143.639544,130.962155 144.00059,130.095878 143.810566,129.800773 C143.411516,129.715097 143.449521,129.182004 143.192989,128.944016 C143.145483,128.487078 142.88895,127.925426 143.192989,127.64936 C142.651421,127.163864 142.80344,126.459419 142.527905,125.745455 C142.394889,125.431311 142.128855,125.183803 141.957834,124.793503 C141.832867,124.425891 141.731317,124.050702 141.653796,123.670199 C141.2864,122.72016 141.018919,121.734314 140.855696,120.728665 C140.673895,119.640022 140.75535,118.52357 141.093225,117.472988 C141.093225,117.006531 140.722679,116.768543 140.713178,116.292567 C141.509882,113.09658 142.144111,109.862124 142.613416,106.60169 C143.107478,105.868687 142.613416,105.287996 143.478024,104.964332 C143.626798,103.539353 144.12987,102.174509 144.941208,100.99469 C144.733402,100.401743 144.633637,99.7762058 144.646671,99.1479021 C144.708742,98.4371217 144.954315,97.7547504 145.35926,97.1678409 C145.782876,96.5068957 146.11827,95.7932084 146.356885,95.0449868 C146.356885,95.0449868 146.727431,95.121143 146.641921,94.9973891 C146.23337,94.3976591 147.002966,93.4076285 147.259498,92.7317422 C147.43052,92.2367269 147.715555,91.5608406 148.019593,90.8278372 C148.323631,90.0948337 148.618168,89.1809593 148.969712,88.3813192 C149.707658,87.6778036 150.346904,86.8772049 150.869951,86.0014379 C151.70839,85.2967434 152.495804,84.5332596 153.226246,83.7167519 C154.003087,82.9192184 154.921349,82.2735807 155.934085,81.8128469 C156.570665,82.1936279 156.019596,82.4506551 156.304632,82.7647994 C156.589667,83.0789438 156.998218,82.1555498 156.855701,82.8219166 C157.56829,83.2693343 156.627672,83.7738691 156.409145,83.6977129 C156.181171,84.0595721 155.850244,84.344719 155.459026,84.516392 C154.994702,85.1996729 154.466594,85.8371761 153.881828,86.4202971 C153.273752,87.0485857 152.599167,87.6578353 152.057599,88.3242021 C151.516031,88.9905688 151.649048,89.6378965 150.907955,90.0567556 C150.831946,91.4466063 150.014843,93.2553161 149.739309,95.0164282 C148.561161,96.3967593 148.960211,97.3867899 147.75356,98.2530667 C147.812818,99.2896684 147.71674,100.329316 147.468524,101.337393 C147.183489,102.346462 146.860448,103.441208 146.451897,104.745383 C145.889928,105.994816 145.460032,107.299755 145.169236,108.638869 C144.903203,109.971602 144.627668,111.313855 144.342633,112.732264 C143.905578,113.265358 144.190614,114.42674 143.392514,114.636169 C143.848571,115.445329 143.288,116.711426 142.983962,117.492027 C143.468523,117.872808 143.164485,117.920406 143.421017,118.291667 C143.272911,119.062906 143.23135,119.850887 143.297502,120.63347 C143.407057,121.447886 143.630967,122.242696 143.962585,122.994312 C144.209616,124.65071 144.010091,125.174284 144.72268,126.192873 C144.836694,126.830681 144.390139,127.144825 144.893702,127.573204 C144.893702,127.84927 145.349759,127.906387 144.979212,128.030141 C144.903203,128.734586 145.321255,128.839301 144.72268,129.182004 C144.665673,129.800773 145.131231,130.46714 144.418642,130.648011 Z" id="Path" fill="#2E316A"></path>
            <path d="M114.5564,137.511588 C113.720295,137.559186 114.309369,136.902338 114.204856,136.559636 C113.843811,136.369245 114.024333,135.912308 113.843811,135.607683 C113.91982,135.198344 113.843811,134.655731 114.204856,134.47486 C113.777302,133.913208 114.090842,133.332517 113.957825,132.675669 C113.900818,132.371045 113.701293,132.094978 113.615782,131.723717 C113.530272,131.352455 113.615782,131.05735 113.530272,130.676569 C113.235735,129.162965 112.922195,126.745005 113.872314,125.088608 C113.872314,124.669749 113.558775,124.412722 113.587279,123.993863 C114.645634,121.24344 115.323339,118.360839 115.601531,115.42629 C116.048087,114.759923 115.601531,114.255388 116.371128,113.931725 C116.396415,112.639481 116.749542,111.374945 117.397256,110.257188 C117.109935,109.750449 116.916781,109.195675 116.827185,108.61983 C116.694168,107.249018 117.615783,106.363702 117.777304,104.754902 C117.777304,104.754902 118.14785,104.754902 118.033836,104.669227 C117.501769,104.20277 118.033836,103.20322 118.100344,102.555892 C118.22386,101.60394 118.38538,99.9475422 118.499394,98.3958596 C118.945149,97.6163846 119.265773,96.771517 119.449513,95.8922245 C120.523148,94.3119833 120.884193,92.1891292 122.413885,90.7992786 C123.145476,90.8944738 122.746426,91.3038134 123.154978,91.4942039 C123.563529,91.6845944 123.535025,90.7326419 123.677543,91.3418915 C124.513648,91.4751649 123.848565,92.2081683 123.677543,92.293844 C123.61576,92.6995904 123.418078,93.0722177 123.116973,93.3505113 C122.731614,94.8726488 122.143599,96.3359165 121.368754,97.7009343 C121.036212,98.5100939 121.368754,98.9670311 120.855689,99.5286831 C121.159728,100.775741 120.931699,102.59397 121.036212,104.288446 C120.228611,105.763972 120.770179,106.60169 119.753551,107.572682 C120.30462,109.562262 119.867566,111.21866 119.316497,113.722295 C118.366378,116.168813 118.128848,118.605811 117.416258,121.195122 C116.960201,121.661579 117.197731,122.765844 116.466139,122.937195 C116.846187,123.717796 116.171603,124.8411 115.820058,125.488428 C116.266614,125.907287 115.953075,125.907287 116.162101,126.278549 C115.646943,127.68717 115.587111,129.222471 115.99108,130.66705 C115.99108,132.237771 115.573028,132.65663 116.048087,133.751376 C116.048087,134.360625 115.535023,134.503418 115.896068,135.046031 C115.820058,135.284019 116.238111,135.46489 115.896068,135.47441 C115.630035,136.083659 116.000581,136.293089 115.325997,136.426362 C115.021958,136.826182 115.268989,137.549666 114.5564,137.511588 Z" id="Path" fill="#2E316A"></path>
            <path d="M54.9649328,173.257405 C54.62289,173.790498 54.4138638,173.047975 54.1383292,172.924221 C53.8437923,173.028936 53.5967614,172.648155 53.3212268,172.591038 C53.0551935,172.305452 52.6181387,172.029386 52.6656447,171.705722 C52.0670697,171.620046 51.7915352,171.096473 51.2689697,170.75377 C51.0219387,170.601457 50.736903,170.563379 50.4518673,170.401547 C50.1668316,170.239715 49.9673066,170.020766 49.6632685,169.830376 C48.4471161,169.106892 46.5848827,167.850315 45.8627922,166.270073 C45.5777565,166.003527 45.2452148,166.060644 44.9696803,165.784578 C43.4725622,163.466591 41.7439458,161.307233 39.8105338,159.339859 C39.5445005,158.654453 38.9744291,158.644934 39.1074457,157.959528 C38.2243378,157.157496 37.5103925,156.18647 37.0076826,155.10367 C36.512824,154.961475 36.0443239,154.739633 35.6205088,154.446823 C34.6133826,153.685261 34.4138576,152.542918 33.3592254,151.49577 C33.3592254,151.49577 33.5397481,151.276821 33.4162326,151.286341 C32.8556623,151.286341 32.3996052,150.401025 32.0005552,149.944088 C31.4304837,149.29676 30.3378468,148.154417 29.3307206,147.08823 C28.992834,146.327024 28.5619894,145.610761 28.0480599,144.955857 C27.4494849,143.299459 26.1478218,141.757296 25.9292944,139.920028 C26.3188432,139.520208 26.4138551,140.024743 26.7273944,139.920028 C27.0409337,139.815313 26.3853516,139.215583 26.8604111,139.510688 C27.3164682,139.053751 27.5159932,139.939067 27.4494849,140.100899 C27.6934866,140.383718 27.8517208,140.730523 27.905542,141.100449 C28.7633605,142.288925 29.4927122,143.56536 30.0813147,144.908259 C30.4803647,145.622223 30.9649254,145.679341 31.0979421,146.374266 C32.2524501,147.250423 33.3593378,148.18785 34.4138576,149.182526 C35.0599385,150.600935 35.8865421,150.781806 36.1050695,152.038383 C37.7297731,152.933219 38.6798922,154.218355 40.1810803,156.093701 C41.5460129,158.071418 43.0111141,159.977818 44.5706303,161.805416 C44.6941458,162.367068 45.5777565,162.890642 45.3497279,163.480852 C46.0813196,163.718841 46.5658803,164.794547 46.8699184,165.384758 C47.3639803,165.384758 47.2309637,165.546589 47.5825077,165.651304 C48.3536831,166.806885 49.4024574,167.749657 50.6323899,168.392927 C51.734528,169.34488 51.8770459,169.820856 52.8746709,170.192118 C53.2832221,170.582418 53.178709,170.95368 53.729778,171.058394 C53.8722959,171.248785 54.1858352,171.058394 54.0243149,171.34398 C54.3378542,171.867554 54.6608947,171.762839 54.4613697,172.295933 C54.6798971,172.600558 55.3164769,172.876624 54.9649328,173.257405 Z" id="Path" fill="#CCCFDB"></path>
            <path d="M39.668016,176.75107 C39.3544767,177.284164 39.2784672,176.75107 39.0884434,176.75107 C38.8509136,176.922422 38.7083957,176.693953 38.4993695,176.75107 C38.3378493,176.589239 38.0338112,176.503563 38.1098207,176.227497 C37.6632648,176.332211 37.5207469,175.979989 37.1597017,175.884794 C36.9886802,175.837196 36.7701529,175.884794 36.5706279,175.837196 C36.3711028,175.789598 36.2475874,175.665845 36.02906,175.599208 C35.1929552,175.36122 33.9007933,174.847165 33.5397481,173.790498 C33.3592254,173.647705 33.0836909,173.790498 32.9031683,173.638186 C32.0974377,172.207595 31.0603955,170.920854 29.8342837,169.830376 C29.748773,169.373439 29.2737135,169.478153 29.5207444,168.93554 C28.9427974,168.504519 28.5328967,167.885115 28.3615992,167.183948 C28.0069223,167.184572 27.6565022,167.106551 27.3354706,166.955479 C26.6323825,166.574698 26.7178932,165.784578 26.0528099,165.175328 C26.0528099,165.175328 26.2618361,164.984937 26.157323,165.013496 C25.6632611,165.12773 25.4827384,164.518481 25.2072039,164.251934 C24.9316694,163.985387 24.2000777,163.195267 23.563498,162.586017 C23.4633201,162.093353 23.2627831,161.626691 22.9744241,161.215206 C22.869911,160.12046 22.1478206,159.168508 22.4138539,157.940489 C22.869911,157.635864 22.8224051,157.940489 23.1359444,157.845294 C23.4494837,157.750098 23.0219301,157.397876 23.3639729,157.559708 C23.8960396,157.217005 23.8295313,157.788177 23.7345194,157.902411 C23.8719778,158.084316 23.9207939,158.318386 23.867536,158.540219 C24.3226837,159.274172 24.6443671,160.083155 24.8176551,160.92962 C24.9886765,161.377037 25.3972277,161.348479 25.3402206,161.824455 C26.1011894,162.271869 26.828396,162.774578 27.5159932,163.32854 C27.7345206,164.280493 28.399604,164.223375 28.2950909,165.070613 C29.4732385,165.432355 29.9768016,166.184398 30.8224076,167.260104 C31.5369739,168.442345 32.3608668,169.554675 33.2832159,170.582418 C33.2832159,170.982238 33.9007933,171.163109 33.6157576,171.677164 C34.1478243,171.677164 34.3568504,172.391128 34.4993683,172.790948 C34.8889171,172.648155 34.7559005,172.790948 35.0219338,172.790948 C35.4548627,173.497021 36.1725414,173.97987 36.9886802,174.114162 C37.6917683,174.571099 37.7392743,174.904283 38.4518636,174.904283 C38.7178969,175.094673 38.5848803,175.427856 38.9934314,175.342181 C39.069441,175.456415 39.3259731,175.237466 39.1739541,175.484974 C39.3449755,175.818157 39.6015076,175.637286 39.3924815,176.094223 C39.5445005,176.275094 39.9815553,176.313172 39.668016,176.75107 Z" id="Path" fill="#CCCFDB"></path>
            <path d="M98.0243285,21.4114604 C97.4067511,21.4114604 97.8058011,21.1734722 97.7107892,21.0497184 C97.4352547,20.9735622 97.549269,20.7926912 97.3972499,20.6879764 C97.3972499,20.5261445 97.3307416,20.316715 97.6062761,20.2500783 C97.2547321,20.0311292 97.4447559,19.8121801 97.3117392,19.555153 C97.2547321,19.4409187 97.0837106,19.3362039 96.9981999,19.193411 C96.9126892,19.0506181 96.9411928,18.9459034 96.8651833,18.793591 C96.5421428,18.2128999 96.1240904,17.289506 96.6846606,16.6516978 C96.6846606,16.4898659 96.3901237,16.3946706 96.3806225,16.2328387 C96.9141303,15.2160781 97.1230765,14.0596716 96.9791975,12.920044 C97.2262285,12.6534973 96.8176773,12.4726263 97.3687464,12.3298334 C97.2310141,11.835551 97.3369022,11.3050892 97.6537821,10.9019047 C97.4019374,10.7409925 97.1853608,10.5304753 97.0172023,10.2831355 C96.7321666,9.76908119 97.2737345,9.39781971 97.1407178,8.77905058 C97.1407178,8.77905058 97.4067511,8.77905058 97.3117392,8.77905058 C96.8461809,8.61721866 97.0647083,8.2173986 97.0362047,7.96989095 C97.0077011,7.7223833 96.8176773,7.01793844 96.6466559,6.37061074 C96.8195673,6.08408229 96.9054092,5.75328408 96.8936868,5.41865823 C97.3877487,4.761811 97.2547321,3.94313185 98.0908368,3.32436272 C98.6419059,3.32436272 98.4328797,3.50523369 98.7559202,3.55283132 C99.0789607,3.60042894 98.8889369,3.23868699 99.1074642,3.46715559 C99.7345428,3.46715559 99.3925,3.78129992 99.2499821,3.8098585 C99.3069892,4.00976852 99.1549702,4.12400282 99.0409559,4.24775665 C99.1739726,4.7998891 98.7844238,5.42817776 98.5658964,5.99934926 C98.4518821,6.32301311 98.8129273,6.48484504 98.5088892,6.72283317 C98.874542,7.28817197 99.1711976,7.89541206 99.3925,8.53154293 C99.0314547,9.13127301 99.544519,9.43589781 98.945944,9.84523739 C99.5047588,10.5060447 99.690799,11.4057797 99.4400059,12.2346382 C99.1825737,13.1943796 98.99209,14.1709015 98.8699345,15.1571324 C98.5753976,15.3475229 98.8699345,15.7759015 98.299863,15.8425382 C98.6514071,16.147163 98.299863,16.5850611 98.0528321,16.7944907 C98.4138773,16.9563226 98.1858488,16.9563226 98.3663714,17.0991155 C98.1071397,17.6607522 98.1881415,18.3210837 98.5753976,18.8031105 C98.6704095,19.4123601 98.4043761,19.5646725 98.8319297,19.9930511 C98.8319297,20.2310392 98.4898868,20.2881564 98.8319297,20.4975859 C98.8319297,20.5927812 99.1169654,20.6689374 98.8319297,20.6689374 C98.6609083,20.897406 98.9554452,20.9830817 98.4613833,21.0306793 C98.3378678,21.1544332 98.5753976,21.4400189 98.0243285,21.4114604 Z" id="Path" fill="#CCCFDB"></path>
            <path d="M110.527895,18.4889662 C109.948323,18.2604976 110.385377,18.2224195 110.32837,18.0986656 C110.090841,17.9463532 110.233358,17.851158 110.128845,17.7178846 C110.195354,17.6131698 110.128845,17.4132598 110.423382,17.470377 C110.157349,17.1752717 110.423382,17.0800764 110.32837,16.8420883 C110.233358,16.6041002 110.16685,16.5945807 110.119344,16.4613073 C110.071838,16.328034 110.119344,16.2518778 110.119344,16.1186044 C109.957824,15.566472 109.777301,14.7477928 110.442385,14.4526875 C110.442385,14.3289337 110.223857,14.1671018 110.24286,14.0433479 C110.963235,13.481692 111.423186,12.6494317 111.516019,11.7396229 C111.801055,11.6158691 111.449511,11.3588419 112.00058,11.415959 C111.965553,10.9967993 112.181988,10.5967429 112.551649,10.3973698 C112.347076,10.2166504 112.17652,10.0006261 112.048086,9.75956166 C111.877064,9.29310494 112.456637,9.15983159 112.437635,8.65529676 C112.437635,8.65529676 112.703668,8.71241391 112.608656,8.65529676 C112.190604,8.41730863 112.466138,8.16980098 112.475639,7.96989095 C112.466095,7.53183949 112.418408,7.09545858 112.333122,6.66571602 C112.548755,6.49822315 112.688933,6.25158252 112.72267,5.98031021 C113.302243,5.59000968 113.283241,4.93316245 114.185854,4.63805718 C114.727422,4.75229148 114.499393,4.84748673 114.812932,4.9522015 C115.126472,5.05691628 114.974453,4.74277195 115.164476,4.9522015 C115.782054,5.08547486 115.392505,5.26634583 115.249987,5.25682631 C115.249987,5.42817776 115.11697,5.47577538 114.993455,5.55193158 C114.993455,6.00886879 114.565901,6.40868884 114.252362,6.79898937 C114.100343,7.02745797 114.423383,7.23688752 114.090842,7.35112182 C114.350615,7.86147231 114.536184,8.40643214 114.641911,8.96944108 C114.185854,9.34070256 114.641911,9.72148356 113.976827,9.92139359 C114.499393,10.6924751 114.280866,11.1779709 113.976827,11.9109743 C113.378252,12.539263 113.302243,13.3103445 112.808181,13.9957503 C112.494642,14.0528675 112.675164,14.4717266 112.124095,14.3479727 C112.390129,14.6906757 111.915069,14.8905857 111.658537,15.0143395 C111.972076,15.2618472 111.753549,15.185691 111.896067,15.3570424 C111.506518,15.6997453 111.46851,16.0805263 111.687041,16.7183345 C111.620532,17.2038303 111.335497,17.2323888 111.630033,17.670287 C111.573026,17.851158 111.240485,17.7750018 111.459012,18.0415485 C111.402005,18.0986656 111.677539,18.2604976 111.459012,18.1653023 C111.240485,18.2795366 111.459012,18.4508881 111.012456,18.3080952 C110.926945,18.4032904 111.012456,18.6983957 110.527895,18.4889662 Z" id="Path" fill="#CCCFDB"></path>
            <path d="M130.641916,13.3293836 C131.145479,13.6911255 130.641916,13.6911255 130.641916,13.8719965 C130.812937,14.1099846 130.584909,14.2146994 130.641916,14.4050899 C130.489897,14.5478828 130.413887,14.8144295 130.147854,14.7097147 C130.252367,15.1380933 129.929326,15.2332886 129.843816,15.5569524 C129.843816,15.7092648 129.843816,15.9186944 129.843816,16.0995654 C129.843816,16.2804363 129.691797,16.3851511 129.644291,16.5755416 C129.444766,17.3371036 129.036215,18.4794466 128.086096,18.7555129 C127.972081,18.9173448 128.086096,19.1838915 127.991084,19.3457234 C126.730965,20.00643 125.641338,20.9515093 124.808185,22.1063857 C124.390132,22.1920614 124.561154,22.6299596 124.019586,22.401491 C123.704913,22.946357 123.195545,23.3512349 122.594407,23.5343144 C122.658922,23.8483401 122.658922,24.1722413 122.594407,24.4862669 C122.366379,25.1431142 121.644288,25.1145556 121.216735,25.7714028 C121.216735,25.7714028 120.998207,25.6000514 121.045713,25.6952466 C121.254739,26.1521838 120.741675,26.3616134 120.551651,26.6471991 C120.361628,26.9327849 119.829561,27.6943469 119.430511,28.3416746 C119.021898,28.4822389 118.6557,28.7246584 118.366378,29.0461195 C117.416258,29.2745881 116.779679,30.0932672 115.620533,29.998072 C115.221483,29.617291 115.535023,29.6077714 115.344999,29.3317052 C115.154975,29.055639 114.974453,29.5125762 115.012457,29.1603538 C114.565901,28.7224556 115.097968,28.6843775 115.221483,28.7605337 C115.3545,28.5511042 115.563526,28.5606237 115.75355,28.5320651 C116.296725,28.008644 116.944332,27.6063527 117.653788,27.351644 C118.014833,27.1326949 117.900819,26.7519139 118.328373,26.7519139 C118.573839,25.9900321 118.892016,25.2536248 119.278492,24.5529036 C120.057589,24.2673179 119.934074,23.6009511 120.732174,23.6771073 C120.846188,22.5442838 121.463766,22.02071 122.356878,21.1829917 C123.362609,20.4764037 124.315282,19.6968863 125.207235,18.8507081 C125.587282,18.8507081 125.701297,18.2795366 126.157354,18.5651224 C126.157354,18.0605875 126.774931,17.8987556 127.107473,17.7845213 C126.945953,17.4037403 127.107473,17.5465332 127.107473,17.289506 C127.751208,16.9296154 128.182642,16.2812162 128.266618,15.5474329 C128.675169,14.9096247 128.99821,14.9096247 128.988709,14.243258 C129.15973,14.0147894 129.482771,14.1671018 129.39726,13.7768012 C129.501773,13.7196841 129.302248,13.4531374 129.539778,13.6244888 C129.853317,13.500735 129.682296,13.2437078 130.109849,13.4912155 C130.19536,13.3293836 130.233365,12.9486026 130.641916,13.3293836 Z" id="Path" fill="#CCCFDB"></path>
            <path d="M140.0956,56.1672464 C139.715553,56.6622617 139.715553,56.1672464 139.525529,56.0815707 C139.268997,56.2243635 139.164484,55.9673364 138.955458,55.9863754 C138.81294,55.8055044 138.527904,55.6817506 138.641918,55.4152039 C138.185861,55.4723211 138.090849,55.1105791 137.748806,54.9773057 C137.587286,54.9106691 137.368759,54.9773057 137.169234,54.872591 C136.969709,54.7678762 136.874697,54.6726809 136.665671,54.5870052 C135.867571,54.2728609 134.651418,53.6350527 134.385385,52.6259831 C134.214363,52.4831902 133.938829,52.6259831 133.767807,52.4451121 C133.083786,50.9961895 132.114211,49.7009285 130.91745,48.6373021 C130.83194,48.1803648 130.366381,48.2945991 130.622913,47.7519862 C130.049472,47.3437662 129.636167,46.7478633 129.454267,46.0670303 C129.10393,46.0717512 128.755833,46.0103938 128.428138,45.8861593 C127.734551,45.5434564 127.782057,44.7723749 127.107473,44.2107229 C127.107473,44.2107229 127.297497,44.0108129 127.192984,44.0393714 C126.717924,44.1916838 126.499397,43.6205123 126.242865,43.3730047 C125.986332,43.125497 125.16923,42.4210522 124.494645,41.9165174 C124.360212,41.4517274 124.119478,41.0247402 123.791557,40.6694596 C123.57303,39.6127923 122.746426,38.7655546 122.841438,37.5660944 C123.249989,37.1948329 123.249989,37.5660944 123.535025,37.3661844 C123.820061,37.1662743 123.364004,36.9378057 123.725049,37.0425205 C124.200109,36.6236614 124.219111,37.1948329 124.143101,37.3281063 C124.352128,37.4994577 124.333125,37.7184068 124.361629,37.9373559 C124.89255,38.599271 125.295346,39.3547598 125.549278,40.1649247 C125.758304,40.5837838 126.157354,40.5171472 126.147853,40.9836039 C126.947008,41.3458723 127.710453,41.7825132 128.428138,42.2877788 C128.703673,43.1730947 129.378257,43.125497 129.302248,43.9727348 C130.489897,44.26784 131.031465,45.010363 131.886572,46.0765498 C132.615834,47.24597 133.422054,48.3654069 134.299874,49.4274226 C134.299874,49.8272427 134.888948,50.0366722 134.58491,50.5316875 C135.116977,50.5316875 135.278497,51.28373 135.392511,51.6930696 C135.791561,51.5693158 135.639542,51.7406672 135.905575,51.7501867 C136.282124,52.4788397 136.947928,53.0145849 137.739305,53.2257131 C138.41389,53.7397675 138.404388,54.0919899 139.116978,54.1776656 C139.354508,54.3966147 139.192987,54.710759 139.601538,54.6822005 C139.668047,54.8059543 139.943581,54.6250833 139.763059,54.8440324 C139.886574,55.1962548 140.17161,55.0534619 139.896075,55.4723211 C140.029092,55.6627116 140.466147,55.7579068 140.0956,56.1672464 Z" id="Path" fill="#CCCFDB"></path>
            <path d="M139.487524,33.5488548 C139.012465,33.9391553 139.240493,33.6154915 139.13598,33.6440501 C139.031467,33.6726086 138.926954,33.6440501 138.774935,33.7392453 C138.622916,33.8344406 138.613415,33.6726086 138.774935,33.4917377 C138.442393,33.6440501 138.518403,33.4917377 138.33788,33.4917377 C138.157358,33.4917377 138.090849,33.5678939 137.976835,33.5869329 C137.862821,33.605972 137.853319,33.5869329 137.748806,33.5869329 C137.311752,33.5869329 136.703675,33.5869329 136.931704,33.0919176 C136.874697,33.0919176 136.627666,33.2061519 136.561157,33.1680738 C136.561157,32.4731485 136.561157,32.1304456 135.981585,31.8448598 C136.095599,31.6163912 135.715552,31.8448598 136.1051,31.4355202 C135.839067,31.3784031 135.753556,31.1784931 135.867571,30.8453097 C135.650568,30.9534564 135.420685,31.033431 135.183485,31.0832978 C134.803437,31.0832978 135.107475,30.6644387 134.803437,30.578763 C134.803437,30.578763 135.012463,30.397892 134.926953,30.4550092 C134.518402,30.7025168 134.556406,30.4550092 134.451893,30.397892 C134.193103,30.3050083 133.925763,30.2380446 133.653793,30.197982 C133.710592,30.0405802 133.660902,29.864416 133.530278,29.7600838 C133.7108,29.255549 133.340254,29.1127561 133.796311,28.4083113 C134.214363,28.0560888 134.10985,28.2369598 134.375884,28.0465693 C134.641917,27.8561788 134.375884,27.8752179 134.622915,27.7990617 C135.107475,27.3992416 134.945955,27.7133859 134.841442,27.7990617 C134.955456,27.7990617 134.841442,27.9418545 134.841442,28.0560888 C135.116977,28.132245 135.012463,28.5511042 135.021965,28.855729 C135.031466,29.1603538 135.364007,28.855729 135.202487,29.0937171 C135.616991,29.0261985 136.03823,29.0102117 136.456644,29.0461195 C136.371134,29.4459395 136.865196,29.2079514 136.532654,29.7029667 C137.30225,29.4840176 137.482773,29.7029667 137.663296,30.0647086 C137.663296,30.6073216 138.043343,30.7977121 138.147856,31.2641688 C137.976835,31.4926374 138.33788,31.4355202 137.919828,31.8163013 C138.290374,31.6735084 138.119353,32.0447699 138.043343,32.2541994 C138.375885,32.0638089 138.195362,32.2066018 138.385386,32.1399651 C138.385386,32.463629 138.565909,32.5588242 139.078973,32.482668 C139.345006,32.6064218 139.183486,32.8158514 139.649044,32.663539 C139.725054,32.7301757 139.478023,32.9586443 139.782061,32.8348904 C139.782061,32.8920076 140.048094,32.7016171 139.782061,32.8920076 C139.725054,33.063359 139.981586,32.8920076 139.61104,33.225191 C139.649044,33.3203862 139.905577,33.2156714 139.487524,33.5488548 Z" id="Path" fill="#CCCFDB"></path>
        </g>
    </g>
</svg>