<svg width="207.11" height="207.11" viewBox="0 0 207.11 207.11" fill="none" xmlns="http://www.w3.org/2000/svg">
<circle r="1.64" transform="matrix(-1 0 0 1 185.422 1.64)" fill="#C7C7D4"/>
<circle r="1.64" transform="matrix(-1 0 0 1 116.932 1.64)" fill="#C7C7D4"/>
<circle r="1.64" transform="matrix(-1 0 0 1 162.592 1.64)" fill="#C7C7D4"/>
<circle r="1.64" transform="matrix(-1 0 0 1 94.1017 1.64)" fill="#C7C7D4"/>
<circle r="1.64" transform="matrix(-1 0 0 1 139.762 1.64)" fill="#C7C7D4"/>
<circle r="1.64" transform="matrix(-1 0 0 1 70.1305 1.64)" fill="#C7C7D4"/>
<circle r="1.64" transform="matrix(-1 0 0 1 1.64003 1.64)" fill="#C7C7D4"/>
<circle r="1.64" transform="matrix(-1 0 0 1 47.3004 1.64)" fill="#C7C7D4"/>
<circle r="1.64" transform="matrix(-1 0 0 1 24.4704 1.64)" fill="#C7C7D4"/>
<circle r="1.64" transform="matrix(-1 0 0 1 185.422 24.47)" fill="#C7C7D4"/>
<circle r="1.64" transform="matrix(-1 0 0 1 116.932 24.47)" fill="#C7C7D4"/>
<circle r="1.64" transform="matrix(-1 0 0 1 162.592 24.47)" fill="#C7C7D4"/>
<circle r="1.64" transform="matrix(-1 0 0 1 94.1017 24.47)" fill="#C7C7D4"/>
<circle r="1.64" transform="matrix(-1 0 0 1 139.762 24.47)" fill="#C7C7D4"/>
<circle r="1.64" transform="matrix(-1 0 0 1 70.1305 24.47)" fill="#C7C7D4"/>
<circle r="1.64" transform="matrix(-1 0 0 1 1.64027 24.47)" fill="#C7C7D4"/>
<circle r="1.64" transform="matrix(-1 0 0 1 47.3004 24.47)" fill="#C7C7D4"/>
<circle r="1.64" transform="matrix(-1 0 0 1 24.4704 24.47)" fill="#C7C7D4"/>
<circle r="1.64" transform="matrix(-1 0 0 1 185.422 47.3002)" fill="#C7C7D4"/>
<circle r="1.64" transform="matrix(-1 0 0 1 116.932 47.3002)" fill="#C7C7D4"/>
<circle r="1.64" transform="matrix(-1 0 0 1 162.592 47.3002)" fill="#C7C7D4"/>
<circle r="1.64" transform="matrix(-1 0 0 1 94.1017 47.3002)" fill="#C7C7D4"/>
<circle r="1.64" transform="matrix(-1 0 0 1 139.762 47.3002)" fill="#C7C7D4"/>
<circle r="1.64" transform="matrix(-1 0 0 1 70.1305 47.3002)" fill="#C7C7D4"/>
<circle r="1.64" transform="matrix(-1 0 0 1 1.64027 47.3002)" fill="#C7C7D4"/>
<circle r="1.64" transform="matrix(-1 0 0 1 47.3004 47.3002)" fill="#C7C7D4"/>
<circle r="1.64" transform="matrix(-1 0 0 1 24.4704 47.3002)" fill="#C7C7D4"/>
<circle r="1.64" transform="matrix(-1 0 0 1 185.422 70.1302)" fill="#C7C7D4"/>
<circle r="1.64" transform="matrix(-1 0 0 1 116.932 70.1302)" fill="#C7C7D4"/>
<circle r="1.64" transform="matrix(-1 0 0 1 162.592 70.1302)" fill="#C7C7D4"/>
<circle r="1.64" transform="matrix(-1 0 0 1 94.1017 70.1302)" fill="#C7C7D4"/>
<circle r="1.64" transform="matrix(-1 0 0 1 139.762 70.1302)" fill="#C7C7D4"/>
<circle r="1.64" transform="matrix(-1 0 0 1 70.1305 70.1302)" fill="#C7C7D4"/>
<circle r="1.64" transform="matrix(-1 0 0 1 1.64027 70.1302)" fill="#C7C7D4"/>
<circle r="1.64" transform="matrix(-1 0 0 1 47.3004 70.1302)" fill="#C7C7D4"/>
<circle r="1.64" transform="matrix(-1 0 0 1 24.4704 70.1302)" fill="#C7C7D4"/>
<circle r="1.64" transform="matrix(-1 0 0 1 185.422 92.9603)" fill="#C7C7D4"/>
<circle r="1.64" transform="matrix(-1 0 0 1 116.932 92.9598)" fill="#C7C7D4"/>
<circle r="1.64" transform="matrix(-1 0 0 1 162.592 92.9603)" fill="#C7C7D4"/>
<circle r="1.64" transform="matrix(-1 0 0 1 94.1017 92.9603)" fill="#C7C7D4"/>
<circle r="1.64" transform="matrix(-1 0 0 1 139.762 92.9598)" fill="#C7C7D4"/>
<circle r="1.64" transform="matrix(-1 0 0 1 70.1305 92.9603)" fill="#C7C7D4"/>
<circle r="1.64" transform="matrix(-1 0 0 1 1.64003 92.9603)" fill="#C7C7D4"/>
<circle r="1.64" transform="matrix(-1 0 0 1 47.3004 92.9603)" fill="#C7C7D4"/>
<circle r="1.64" transform="matrix(-1 0 0 1 24.4701 92.9603)" fill="#C7C7D4"/>
<circle r="1.64" transform="matrix(-1 0 0 1 185.422 115.79)" fill="#C7C7D4"/>
<circle r="1.64" transform="matrix(-1 0 0 1 116.932 115.79)" fill="#C7C7D4"/>
<circle r="1.64" transform="matrix(-1 0 0 1 162.592 115.79)" fill="#C7C7D4"/>
<circle r="1.64" transform="matrix(-1 0 0 1 94.1019 115.79)" fill="#C7C7D4"/>
<circle r="1.64" transform="matrix(-1 0 0 1 139.762 115.79)" fill="#C7C7D4"/>
<circle r="1.64" transform="matrix(-1 0 0 1 70.1305 115.79)" fill="#C7C7D4"/>
<circle r="1.64" transform="matrix(-1 0 0 1 1.64003 115.79)" fill="#C7C7D4"/>
<circle r="1.64" transform="matrix(-1 0 0 1 47.3004 115.79)" fill="#C7C7D4"/>
<circle r="1.64" transform="matrix(-1 0 0 1 24.4701 115.79)" fill="#C7C7D4"/>
<circle r="1.64" transform="matrix(-1 0 0 1 185.422 138.62)" fill="#C7C7D4"/>
<circle r="1.64" transform="matrix(-1 0 0 1 116.932 138.62)" fill="#C7C7D4"/>
<circle r="1.64" transform="matrix(-1 0 0 1 162.592 138.62)" fill="#C7C7D4"/>
<circle r="1.64" transform="matrix(-1 0 0 1 94.1019 138.62)" fill="#C7C7D4"/>
<circle r="1.64" transform="matrix(-1 0 0 1 139.762 138.62)" fill="#C7C7D4"/>
<circle r="1.64" transform="matrix(-1 0 0 1 70.1303 138.62)" fill="#C7C7D4"/>
<circle r="1.64" transform="matrix(-1 0 0 1 1.64003 138.62)" fill="#C7C7D4"/>
<circle r="1.64" transform="matrix(-1 0 0 1 47.3002 138.62)" fill="#C7C7D4"/>
<circle r="1.64" transform="matrix(-1 0 0 1 24.4701 138.62)" fill="#C7C7D4"/>
<circle r="1.64" transform="matrix(-1 0 0 1 185.422 161.45)" fill="#C7C7D4"/>
<circle r="1.64" transform="matrix(-1 0 0 1 116.932 161.45)" fill="#C7C7D4"/>
<circle r="1.64" transform="matrix(-1 0 0 1 162.592 161.45)" fill="#C7C7D4"/>
<circle r="1.64" transform="matrix(-1 0 0 1 94.1019 161.45)" fill="#C7C7D4"/>
<circle r="1.64" transform="matrix(-1 0 0 1 139.762 161.45)" fill="#C7C7D4"/>
<circle r="1.64" transform="matrix(-1 0 0 1 70.1303 161.45)" fill="#C7C7D4"/>
<circle r="1.64" transform="matrix(-1 0 0 1 1.64003 161.45)" fill="#C7C7D4"/>
<circle r="1.64" transform="matrix(-1 0 0 1 47.3002 161.45)" fill="#C7C7D4"/>
<circle r="1.64" transform="matrix(-1 0 0 1 24.4701 161.45)" fill="#C7C7D4"/>
<circle r="1.64" transform="matrix(-1 0 0 1 185.422 184.28)" fill="#C7C7D4"/>
<circle r="1.64" transform="matrix(-1 0 0 1 116.932 184.28)" fill="#C7C7D4"/>
<circle r="1.64" transform="matrix(-1 0 0 1 162.592 184.28)" fill="#C7C7D4"/>
<circle r="1.64" transform="matrix(-1 0 0 1 94.1019 184.28)" fill="#C7C7D4"/>
<circle r="1.64" transform="matrix(-1 0 0 1 139.762 184.28)" fill="#C7C7D4"/>
<circle r="1.64" transform="matrix(-1 0 0 1 70.1303 184.28)" fill="#C7C7D4"/>
<circle r="1.64" transform="matrix(-1 0 0 1 1.64003 184.28)" fill="#C7C7D4"/>
<circle r="1.64" transform="matrix(-1 0 0 1 47.3002 184.28)" fill="#C7C7D4"/>
<circle r="1.64" transform="matrix(-1 0 0 1 24.4701 184.28)" fill="#C7C7D4"/>
</svg>
