<?xml version="1.0" encoding="UTF-8"?>
<svg width="216px" height="216px" viewBox="0 0 216 216" version="1.1" xmlns="http://www.w3.org/2000/svg" xmlns:xlink="http://www.w3.org/1999/xlink">
    <title>technical_integration</title>
    <defs>
        <path d="M183.64,83.2729622 C181.038807,80.7472304 178.137055,78.5507655 175,76.7329622 L176.27,62.4929622 L157.4,57.6929622 L151.71,70.8229622 C144.452246,71.0230102 137.35729,73.019218 131.06,76.6329622 L119.35,68.4129622 L105.76,82.3529622 L114.28,93.8529622 C110.826037,100.238996 109.011758,107.382718 109,114.642962 L96,120.642962 L101.28,139.382962 L115.49,137.752962 C119.295703,143.945753 124.576331,149.099261 130.86,152.752962 L129.6,167.002962 L148.47,171.792962 L154.17,158.662962 C161.428196,158.465822 168.523849,156.469418 174.82,152.852962 L186.55,161.122962 L200.14,147.122962 L191.62,135.622962 C195.068103,129.234642 196.882001,122.09242 196.9,114.832962 L209.9,108.832962 L204.61,90.1229622 L190.4,91.7229622 C188.500938,88.6402824 186.230625,85.8023912 183.64,83.2729622 Z" id="path-1"></path>
        <filter x="-2.2%" y="-2.2%" width="104.4%" height="104.4%" filterUnits="objectBoundingBox" id="filter-2">
            <feMorphology radius="1" operator="erode" in="SourceAlpha" result="shadowSpreadInner1"></feMorphology>
            <feOffset dx="0" dy="-4" in="shadowSpreadInner1" result="shadowOffsetInner1"></feOffset>
            <feComposite in="shadowOffsetInner1" in2="SourceAlpha" operator="arithmetic" k2="-1" k3="1" result="shadowInnerInner1"></feComposite>
            <feColorMatrix values="0 0 0 0 0.184313725   0 0 0 0 0.196078431   0 0 0 0 0.415686275  0 0 0 0.2 0" type="matrix" in="shadowInnerInner1"></feColorMatrix>
        </filter>
        <path d="M125.49,73.9529622 C125.490322,69.3546757 124.926101,64.7737422 123.81,60.3129622 L137.89,48.8229622 L125.52,27.3929622 L108.52,33.8529622 C101.89987,27.4279103 93.7919917,22.7418316 84.92,20.2129622 L82,2.27296224 L57.26,2.27296224 L54.35,20.2129622 C45.4780083,22.7418316 37.3701302,27.4279103 30.75,33.8529622 L13.75,27.3929622 L1.37,48.8229622 L15.45,60.3129622 C13.1966974,69.2667051 13.1966974,78.6392194 15.45,87.5929622 L1.37,99.1229622 L13.74,120.552962 L30.74,114.092962 C37.3601302,120.518014 45.4680083,125.204093 54.34,127.732962 L57.25,145.672962 L82,145.672962 L84.91,127.732962 C93.7819917,125.204093 101.88987,120.518014 108.51,114.092962 L125.51,120.552962 L137.89,99.1229622 L123.81,87.5929622 C124.924812,83.1319428 125.489013,78.5511685 125.49,73.9529622 Z" id="path-3"></path>
        <filter x="-2.1%" y="-2.0%" width="104.2%" height="104.0%" filterUnits="objectBoundingBox" id="filter-4">
            <feMorphology radius="1" operator="erode" in="SourceAlpha" result="shadowSpreadInner1"></feMorphology>
            <feOffset dx="1" dy="-4" in="shadowSpreadInner1" result="shadowOffsetInner1"></feOffset>
            <feComposite in="shadowOffsetInner1" in2="SourceAlpha" operator="arithmetic" k2="-1" k3="1" result="shadowInnerInner1"></feComposite>
            <feColorMatrix values="0 0 0 0 0.184313725   0 0 0 0 0.196078431   0 0 0 0 0.415686275  0 0 0 0.2 0" type="matrix" in="shadowInnerInner1"></feColorMatrix>
        </filter>
    </defs>
    <g id="technical_integration" stroke="none" stroke-width="1" fill="none" fill-rule="evenodd">
        <g id="Group-2" transform="translate(3.000000, 22.877038)">
            <g id="Asset-7">
                <g id="Path" fill-rule="nonzero">
                    <use fill="#AF64FF" xlink:href="#path-1"></use>
                    <use fill="black" fill-opacity="1" filter="url(#filter-2)" xlink:href="#path-1"></use>
                </g>
                <circle id="Oval" fill="#2E316A" fill-rule="nonzero" cx="152.95" cy="114.762962" r="16.08"></circle>
                <g id="Path" stroke-linecap="round" stroke-linejoin="round" fill-rule="nonzero">
                    <use fill="#DFDFF2" xlink:href="#path-3"></use>
                    <use fill="black" fill-opacity="1" filter="url(#filter-4)" xlink:href="#path-3"></use>
                    <use stroke="#DFDFF2" stroke-width="0.75" xlink:href="#path-3"></use>
                </g>
                <path d="M125.49,73.9529622 C125.49,73.5229622 125.49,73.1129622 125.49,72.6929622 L119.39,68.4129622 L105.76,82.3529622 L114.28,93.8529622 C110.888879,100.115844 109.076504,107.111337 109,114.232962 L125.51,120.502962 L137.89,99.1229622 L123.81,87.5929622 C124.924812,83.1319428 125.489013,78.5511685 125.49,73.9529622 L125.49,73.9529622 Z" id="Path" fill="#E1C9FF" fill-rule="nonzero"></path>
                <path d="M96,120.682962 L96.61,122.822962 C100.194294,120.835157 103.547976,118.457396 106.61,115.732962 L96,120.682962 Z" id="Path" fill="#F4677F" fill-rule="nonzero"></path>
                <path d="M124.25,74.1229622 C124.68,73.3629622 124.81,74.9529622 124.67,77.1229622 C124.53,79.2929622 124.09,82.1229622 123.85,83.7529622 C123.828791,84.9911021 123.664364,86.2226279 123.36,87.4229622 L123.29,87.7229622 L123.51,87.9029622 C125.16,89.1629622 127.03,90.6829622 128.37,91.6129622 C131.55,94.2429622 135.59,97.3829622 137.64,99.3329622 L137.54,98.8229622 C137.31,99.1629622 137.1,99.4529622 136.91,99.6829622 C134.49,104.902962 130.84,110.682962 127.49,116.972962 C126.83,118.192962 126.24,119.352962 125.65,120.522962 L125.59,120.632962 L125.47,120.632962 C123.72,120.072962 121.95,119.522962 119.9,118.832962 C116.33,117.622962 113.01,116.332962 109.08,114.982962 L108.26,114.692962 L109,114.542962 C102.455822,121.302457 94.2898148,126.273668 85.28,128.982962 L86.28,127.882962 C85.41,133.832962 84.46,139.882962 83.47,145.882962 L83.23,147.122962 L82,147.122962 C76.53,147.122962 71.21,147.002962 66.26,146.822962 C62.54,146.822962 60.39,147.112962 57.26,147.242962 L55.98,147.242962 L55.7,145.862962 C55.55,145.152962 55.39,144.332962 55.24,143.412962 C54.42,137.812962 53.66,132.572962 52.97,127.882962 L53.97,129.002962 C44.9289933,126.303837 36.6881668,121.428014 29.97,114.802962 L31.11,115.032962 L14.11,121.412962 L13.32,121.712962 L12.89,120.982962 L0.45,99.6029622 L0,98.8329622 L0.7,98.2529622 L10.12,90.4329622 C11.9,89.0929622 13.42,87.8729622 14.78,86.7629622 L14.42,87.8429622 C13.25,83.1229622 12.69,79.5629622 13.1,75.6229622 C12.8624156,70.4084718 13.3845479,65.187149 14.65,60.1229622 L14.93,60.9529622 C10.12,57.0429622 5.43,53.1529622 0.93,49.3529622 L0.5,48.9629622 L0.79,48.4829622 L5.5,40.7629622 C7.72,36.1429622 9.87,31.7629622 12.5,26.7029622 L13.03,25.7029622 L14.19,26.0929622 L14.85,26.3229622 C20.59,28.3229622 25.85,30.3229622 31.24,32.4229622 L29.65,32.7529622 C32.7692556,29.8154372 36.1995292,27.2268045 39.88,25.0329622 C44.0691144,22.5170936 48.5398938,20.503229 53.2,19.0329622 C52.86,19.1429622 53.39,19.1529622 53.99,19.0329622 L53.16,19.9629622 C53.2488014,19.674474 53.2959441,19.3747813 53.3,19.0729622 C53.25,16.2429622 54.52,8.56296224 55.61,1.94296224 L55.83,0.57296224 L57.22,0.57296224 L62.9,0.57296224 L82,0.40296224 L83.55,0.40296224 L83.84,1.99296224 C84.5,5.66296224 85.76,12.6229622 87.07,19.8829622 L85.5,18.1229622 C88.4073247,18.8994695 91.2493519,19.9025379 94,21.1229622 C99.8875559,24.0027382 105.286597,27.7888155 110,32.3429622 L107.78,31.8829622 L117.78,28.0729622 L124.87,25.5929622 L126.46,25.0329622 L127.23,26.4329622 C131.09,33.4329622 135.23,40.7429622 139.3,48.0329622 L139.97,49.2229622 L138.97,50.0429622 C134.17,53.8629622 129.37,57.6429622 124.66,61.2629622 L125.08,60.0129622 C126.082524,64.50651 126.476052,69.1144923 126.25,73.7129622 C125.87,74.4429622 125.76,73.3629622 125.63,72.0429622 C125.580228,70.9443996 125.367921,69.8592783 125,68.8229622 C124.71,68.0829622 124.9,70.4029622 124.93,72.1629622 C124.96,73.9229622 124.93,75.1129622 124.73,72.1029622 C124.3,72.8529622 124.17,70.7329622 123.94,68.3029622 C123.71,65.8729622 123.35,63.1129622 123.32,62.5229622 C123.29,61.9329622 122.98,61.1329622 122.84,60.5229622 L122.68,59.9029622 L123.18,59.4829622 C126.67,56.6029622 129.18,54.7629622 131.92,52.7029622 L137.39,48.1629622 L137.2,49.1629622 C133.24,42.4629622 129.11,35.1229622 125,27.7029622 L125.75,27.9629622 L108.62,34.1229622 L108.43,34.1929622 L108.29,34.0629622 C107.7,33.4929622 107.13,32.9129622 106.53,32.3829622 C103.724131,29.8394112 100.621729,27.6435552 97.29,25.8429622 C94.54,24.3829622 92,23.1229622 88.4,21.6329622 C87.35,21.3129622 86.23,21.0129622 84.79,20.6329622 L84.53,20.5629622 L84.47,20.2729622 C83.43,15.2329622 82.26,9.12296224 81,2.43296224 L82,3.27296224 L57.26,3.86296224 L58.84,2.52296224 L58.28,6.65296224 C57.28,12.0629622 56.52,16.5429622 55.9,20.4729622 L55.74,21.4729622 L54.74,21.7529622 C50.7791894,22.9141059 46.9592195,24.5105113 43.35,26.5129622 C39.7616862,28.4887884 36.3462672,30.7635044 33.14,33.3129622 C32.62,33.8129622 32.14,34.3129622 31.64,34.8529622 L31.08,35.4229622 L30.27,35.1229622 C24.56,33.2529622 18.93,31.3229622 13,29.2229622 L15.39,28.3729622 C11.73,35.1229622 7.76,42.1229622 3.27,49.9229622 L2.76,47.1229622 L16.84,58.6029622 L17.92,59.4829622 L17.58,60.8429622 C17.16,62.5329622 16.8,64.2929622 16.58,66.1129622 C15.4420266,73.0966386 15.7174672,80.2376912 17.39,87.1129622 L17.69,88.3229622 L16.69,89.1029622 L2.56,100.532962 L3,98.1229622 L15.33,119.572962 L13.08,118.772962 L30.08,112.392962 L31.08,112.002962 L31.87,112.772962 C32.75,113.632962 33.67,114.492962 34.63,115.312962 C37.463787,117.88374 40.6122534,120.084643 44,121.862962 C47.54,123.862962 51,125.152962 52.45,126.042962 C53.14,126.232962 53.88,126.392962 54.68,126.612962 L55.33,126.782962 L55.48,127.502962 C56.48,132.622962 57.48,139.392962 58.31,145.502962 L57.31,144.632962 L66.31,144.912962 C70.11,144.382962 70.7,144.702962 74.5,144.432962 L82.05,144.542962 L80.93,145.482962 C82,139.292962 82.93,133.482962 83.84,127.532962 L83.94,126.842962 L84.65,126.622962 C92.0014594,124.435364 98.7678938,120.624973 104.45,115.472962 C105.63,114.472962 106.67,113.472962 107.34,112.822962 L108.14,112.052962 L109.14,112.442962 L126.14,118.852962 L123.94,119.642962 C125.85,116.252962 127.59,113.052962 129.7,108.872962 C132.62,103.762962 134.17,101.752962 136.09,98.0829622 L136.57,100.712962 C136.02,100.302962 135.42,99.8729622 134.75,99.4129622 C132.62,97.6029622 131.21,97.0429622 130.94,96.3029622 C125.89,91.9229622 124.02,90.8529622 122.63,89.0529622 L121.63,87.8029622 L122,87.1229622 L122.22,86.7129622 C122.853753,84.1131705 123.288347,81.4688387 123.52,78.8029622 C123.79,76.3029622 123.88,74.3229622 124.25,74.1229622 Z" id="Path" fill="#2E316A"></path>
                <circle id="Oval" fill="#2E316A" fill-rule="nonzero" cx="69.63" cy="73.9529622" r="20.44"></circle>
                <path d="M182.88,84.2629622 C182.75,83.5429622 183.73,84.3329622 184.88,85.6129622 C186.03,86.8929622 187.34,88.6829622 188.15,89.7129622 C188.864379,90.3769801 189.48658,91.1337109 190,91.9629622 L190.17,92.2229622 L190.45,92.2229622 C192.07,91.9829622 193.95,91.7529622 195.21,91.4829622 C198.44,91.1429622 202.42,90.5629622 204.65,90.5329622 L204.22,90.2429622 C204.28,90.5629622 204.32,90.8429622 204.34,91.0729622 C206.05,95.2729622 207.28,100.542962 209,105.852962 C209.34,106.852962 209.68,107.852962 210,108.852962 L210,108.962962 L209.88,109.032962 C208.62,109.732962 207.34,110.452962 205.88,111.232962 C203.25,112.612962 200.7,113.772962 197.79,115.232962 L197.18,115.542962 L197.59,114.902962 C197.710611,118.344476 197.425311,121.788216 196.74,125.162962 C195.952347,129.054549 194.626262,132.817397 192.8,136.342962 L192.7,134.882962 C195.58,138.632962 198.5,142.502962 201.29,146.322962 L202.03,147.322962 L201.16,148.192962 C198.16,151.252962 195.16,154.192962 192.31,156.852962 C190.31,158.972962 189.31,160.362962 187.66,162.222962 L186.83,163.162962 L185.62,162.412962 C185.13,162.112962 184.62,161.752962 183.98,161.332962 L173.98,154.042962 L175.48,154.102962 C168.941755,157.705076 161.623625,159.658179 154.16,159.792962 L155.16,159.132962 L149.37,172.232962 L149.03,173.012962 L148.21,172.802962 C142.83,171.422962 136.45,169.802962 129.33,168.062962 L128.46,167.852962 L128.53,166.942962 L129.28,157.332962 C129.52,155.592962 129.67,154.072962 129.79,152.702962 L130.32,153.702962 C126.97,151.702962 124.64,150.132962 122.72,147.632962 C119.623566,144.905212 116.947908,141.734187 114.78,138.222962 L115.57,138.612962 C110.73,139.172962 105.95,139.672962 101.34,140.082962 L100.76,140.082962 L100.63,139.552962 C100.023333,137.192962 99.45,134.889629 98.91,132.642962 C97.44,128.872962 96.06,125.252962 94.66,121.002962 L94.31,119.942962 L95.41,119.382962 L95.9,119.122962 C100.15,116.942962 104.16,115.122962 108.33,113.212962 L107.46,114.592962 C107.630515,107.308939 109.434925,100.156231 112.74,93.6629622 C112.62,93.9129622 112.95,93.6629622 113.23,93.2429622 L113.32,94.4929622 C113.213946,94.2801467 113.071847,94.0872989 112.9,93.9229622 C111.19,92.4729622 107.57,87.5229622 104.43,83.2729622 L103.61,82.1529622 L104.61,81.1529622 L107.73,77.9429622 L118,67.1229622 L119.07,65.9929622 L120.41,66.8929622 L132.31,74.8929622 L130,74.7329622 C132.049449,73.4821823 134.196404,72.3986722 136.42,71.4929622 C141.333519,69.7873695 146.480671,68.8496839 151.68,68.7129622 L149.81,69.9829622 L153.14,62.2629622 C153.97,60.5129622 154.82,58.7329622 155.67,56.9229622 L156.4,55.3829622 L157.93,55.8129622 C163.99,57.5329622 170.37,59.2229622 176.71,60.9529622 L178.03,61.3129622 L177.89,62.6229622 C177.39,67.4229622 176.89,72.2029622 176.28,76.8429622 L175.67,75.6729622 C178.759355,77.6107358 181.565932,79.966376 184.01,82.6729622 C184.15,83.3429622 183.46,82.8329622 182.64,82.1929622 C182.000787,81.6049602 181.262798,81.1344074 180.46,80.8029622 C179.85,80.6029622 181.26,81.8029622 182.26,82.7229622 C183.26,83.6429622 183.92,84.3329622 182.09,82.8329622 C182.21,83.5529622 180.94,82.4929622 179.45,81.2829622 C177.96,80.0729622 176.25,78.7529622 175.91,78.4229622 L174.54,77.6229622 L173.99,77.3029622 L173.99,76.6529622 C174.28,73.1029622 174.66,70.6529622 174.99,68.0029622 C175.13,66.2229622 175.27,64.3929622 175.42,62.4229622 L176.04,63.2929622 C170.04,61.7929622 163.65,60.0629622 157.22,58.2929622 L157.93,57.9429622 L151.93,70.9429622 L151.85,71.1229622 L151.65,71.1229622 C151.01,71.1229622 150.37,71.1229622 149.74,71.1829622 C146.769984,71.3655069 143.834158,71.916394 141,72.8229622 C138.66,73.5729622 136.54,74.3529622 133.74,75.4829622 C132.99,75.9129622 132.21,76.3829622 131.21,77.0029622 L130.99,77.1329622 L130.74,76.9829622 C127.29,74.8329622 123.18,72.1629622 118.74,69.2229622 L120.04,69.1029622 L106.9,83.4629622 L107.04,81.4029622 L109.04,83.9629622 C111.51,87.5229622 113.62,90.4129622 115.49,92.9629622 L116.08,93.7629622 L115.6,94.6429622 C114.091908,97.5021728 112.907901,100.520888 112.07,103.642962 C111.217018,106.728512 110.598588,109.874147 110.22,113.052962 C110.22,113.612962 110.22,114.172962 110.29,114.722962 L110.29,115.502962 L109.48,115.942962 C105.32,118.192962 101.16,120.342962 96.75,122.532962 L97.81,120.232962 C99.6,126.002962 101.38,132.082962 103.32,138.902962 L101,137.232962 L115.21,135.612962 L116.6,135.452962 L117.33,136.642962 C118.04,137.792962 118.83,138.952962 119.7,140.092962 C122.949064,144.542809 127.069243,148.285333 131.81,151.092962 L132.89,151.732962 L132.78,152.952962 C132.33,157.722962 131.89,162.452962 131.45,167.192962 L130.03,165.192962 L148.89,170.032962 L146.79,171.122962 C148.68,166.832962 150.61,162.482962 152.58,158.022962 L153.03,157.022962 L154.13,157.022962 C155.13,157.022962 156.07,156.962962 157.05,156.872962 C160.009934,156.743929 162.939279,156.21927 165.76,155.312962 C168.76,154.402962 171.42,153.222962 172.76,152.962962 L174.29,151.962962 L174.84,151.612962 L175.48,152.012962 C178.97,154.202962 183.31,157.392962 187.15,160.292962 L185.81,160.422962 L190.96,155.542962 C192.67,153.032962 193.22,152.922962 195.12,150.592962 L199.34,146.422962 L199.24,147.872962 C196.35,143.872962 193.58,140.122962 190.72,136.382962 L190.29,135.822962 L190.63,135.162962 C193.395905,129.84437 194.914294,123.965742 195.07,117.972962 C195.15,116.762962 195.16,115.632962 195.16,114.912962 L195.16,113.802962 L196.16,113.322962 L209.16,107.242962 L208.16,109.362962 C207.29,106.432962 206.42,103.702962 205.16,100.222962 C203.88,95.7729622 203.66,93.7729622 202.62,90.6929622 L204.84,92.1229622 C204.31,92.2129622 203.74,92.3229622 203.11,92.4529622 C200.92,92.6529622 199.84,93.2429622 199.27,92.8929622 C194.03,93.2929622 192.4,93.8429622 190.61,93.5229622 L189,93.2529622 L188.87,92.6829622 L188.78,92.3229622 C187.677126,90.561065 186.436589,88.8891824 185.07,87.3229622 C183.76,85.7829622 182.72,84.6329622 182.88,84.2629622 Z" id="Path" fill="#2E316A"></path>
                <path d="M93.67,164.562962 C93.82,165.232962 92.74,164.712962 92.26,164.772962 C91.99,165.042962 91.26,164.862962 90.84,164.982962 C90.18,164.882962 89.33,164.912962 89.02,164.592962 C88.0942959,164.719378 87.1557041,164.719378 86.23,164.592962 C85.76,164.592962 85.34,164.742962 84.81,164.782962 C84.28,164.822962 83.81,164.782962 83.18,164.782962 C80.84,164.872962 77.11,164.862962 74.41,163.862962 C73.76,163.772962 73.41,164.012962 72.74,163.932962 C67.54,162.482962 64.59,161.672962 59.23,160.352962 C58.17,159.772962 57.43,159.992962 56.9,159.222962 C54.9306345,158.749295 53.0500533,157.962625 51.33,156.892962 C50.5097524,156.911041 49.6912224,156.809988 48.9,156.592962 C46.9,156.032962 45.59,154.752962 43.29,153.672962 C43.35,153.672962 43.29,153.362962 43.18,153.392962 C42.48,153.552962 41.08,152.492962 40.18,151.952962 C38.9,151.232962 36.58,149.832962 34.53,148.422962 C33.65,147.422962 32.63,146.422962 31.53,145.422962 C29.76,143.052962 27.38,140.512962 26.47,137.662962 C26.83,137.172962 27.13,137.942962 27.47,137.822962 C27.81,137.702962 26.8,136.692962 27.47,137.242962 C27.9,136.702962 28.47,138.032962 28.41,138.242962 C28.8115675,138.715924 29.147898,139.2406 29.41,139.802962 C30.91,141.422962 32.41,143.622962 34.14,145.402962 C35.08,146.402962 35.77,146.402962 36.39,147.402962 C38.07,148.132962 40.47,149.672962 42.76,150.642962 C44.76,152.242962 45.97,152.272962 47.32,153.642962 C50.21,154.232962 52.59,155.392962 56.32,156.772962 C60.02,158.482962 63.76,159.292962 67.82,160.422962 C68.59,160.902962 70.27,160.892962 70.62,161.562962 C71.8,161.392962 73.62,162.112962 74.62,162.492962 C75.21,162.192962 75.26,162.432962 75.82,162.322962 C78.0584662,162.916905 80.380343,163.133208 82.69,162.962962 C85.16,163.132962 85.86,163.472962 87.53,163.192962 C88.53,163.272962 88.77,163.662962 89.59,163.422962 C89.98,163.502962 90.22,163.182962 90.28,163.502962 C91.28,163.772962 91.56,163.502962 91.85,164.042962 C92.56,164.122962 93.68,164.002962 93.67,164.562962 Z" id="Path" fill="#CCCFDB"></path>
                <path d="M59.58,170.742962 C59.64,171.402962 59.19,170.972962 58.98,171.062962 C58.87,171.352962 58.56,171.232962 58.38,171.382962 C58.1,171.382962 57.74,171.442962 57.62,171.152962 C57.25,171.492962 56.86,171.272962 56.43,171.382962 C56.22,171.432962 56.04,171.602962 55.8,171.672962 C55.56,171.742962 55.36,171.672962 55.1,171.762962 C54.1,172.012962 52.4,172.232962 51.34,171.452962 C51.05,171.452962 50.86,171.672962 50.58,171.642962 C48.8082241,170.737556 46.9350749,170.046035 45,169.582962 C44.62,169.182962 44.2,169.502962 44.11,168.862962 C43.249109,168.719005 42.4532151,168.314076 41.83,167.702962 C41.4491435,167.858223 41.0412733,167.936398 40.63,167.932962 C39.63,167.872962 39.28,167.032962 38.23,166.712962 C38.23,166.712962 38.32,166.442962 38.23,166.512962 C37.8,166.832962 37.23,166.302962 36.84,166.132962 C36.26,165.892962 35.18,165.482962 34.17,165.132962 C33.7775606,164.659164 33.3034019,164.259516 32.77,163.952962 C32.3764165,163.413953 31.9345943,162.911882 31.45,162.452962 C30.9668927,161.960908 30.6011302,161.366117 30.38,160.712962 C30.69,160.212962 30.82,160.582962 31.07,160.342962 C31.32,160.102962 30.71,159.912962 31.15,159.952962 C31.51,159.392962 31.75,160.012962 31.71,160.172962 C31.9491741,160.311103 32.1249832,160.537143 32.2,160.802962 C33.0458636,161.40789 33.8060791,162.124377 34.46,162.932962 C34.89,163.332962 35.29,163.132962 35.46,163.642962 C36.5040464,163.796287 37.5389254,164.006601 38.56,164.272962 C39.32,165.092962 39.99,164.782962 40.4,165.672962 C41.82,165.502962 42.79,166.012962 44.33,166.672962 C45.7952614,167.493441 47.3397978,168.163522 48.94,168.672962 C49.21,169.042962 49.94,168.912962 49.94,169.532962 C50.5,169.252962 51.17,169.802962 51.59,170.102962 C51.89,169.772962 51.87,170.002962 52.13,169.852962 C53.0343264,170.27618 54.0688883,170.326471 55.01,169.992962 C56.01,169.992962 56.3,170.282962 57.01,169.882962 C57.4,169.882962 57.5,170.272962 57.85,169.972962 C58.01,170.022962 58.12,169.682962 58.13,169.972962 C58.53,170.162962 58.66,169.852962 58.77,170.382962 C59.12,170.402962 59.58,170.182962 59.58,170.742962 Z" id="Path" fill="#CCCFDB"></path>
                <path d="M112.52,16.4429622 C111.87,16.5629622 112.28,15.8729622 112.16,15.5729622 C111.86,15.4429622 111.93,14.9829622 111.74,14.7529622 C111.74,14.3429622 111.52,13.8629622 111.74,13.6029622 C111.27,13.2029622 111.3,12.6029622 110.93,12.0829622 C110.731334,11.8647756 110.517466,11.6609324 110.29,11.4729622 C110.06,11.2429622 109.94,10.9929622 109.68,10.7629622 C109.106164,10.2738035 108.478844,9.85111704 107.81,9.50296224 C107.11,9.13296224 106.41,8.83296224 105.81,8.43296224 C105.47,8.43296224 105.29,8.68296224 104.99,8.70296224 C103.917103,8.40956096 102.769426,8.71943376 101.99,9.51296224 C101.230019,10.3967254 101.022115,11.6287467 101.45,12.7129622 C101.428692,12.937073 101.505252,13.1594611 101.66,13.3229622 C101.783948,13.4980069 101.810323,13.724086 101.73,13.9229622 C101.870406,14.0288088 102.017366,14.1256688 102.17,14.2129622 L101.44,14.2629622 L103.26,12.1829622 C103.145795,11.7070698 103.0755,11.2217015 103.05,10.7329622 C103.05,9.63296224 103.68,8.80296224 103.41,7.42296224 C103.41,7.42296224 103.7,7.33296224 103.59,7.28296224 C103.08,7.04296224 103.15,6.14296224 102.95,5.63296224 C102.56023,4.64734117 101.880198,3.80340394 101,3.21296224 C100.876736,2.96340888 100.699036,2.74470122 100.48,2.57296224 C100.264951,2.40065414 100.010818,2.28389044 99.74,2.23296224 C99.1889899,1.86992594 98.5164107,1.74044544 97.87,1.87296224 C97.2046542,2.00180415 96.5699838,2.2563511 96,2.62296224 C95.43,2.45296224 95.84,2.16296224 95.59,1.91296224 C95.34,1.66296224 95.04,2.62296224 95.12,1.98296224 C94.8,1.89296224 94.83,1.64296224 95.01,1.42296224 C95.1511782,1.27028966 95.3364389,1.16542513 95.54,1.12296224 C95.8242901,0.766287124 96.2450177,0.54504243 96.7,0.51296224 C97.4054234,0.0798136573 98.2424549,-0.0868832839 99.06,0.0429622404 C99.8743178,0.161201589 100.645164,0.484681618 101.3,0.98296224 C101.96,1.48296224 102.48,1.46296224 102.72,2.17296224 C103.364923,2.52558018 103.914123,3.03015754 104.32,3.64296224 C104.813716,4.35828251 105.226257,5.12634683 105.55,5.93296224 C105.552935,6.60105677 105.589648,7.26857563 105.66,7.93296224 C105.728996,8.5027408 105.598231,9.07881195 105.29,9.56296224 C105.544424,10.5538007 105.499182,11.5978468 105.16,12.5629622 C104.733574,13.7700317 104.023697,14.8571388 103.09,15.7329622 L102.9,15.8729622 L101.77,16.7529622 L100.88,16.0129622 C99.5861737,14.9051435 98.8896227,13.2526875 99,11.5529622 C99.0500691,9.95259012 99.8039043,8.45589797 101.06,7.46296224 C101.43,7.35296224 101.82,7.07296224 102.23,6.91296224 C102.64,6.75296224 103.04,6.69296224 103.23,6.91296224 C103.634635,6.61377278 104.144619,6.49441482 104.64,6.58296224 C105.115434,6.64365821 105.57609,6.78930671 106,7.01296224 C106.43,6.70296224 106.44,6.94296224 106.84,6.85296224 C107.6,7.22296224 108.23,7.58296224 108.84,7.97296224 C109.538931,8.39544318 110.20725,8.86660804 110.84,9.38296224 C111.251272,9.87078452 111.588242,10.4166745 111.84,11.0029622 C112.044069,11.4595802 112.313565,11.8840366 112.64,12.2629622 C112.85,12.9129622 112.54,13.1929622 112.96,13.6629622 C112.96,13.9229622 113.33,14.0129622 113.03,14.1229622 C112.97,14.8129622 113.28,14.9729622 112.78,15.2329622 C112.84,15.7029622 113.08,16.4229622 112.52,16.4429622 Z" id="Path" fill="#CCCFDB"></path>
                <path d="M198.7,20.0629622 C199.36,20.0129622 198.91,20.5329622 199,20.7829622 C199.29,20.9229622 199.15,21.2829622 199.29,21.5029622 C199.29,21.8329622 199.29,22.2629622 199.03,22.4029622 C199.38,22.8429622 199.15,23.3029622 199.26,23.8129622 C199.31,24.0529622 199.48,24.2629622 199.55,24.5329622 C199.62,24.8029622 199.55,25.0529622 199.65,25.3529622 C199.92,26.5329622 200.23,28.4229622 199.53,29.7529622 C199.53,30.0829622 199.79,30.2729622 199.78,30.6029622 C199.018602,32.8110983 198.534887,35.1053859 198.34,37.4329622 C197.99,37.9629622 198.34,38.3629622 197.74,38.6229622 C197.710604,39.6434732 197.417791,40.6390381 196.89,41.5129622 C197.107309,41.9166113 197.246415,42.3576771 197.3,42.8129622 C197.38,43.9129622 196.58,44.5729622 196.41,45.8129622 C196.41,45.8129622 196.12,45.8129622 196.2,45.8729622 C196.59,46.2629622 196.13,47.0329622 196.01,47.5329622 C195.86,48.2629622 195.57,49.5929622 195.3,50.8229622 C194.863336,51.3971354 194.509853,52.0300379 194.25,52.7029622 C193.727129,53.2906272 193.252271,53.9193125 192.83,54.5829622 C192.364879,55.2372225 191.773199,55.7914971 191.09,56.2129622 C190.55,55.9929622 190.93,55.7629622 190.65,55.5329622 C190.37,55.3029622 190.23,56.0429622 190.23,55.5329622 C189.62,55.2729622 190.23,54.8529622 190.42,54.8529622 C190.542318,54.5623877 190.756616,54.3199849 191.03,54.1629622 C191.269558,53.6175626 191.564435,53.0981772 191.91,52.6129622 C192.28,52.1029622 192.69,51.6129622 193.01,51.0729622 C193.33,50.5329622 193.13,50.0729622 193.62,49.7229622 C193.49,48.7229622 193.85,47.3329622 193.86,46.0429622 C194.59,44.9629622 194.17,44.2729622 195.02,43.5629622 C194.66,41.9929622 195.02,40.7329622 195.48,38.7929622 C196.096252,36.8804514 196.570868,34.925167 196.9,32.9429622 C197.25,32.5629622 197.04,31.7129622 197.65,31.5529622 C197.33,30.9429622 197.83,30.0629622 198.1,29.5529622 C197.73,29.2429622 197.97,29.2229622 197.81,28.9429622 C198.170494,27.8177985 198.170494,26.608126 197.81,25.4829622 C197.81,24.2529622 198.09,23.9029622 197.69,23.0529622 C197.69,22.5729622 198.08,22.4529622 197.79,22.0529622 C197.79,21.8629622 197.51,21.7329622 197.79,21.7129622 C197.99,21.2329622 197.69,21.0629622 198.22,20.9429622 C198.35,20.6029622 198.14,20.0329622 198.7,20.0629622 Z" id="Path" fill="#CCCFDB"></path>
                <path d="M201.78,54.3429622 C202.43,54.3429622 202.02,54.5029622 202.13,54.5829622 C202.42,54.5829622 202.31,54.7529622 202.47,54.8229622 C202.47,54.9329622 202.55,55.0829622 202.26,55.1029622 C202.63,55.2729622 202.42,55.4129622 202.56,55.5929622 C202.7,55.7729622 202.8,55.7629622 202.89,55.8729622 C202.98,55.9829622 202.94,56.0529622 203.02,56.1629622 C203.34,56.6029622 203.7,57.3729622 203.02,57.7029622 C203.02,57.8229622 203.29,57.9529622 203.29,58.0729622 C202.648738,58.61843 202.229056,59.3795493 202.11,60.2129622 C201.81,60.2929622 202.16,60.5829622 201.6,60.4529622 C201.616245,60.841991 201.343106,61.1834147 200.96,61.2529622 C201.147817,61.4578714 201.290859,61.6996809 201.38,61.9629622 C201.49,62.4529622 200.87,62.4029622 200.79,62.8729622 C200.79,62.8729622 200.54,62.7229622 200.62,62.8029622 C200.97,63.1629622 200.62,63.2929622 200.57,63.4629622 C200.52,63.6329622 200.37,64.2229622 200.26,64.7029622 C199.996099,64.7574115 199.765339,64.9160586 199.62,65.1429622 C198.93,65.1429622 198.62,65.7529622 197.73,65.4429622 C197.33,65.0229622 197.56,65.0929622 197.35,64.8129622 C197.14,64.5329622 197.12,64.8729622 197.06,64.5929622 C196.6,64.1129622 196.98,64.2229622 197.06,64.3129622 C197.06,64.1729622 197.26,64.2329622 197.4,64.2529622 C197.53,63.8829622 198.08,63.8429622 198.48,63.6729622 C198.69,63.5729622 198.48,63.2529622 198.81,63.3229622 C198.712252,62.8118493 198.658721,62.2932651 198.65,61.7729622 C199.15,61.6529622 198.77,61.1929622 199.42,61.2929622 C199.080926,60.7916052 199.126265,60.1238816 199.53,59.6729622 C200.13,59.2929622 200.17,58.6729622 200.53,58.1629622 C200.85,58.1629622 200.61,57.7929622 201.2,57.9029622 C200.87,57.6129622 201.31,57.4529622 201.55,57.3329622 C201.19,57.1429622 201.42,57.1929622 201.25,57.0629622 C201.56,56.7529622 201.53,56.4229622 201.12,55.9629622 C201.05,55.5829622 201.31,55.5029622 200.87,55.2029622 C200.87,55.0629622 201.23,55.0529622 200.87,54.9029622 C200.87,54.8529622 200.57,54.7929622 200.87,54.8029622 C201.17,54.8129622 200.73,54.6129622 201.25,54.6029622 C201.47,54.5029622 201.22,54.3229622 201.78,54.3429622 Z" id="Path" fill="#CCCFDB"></path>
            </g>
            <g id="Group-3" transform="translate(124.000000, 3.122962)">
                <path d="M38.3,54.8 C53.2,54.8 65.2,42.8 65.2,27.9 C65.2,13 53.2,1 38.3,1 C23.4,1 11.4,13 11.4,27.9 C11.4,42.8 23.4,54.8 38.3,54.8 Z" id="Path_1706_" fill="#2E316A" fill-rule="nonzero"></path>
                <path d="M28.1,54.8 C43,54.8 55,42.8 55,27.9 C55,13 43,1 28.1,1 C13.2,1 1.2,13 1.2,27.9 C1.2,42.8 13.3,54.8 28.1,54.8 Z" id="Path_7325_" fill="#21C496" fill-rule="nonzero"></path>
                <polyline id="Path_7326_" stroke="#FFFFFF" stroke-width="9" stroke-linecap="round" stroke-linejoin="round" points="20.1 29 24.7 33.6 36.2 22.1"></polyline>
                <path d="M57.0118258,27.5207689 C55.8379542,28.0424896 56.4901051,25.433886 56.2292447,24.3904445 C55.5770938,23.8687237 55.5770938,22.1731313 55.055373,21.3905502 C54.7945127,19.9558182 53.8815014,18.2602258 54.1423618,17.3472145 C53.4902108,16.5646334 52.9684901,15.7820523 52.4467694,14.869041 C51.7946184,13.9560297 51.4033279,13.0430184 50.6207468,12.2604373 C49.8381657,11.4778562 49.1860147,10.9561355 48.2730035,10.3039846 C47.3599922,9.52140346 46.5774111,8.86925254 45.5339696,8.08667143 C43.4470866,6.78236959 40.5776226,5.34763756 37.4472982,4.56505645 C34.3169737,3.65204516 31.0562191,3.26075461 28.1867551,2.86946406 C27.5346041,2.86946406 27.0128834,3.13032442 26.4911627,3.26075461 C25.9694419,3.52161498 25.5781514,3.65204516 24.9260005,3.78247535 C19.5783629,4.30419608 15.404597,6.52150922 12.1438424,9.39097327 L11.4916915,9.91269401 L10.9699707,10.5648449 C10.5786802,10.9561355 10.1873896,11.347426 9.79609907,11.7387166 C9.14394815,12.6517279 8.36136704,13.5647392 7.8396463,14.6081806 C6.66577464,16.6950636 5.62233317,19.0428069 5.10061243,21.912271 C4.57889169,23.0861426 4.57889169,23.9991539 4.44846151,24.781735 C4.31803133,25.5643161 4.31803133,26.3468972 3.79631059,27.1294783 C3.92674077,31.5641046 5.10061243,35.8683007 6.40491428,39.650776 C7.0570652,40.302927 7.70921612,40.6942175 8.23093686,41.3463684 C8.88308778,41.8680892 9.5352387,42.3898099 10.0569594,43.0419608 C11.6221217,44.4766929 12.9264235,45.9114249 14.4915857,47.2157267 C16.0567479,48.5200286 17.8827705,49.8243304 20.360944,50.6069115 C20.2305138,50.6069115 20.360944,51.1286323 20.7522346,51.1286323 C21.9261062,50.8677719 25.317291,51.9112134 27.404174,51.9112134 C30.273638,52.0416436 35.7517058,51.2590625 39.6646113,48.6504588 C42.0123546,47.8678777 44.3600979,46.3027155 46.3165507,44.0854023 C48.5338638,42.3898099 50.4903166,39.7812062 51.7946184,36.9117422 C53.0989203,34.0422781 54.0119316,31.0423839 54.6640825,28.0424896 C55.707524,27.6511991 55.3162334,29.3467915 55.8379542,29.6076519 C56.3596749,30.1293726 56.2292447,26.6077576 56.4901051,28.5642104 C57.6639767,28.0424896 57.0118258,31.4336744 56.4901051,31.824965 C56.3596749,33.6509876 55.8379542,34.694429 55.3162334,35.8683007 C54.6640825,38.3464742 53.4902108,40.9550779 51.6641883,43.3028212 C49.8381657,45.6505645 47.7512827,47.6070173 45.4035394,49.0417493 C44.2296677,49.9547606 43.3166565,50.6069115 42.5340753,51.1286323 C41.7514942,51.7807832 40.8384829,52.1720737 39.6646113,52.4329341 C37.9690189,53.4763756 35.6212756,54.7806774 32.6213813,55.3023982 C29.7519173,55.9545491 26.4911627,56.0849793 23.4912684,55.9545491 C22.0565364,55.4328284 20.7522346,55.171968 19.7087931,54.6502473 C19.1870723,54.3893869 18.6653516,54.2589567 18.1436309,54.1285265 C17.6219101,53.9980963 17.2306196,53.737236 16.7088988,53.4763756 C16.3176083,53.2155152 15.7958875,53.085085 15.404597,52.8242247 C15.0133064,52.5633643 14.6220159,52.3025039 14.2307253,52.0416436 C13.4481442,51.5199228 12.6655631,50.8677719 12.0134122,49.9547606 C8.88308778,48.3895984 6.27448409,46.0418551 4.18760114,42.9115307 C2.10071819,39.7812062 0.535555979,35.7378705 0.0138352412,30.7815235 C-0.116594943,25.6947463 0.665986163,20.8688295 2.75286911,16.4342032 C4.70932188,11.999577 7.8396463,7.95624125 12.0134122,5.08677719 C12.9264235,4.69548664 14.2307253,3.91290553 15.404597,3.13032442 C16.7088988,2.4781735 17.8827705,2.08688295 18.5349214,2.34774332 C19.0566422,1.95645277 19.8392233,1.56516221 20.4913742,1.30430184 C21.2739553,1.04344147 22.1869666,0.913011291 23.0999779,0.652150922 C24.9260005,0.391290553 26.6215929,0.391290553 27.9258947,0.652150922 C29.0997664,-0.130430184 29.3606267,0.391290553 30.6649286,0 C32.0996606,0.130430184 33.4039624,0.521720737 34.7082643,0.652150922 C36.0125661,1.04344147 37.1864378,1.30430184 38.4907396,1.6955924 C40.9689131,2.4781735 43.4470866,3.39118479 46.0556903,4.95634701 C48.5338638,6.6519394 49.8381657,8.08667143 50.8816071,9.39097327 C51.9250486,10.6952751 52.8380599,11.7387166 54.2727919,13.3038788 C54.9249429,14.3473203 55.055373,15.1299014 55.3162334,15.7820523 C55.5770938,16.4342032 55.8379542,17.0863542 56.3596749,17.8689353 C56.6205353,18.7819465 57.4031164,19.0428069 56.8813956,19.4340975 C57.0118258,20.6079691 57.2726862,21.3905502 57.4031164,21.912271 C57.5335465,22.4339917 57.4031164,22.8252823 57.142256,23.347003 C57.5335465,24.781735 57.9248371,27.3903387 57.0118258,27.5207689 Z" id="Path_11_" fill="#2E316A"></path>
            </g>
        </g>
    </g>
</svg>