<?xml version="1.0" encoding="UTF-8"?>
<svg width="216px" height="216px" viewBox="0 0 216 216" version="1.1" xmlns="http://www.w3.org/2000/svg" xmlns:xlink="http://www.w3.org/1999/xlink">
    <title>workflow-alt</title>
    <g id="workflow-alt" stroke="none" stroke-width="1" fill="none" fill-rule="evenodd">
        <g id="Group" transform="translate(2.075000, 2.000000)">
            <g id="workflow">
                <path d="M172.7,187.3 C173.1,188.2 171,187.6 170.1,187.8 C169.7,188.2 168.3,188.1 167.5,188.3 C166.3,188.3 164.7,188.4 164,188.1 C162.5,188.6 160.7,188.4 158.8,188.6 C157.9,188.7 157.2,188.9 156.2,189.1 C155.2,189.2 154.3,189.2 153.2,189.3 C148.9,189.8 142,190.5 136.7,189.8 C135.5,189.8 134.9,190.2 133.7,190.3 C125,189.7 116.3,189.5 107.7,189.8 C105.5,189.5 104.3,190.1 102.9,189.3 C99.1,189.5 95.4,189.5 91.6,189.1 C90.2,189.5 88.7,189.9 87.3,190.1 C83.5,190.6 80.3,189.8 75.6,190.1 C75.7,190.1 75.4,189.7 75.2,189.9 C74.2,190.6 71,190.3 69.1,190.4 C66.4,190.5 61.5,190.8 56.9,191.1 C54.3,190.9 51.7,190.8 49.1,190.9 C43.7,190.3 37.5,190.6 32.2,189.5 C31.8,188.7 33.3,189 33.5,188.5 C33.9,188.1 31,188.4 32.6,188 C32.2,187.1 34.9,187.6 35.2,187.8 C36.4,187.7 37.5,187.8 38.7,188 C43.3,187.9 48,188.1 52.6,188.5 C55.2,188.6 56.2,188.1 58.2,188.5 C61.5,187.9 66.9,187.6 71.7,187.1 C76.5,187.5 78.6,186.8 82.1,187.6 C87.5,186.6 92.7,186.6 100.3,186.6 C108.1,187.1 115.3,186.8 123.3,187.1 C124.9,187.5 128,187 128.9,187.8 C131,187.3 134.6,187.8 136.7,188 C137.7,187.5 137.9,187.8 138.9,187.5 C143.2,187.8 147.6,187.6 151.9,187 C156.6,186.8 157.9,187.2 161,186.5 C162.8,186.5 163.4,186.9 164.9,186.5 C165.6,186.6 166,186.1 166.2,186.5 C168.1,186.7 168.6,186.3 169.2,187 C170.5,186.9 172.6,186.5 172.7,187.3 Z" id="Path" fill="#2F326A"></path>
                <path d="M186,144.5 C186.9,144.5 186.3,144.5 186.5,144.6 C186.7,144.6 186.8,144.6 187,144.7 C187,144.7 187.1,144.8 186.8,144.8 C187.3,144.8 187.1,144.9 187.3,144.9 C187.4,144.9 187.6,144.9 187.8,145 C188,145.1 187.9,145.1 188,145.1 C188.5,145.2 189.2,145.4 188.5,145.6 C188.5,145.6 188.9,145.7 189,145.7 C188.4,146 188.2,146.1 188.5,146.4 C188.2,146.5 188.8,146.5 188,146.5 C188.2,146.6 188.2,146.7 187.8,146.8 C188.1,146.8 188.4,146.9 188.8,146.9 C189.3,147 188.5,147.1 188.8,147.2 C188.8,147.2 188.4,147.2 188.6,147.2 C189.3,147.2 189,147.3 189.1,147.4 C189.3,147.5 189.6,147.7 189.8,147.7 C189.6,147.8 189.5,147.8 189.6,147.9 C189,148.1 189.3,148.2 188.2,148.4 C187.4,148.4 187.7,148.4 187.2,148.4 C186.8,148.4 187.1,148.5 186.7,148.4 C185.8,148.4 186.3,148.3 186.5,148.3 C186.4,148.3 186.6,148.2 186.7,148.2 C186.5,148.1 186.9,147.9 187.2,147.8 C187.3,147.7 186.8,147.7 187.2,147.6 C186.7,147.5 186.2,147.4 185.8,147.2 C186.2,147.1 185.5,147 186.3,146.9 C185.3,146.7 185.3,146.6 185.3,146.4 C185.8,146.2 185.5,146 185.8,145.7 C186.2,145.7 185.7,145.6 186.5,145.5 C186,145.4 186.5,145.3 186.7,145.3 C186.5,145.3 186.4,145.3 186.2,145.2 C186.5,145.1 186.4,145 185.7,144.8 C185.5,144.7 185.9,144.6 185.2,144.5 C185.2,144.4 185.6,144.4 185.2,144.4 C185.3,144.4 184.8,144.4 185.2,144.4 C185.4,144.3 185,144.3 185.7,144.3 C185.6,144.5 185.2,144.5 186,144.5 Z" id="Path_3_" fill="#2F326A"></path>
                <path d="M186,136.5 C186.9,136.5 186.3,136.5 186.5,136.6 C186.7,136.6 186.8,136.6 187,136.7 C187,136.7 187.1,136.8 186.8,136.8 C187.3,136.8 187.1,136.9 187.3,136.9 C187.4,136.9 187.6,136.9 187.8,137 C188,137.1 187.9,137.1 188,137.1 C188.5,137.2 189.2,137.4 188.5,137.6 C188.5,137.6 188.9,137.7 189,137.7 C188.4,138 188.2,138.1 188.5,138.4 C188.2,138.5 188.8,138.5 188,138.5 C188.2,138.6 188.2,138.7 187.8,138.8 C188.1,138.8 188.4,138.9 188.8,138.9 C189.3,139 188.5,139.1 188.8,139.2 C188.8,139.2 188.4,139.2 188.6,139.2 C189.3,139.2 189,139.3 189.1,139.4 C189.3,139.5 189.6,139.7 189.8,139.7 C189.6,139.8 189.5,139.8 189.6,139.9 C189,140.1 189.3,140.2 188.2,140.4 C187.4,140.4 187.7,140.4 187.2,140.4 C186.8,140.4 187.1,140.5 186.7,140.4 C185.8,140.4 186.3,140.3 186.5,140.3 C186.4,140.3 186.6,140.2 186.7,140.2 C186.5,140.1 186.9,139.9 187.2,139.8 C187.3,139.7 186.8,139.7 187.2,139.6 C186.7,139.5 186.2,139.4 185.8,139.2 C186.2,139.1 185.5,139 186.3,138.9 C185.3,138.7 185.3,138.6 185.3,138.4 C185.8,138.2 185.5,138 185.8,137.7 C186.2,137.7 185.7,137.6 186.5,137.5 C186,137.4 186.5,137.3 186.7,137.3 C186.5,137.3 186.4,137.3 186.2,137.2 C186.5,137.1 186.4,137 185.7,136.8 C185.5,136.7 185.9,136.6 185.2,136.5 C185.2,136.4 185.6,136.4 185.2,136.4 C185.3,136.4 184.8,136.4 185.2,136.4 C185.4,136.3 185,136.3 185.7,136.3 C185.6,136.5 185.2,136.5 186,136.5 Z" id="Path_4_" fill="#2F326A"></path>
                <path d="M186,128.5 C186.9,128.5 186.3,128.5 186.5,128.6 C186.7,128.6 186.8,128.6 187,128.7 C187,128.7 187.1,128.8 186.8,128.8 C187.3,128.8 187.1,128.9 187.3,128.9 C187.4,128.9 187.6,128.9 187.8,129 C188,129.1 187.9,129.1 188,129.1 C188.5,129.2 189.2,129.4 188.5,129.6 C188.5,129.6 188.9,129.7 189,129.7 C188.4,130 188.2,130.1 188.5,130.4 C188.2,130.5 188.8,130.5 188,130.5 C188.2,130.6 188.2,130.7 187.8,130.8 C188.1,130.8 188.4,130.9 188.8,130.9 C189.3,131 188.5,131.1 188.8,131.2 C188.8,131.2 188.4,131.2 188.6,131.2 C189.3,131.2 189,131.3 189.1,131.4 C189.3,131.5 189.6,131.7 189.8,131.7 C189.6,131.8 189.5,131.8 189.6,131.9 C189,132.1 189.3,132.2 188.2,132.4 C187.4,132.4 187.7,132.4 187.2,132.4 C186.8,132.4 187.1,132.5 186.7,132.4 C185.8,132.4 186.3,132.3 186.5,132.3 C186.4,132.3 186.6,132.2 186.7,132.2 C186.5,132.1 186.9,131.9 187.2,131.8 C187.3,131.7 186.8,131.7 187.2,131.6 C186.7,131.5 186.2,131.4 185.8,131.2 C186.2,131.1 185.5,131 186.3,130.9 C185.3,130.7 185.3,130.6 185.3,130.4 C185.8,130.2 185.5,130 185.8,129.7 C186.2,129.7 185.7,129.6 186.5,129.5 C186,129.4 186.5,129.3 186.7,129.3 C186.5,129.3 186.4,129.3 186.2,129.2 C186.5,129.1 186.4,129 185.7,128.8 C185.5,128.7 185.9,128.6 185.2,128.5 C185.2,128.4 185.6,128.4 185.2,128.4 C185.3,128.4 184.8,128.4 185.2,128.4 C185.4,128.3 185,128.3 185.7,128.3 C185.6,128.5 185.2,128.5 186,128.5 Z" id="Path_5_" fill="#2F326A"></path>
                <path d="M186,159.5 C186.9,159.5 186.3,159.5 186.5,159.6 C186.7,159.6 186.8,159.6 187,159.7 C187,159.7 187.1,159.8 186.8,159.8 C187.3,159.8 187.1,159.9 187.3,159.9 C187.4,159.9 187.6,159.9 187.8,160 C188,160.1 187.9,160.1 188,160.1 C188.5,160.2 189.2,160.4 188.5,160.6 C188.5,160.6 188.9,160.7 189,160.7 C188.4,161 188.2,161.1 188.5,161.4 C188.2,161.5 188.8,161.5 188,161.5 C188.2,161.6 188.2,161.7 187.8,161.8 C188.1,161.8 188.4,161.9 188.8,161.9 C189.3,162 188.5,162.1 188.8,162.2 C188.8,162.2 188.4,162.2 188.6,162.2 C189.3,162.2 189,162.3 189.1,162.4 C189.3,162.5 189.6,162.7 189.8,162.7 C189.6,162.8 189.5,162.8 189.6,162.9 C189,163.1 189.3,163.2 188.2,163.4 C187.4,163.4 187.7,163.4 187.2,163.4 C186.8,163.4 187.1,163.5 186.7,163.4 C185.8,163.4 186.3,163.3 186.5,163.3 C186.4,163.3 186.6,163.2 186.7,163.2 C186.5,163.1 186.9,162.9 187.2,162.8 C187.3,162.7 186.8,162.7 187.2,162.6 C186.7,162.5 186.2,162.4 185.8,162.2 C186.2,162.1 185.5,162 186.3,161.9 C185.3,161.7 185.3,161.6 185.3,161.4 C185.8,161.2 185.5,161 185.8,160.7 C186.2,160.7 185.7,160.6 186.5,160.5 C186,160.4 186.5,160.3 186.7,160.3 C186.5,160.3 186.4,160.3 186.2,160.2 C186.5,160.1 186.4,160 185.7,159.8 C185.5,159.7 185.9,159.6 185.2,159.5 C185.2,159.4 185.6,159.4 185.2,159.4 C185.3,159.4 184.8,159.4 185.2,159.4 C185.4,159.3 185,159.3 185.7,159.3 C185.6,159.5 185.2,159.5 186,159.5 Z" id="Path_5_-Copy" fill="#2F326A"></path>
                <path d="M186,120.5 C186.9,120.5 186.3,120.5 186.5,120.6 C186.7,120.6 186.8,120.6 187,120.7 C187,120.7 187.1,120.8 186.8,120.8 C187.3,120.8 187.1,120.9 187.3,120.9 C187.4,120.9 187.6,120.9 187.8,121 C188,121.1 187.9,121.1 188,121.1 C188.5,121.2 189.2,121.4 188.5,121.6 C188.5,121.6 188.9,121.7 189,121.7 C188.4,122 188.2,122.1 188.5,122.4 C188.2,122.5 188.8,122.5 188,122.5 C188.2,122.6 188.2,122.7 187.8,122.8 C188.1,122.8 188.4,122.9 188.8,122.9 C189.3,123 188.5,123.1 188.8,123.2 C188.8,123.2 188.4,123.2 188.6,123.2 C189.3,123.2 189,123.3 189.1,123.4 C189.3,123.5 189.6,123.7 189.8,123.7 C189.6,123.8 189.5,123.8 189.6,123.9 C189,124.1 189.3,124.2 188.2,124.4 C187.4,124.4 187.7,124.4 187.2,124.4 C186.8,124.4 187.1,124.5 186.7,124.4 C185.8,124.4 186.3,124.3 186.5,124.3 C186.4,124.3 186.6,124.2 186.7,124.2 C186.5,124.1 186.9,123.9 187.2,123.8 C187.3,123.7 186.8,123.7 187.2,123.6 C186.7,123.5 186.2,123.4 185.8,123.2 C186.2,123.1 185.5,123 186.3,122.9 C185.3,122.7 185.3,122.6 185.3,122.4 C185.8,122.2 185.5,122 185.8,121.7 C186.2,121.7 185.7,121.6 186.5,121.5 C186,121.4 186.5,121.3 186.7,121.3 C186.5,121.3 186.4,121.3 186.2,121.2 C186.5,121.1 186.4,121 185.7,120.8 C185.5,120.7 185.9,120.6 185.2,120.5 C185.2,120.4 185.6,120.4 185.2,120.4 C185.3,120.4 184.8,120.4 185.2,120.4 C185.4,120.3 185,120.3 185.7,120.3 C185.6,120.5 185.2,120.5 186,120.5 Z" id="Path_6_" fill="#2F326A"></path>
                <path d="M186,151.5 C186.9,151.5 186.3,151.5 186.5,151.6 C186.7,151.6 186.8,151.6 187,151.7 C187,151.7 187.1,151.8 186.8,151.8 C187.3,151.8 187.1,151.9 187.3,151.9 C187.4,151.9 187.6,151.9 187.8,152 C188,152.1 187.9,152.1 188,152.1 C188.5,152.2 189.2,152.4 188.5,152.6 C188.5,152.6 188.9,152.7 189,152.7 C188.4,153 188.2,153.1 188.5,153.4 C188.2,153.5 188.8,153.5 188,153.5 C188.2,153.6 188.2,153.7 187.8,153.8 C188.1,153.8 188.4,153.9 188.8,153.9 C189.3,154 188.5,154.1 188.8,154.2 C188.8,154.2 188.4,154.2 188.6,154.2 C189.3,154.2 189,154.3 189.1,154.4 C189.3,154.5 189.6,154.7 189.8,154.7 C189.6,154.8 189.5,154.8 189.6,154.9 C189,155.1 189.3,155.2 188.2,155.4 C187.4,155.4 187.7,155.4 187.2,155.4 C186.8,155.4 187.1,155.5 186.7,155.4 C185.8,155.4 186.3,155.3 186.5,155.3 C186.4,155.3 186.6,155.2 186.7,155.2 C186.5,155.1 186.9,154.9 187.2,154.8 C187.3,154.7 186.8,154.7 187.2,154.6 C186.7,154.5 186.2,154.4 185.8,154.2 C186.2,154.1 185.5,154 186.3,153.9 C185.3,153.7 185.3,153.6 185.3,153.4 C185.8,153.2 185.5,153 185.8,152.7 C186.2,152.7 185.7,152.6 186.5,152.5 C186,152.4 186.5,152.3 186.7,152.3 C186.5,152.3 186.4,152.3 186.2,152.2 C186.5,152.1 186.4,152 185.7,151.8 C185.5,151.7 185.9,151.6 185.2,151.5 C185.2,151.4 185.6,151.4 185.2,151.4 C185.3,151.4 184.8,151.4 185.2,151.4 C185.4,151.3 185,151.3 185.7,151.3 C185.6,151.5 185.2,151.5 186,151.5 Z" id="Path_6_-Copy" fill="#2F326A"></path>
                <path d="M186,112.5 C186.9,112.5 186.3,112.5 186.5,112.6 C186.7,112.6 186.8,112.6 187,112.7 C187,112.7 187.1,112.8 186.8,112.8 C187.3,112.8 187.1,112.9 187.3,112.9 C187.4,112.9 187.6,112.9 187.8,113 C188,113.1 187.9,113.1 188,113.1 C188.5,113.2 189.2,113.4 188.5,113.6 C188.5,113.6 188.9,113.7 189,113.7 C188.4,114 188.2,114.1 188.5,114.4 C188.2,114.5 188.8,114.5 188,114.5 C188.2,114.6 188.2,114.7 187.8,114.8 C188.1,114.8 188.4,114.9 188.8,114.9 C189.3,115 188.5,115.1 188.8,115.2 C188.8,115.2 188.4,115.2 188.6,115.2 C189.3,115.2 189,115.3 189.1,115.4 C189.3,115.5 189.6,115.7 189.8,115.7 C189.6,115.8 189.5,115.8 189.6,115.9 C189,116.1 189.3,116.2 188.2,116.4 C187.4,116.4 187.7,116.4 187.2,116.4 C186.8,116.4 187.1,116.5 186.7,116.4 C185.8,116.4 186.3,116.3 186.5,116.3 C186.4,116.3 186.6,116.2 186.7,116.2 C186.5,116.1 186.9,115.9 187.2,115.8 C187.3,115.7 186.8,115.7 187.2,115.6 C186.7,115.5 186.2,115.4 185.8,115.2 C186.2,115.1 185.5,115 186.3,114.9 C185.3,114.7 185.3,114.6 185.3,114.4 C185.8,114.2 185.5,114 185.8,113.7 C186.2,113.7 185.7,113.6 186.5,113.5 C186,113.4 186.5,113.3 186.7,113.3 C186.5,113.3 186.4,113.3 186.2,113.2 C186.5,113.1 186.4,113 185.7,112.8 C185.5,112.7 185.9,112.6 185.2,112.5 C185.2,112.4 185.6,112.4 185.2,112.4 C185.3,112.4 184.8,112.4 185.2,112.4 C185.4,112.3 185,112.3 185.7,112.3 C185.6,112.5 185.2,112.5 186,112.5 Z" id="Path_7_" fill="#2F326A"></path>
                <path d="M186,14.9 C186.9,14.6 186.3,16 186.5,16.6 C186.9,16.9 186.8,17.8 187,18.3 C187,19.1 187.1,20.1 186.8,20.5 C187.3,21.5 187.1,22.6 187.3,23.8 C187.4,24.4 187.6,24.8 187.8,25.5 C187.9,26.1 187.9,26.7 188,27.4 C188.5,30.2 189.2,34.5 188.5,37.9 C188.5,38.7 188.9,39.1 189,39.8 C188.4,45.3 188.2,50.8 188.5,56.3 C188.2,57.7 188.8,58.4 188,59.3 C188.2,61.7 188.2,64.1 187.8,66.5 C188.2,67.4 188.6,68.3 188.8,69.3 C189.3,71.7 188.5,73.7 188.8,76.7 C188.8,76.6 188.4,76.8 188.6,77 C189.3,77.6 189,79.7 189.1,80.9 C189.2,82.6 189.5,85.8 189.8,88.6 C189.6,90.2 189.5,91.9 189.6,93.6 C189,97 189.3,101 188.2,104.4 C187.4,104.6 187.7,103.7 187.2,103.6 C186.8,103.3 187.1,105.2 186.7,104.2 C185.8,104.5 186.3,102.7 186.5,102.5 C186.4,101.8 186.5,101 186.7,100.3 C186.6,97.4 186.8,94.4 187.2,91.5 C187.3,89.9 186.8,89.2 187.2,87.9 C186.6,85.8 186.3,82.3 185.8,79.4 C186.2,76.3 185.5,75 186.3,72.8 C185.3,69.4 185.3,66.1 185.3,61.2 C185.8,56.3 185.5,51.7 185.8,46.6 C186.2,45.6 185.7,43.6 186.5,43 C186,41.7 186.5,39.4 186.7,38 C186.2,37.4 186.5,37.3 186.2,36.6 C186.5,33.8 186.3,31 185.7,28.3 C185.5,25.3 185.9,24.5 185.2,22.5 C185.2,21.3 185.6,21 185.2,20 C185.3,19.5 184.8,19.3 185.2,19.2 C185.4,18 185,17.7 185.7,17.3 C185.6,16.3 185.2,15 186,14.9 Z" id="Path_9_" fill="#2F326A"></path>
                <path d="M183.2,15.8 C183.2,14.9 183.2,15.5 183.3,15.3 C183.3,15.1 183.3,15 183.4,14.8 C183.4,14.8 183.5,14.7 183.5,15 C183.5,14.5 183.6,14.7 183.6,14.5 C183.6,14.4 183.6,14.2 183.7,14 C183.7,13.9 183.8,13.9 183.8,13.8 C183.9,13.3 184.1,12.6 184.3,13.3 C184.3,13.3 184.4,12.9 184.4,12.8 C184.7,13.4 184.8,13.6 185.1,13.3 C185.2,13.6 185.2,13 185.2,13.8 C185.3,13.6 185.4,13.6 185.5,14 C185.5,13.7 185.6,13.4 185.6,13 C185.7,12.5 185.8,13.3 185.9,13 C185.9,13 185.9,13.4 185.9,13.2 C185.9,12.5 186,12.8 186.1,12.7 C186.2,12.5 186.4,12.2 186.4,12 C186.5,12.2 186.5,12.3 186.6,12.2 C186.8,12.8 186.9,12.5 187.1,13.6 C187.1,14.4 187.1,14.1 187.1,14.6 C187.1,15 187.2,14.7 187.1,15.1 C187.1,16 187,15.5 187,15.3 C187,15.4 186.9,15.2 186.9,15.1 C186.8,15.3 186.6,14.9 186.5,14.6 C186.4,14.5 186.4,15 186.3,14.6 C186.2,15.1 186.1,15.6 185.9,16 C185.8,15.6 185.7,16.3 185.6,15.5 C185.4,16.5 185.3,16.5 185.1,16.5 C184.9,16 184.7,16.3 184.4,16 C184.4,15.6 184.3,16.1 184.2,15.3 C184.1,15.8 184,15.3 184,15.1 C184,15.3 184,15.4 183.9,15.6 C183.8,15.3 183.7,15.4 183.5,16.1 C183.4,16.3 183.3,15.9 183.2,16.6 C183.1,16.6 183.1,16.2 183.1,16.6 C183.1,16.5 183.1,17 183.1,16.6 C183,16.4 183,16.8 183,16.1 C183.3,16.2 183.2,16.5 183.2,15.8 Z" id="Path_10_" fill="#2F326A"></path>
                <path d="M167.2,15.8 C167.2,14.9 167.2,15.5 167.3,15.3 C167.3,15.1 167.3,15 167.4,14.8 C167.4,14.8 167.5,14.7 167.5,15 C167.5,14.5 167.6,14.7 167.6,14.5 C167.6,14.4 167.6,14.2 167.7,14 C167.7,13.9 167.8,13.9 167.8,13.8 C167.9,13.3 168.1,12.6 168.3,13.3 C168.3,13.3 168.4,12.9 168.4,12.8 C168.7,13.4 168.8,13.6 169.1,13.3 C169.2,13.6 169.2,13 169.2,13.8 C169.3,13.6 169.4,13.6 169.5,14 C169.5,13.7 169.6,13.4 169.6,13 C169.7,12.5 169.8,13.3 169.9,13 C169.9,13 169.9,13.4 169.9,13.2 C169.9,12.5 170,12.8 170.1,12.7 C170.2,12.5 170.4,12.2 170.4,12 C170.5,12.2 170.5,12.3 170.6,12.2 C170.8,12.8 170.9,12.5 171.1,13.6 C171.1,14.4 171.1,14.1 171.1,14.6 C171.1,15 171.2,14.7 171.1,15.1 C171.1,16 171,15.5 171,15.3 C171,15.4 170.9,15.2 170.9,15.1 C170.8,15.3 170.6,14.9 170.5,14.6 C170.4,14.5 170.4,15 170.3,14.6 C170.2,15.1 170.1,15.6 169.9,16 C169.8,15.6 169.7,16.3 169.6,15.5 C169.4,16.5 169.3,16.5 169.1,16.5 C168.9,16 168.7,16.3 168.4,16 C168.4,15.6 168.3,16.1 168.2,15.3 C168.1,15.8 168,15.3 168,15.1 C168,15.3 168,15.4 167.9,15.6 C167.8,15.3 167.7,15.4 167.5,16.1 C167.4,16.3 167.3,15.9 167.2,16.6 C167.1,16.6 167.1,16.2 167.1,16.6 C167.1,16.5 167.1,17 167.1,16.6 C167,16.4 167,16.8 167,16.1 C167.3,16.2 167.2,16.5 167.2,15.8 Z" id="Path_12_" fill="#2F326A"></path>
                <path d="M159.2,15.8 C159.2,14.9 159.2,15.5 159.3,15.3 C159.3,15.1 159.3,15 159.4,14.8 C159.4,14.8 159.5,14.7 159.5,15 C159.5,14.5 159.6,14.7 159.6,14.5 C159.6,14.4 159.6,14.2 159.7,14 C159.7,13.9 159.8,13.9 159.8,13.8 C159.9,13.3 160.1,12.6 160.3,13.3 C160.3,13.3 160.4,12.9 160.4,12.8 C160.7,13.4 160.8,13.6 161.1,13.3 C161.2,13.6 161.2,13 161.2,13.8 C161.3,13.6 161.4,13.6 161.5,14 C161.5,13.7 161.6,13.4 161.6,13 C161.7,12.5 161.8,13.3 161.9,13 C161.9,13 161.9,13.4 161.9,13.2 C161.9,12.5 162,12.8 162.1,12.7 C162.2,12.5 162.4,12.2 162.4,12 C162.5,12.2 162.5,12.3 162.6,12.2 C162.8,12.8 162.9,12.5 163.1,13.6 C163.1,14.4 163.1,14.1 163.1,14.6 C163.1,15 163.2,14.7 163.1,15.1 C163.1,16 163,15.5 163,15.3 C163,15.4 162.9,15.2 162.9,15.1 C162.8,15.3 162.6,14.9 162.5,14.6 C162.4,14.5 162.4,15 162.3,14.6 C162.2,15.1 162.1,15.6 161.9,16 C161.8,15.6 161.7,16.3 161.6,15.5 C161.4,16.5 161.3,16.5 161.1,16.5 C160.9,16 160.7,16.3 160.4,16 C160.4,15.6 160.3,16.1 160.2,15.3 C160.1,15.8 160,15.3 160,15.1 C160,15.3 160,15.4 159.9,15.6 C159.8,15.3 159.7,15.4 159.5,16.1 C159.4,16.3 159.3,15.9 159.2,16.6 C159.1,16.6 159.1,16.2 159.1,16.6 C159.1,16.5 159.1,17 159.1,16.6 C159,16.4 159,16.8 159,16.1 C159.3,16.2 159.2,16.5 159.2,15.8 Z" id="Path_13_" fill="#2F326A"></path>
                <path d="M151.2,15.8 C151.2,14.9 151.2,15.5 151.3,15.3 C151.3,15.1 151.3,15 151.4,14.8 C151.4,14.8 151.5,14.7 151.5,15 C151.5,14.5 151.6,14.7 151.6,14.5 C151.6,14.4 151.6,14.2 151.7,14 C151.7,13.9 151.8,13.9 151.8,13.8 C151.9,13.3 152.1,12.6 152.3,13.3 C152.3,13.3 152.4,12.9 152.4,12.8 C152.7,13.4 152.8,13.6 153.1,13.3 C153.2,13.6 153.2,13 153.2,13.8 C153.3,13.6 153.4,13.6 153.5,14 C153.5,13.7 153.6,13.4 153.6,13 C153.7,12.5 153.8,13.3 153.9,13 C153.9,13 153.9,13.4 153.9,13.2 C153.9,12.5 154,12.8 154.1,12.7 C154.2,12.5 154.4,12.2 154.4,12 C154.5,12.2 154.5,12.3 154.6,12.2 C154.8,12.8 154.9,12.5 155.1,13.6 C155.1,14.4 155.1,14.1 155.1,14.6 C155.1,15 155.2,14.7 155.1,15.1 C155.1,16 155,15.5 155,15.3 C155,15.4 154.9,15.2 154.9,15.1 C154.8,15.3 154.6,14.9 154.5,14.6 C154.4,14.5 154.4,15 154.3,14.6 C154.2,15.1 154.1,15.6 153.9,16 C153.8,15.6 153.7,16.3 153.6,15.5 C153.4,16.5 153.3,16.5 153.1,16.5 C152.9,16 152.7,16.3 152.4,16 C152.4,15.6 152.3,16.1 152.2,15.3 C152.1,15.8 152,15.3 152,15.1 C152,15.3 152,15.4 151.9,15.6 C151.8,15.3 151.7,15.4 151.5,16.1 C151.4,16.3 151.3,15.9 151.2,16.6 C151.1,16.6 151.1,16.2 151.1,16.6 C151.1,16.5 151.1,17 151.1,16.6 C151,16.4 151,16.8 151,16.1 C151.3,16.2 151.2,16.5 151.2,15.8 Z" id="Path_14_" fill="#2F326A"></path>
                <path d="M143.2,15.8 C143.2,14.9 143.2,15.5 143.3,15.3 C143.3,15.1 143.3,15 143.4,14.8 C143.4,14.8 143.5,14.7 143.5,15 C143.5,14.5 143.6,14.7 143.6,14.5 C143.6,14.4 143.6,14.2 143.7,14 C143.7,13.9 143.8,13.9 143.8,13.8 C143.9,13.3 144.1,12.6 144.3,13.3 C144.3,13.3 144.4,12.9 144.4,12.8 C144.7,13.4 144.8,13.6 145.1,13.3 C145.2,13.6 145.2,13 145.2,13.8 C145.3,13.6 145.4,13.6 145.5,14 C145.5,13.7 145.6,13.4 145.6,13 C145.7,12.5 145.8,13.3 145.9,13 C145.9,13 145.9,13.4 145.9,13.2 C145.9,12.5 146,12.8 146.1,12.7 C146.2,12.5 146.4,12.2 146.4,12 C146.5,12.2 146.5,12.3 146.6,12.2 C146.8,12.8 146.9,12.5 147.1,13.6 C147.1,14.4 147.1,14.1 147.1,14.6 C147.1,15 147.2,14.7 147.1,15.1 C147.1,16 147,15.5 147,15.3 C147,15.4 146.9,15.2 146.9,15.1 C146.8,15.3 146.6,14.9 146.5,14.6 C146.4,14.5 146.4,15 146.3,14.6 C146.2,15.1 146.1,15.6 145.9,16 C145.8,15.6 145.7,16.3 145.6,15.5 C145.4,16.5 145.3,16.5 145.1,16.5 C144.9,16 144.7,16.3 144.4,16 C144.4,15.6 144.3,16.1 144.2,15.3 C144.1,15.8 144,15.3 144,15.1 C144,15.3 144,15.4 143.9,15.6 C143.8,15.3 143.7,15.4 143.5,16.1 C143.4,16.3 143.3,15.9 143.2,16.6 C143.1,16.6 143.1,16.2 143.1,16.6 C143.1,16.5 143.1,17 143.1,16.6 C143,16.4 143,16.8 143,16.1 C143.3,16.2 143.2,16.5 143.2,15.8 Z" id="Path_15_" fill="#2F326A"></path>
                <path d="M96.2,107.1 C96.2,106.2 96.2,106.8 96.3,106.6 C96.3,106.4 96.3,106.3 96.4,106.1 C96.4,106.1 96.5,106 96.5,106.3 C96.5,105.8 96.6,106 96.6,105.8 C96.6,105.7 96.6,105.5 96.7,105.3 C96.7,105.2 96.8,105.2 96.8,105.1 C96.9,104.6 97.1,103.9 97.3,104.6 C97.3,104.6 97.4,104.2 97.4,104.1 C97.7,104.7 97.8,104.9 98.1,104.6 C98.2,104.9 98.2,104.3 98.2,105.1 C98.3,104.9 98.4,104.9 98.5,105.3 C98.5,105 98.6,104.7 98.6,104.3 C98.7,103.8 98.8,104.6 98.9,104.3 C98.9,104.3 98.9,104.7 98.9,104.5 C98.9,103.8 99,104.1 99.1,104 C99.2,103.8 99.4,103.5 99.4,103.3 C99.5,103.5 99.5,103.6 99.6,103.5 C99.8,104.1 99.9,103.8 100.1,104.9 C100.1,105.7 100.1,105.4 100.1,105.9 C100.1,106.3 100.2,106 100.1,106.4 C100.1,107.3 100,106.8 100,106.6 C100,106.7 99.9,106.5 99.9,106.4 C99.8,106.6 99.6,106.2 99.5,105.9 C99.4,105.8 99.4,106.3 99.3,105.9 C99.2,106.4 99.1,106.9 98.9,107.3 C98.8,106.9 98.7,107.6 98.6,106.8 C98.4,107.8 98.3,107.8 98.1,107.8 C97.9,107.3 97.7,107.6 97.4,107.3 C97.4,106.9 97.3,107.4 97.2,106.6 C97.1,107.1 97,106.6 97,106.4 C97,106.6 97,106.7 96.9,106.9 C96.8,106.6 96.7,106.7 96.5,107.4 C96.4,107.6 96.3,107.2 96.2,107.9 C96.1,107.9 96.1,107.5 96.1,107.9 C96.1,107.8 96.1,108.3 96.1,107.9 C96,107.7 96,108.1 96,107.4 C96.3,107.5 96.2,107.9 96.2,107.1 Z" id="Path_16_" fill="#2F326A"></path>
                <path d="M88.2,107.1 C88.2,106.2 88.2,106.8 88.3,106.6 C88.3,106.4 88.3,106.3 88.4,106.1 C88.4,106.1 88.5,106 88.5,106.3 C88.5,105.8 88.6,106 88.6,105.8 C88.6,105.7 88.6,105.5 88.7,105.3 C88.7,105.2 88.8,105.2 88.8,105.1 C88.9,104.6 89.1,103.9 89.3,104.6 C89.3,104.6 89.4,104.2 89.4,104.1 C89.7,104.7 89.8,104.9 90.1,104.6 C90.2,104.9 90.2,104.3 90.2,105.1 C90.3,104.9 90.4,104.9 90.5,105.3 C90.5,105 90.6,104.7 90.6,104.3 C90.7,103.8 90.8,104.6 90.9,104.3 C90.9,104.3 90.9,104.7 90.9,104.5 C90.9,103.8 91,104.1 91.1,104 C91.2,103.8 91.4,103.5 91.4,103.3 C91.5,103.5 91.5,103.6 91.6,103.5 C91.8,104.1 91.9,103.8 92.1,104.9 C92.1,105.7 92.1,105.4 92.1,105.9 C92.1,106.3 92.2,106 92.1,106.4 C92.1,107.3 92,106.8 92,106.6 C92,106.7 91.9,106.5 91.9,106.4 C91.8,106.6 91.6,106.2 91.5,105.9 C91.4,105.8 91.4,106.3 91.3,105.9 C91.2,106.4 91.1,106.9 90.9,107.3 C90.8,106.9 90.7,107.6 90.6,106.8 C90.4,107.8 90.3,107.8 90.1,107.8 C89.9,107.3 89.7,107.6 89.4,107.3 C89.4,106.9 89.3,107.4 89.2,106.6 C89.1,107.1 89,106.6 89,106.4 C89,106.6 89,106.7 88.9,106.9 C88.8,106.6 88.7,106.7 88.5,107.4 C88.4,107.6 88.3,107.2 88.2,107.9 C88.1,107.9 88.1,107.5 88.1,107.9 C88.1,107.8 88.1,108.3 88.1,107.9 C88,107.7 88,108.1 88,107.4 C88.3,107.5 88.2,107.9 88.2,107.1 Z" id="Path_17_" fill="#2F326A"></path>
                <path d="M80.2,107.1 C80.2,106.2 80.2,106.8 80.3,106.6 C80.3,106.4 80.3,106.3 80.4,106.1 C80.4,106.1 80.5,106 80.5,106.3 C80.5,105.8 80.6,106 80.6,105.8 C80.6,105.7 80.6,105.5 80.7,105.3 C80.7,105.2 80.8,105.2 80.8,105.1 C80.9,104.6 81.1,103.9 81.3,104.6 C81.3,104.6 81.4,104.2 81.4,104.1 C81.7,104.7 81.8,104.9 82.1,104.6 C82.2,104.9 82.2,104.3 82.2,105.1 C82.3,104.9 82.4,104.9 82.5,105.3 C82.5,105 82.6,104.7 82.6,104.3 C82.7,103.8 82.8,104.6 82.9,104.3 C82.9,104.3 82.9,104.7 82.9,104.5 C82.9,103.8 83,104.1 83.1,104 C83.2,103.8 83.4,103.5 83.4,103.3 C83.5,103.5 83.5,103.6 83.6,103.5 C83.8,104.1 83.9,103.8 84.1,104.9 C84.1,105.7 84.1,105.4 84.1,105.9 C84.1,106.3 84.2,106 84.1,106.4 C84.1,107.3 84,106.8 84,106.6 C84,106.7 83.9,106.5 83.9,106.4 C83.8,106.6 83.6,106.2 83.5,105.9 C83.4,105.8 83.4,106.3 83.3,105.9 C83.2,106.4 83.1,106.9 82.9,107.3 C82.8,106.9 82.7,107.6 82.6,106.8 C82.4,107.8 82.3,107.8 82.1,107.8 C81.9,107.3 81.7,107.6 81.4,107.3 C81.4,106.9 81.3,107.4 81.2,106.6 C81.1,107.1 81,106.6 81,106.4 C81,106.6 81,106.7 80.9,106.9 C80.8,106.6 80.7,106.7 80.5,107.4 C80.4,107.6 80.3,107.2 80.2,107.9 C80.1,107.9 80.1,107.5 80.1,107.9 C80.1,107.8 80.1,108.3 80.1,107.9 C80,107.7 80,108.1 80,107.4 C80.3,107.5 80.2,107.9 80.2,107.1 Z" id="Path_18_" fill="#2F326A"></path>
                <path d="M72.2,107.1 C72.2,106.2 72.2,106.8 72.3,106.6 C72.3,106.4 72.3,106.3 72.4,106.1 C72.4,106.1 72.5,106 72.5,106.3 C72.5,105.8 72.6,106 72.6,105.8 C72.6,105.7 72.6,105.5 72.7,105.3 C72.7,105.2 72.8,105.2 72.8,105.1 C72.9,104.6 73.1,103.9 73.3,104.6 C73.3,104.6 73.4,104.2 73.4,104.1 C73.7,104.7 73.8,104.9 74.1,104.6 C74.2,104.9 74.2,104.3 74.2,105.1 C74.3,104.9 74.4,104.9 74.5,105.3 C74.5,105 74.6,104.7 74.6,104.3 C74.7,103.8 74.8,104.6 74.9,104.3 C74.9,104.3 74.9,104.7 74.9,104.5 C74.9,103.8 75,104.1 75.1,104 C75.2,103.8 75.4,103.5 75.4,103.3 C75.5,103.5 75.5,103.6 75.6,103.5 C75.8,104.1 75.9,103.8 76.1,104.9 C76.1,105.7 76.1,105.4 76.1,105.9 C76.1,106.3 76.2,106 76.1,106.4 C76.1,107.3 76,106.8 76,106.6 C76,106.7 75.9,106.5 75.9,106.4 C75.8,106.6 75.6,106.2 75.5,105.9 C75.4,105.8 75.4,106.3 75.3,105.9 C75.2,106.4 75.1,106.9 74.9,107.3 C74.8,106.9 74.7,107.6 74.6,106.8 C74.4,107.8 74.3,107.8 74.1,107.8 C73.9,107.3 73.7,107.6 73.4,107.3 C73.4,106.9 73.3,107.4 73.2,106.6 C73.1,107.1 73,106.6 73,106.4 C73,106.6 73,106.7 72.9,106.9 C72.8,106.6 72.7,106.7 72.5,107.4 C72.4,107.6 72.3,107.2 72.2,107.9 C72.1,107.9 72.1,107.5 72.1,107.9 C72.1,107.8 72.1,108.3 72.1,107.9 C72,107.7 72,108.1 72,107.4 C72.3,107.5 72.2,107.9 72.2,107.1 Z" id="Path_19_" fill="#2F326A"></path>
                <path d="M64.2,107.1 C64.2,106.2 64.2,106.8 64.3,106.6 C64.3,106.4 64.3,106.3 64.4,106.1 C64.4,106.1 64.5,106 64.5,106.3 C64.5,105.8 64.6,106 64.6,105.8 C64.6,105.7 64.6,105.5 64.7,105.3 C64.7,105.2 64.8,105.2 64.8,105.1 C64.9,104.6 65.1,103.9 65.3,104.6 C65.3,104.6 65.4,104.2 65.4,104.1 C65.7,104.7 65.8,104.9 66.1,104.6 C66.2,104.9 66.2,104.3 66.2,105.1 C66.3,104.9 66.4,104.9 66.5,105.3 C66.5,105 66.6,104.7 66.6,104.3 C66.7,103.8 66.8,104.6 66.9,104.3 C66.9,104.3 66.9,104.7 66.9,104.5 C66.9,103.8 67,104.1 67.1,104 C67.2,103.8 67.4,103.5 67.4,103.3 C67.5,103.5 67.5,103.6 67.6,103.5 C67.8,104.1 67.9,103.8 68.1,104.9 C68.1,105.7 68.1,105.4 68.1,105.9 C68.1,106.3 68.2,106 68.1,106.4 C68.1,107.3 68,106.8 68,106.6 C68,106.7 67.9,106.5 67.9,106.4 C67.8,106.6 67.6,106.2 67.5,105.9 C67.4,105.8 67.4,106.3 67.3,105.9 C67.2,106.4 67.1,106.9 66.9,107.3 C66.8,106.9 66.7,107.6 66.6,106.8 C66.4,107.8 66.3,107.8 66.1,107.8 C65.9,107.3 65.7,107.6 65.4,107.3 C65.4,106.9 65.3,107.4 65.2,106.6 C65.1,107.1 65,106.6 65,106.4 C65,106.6 65,106.7 64.9,106.9 C64.8,106.6 64.7,106.7 64.5,107.4 C64.4,107.6 64.3,107.2 64.2,107.9 C64.1,107.9 64.1,107.5 64.1,107.9 C64.1,107.8 64.1,108.3 64.1,107.9 C64,107.7 64,108.1 64,107.4 C64.3,107.5 64.2,107.9 64.2,107.1 Z" id="Path_20_" fill="#2F326A"></path>
                <path d="M56.2,107.1 C56.2,106.2 56.2,106.8 56.3,106.6 C56.3,106.4 56.3,106.3 56.4,106.1 C56.4,106.1 56.5,106 56.5,106.3 C56.5,105.8 56.6,106 56.6,105.8 C56.6,105.7 56.6,105.5 56.7,105.3 C56.7,105.2 56.8,105.2 56.8,105.1 C56.9,104.6 57.1,103.9 57.3,104.6 C57.3,104.6 57.4,104.2 57.4,104.1 C57.7,104.7 57.8,104.9 58.1,104.6 C58.2,104.9 58.2,104.3 58.2,105.1 C58.3,104.9 58.4,104.9 58.5,105.3 C58.5,105 58.6,104.7 58.6,104.3 C58.7,103.8 58.8,104.6 58.9,104.3 C58.9,104.3 58.9,104.7 58.9,104.5 C58.9,103.8 59,104.1 59.1,104 C59.2,103.8 59.4,103.5 59.4,103.3 C59.5,103.5 59.5,103.6 59.6,103.5 C59.8,104.1 59.9,103.8 60.1,104.9 C60.1,105.7 60.1,105.4 60.1,105.9 C60.1,106.3 60.2,106 60.1,106.4 C60.1,107.3 60,106.8 60,106.6 C60,106.7 59.9,106.5 59.9,106.4 C59.8,106.6 59.6,106.2 59.5,105.9 C59.4,105.8 59.4,106.3 59.3,105.9 C59.2,106.4 59.1,106.9 58.9,107.3 C58.8,106.9 58.7,107.6 58.6,106.8 C58.4,107.8 58.3,107.8 58.1,107.8 C57.9,107.3 57.7,107.6 57.4,107.3 C57.4,106.9 57.3,107.4 57.2,106.6 C57.1,107.1 57,106.6 57,106.4 C57,106.6 57,106.7 56.9,106.9 C56.8,106.6 56.7,106.7 56.5,107.4 C56.4,107.6 56.3,107.2 56.2,107.9 C56.1,107.9 56.1,107.5 56.1,107.9 C56.1,107.8 56.1,108.3 56.1,107.9 C56,107.7 56,108.1 56,107.4 C56.3,107.5 56.2,107.9 56.2,107.1 Z" id="Path_21_" fill="#2F326A"></path>
                <path d="M48.2,107.1 C48.2,106.2 48.2,106.8 48.3,106.6 C48.3,106.4 48.3,106.3 48.4,106.1 C48.4,106.1 48.5,106 48.5,106.3 C48.5,105.8 48.6,106 48.6,105.8 C48.6,105.7 48.6,105.5 48.7,105.3 C48.7,105.2 48.8,105.2 48.8,105.1 C48.9,104.6 49.1,103.9 49.3,104.6 C49.3,104.6 49.4,104.2 49.4,104.1 C49.7,104.7 49.8,104.9 50.1,104.6 C50.2,104.9 50.2,104.3 50.2,105.1 C50.3,104.9 50.4,104.9 50.5,105.3 C50.5,105 50.6,104.7 50.6,104.3 C50.7,103.8 50.8,104.6 50.9,104.3 C50.9,104.3 50.9,104.7 50.9,104.5 C50.9,103.8 51,104.1 51.1,104 C51.2,103.8 51.4,103.5 51.4,103.3 C51.5,103.5 51.5,103.6 51.6,103.5 C51.8,104.1 51.9,103.8 52.1,104.9 C52.1,105.7 52.1,105.4 52.1,105.9 C52.1,106.3 52.2,106 52.1,106.4 C52.1,107.3 52,106.8 52,106.6 C52,106.7 51.9,106.5 51.9,106.4 C51.8,106.6 51.6,106.2 51.5,105.9 C51.4,105.8 51.4,106.3 51.3,105.9 C51.2,106.4 51.1,106.9 50.9,107.3 C50.8,106.9 50.7,107.6 50.6,106.8 C50.4,107.8 50.3,107.8 50.1,107.8 C49.9,107.3 49.7,107.6 49.4,107.3 C49.4,106.9 49.3,107.4 49.2,106.6 C49.1,107.1 49,106.6 49,106.4 C49,106.6 49,106.7 48.9,106.9 C48.8,106.6 48.7,106.7 48.5,107.4 C48.4,107.6 48.3,107.2 48.2,107.9 C48.1,107.9 48.1,107.5 48.1,107.9 C48.1,107.8 48.1,108.3 48.1,107.9 C48,107.7 48,108.1 48,107.4 C48.3,107.5 48.2,107.9 48.2,107.1 Z" id="Path_22_" fill="#2F326A"></path>
                <path d="M40.2,107.1 C40.2,106.2 40.2,106.8 40.3,106.6 C40.3,106.4 40.3,106.3 40.4,106.1 C40.4,106.1 40.5,106 40.5,106.3 C40.5,105.8 40.6,106 40.6,105.8 C40.6,105.7 40.6,105.5 40.7,105.3 C40.7,105.2 40.8,105.2 40.8,105.1 C40.9,104.6 41.1,103.9 41.3,104.6 C41.3,104.6 41.4,104.2 41.4,104.1 C41.7,104.7 41.8,104.9 42.1,104.6 C42.2,104.9 42.2,104.3 42.2,105.1 C42.3,104.9 42.4,104.9 42.5,105.3 C42.5,105 42.6,104.7 42.6,104.3 C42.7,103.8 42.8,104.6 42.9,104.3 C42.9,104.3 42.9,104.7 42.9,104.5 C42.9,103.8 43,104.1 43.1,104 C43.2,103.8 43.4,103.5 43.4,103.3 C43.5,103.5 43.5,103.6 43.6,103.5 C43.8,104.1 43.9,103.8 44.1,104.9 C44.1,105.7 44.1,105.4 44.1,105.9 C44.1,106.3 44.2,106 44.1,106.4 C44.1,107.3 44,106.8 44,106.6 C44,106.7 43.9,106.5 43.9,106.4 C43.8,106.6 43.6,106.2 43.5,105.9 C43.4,105.8 43.4,106.3 43.3,105.9 C43.2,106.4 43.1,106.9 42.9,107.3 C42.8,106.9 42.7,107.6 42.6,106.8 C42.4,107.8 42.3,107.8 42.1,107.8 C41.9,107.3 41.7,107.6 41.4,107.3 C41.4,106.9 41.3,107.4 41.2,106.6 C41.1,107.1 41,106.6 41,106.4 C41,106.6 41,106.7 40.9,106.9 C40.8,106.6 40.7,106.7 40.5,107.4 C40.4,107.6 40.3,107.2 40.2,107.9 C40.1,107.9 40.1,107.5 40.1,107.9 C40.1,107.8 40.1,108.3 40.1,107.9 C40,107.7 40,108.1 40,107.4 C40.3,107.5 40.2,107.9 40.2,107.1 Z" id="Path_23_" fill="#2F326A"></path>
                <path d="M32.2,107.1 C32.2,106.2 32.2,106.8 32.3,106.6 C32.3,106.4 32.3,106.3 32.4,106.1 C32.4,106.1 32.5,106 32.5,106.3 C32.5,105.8 32.6,106 32.6,105.8 C32.6,105.7 32.6,105.5 32.7,105.3 C32.7,105.2 32.8,105.2 32.8,105.1 C32.9,104.6 33.1,103.9 33.3,104.6 C33.3,104.6 33.4,104.2 33.4,104.1 C33.7,104.7 33.8,104.9 34.1,104.6 C34.2,104.9 34.2,104.3 34.2,105.1 C34.3,104.9 34.4,104.9 34.5,105.3 C34.5,105 34.6,104.7 34.6,104.3 C34.7,103.8 34.8,104.6 34.9,104.3 C34.9,104.3 34.9,104.7 34.9,104.5 C34.9,103.8 35,104.1 35.1,104 C35.2,103.8 35.4,103.5 35.4,103.3 C35.5,103.5 35.5,103.6 35.6,103.5 C35.8,104.1 35.9,103.8 36.1,104.9 C36.1,105.7 36.1,105.4 36.1,105.9 C36.1,106.3 36.2,106 36.1,106.4 C36.1,107.3 36,106.8 36,106.6 C36,106.7 35.9,106.5 35.9,106.4 C35.8,106.6 35.6,106.2 35.5,105.9 C35.4,105.8 35.4,106.3 35.3,105.9 C35.2,106.4 35.1,106.9 34.9,107.3 C34.8,106.9 34.7,107.6 34.6,106.8 C34.4,107.8 34.3,107.8 34.1,107.8 C33.9,107.3 33.7,107.6 33.4,107.3 C33.4,106.9 33.3,107.4 33.2,106.6 C33.1,107.1 33,106.6 33,106.4 C33,106.6 33,106.7 32.9,106.9 C32.8,106.6 32.7,106.7 32.5,107.4 C32.4,107.6 32.3,107.2 32.2,107.9 C32.1,107.9 32.1,107.5 32.1,107.9 C32.1,107.8 32.1,108.3 32.1,107.9 C32,107.7 32,108.1 32,107.4 C32.3,107.5 32.2,107.9 32.2,107.1 Z" id="Path_24_" fill="#2F326A"></path>
                <g id="Group-2" transform="translate(164.165153, 164.790600)">
                    <path d="M21.2348469,2.20939956 L21.2348469,2.20939956 C10.3348469,2.20939956 1.53484692,11.0093996 1.53484692,21.9093996 L1.53484692,21.9093996 C1.53484692,32.8093996 10.3348469,41.6093996 21.2348469,41.6093996 L21.2348469,41.6093996 C32.1348469,41.6093996 40.9348469,32.8093996 40.9348469,21.9093996 L40.9348469,21.9093996 C40.9348469,11.0093996 32.1348469,2.20939956 21.2348469,2.20939956 Z" id="Path_27_" fill="#EB0075" fill-rule="nonzero"></path>
                    <path d="M21.2348469,42.9093996 C20.8348469,42.0093996 22.8348469,42.5093996 23.6348469,42.3093996 C23.9348469,41.8093996 25.2348469,41.8093996 25.8348469,41.4093996 C26.9348469,41.2093996 28.2348469,40.5093996 28.8348469,40.7093996 C29.4348469,40.2093996 30.0348469,39.8093996 30.6348469,39.4093996 C31.3348469,39.0093996 32.0348469,38.5093996 32.6348469,38.0093996 C33.1348469,37.4093996 33.6348469,36.8093996 34.1348469,36.2093996 C34.7348469,35.6093996 35.2348469,34.9093996 35.7348469,34.2093996 C36.8348469,32.3093996 37.7348469,30.3093996 38.3348469,28.2093996 C38.9348469,25.9093996 39.3348469,23.6093996 39.6348469,21.3093996 C39.6348469,20.9093996 39.5348469,20.5093996 39.3348469,20.1093996 C39.1348469,19.7093996 39.0348469,19.3093996 38.9348469,18.9093996 C38.6348469,15.3093996 37.1348469,12.0093996 34.7348469,9.30939956 C34.4348469,9.00939956 34.2348469,8.70939956 33.8348469,8.40939956 C33.5348469,8.10939956 33.2348469,7.80939956 32.9348469,7.50939956 C32.2348469,7.00939956 31.5348469,6.50939956 30.8348469,6.00939956 C29.1348469,5.00939956 27.3348469,4.30939956 25.4348469,3.90939956 C24.7348469,3.60939956 24.0348469,3.50939956 23.2348469,3.40939956 C22.6348469,3.40939956 22.0348469,3.20939956 21.5348469,2.90939956 C18.3348469,3.10939956 15.2348469,3.80939956 12.2348469,4.90939956 C11.8348469,5.40939956 11.4348469,5.90939956 10.9348469,6.30939956 C10.5348469,6.80939956 10.1348469,7.30939956 9.63484692,7.70939956 C8.53484692,8.90939956 7.53484692,9.80939956 6.53484692,11.0093996 C5.43484692,12.3093996 4.53484692,13.7093996 4.03484692,15.4093996 C4.03484692,15.3093996 3.63484692,15.4093996 3.73484692,15.6093996 C3.93484692,16.5093996 3.13484692,19.0093996 3.13484692,20.5093996 C3.03484692,23.7093996 3.93484692,26.9093996 5.63484692,29.7093996 C6.33484692,31.6093996 7.53484692,33.4093996 9.03484692,34.7093996 C10.5348469,36.5093996 12.3348469,37.9093996 14.4348469,38.8093996 C16.5348469,39.7093996 18.8348469,40.5093996 21.1348469,41.0093996 C21.4348469,41.8093996 20.1348469,41.4093996 19.9348469,41.9093996 C19.5348469,42.3093996 22.1348469,42.2093996 20.7348469,42.4093996 C21.1348469,43.3093996 18.5348469,42.8093996 18.3348469,42.4093996 C17.2348469,42.3093996 16.2348469,42.0093996 15.2348469,41.5093996 C13.2348469,41.0093996 11.3348469,40.1093996 9.63484692,38.8093996 C7.93484692,37.5093996 6.53484692,35.9093996 5.33484692,34.1093996 C5.03484692,33.6093996 4.73484692,33.3093996 4.43484692,32.9093996 C4.13484692,32.5093996 3.93484692,32.2093996 3.73484692,31.9093996 C3.23484692,31.3093996 2.93484692,30.5093996 2.73484692,29.8093996 C1.63484692,28.2093996 0.934846923,26.4093996 0.534846923,24.6093996 C0.0348469228,22.4093996 -0.0651530772,20.1093996 0.0348469228,17.8093996 C0.434846923,16.7093996 0.634846923,15.7093996 1.03484692,14.9093996 C1.13484692,14.5093996 1.33484692,14.1093996 1.43484692,13.7093996 C1.63484692,13.3093996 1.73484692,13.0093996 1.93484692,12.6093996 C2.13484692,12.3093996 2.23484692,11.9093996 2.43484692,11.6093996 C2.63484692,11.3093996 2.83484692,11.0093996 3.03484692,10.7093996 C3.43484692,10.1093996 4.03484692,9.50939956 4.63484692,9.00939956 C5.83484692,6.60939956 7.63484692,4.60939956 9.93484692,3.10939956 C12.6348469,1.30939956 15.8348469,0.309399558 19.0348469,0.00939955824 C22.7348469,-0.0906004418 26.4348469,0.609399558 29.8348469,2.00939956 C33.2348469,3.50939956 36.2348469,5.90939956 38.3348469,9.00939956 C38.6348469,9.70939956 39.2348469,10.7093996 39.7348469,11.6093996 C40.2348469,12.3093996 40.4348469,13.1093996 40.3348469,14.0093996 C40.6348469,14.5093996 40.9348469,15.0093996 41.1348469,15.5093996 C41.3348469,16.1093996 41.4348469,16.8093996 41.6348469,17.4093996 C41.8348469,18.6093996 41.8348469,19.8093996 41.6348469,21.0093996 C42.2348469,21.9093996 41.8348469,22.1093996 42.1348469,23.0093996 C42.0348469,24.1093996 41.7348469,25.1093996 41.6348469,26.0093996 C41.3348469,26.9093996 41.2348469,27.9093996 40.8348469,28.8093996 C40.2348469,30.8093996 39.4348469,32.7093996 38.4348469,34.5093996 C37.5348469,35.9093996 36.4348469,37.1093996 35.1348469,38.1093996 C34.1348469,38.9093996 33.3348469,39.6093996 32.2348469,40.6093996 C31.6348469,40.9093996 31.0348469,41.2093996 30.3348469,41.4093996 C29.7348469,41.6093996 29.2348469,41.9093996 28.7348469,42.2093996 C28.0348469,42.4093996 27.8348469,43.0093996 27.5348469,42.6093996 C26.9348469,42.7093996 26.2348469,42.8093996 25.6348469,43.0093996 C25.4348469,43.0093996 25.2348469,43.1093996 25.0348469,43.0093996 C24.8348469,43.0093996 24.6348469,42.9093996 24.5348469,42.7093996 C23.3348469,43.2093996 21.3348469,43.6093996 21.2348469,42.9093996 Z" id="Path_28_" fill="#2F326A"></path>
                    <path d="M1.53484692,23.0516645 C10.1324569,28.071636 16.6657902,30.5816218 21.1348469,30.5816218 C25.6039036,30.5816218 32.2039036,28.071636 40.9348469,23.0516645 C37.135803,34.7864508 30.9883168,41.1427508 22.4923883,42.1205644 C13.9964599,43.098378 7.01061273,36.7420781 1.53484692,23.0516645 Z" id="Path-2" fill="#2F326A" opacity="0.2"></path>
                </g>
                <polygon id="Path_1530_" fill="#2F326A" fill-rule="nonzero" points="186.458973 35.6011817 201.055724 10.3161004 171.862223 10.3161004"></polygon>
                <path d="M186.458973,34.6440177 C186.618501,35.521418 185.980391,34.0059084 185.661337,33.6070901 C185.501809,33.6868538 185.102991,32.8094535 184.8637,32.5701625 C184.464882,31.9320532 184.066064,31.2141802 183.826773,30.4963072 C183.268427,30.0974889 182.789845,28.901034 182.151736,28.1033973 C181.832681,27.704579 181.59339,27.465288 181.194572,27.0664697 C180.875517,26.5878877 180.556462,26.1093058 180.157644,25.5509601 C179.360007,24.5937962 178.32308,23.2378139 177.286152,21.7223043 C176.169461,20.2067947 175.292061,18.5317578 174.574188,16.8567208 C174.175369,16.2186115 173.696787,16.0590842 173.297969,15.4209749 C172.420569,13.6661743 171.702696,12.1506647 171.064586,10.8744461 L170.984823,10.7946824 C170.905059,10.4756278 170.905059,10.2363368 170.984823,9.99704579 C171.064586,9.7577548 171.224114,9.59822747 171.463405,9.43870015 C171.543168,9.43870015 171.702696,9.35893648 171.862223,9.35893648 C175.611115,9.59822747 179.439771,9.59822747 183.188663,9.35893648 C184.544645,9.59822747 185.262518,9.11964549 186.139919,9.7577548 C188.453065,9.59822747 190.845975,9.59822747 193.159121,9.91728213 C194.036521,9.59822747 194.913922,9.27917282 195.871086,9.11964549 C197.546123,8.96011817 199.300923,8.96011817 201.055724,9.11964549 L201.135487,9.11964549 C201.295015,9.11964549 201.534306,9.19940916 201.693833,9.27917282 C201.85336,9.35893648 202.012888,9.51846381 202.092651,9.67799114 C202.172415,9.83751846 202.252179,9.99704579 202.252179,10.2363368 C202.252179,10.3958641 202.172415,10.6351551 202.092651,10.7946824 C201.693833,11.3530281 201.374778,11.9911374 200.97596,12.7090103 C200.97596,12.6292467 200.656905,12.6292467 200.656905,12.8685377 C200.816433,13.6661743 199.540214,15.4209749 198.981869,16.4579025 C198.184232,18.0531758 196.588959,21.0044313 195.232976,23.7163959 C194.196049,25.0723781 193.238885,26.4283604 192.441248,27.94387 C191.404321,29.2200886 190.447157,30.7355982 189.410229,32.1713442 C188.532829,33.5273264 187.575665,34.8035451 186.538737,36 C186.458973,35.6011817 186.857792,34.9630724 186.937555,34.5642541 C187.017319,34.0059084 186.219682,35.760709 186.698264,34.6440177 C186.538737,34.1654357 187.336374,33.0487445 187.495901,33.0487445 C187.814956,32.4903988 188.13401,31.8522895 188.532829,31.3737075 C189.809047,28.901034 191.244793,26.5878877 192.840066,24.2747415 C193.717467,22.9985229 193.79723,22.0413589 194.594867,21.2437223 C195.31274,19.0103397 196.748486,15.9793205 197.865177,13.3471196 C198.662814,12.1506647 199.460451,10.8744461 200.09856,9.59822747 L201.215251,11.5125554 C200.577142,11.5125554 199.939032,11.3530281 199.300923,11.1935007 C195.950849,11.9911374 192.760303,11.9911374 187.974483,11.9911374 C183.1089,11.5923191 178.642134,11.83161 173.617024,11.5923191 C173.058678,11.5125554 172.500332,11.4327917 172.02175,11.4327917 L173.058678,9.59822747 C173.297969,10.3958641 173.617024,11.0339734 173.457496,11.5125554 C174.41466,12.3899557 175.212297,14.4638109 175.690879,15.7400295 C176.328988,15.9793205 176.169461,16.2186115 176.648043,16.6174298 C177.68497,18.9305761 179.040953,21.084195 180.636226,23.0782866 C181.992208,25.3914328 182.311263,26.3485968 183.268427,27.5450517 C183.747009,28.5022157 183.906536,29.140325 184.305355,29.6189069 C184.464882,30.0177253 184.624409,29.8581979 184.624409,30.3367799 C185.102991,31.5332349 185.262518,31.4534712 185.422046,32.3308715 C185.900628,33.0487445 186.299446,33.8463811 186.458973,34.6440177 Z" id="Path_1531_" fill="#2F326A"></path>
                <polygon id="Path_2732_" fill="#AF64FF" fill-rule="nonzero" points="37.7 199.4 37.7 178.3 19.4 167.8 1.2 178.3 1.2 199.4 19.4 209.9"></polygon>
                <path d="M36.6,198.8 C37.7,199.1 35.6,199.7 35,200.2 C35,200.6 33.8,201.2 33.4,201.6 C32.5,202.2 31.6,202.7 30.5,203 C29.7,204 28.1,204.7 26.8,205.7 C26.2,206.2 25.8,206.7 25.1,207.2 C24.4,207.8 23.6,208.2 22.8,208.8 C22,209.4 21,210.2 19.9,210.9 L19.5,211.2 L18.8,210.9 C15.3,209.4 12,207.5 9,205.3 C8,204.8 7.4,204.9 6.4,204.3 C4.1,202.8 2.2,201.5 0.6,200.4 L0,200 L0,199.4 C0.3,193.9 0.3,189.5 0,183 C0.3,181 -0.3,180 0.5,178.7 L0.5,178.3 L0.5,177.9 L0.9,177.6 C3.6,175.8 6.5,174.2 9.5,173 C10.4,172 11.3,171.1 12.4,170.2 C14.4,168.8 16.6,167.6 18.9,166.5 L19.6,166.1 L20.2,166.5 C21,167 21.9,167.5 22.9,168 C22.8,167.9 22.9,168.4 23.1,168.4 C24.2,168.3 26.5,169.9 28.1,170.7 C30.3,171.8 34.3,173.8 37.9,175.5 C38.2,175.7 38.5,176 38.9,176.2 L40.1,177 L40,178.1 C39.9,179.9 39.8,182 39.8,184.2 C39.5,186.7 39.4,189.4 39.2,192 C39.1,194.5 38.8,197 38.3,199.4 C37.6,199.4 37.9,198.1 37.5,197.8 C37.1,197.2 37.4,199.9 37.1,198.3 C36.3,198.2 36.7,196.1 36.9,195.9 C36.8,194.9 36.9,193.9 37.1,192.9 C37,188.8 37.1,184.7 37.5,180.7 C37.5,179.8 37.5,178.9 37.4,178 L37.6,178.3 C36.9,178 36.2,177.6 35.6,177 C32.7,176.1 28.3,173.9 24.4,172.2 C22.6,171 20.7,169.8 18.7,168.8 L20.3,168.8 C19.5,169.2 18.6,169.6 17.7,169.8 C14,173.1 10,175.4 4,178.8 L2.3,179.7 L3.3,177.9 C3,184.2 3.2,190.1 2.9,196.6 C2.8,197.4 2.7,198.2 2.7,199 L1.9,197.7 C2.9,198.3 3.8,198.9 4,199.5 C5.9,200 8.5,202 10,203.2 C11,203.2 11,203.5 11.9,203.8 C14.5,205.6 17.2,207.1 20.1,208.3 L18.7,208.3 C19.3,207.9 19.9,207.4 20.5,206.9 C23.9,204.8 25.1,204.4 27,202.7 C28.3,201.9 29.1,202 29.9,201.1 C30.5,200.8 30.4,200.4 30.9,200.6 C32.5,200 32.5,199.5 33.6,199.6 C34.6,199.5 35.8,198.5 36.6,198.8 Z" id="Path_2733_" fill="#2F326A"></path>
                <polygon id="Path_2734_" fill="#FFCD00" fill-rule="nonzero" points="126.6 106.5 104.2 84.1 81.8 106.5 104.2 128.9"></polygon>
                <path d="M104.2,130.1 C103.9,129.5 105.3,128.7 105.9,128 C106.4,127.2 106.9,126.5 107.5,125.9 C108.3,125.1 109.3,124 109.8,123.9 C110.8,122.6 111.9,121.3 113,120.1 C113.5,119.4 113.9,118.7 114.5,118 C115.1,117.2 115.7,116.7 116.3,115.9 C118.7,112.8 122.1,108.4 125.6,105.7 L125.6,107.5 C125.4,107.3 125.3,107.1 125.1,106.9 C124.3,106.1 123.6,106.1 122.8,105.3 C117.7,99.3 112.3,93.7 106.5,88.4 C105.3,86.8 104.2,86.4 103.8,85 L103.5,84.7 L104.5,84.7 C102.3,87.2 100,89.4 97.4,91.4 C96.8,92.6 96.1,93.8 95.3,94.8 C93.2,97.6 90.7,99.1 87.8,102.3 C87.9,102.2 87.4,102.2 87.4,102.4 C87.3,103.5 85,105.3 83.9,106.6 L82.8,107.8 L82.8,105.4 L89.5,111.2 C90.9,113 92.4,114.6 94,116.2 C95.5,118.1 97.2,120.1 98.9,122 C100.6,124 102.3,126 104,128.2 C104.2,129.2 103.3,128 103.2,128.3 C102.9,128.5 104.8,130 103.8,129.3 C104.1,130.4 102.3,128.3 102.1,127.9 C101.3,127.2 100.5,126.3 99.8,125.4 C96.7,122.4 93.7,119.3 90.9,116 C89.3,114.3 88.4,114 87.3,112.4 C85,110.8 82.8,109.1 80.8,107.3 L79.9,106.6 L80.8,105.5 C81.6,104.5 82.5,103.4 83.3,102.4 C86.7,99.6 87.5,97.8 90.3,96.1 C93,91.9 96.3,88.7 101.2,83.8 C101.7,83.4 102.2,82.9 102.7,82.5 L104.3,81.1 L105.6,82.5 C109.8,87.2 114.2,91.2 118.6,96 C119.4,97.3 121.7,99 121.7,100.1 C123.4,101.1 125.4,103.7 126.5,105.2 C126.8,105.3 127.1,105.4 127.3,105.5 L128,106 L127.3,107 C127,107.3 126.8,107.6 126.6,108 C123.5,110.7 120.7,113.7 118.2,116.9 C115.1,120.1 114.1,120.7 112.2,123.3 C111,124.5 110.5,124.4 109.5,125.8 C109,126.2 108.8,126.9 108.6,126.6 C107.3,127.6 107,128.4 106.5,128.1 C105.7,129.2 104.3,130.8 104.2,130.1 Z" id="Path_2735_" fill="#2F326A"></path>
                <polygon id="Path_2736_" fill="#C7C7D4" fill-rule="nonzero" points="209.6 82.7 162.1 82.7 162.1 112.7 209.6 112.7"></polygon>
                <path d="M210.5,113.6 C209.9,113.4 210.3,111.8 210.2,110.9 C210,110 209.9,109.2 209.8,108.3 C209.8,107.2 209.7,105.8 210,105.3 C209.5,103.8 209.8,86.3 209.6,84.6 C209.5,84.1 209.4,83.6 209.3,83.1 L209.6,83.4 C209.4,83.5 209.1,83.5 208.9,83.5 C208,83.6 207.2,83.6 206.3,83.7 C202.5,84.2 196.5,84.9 191.9,84.2 C190.8,84.2 190.3,84.6 189.3,84.7 C181.8,84.1 174.2,83.9 166.6,84.2 C164.7,83.9 163.7,84.5 162.4,83.7 L162,83.7 L162.7,83 C162.9,86.1 162.8,105.3 162.4,108.4 C162.8,109.6 163.2,110.9 163.4,112.2 C163.4,112.4 163.4,112.5 163.5,112.7 L162,111.2 C165.1,110.9 167.7,111.5 171.5,111.3 C171.4,111.3 171.8,111.7 171.9,111.5 C172.6,110.8 175.4,111.1 177,111.1 C179.3,111 183.4,110.8 187,110.5 C189.2,110.7 191.4,110.9 193.7,110.8 C198.6,111.4 203.7,111.3 209.1,112.1 C210,112.6 208.5,112.4 208.6,112.8 C208.5,113.1 210.9,112.9 209.7,113.1 C210.7,113.7 208,113.4 207.6,113.3 C206.5,113.4 205.5,113.3 204.4,113.1 C200.2,113.2 196.1,113.1 192,112.8 C189.7,112.7 189,113.2 187.1,112.8 C184.5,113.4 179.7,113.7 175.6,114.2 C171.2,113.8 169.4,114.5 166.3,113.8 C164.9,114.1 163.5,114.3 162.2,114.5 L160.5,114.7 L160.3,112.6 C160,108.7 159.9,88.7 160,84.8 C160,84.2 160.1,83.5 160.1,82.9 L160.2,80.7 L162.1,80.8 C168.2,81.1 173.9,80.9 180.2,81.2 C181.6,81.6 184.3,81.1 185.1,81.9 C186.9,81.4 190.1,81.9 191.9,82.1 C192.8,81.6 192.9,81.9 193.8,81.6 C197.6,81.9 201.4,81.7 205.1,81.1 C207.1,81 208.5,81 209.6,81 L211.4,81 L211.4,82.8 C211.4,84.1 211.5,85.4 211.8,86.6 C211.8,88.4 211.3,104.8 211.7,106.4 C211.6,107.1 212,107.7 211.6,107.7 C211.3,109.4 211.6,110.1 211,110.4 C210.9,111.8 211,114 210.5,113.6 Z" id="Path_2737_" fill="#2F326A"></path>
                <path d="M105.7,98.7 C104.8,98.9 105.4,97.7 105.2,97.2 C104.8,96.9 104.9,96.1 104.7,95.7 C104.7,95 104.6,94 104.9,93.7 C104.4,92.8 104.6,91.7 104.4,90.6 C104.3,90.1 104.1,89.7 103.9,89.1 C103.8,88.5 103.8,88 103.7,87.3 C103.2,84.7 102.5,80.7 103.2,77.6 C103.2,76.9 102.8,76.5 102.7,75.8 C103.3,70.7 103.5,65.6 103.2,60.5 C103.5,59.2 102.9,58.5 103.7,57.7 C103.5,55.5 103.5,53.3 103.9,51.1 C103.5,50.3 103.1,49.4 102.9,48.5 C102.4,46.2 103.2,44.4 102.9,41.6 C102.9,41.7 103.3,41.5 103.1,41.3 C102.4,40.7 102.7,38.8 102.6,37.7 C102.5,36.1 102.2,33.2 101.9,30.6 C102.1,29.1 102.2,27.5 102.1,26 C102.7,22.8 102.4,19.2 103.5,16 C104.3,15.8 104,16.7 104.5,16.8 C104.9,17 104.6,15.3 105,16.3 C105.9,16.1 105.4,17.6 105.2,17.8 C105.3,18.5 105.2,19.2 105,19.8 C105.1,22.5 104.9,25.3 104.5,28 C104.4,29.5 104.9,30.1 104.5,31.3 C105.1,33.3 105.4,36.4 105.9,39.2 C105.5,42.1 106.2,43.3 105.4,45.3 C106.4,48.5 106.4,51.5 106.4,56 C105.9,60.6 106.2,64.8 105.9,69.5 C105.5,70.5 106,72.3 105.2,72.8 C105.7,74 105.2,76.2 105,77.4 C105.5,78 105.2,78.1 105.5,78.7 C105.2,81.3 105.4,83.9 106,86.4 C106.2,89.1 105.8,90 106.5,91.8 C106.5,92.9 106.1,93.2 106.5,94.1 C106.4,94.5 106.9,94.8 106.5,94.9 C106.3,96 106.7,96.3 106,96.7 C106.1,97.4 106.5,98.6 105.7,98.7 Z" id="Path_2738_" fill="#2F326A"></path>
                <polygon id="Path_2739_" fill="#00D9F5" fill-rule="nonzero" points="118.9 1.4 91.9 1.4 91.9 28.4 118.9 28.4"></polygon>
                <path d="M120.9,30.2 C119.3,30 119.2,26.1 119.2,23.4 C119.1,20.1 118.9,17.9 119,15.1 C118.7,13 118.5,10.9 118.5,8.7 C118.6,7.5 118.2,7.1 118,6.3 C118,5.6 118.3,5.5 118.2,4.8 C117.8,3.7 117.7,2.6 117.8,1.4 L118.7,2.3 C117.9,2.2 117,2.4 116.3,2.8 C114.7,2.1 113.4,2.7 110.9,2.6 C106.7,2.2 102.5,2.4 98.5,3.3 C96.6,3.2 94.2,3 91.8,3.1 L93.5,1.4 C93.5,2.2 93.6,2.9 93.7,3.7 C93.3,5 93.3,9.2 93,11.9 C93.4,14.5 94,17.1 94.7,19.7 C94.5,21.1 94.1,22.4 93.5,23.6 C93.6,25.3 93.7,26.9 93.7,28.5 L91.9,26.5 C94.4,26.5 96.9,26.9 99.3,27.7 C103.6,27.6 107.8,27.1 112,26.5 C114.5,26.6 116.1,26.1 118,27.6 C117.6,27.6 117.7,27.7 117.8,27.8 C118.8,28.5 115.9,27.9 116,28.3 C114.5,28.1 114.7,28.6 113.4,28.5 C111.7,28.9 110,29.1 108.3,29.1 C106.9,29.4 105.6,29.7 104.2,29.8 C100.4,29.6 96.6,29.3 92.9,28.7 C92.6,28.7 92.3,28.8 92,28.9 L91.7,29 L91.5,28.4 C91,27.4 90.6,26.2 90.5,25.1 C90.7,23.4 91.2,22.4 91.5,20.8 C91.3,19.4 90.4,18.9 91,17.3 C90.8,16.6 90.6,16 90.3,15.4 C90.6,12.3 90.2,9.6 91,6.9 C90.6,5.1 90.6,3.3 90.9,1.5 L91,0.3 L91.9,0.4 C93.5,0.6 95.1,0.9 96.6,1 C99,0.2 102.8,0.4 105.9,0 C110.2,0.4 114.5,0.5 118.8,0.2 L120,0.1 L120.1,1.4 C120.2,3 120.2,4.7 120.3,6.5 C120.9,9 120.6,12.7 121.1,15.4 C120.8,20.2 121.1,22.2 120.7,26.5 C120.9,27.2 120.8,28.2 121,28.9 L120.9,30.2 Z" id="Path_2740_" fill="#2F326A"></path>
                <path d="M20.7,186.3 C19.8,186.5 20.4,185.3 20.2,184.8 C19.8,184.5 19.9,183.7 19.7,183.3 C19.7,182.6 19.6,181.6 19.9,181.3 C19.4,180.4 19.6,179.3 19.4,178.2 C19.3,177.7 19.1,177.3 18.9,176.7 C18.8,176.1 18.8,175.6 18.7,174.9 C18.2,172.3 17.5,168.3 18.2,165.2 C18.2,164.5 17.8,164.1 17.7,163.4 C18.3,158.3 18.5,153.2 18.2,148.1 C18.5,146.8 17.9,146.1 18.7,145.3 C18.5,143.1 18.5,140.9 18.9,138.7 C18.5,137.9 18.1,137 17.9,136.1 C17.4,133.8 18.2,132 17.9,129.2 C17.9,129.3 18.3,129.1 18.1,128.9 C17.4,128.3 17.7,126.4 17.6,125.3 C17.5,123.7 17.2,120.8 16.9,118.2 C17.1,116.7 17.2,115.1 17.1,113.6 C17.7,110.4 17.4,106.8 18.5,103.6 C19.3,103.4 19,104.3 19.5,104.4 C19.9,104.6 19.6,102.9 20,103.9 C20.9,103.7 20.4,105.2 20.2,105.4 C20.3,106.1 20.2,106.8 20,107.4 C20.1,110.1 19.9,112.9 19.5,115.6 C19.4,117.1 19.9,117.7 19.5,118.9 C20.1,120.9 20.4,124 20.9,126.8 C20.5,129.7 21.2,130.9 20.4,132.9 C21.4,136.1 21.4,139.1 21.4,143.6 C20.9,148.2 21.2,152.4 20.9,157.1 C20.5,158.1 21,159.9 20.2,160.4 C20.7,161.6 20.2,163.8 20,165 C20.5,165.6 20.2,165.7 20.5,166.3 C20.2,168.9 20.4,171.5 21,174 C21.2,176.7 20.8,177.6 21.5,179.4 C21.5,180.5 21.1,180.8 21.5,181.7 C21.4,182.1 21.9,182.4 21.5,182.5 C21.3,183.6 21.7,183.9 21,184.3 C21.1,185 21.4,186.2 20.7,186.3 Z" id="Path_3641_" fill="#2F326A"></path>
                <path d="M100.3,54.7 C101.7,57.1 103.2,59.4 104.6,61.8 C104.7,62 104.9,62.2 105.1,62.1 C105.2,62.1 105.3,62 105.3,61.9 L110.3,54.6 L100.3,54.7 Z" id="Path_3642_" fill="#2F326A" fill-rule="nonzero"></path>
                <path d="M101.4,55.3 C100.6,54.9 101.4,55.2 101.5,55.1 C101.2,54.9 101.6,55 101.6,54.9 C101.9,54.9 102.2,54.9 102.5,55.1 C102.4,54.8 102.9,54.9 103.2,54.8 C103.3,54.7 103.3,54.5 103.4,54.4 C103.5,54.3 103.7,54.3 103.9,54.2 C104.3,53.9 104.8,53.7 105.3,53.5 C106,53.3 106.7,53.3 107.3,53.6 C107.6,53.6 107.6,53.2 107.9,53.1 C109,53.3 109.7,53.5 110.5,53.6 L112.7,53.9 L111.4,55.3 C110.7,56 110.2,56.9 109.8,57.8 C109.3,58 109.7,58.5 108.9,58.3 C108.8,58.7 108.6,59 108.4,59.3 C108.2,59.6 107.8,59.8 107.5,60 C107.7,60.4 107.8,60.8 107.8,61.3 C107.8,61.5 107.7,61.7 107.6,61.8 C107.5,62 107.4,62.1 107.2,62.2 C107,62.3 106.9,62.5 106.8,62.6 C106.6,62.8 106.4,63 106.2,63.2 C105.9,63.4 105.5,63.5 105.2,63.5 C104.9,63.5 104.6,63.4 104.3,63.2 C104.4,63.2 104.4,62.8 104.2,62.8 C104,62.8 103.8,62.8 103.6,62.6 C103.5,62.5 103.4,62.4 103.3,62.3 C103.1,62.1 103,61.8 102.9,61.6 C102.5,61.1 101.6,60.2 100.8,59.1 C100.7,58.5 100.5,57.8 100.2,57.3 C100.2,56.7 100.1,56.1 99.9,55.6 C99.8,55 99.7,54.5 99.9,54.3 C100.5,54.6 100.4,54.7 100.9,55 C101.3,55.3 100.8,54.7 101.2,55.1 C101.9,55.5 101.9,55.6 101.7,55.6 C102,55.9 101.9,55.9 101.9,56 C102.4,56.6 102.8,57.3 102.9,58.1 C103.1,58.5 103.7,58.6 103.5,59 C104.5,59.4 105.3,60.1 106.1,60.5 C106.1,60.6 106.1,60.7 106.1,60.8 L106.1,60.8 L106.1,60.8 L106.1,60.8 L106.1,60.8 L106.1,60.8 L106,60.8 L105.8,60.9 C105.7,61 105.6,61.1 105.5,61.2 C105.3,61.3 105.2,61.5 105.1,61.7 C105.1,61.7 105.1,61.8 105.1,61.7 L105.1,61.7 C105.1,61.7 105.1,61.7 105.1,61.7 C105.1,61.7 105.1,61.7 105.1,61.6 C105,61.5 104.9,61.4 104.8,61.3 C104.7,61.2 104.6,61.1 104.2,60.9 L104.1,60.8 L104.1,60.8 L104.1,60.8 L104.1,60.8 C104.1,60.7 104.2,60.7 104.3,60.6 C104.5,60.5 104.7,60.4 104.9,60.4 C104.6,58.9 105.3,58.1 106.2,56.9 C107.4,55.9 108,54.6 109.1,53.5 L110.5,56.2 L110.4,56.2 C110.1,55.8 109.6,56.3 109.4,55.5 C109.1,56 108.4,55.5 107.9,55.2 C107.9,55.7 107.8,55.4 107.7,55.6 C107.4,55.4 107,55.4 106.7,55.4 C106.3,55.4 106,55.6 105.7,55.8 C105,55.8 104.6,55.6 104.5,55.9 C104.2,55.9 103.7,55.5 103.8,55.8 C103.6,55.7 103.9,56 103.6,55.8 C103.1,55.6 103.4,55.8 102.7,55.4 C102.1,55.6 101.7,55.5 101.4,55.3 Z" id="Path_3643_" fill="#2F326A"></path>
                <path d="M62.5,100.9 L55.4,105.2 C55.2,105.3 55,105.5 55.1,105.7 C55.1,105.8 55.2,105.9 55.3,105.9 L62.6,110.9 L62.5,100.9 Z" id="Path_3644_" fill="#2F326A" fill-rule="nonzero"></path>
                <path d="M61.9,102 C62.3,101.2 62,102 62.1,102.1 C62.3,101.8 62.2,102.2 62.3,102.2 C62.3,102.5 62.3,102.8 62.1,103.1 C62.4,103 62.3,103.5 62.4,103.8 C62.5,103.9 62.6,103.9 62.8,104 C62.9,104.1 62.9,104.3 63,104.5 C63.3,104.9 63.5,105.4 63.7,105.9 C63.9,106.6 63.9,107.3 63.6,107.9 C63.6,108.2 64,108.2 64.1,108.5 C63.9,109.6 63.7,110.3 63.6,111.1 L63.3,113.3 L61.9,112 C61.2,111.3 60.3,110.8 59.4,110.4 C59.2,109.9 58.7,110.3 58.9,109.5 C58.5,109.4 58.2,109.2 57.9,109 C57.6,108.7 57.4,108.4 57.2,108.1 C56.8,108.3 56.4,108.4 55.9,108.4 C55.7,108.4 55.5,108.3 55.4,108.2 C55.2,108.1 55.1,108 55,107.8 C54.9,107.6 54.7,107.5 54.6,107.4 C54.4,107.2 54.2,107 54,106.8 C53.8,106.5 53.7,106.2 53.7,105.8 C53.7,105.5 53.8,105.2 54,104.9 C54,105 54.4,105 54.4,104.8 C54.4,104.6 54.4,104.4 54.6,104.2 C54.7,104.1 54.8,104 54.9,103.9 C55.1,103.7 55.4,103.6 55.6,103.5 C56.1,103.1 57,102.2 58.1,101.4 C58.7,101.3 59.4,101.1 59.9,100.8 C60.5,100.8 61.1,100.7 61.6,100.5 C62.2,100.4 62.7,100.3 62.9,100.5 C62.6,101.1 62.5,101 62.2,101.5 C61.9,101.9 62.5,101.4 62.1,101.8 C61.7,102.5 61.6,102.5 61.6,102.3 C61.3,102.6 61.3,102.5 61.2,102.5 C60.6,103 59.9,103.4 59.1,103.5 C58.7,103.7 58.6,104.3 58.2,104.1 C57.8,105.1 57.1,105.9 56.7,106.7 C56.6,106.7 56.5,106.7 56.4,106.7 L56.4,106.7 L56.4,106.7 L56.4,106.7 L56.4,106.7 L56.4,106.7 L56.4,106.6 L56.3,106.4 C56.2,106.3 56.1,106.2 56,106.1 C55.9,105.9 55.7,105.8 55.5,105.7 C55.5,105.7 55.4,105.7 55.5,105.7 L55.5,105.7 C55.5,105.7 55.5,105.7 55.5,105.7 C55.5,105.7 55.5,105.7 55.6,105.7 C55.7,105.6 55.8,105.5 55.9,105.4 C56,105.3 56.1,105.2 56.3,104.8 L56.4,104.7 L56.4,104.7 L56.4,104.7 L56.4,104.7 C56.5,104.7 56.5,104.8 56.6,104.9 C56.7,105.1 56.8,105.3 56.8,105.5 C58.3,105.2 59.1,105.9 60.3,106.8 C61.3,108 62.6,108.6 63.7,109.7 L61,111.1 L61,111 C61.4,110.7 60.9,110.2 61.7,110 C61.2,109.7 61.7,109 62,108.5 C61.5,108.5 61.8,108.4 61.6,108.3 C61.8,108 61.8,107.6 61.8,107.3 C61.8,106.9 61.6,106.6 61.4,106.3 C61.4,105.6 61.6,105.2 61.3,105.1 C61.3,104.8 61.7,104.3 61.4,104.4 C61.5,104.2 61.2,104.5 61.4,104.2 C61.6,103.7 61.4,104 61.8,103.3 C61.6,102.7 61.7,102.3 61.9,102 Z" id="Path_3645_" fill="#2F326A"></path>
                <path d="M14.4,138.8 C15.8,141.2 17.3,143.5 18.7,145.9 C18.8,146.1 19,146.3 19.2,146.2 C19.3,146.2 19.4,146.1 19.4,146 L24.4,138.7 L14.4,138.8 Z" id="Path_3646_" fill="#2F326A" fill-rule="nonzero"></path>
                <path d="M15.5,139.4 C14.7,139 15.5,139.3 15.6,139.2 C15.3,139 15.7,139.1 15.7,139 C16,139 16.3,139 16.6,139.2 C16.5,138.9 17,139 17.3,138.9 C17.4,138.8 17.4,138.7 17.5,138.5 C17.6,138.4 17.8,138.4 18,138.3 C18.4,138 18.9,137.8 19.4,137.6 C20.1,137.4 20.8,137.4 21.4,137.7 C21.7,137.7 21.7,137.3 22,137.2 C23.1,137.4 23.8,137.6 24.6,137.7 L26.8,138 L25.5,139.4 C24.8,140.1 24.3,141 23.9,141.9 C23.4,142.1 23.8,142.6 23,142.4 C22.9,142.8 22.7,143.1 22.5,143.4 C22.3,143.7 21.9,143.9 21.6,144.1 C21.8,144.5 21.9,144.9 21.9,145.4 C21.9,145.6 21.8,145.8 21.7,145.9 C21.6,146.1 21.5,146.2 21.3,146.3 C21.2,146.4 21,146.6 20.9,146.7 C20.7,146.9 20.5,147.1 20.3,147.3 C20,147.5 19.7,147.6 19.3,147.6 C19,147.6 18.7,147.5 18.4,147.3 C18.5,147.3 18.5,146.9 18.3,146.9 C18.1,146.9 17.9,146.9 17.7,146.7 C17.6,146.6 17.5,146.5 17.4,146.4 C17.2,146.2 17.1,145.9 17,145.7 C16.6,145.2 15.7,144.3 14.9,143.2 C14.8,142.6 14.6,141.9 14.3,141.4 C14.3,140.8 14.2,140.2 14,139.7 C13.9,139.1 13.8,138.6 14,138.4 C14.6,138.7 14.5,138.8 15,139.1 C15.4,139.4 14.9,138.8 15.3,139.2 C16,139.6 16,139.7 15.8,139.7 C16.1,140 16,140 16,140.1 C16.5,140.7 16.9,141.4 17,142.2 C17.2,142.6 17.8,142.7 17.6,143.1 C18.6,143.5 19.4,144.2 20.2,144.6 C20.2,144.7 20.2,144.8 20.2,144.9 L20.2,144.9 L20.2,144.9 L20.2,144.9 L20.2,144.9 L20.2,144.9 L20.1,144.9 L19.9,145 C19.8,145.1 19.7,145.2 19.6,145.3 C19.4,145.4 19.3,145.6 19.2,145.8 C19.2,145.8 19.2,145.9 19.2,145.8 L19.2,145.8 C19.2,145.8 19.2,145.8 19.2,145.8 C19.2,145.8 19.2,145.8 19.2,145.7 C19.1,145.6 19,145.5 18.9,145.4 C18.8,145.3 18.7,145.2 18.3,145 L18.2,144.9 L18.2,144.9 L18.2,144.9 L18.2,144.9 C18.2,144.8 18.3,144.8 18.4,144.7 C18.6,144.6 18.8,144.5 19,144.5 C18.7,143 19.4,142.2 20.3,141 C21.5,140 22.1,138.7 23.2,137.6 L24.6,140.3 L24.5,140.3 C24.2,139.9 23.7,140.4 23.5,139.6 C23.2,140.1 22.5,139.6 22,139.3 C22,139.8 21.9,139.5 21.8,139.7 C21.5,139.5 21.1,139.5 20.8,139.5 C20.4,139.5 20.1,139.7 19.8,139.9 C19.1,139.9 18.7,139.7 18.6,140 C18.3,140 17.8,139.6 17.9,139.9 C17.7,139.8 18,140.1 17.7,139.9 C17.2,139.7 17.5,139.9 16.8,139.5 C16.2,139.7 15.8,139.6 15.5,139.4 Z" id="Path_3647_" fill="#2F326A"></path>
                <path d="M192.2,146.1 C190.8,143.7 189.3,141.4 187.9,139 C187.8,138.8 187.6,138.6 187.4,138.7 C187.3,138.7 187.2,138.8 187.2,138.9 L182.2,146.2 L192.2,146.1 Z" id="Path_3648_" fill="#2F326A" fill-rule="nonzero"></path>
                <path d="M191.1,145.5 C191.9,145.9 191.1,145.6 191,145.7 C191.3,145.9 190.9,145.8 190.9,145.9 C190.6,145.9 190.3,145.9 190,145.7 C190.1,146 189.6,145.9 189.3,146 C189.2,146.1 189.2,146.2 189.1,146.4 C189,146.5 188.8,146.5 188.6,146.6 C188.2,146.9 187.7,147.1 187.2,147.3 C186.5,147.5 185.8,147.5 185.2,147.2 C184.9,147.2 184.9,147.6 184.6,147.7 C183.5,147.5 182.8,147.3 182,147.2 L179.8,146.9 L181.1,145.5 C181.8,144.8 182.3,143.9 182.7,143 C183.2,142.8 182.8,142.3 183.6,142.5 C183.7,142.1 183.9,141.8 184.1,141.5 C184.4,141.2 184.7,141 185,140.8 C184.8,140.4 184.7,140 184.7,139.5 C184.7,139.3 184.8,139.1 184.9,139 C185,138.8 185.1,138.7 185.3,138.6 C185.5,138.5 185.6,138.3 185.7,138.2 C185.9,138 186.1,137.8 186.3,137.6 C186.6,137.4 186.9,137.3 187.3,137.3 C187.6,137.3 187.9,137.4 188.2,137.6 C188.1,137.6 188.1,138 188.3,138 C188.5,138 188.7,138 188.9,138.2 C189,138.3 189.1,138.4 189.2,138.5 C189.4,138.7 189.5,139 189.6,139.2 C190,139.7 190.9,140.6 191.7,141.7 C191.8,142.3 192,143 192.3,143.5 C192.3,144.1 192.4,144.7 192.6,145.2 C192.7,145.8 192.8,146.3 192.6,146.5 C192,146.2 192.1,146.1 191.6,145.8 C191.2,145.5 191.7,146.1 191.3,145.7 C190.6,145.3 190.6,145.2 190.8,145.2 C190.5,144.9 190.6,144.9 190.6,144.8 C190.1,144.2 189.7,143.5 189.6,142.7 C189.4,142.3 188.8,142.2 189,141.8 C188,141.4 187.2,140.7 186.4,140.3 C186.4,140.2 186.4,140.1 186.4,140 L186.4,140 L186.4,140 L186.4,140 L186.4,140 L186.4,140 L186.5,140 L186.7,139.9 C186.8,139.8 186.9,139.7 187,139.6 C187.2,139.5 187.3,139.3 187.4,139.1 C187.4,139.1 187.4,139 187.4,139.1 L187.4,139.1 C187.4,139.1 187.4,139.1 187.4,139.1 C187.4,139.1 187.4,139.1 187.4,139.2 C187.5,139.3 187.6,139.4 187.7,139.5 C187.8,139.6 187.9,139.7 188.3,139.9 L188.4,140 L188.4,140 L188.4,140 L188.4,140 C188.4,140.1 188.3,140.1 188.2,140.2 C188,140.3 187.8,140.4 187.6,140.4 C187.9,141.9 187.2,142.7 186.3,143.9 C185.1,144.9 184.5,146.2 183.4,147.3 L182,144.6 C182,144.6 182.1,144.6 182.1,144.6 C182.4,145 182.9,144.5 183.1,145.3 C183.4,144.8 184.1,145.3 184.6,145.6 C184.6,145.1 184.7,145.4 184.8,145.2 C185.1,145.4 185.5,145.4 185.8,145.4 C186.2,145.4 186.5,145.2 186.8,145 C187.5,145 187.9,145.2 188,144.9 C188.3,144.9 188.8,145.3 188.7,145 C188.9,145.1 188.6,144.8 188.9,145 C189.4,145.2 189.1,145 189.8,145.4 C190.4,145.2 190.8,145.3 191.1,145.5 Z" id="Path_3649_" fill="#2F326A"></path>
                <path d="M192.2,64.8 C190.8,62.4 189.3,60.1 187.9,57.7 C187.8,57.5 187.6,57.3 187.4,57.4 C187.3,57.4 187.2,57.5 187.2,57.6 L182.2,64.9 L192.2,64.8 Z" id="Path_3650_" fill="#2F326A" fill-rule="nonzero"></path>
                <path d="M191.1,64.2 C191.9,64.6 191.1,64.3 191,64.4 C191.3,64.6 190.9,64.5 190.9,64.6 C190.6,64.6 190.3,64.6 190,64.4 C190.1,64.7 189.6,64.6 189.3,64.7 C189.2,64.8 189.2,64.9 189.1,65.1 C189,65.2 188.8,65.2 188.6,65.3 C188.2,65.6 187.7,65.8 187.2,66 C186.5,66.2 185.8,66.2 185.2,65.9 C184.9,65.9 184.9,66.3 184.6,66.4 C183.5,66.2 182.8,66 182,65.9 L179.8,65.6 L181.1,64.2 C181.8,63.5 182.3,62.6 182.7,61.7 C183.2,61.5 182.8,61 183.6,61.2 C183.7,60.8 183.9,60.5 184.1,60.2 C184.4,59.9 184.7,59.7 185,59.5 C184.8,59.1 184.7,58.7 184.7,58.2 C184.7,58 184.8,57.8 184.9,57.7 C185,57.6 185.1,57.4 185.3,57.3 C185.5,57.2 185.6,57 185.7,56.9 C185.9,56.7 186.1,56.5 186.3,56.3 C186.6,56.1 186.9,56 187.3,56 C187.6,56 187.9,56.1 188.2,56.3 C188.1,56.3 188.1,56.7 188.3,56.7 C188.5,56.7 188.7,56.7 188.9,56.9 C189,57 189.1,57.1 189.2,57.2 C189.4,57.4 189.5,57.7 189.6,57.9 C190,58.4 190.9,59.3 191.7,60.4 C191.8,61 192,61.7 192.3,62.2 C192.3,62.8 192.4,63.4 192.6,63.9 C192.7,64.5 192.8,65 192.6,65.2 C192,64.9 192.1,64.8 191.6,64.5 C191.2,64.2 191.7,64.8 191.3,64.4 C190.6,64 190.6,63.9 190.8,63.9 C190.5,63.6 190.6,63.6 190.6,63.5 C190.1,62.9 189.7,62.2 189.6,61.4 C189.4,61 188.8,60.9 189,60.5 C188,60.1 187.2,59.4 186.4,59 C186.4,58.9 186.4,58.8 186.4,58.7 L186.4,58.7 L186.4,58.7 L186.4,58.7 L186.4,58.7 L186.4,58.7 L186.5,58.7 L186.7,58.6 C186.8,58.5 186.9,58.4 187,58.3 C187.2,58.2 187.3,58 187.4,57.8 C187.4,57.8 187.4,57.7 187.4,57.8 L187.4,57.8 C187.4,57.8 187.4,57.8 187.4,57.8 C187.4,57.8 187.4,57.8 187.4,57.9 C187.5,58 187.6,58.1 187.7,58.2 C187.8,58.3 187.9,58.4 188.3,58.6 L188.4,58.7 L188.4,58.7 L188.4,58.7 L188.4,58.7 C188.4,58.8 188.3,58.8 188.2,58.9 C188,59 187.8,59.1 187.6,59.1 C187.9,60.6 187.2,61.4 186.3,62.6 C185.1,63.6 184.5,64.9 183.4,66 L182,63.3 C182,63.3 182.1,63.3 182.1,63.3 C182.4,63.7 182.9,63.2 183.1,64 C183.4,63.5 184.1,64 184.6,64.3 C184.6,63.8 184.7,64.1 184.8,63.9 C185.1,64.1 185.5,64.1 185.8,64.1 C186.2,64.1 186.5,63.9 186.8,63.7 C187.5,63.7 187.9,63.9 188,63.6 C188.3,63.6 188.8,64 188.7,63.7 C188.9,63.8 188.6,63.5 188.9,63.7 C189.4,63.9 189.1,63.7 189.8,64.1 C190.4,63.9 190.8,64 191.1,64.2 Z" id="Path_3651_" fill="#2F326A"></path>
                <path d="M150.8,6.4 L139.3,13.4 C139,13.6 138.7,13.9 138.8,14.2 C138.9,14.3 139,14.5 139.1,14.5 L150.9,22.5 L150.8,6.4 Z" id="Path_3652_" fill="#2F326A" fill-rule="nonzero"></path>
                <path d="M150.2,7.5 C150.6,6.6 150.3,7.7 150.4,7.9 C150.6,7.7 150.5,8.3 150.6,8.3 C150.6,8.7 150.6,9.2 150.4,9.6 C150.7,9.7 150.6,10.5 150.7,10.9 C150.8,11.1 151,11.2 151.1,11.4 C151.2,11.6 151.2,12 151.3,12.3 C151.6,13.1 151.8,13.8 152,14.6 C152.2,15.6 152.2,16.7 151.9,17.7 C151.9,18.1 152.3,18.2 152.4,18.7 C152.2,20.3 152,21.5 151.9,22.6 L151.7,24.8 L150.2,23.5 C149,22.5 147.6,21.6 146.2,20.8 C145.8,20.1 145.1,20.4 145.2,19.5 C144.1,19 143.1,18.2 142.3,17.2 C141.7,17.3 141.2,17.3 140.6,17.2 C140,17 139.5,16.7 139.1,16.3 C138.9,16.1 138.7,15.9 138.4,15.7 C138.1,15.5 137.9,15.3 137.6,15 C137.4,14.7 137.3,14.3 137.3,13.9 C137.3,13.6 137.4,13.2 137.6,13 C137.5,13.1 138,13.1 138,12.9 C138,12.6 138.1,12.4 138.3,12.2 C138.4,12 138.6,11.9 138.8,11.8 C139.1,11.6 139.6,11.4 139.8,11.2 C140.6,10.6 142,9.4 143.5,8.3 C144.4,8.1 145.3,7.7 146.1,7.2 C147,7 147.9,6.7 148.7,6.4 C149.4,6.1 150.1,5.9 150.9,5.9 C150.6,6.5 150.3,6.5 150.1,7 C149.8,7.5 150.7,6.7 150.1,7.3 C149.8,8 149.3,8.1 149.3,8 C149.1,8.2 148.8,8.4 148.5,8.4 C147.4,9.2 146.2,9.9 144.9,10.3 C144.2,10.6 144,11.3 143.4,11.2 C142.6,12.4 141.4,13.5 140.5,14.7 C140.3,14.7 140.2,14.8 140,14.9 C140,14.9 139.9,14.9 139.9,15 L139.9,15 L139.9,15 L139.8,14.9 C139.6,14.7 139.3,14.5 139.1,14.3 C139,14.3 139,14.3 139,14.3 L139,14.3 C138.9,14.3 139,14.3 139,14.3 C139,14.3 139.1,14.3 139.1,14.2 C139.3,14.1 139.4,13.9 139.6,13.7 L139.8,13.4 C139.8,13.4 139.8,13.4 139.8,13.4 L139.8,13.4 C139.9,13.5 140,13.5 140.1,13.6 C140.3,13.8 140.5,14.1 140.5,14.3 C142.5,14.4 143.9,15.4 145.9,16.8 C147.6,18.6 149.7,19.6 151.6,21.2 L148.9,22.6 L148.9,22.4 C149.3,21.9 148.8,21 149.6,20.7 C149.1,20.1 149.6,19 149.8,18.3 C149.3,18.1 149.6,18 149.4,17.8 C149.7,16.6 149.6,15.3 149.2,14.2 C149.2,13 149.4,12.3 149.1,11.9 C149.1,11.4 149.5,10.8 149.2,10.8 C149.3,10.5 149,10.8 149.2,10.4 C149.4,9.7 149.2,9.9 149.6,9.1 C149.8,8.5 149.9,8 150.2,7.5 Z" id="Path_3653_" fill="#2F326A"></path>
                <path d="M76.1,193.5 C78.5,192.1 80.8,190.6 83.2,189.2 C83.4,189.1 83.6,188.9 83.5,188.7 C83.5,188.6 83.4,188.5 83.3,188.5 C80.9,186.8 78.5,185.2 76,183.5 L76.1,193.5 Z" id="Path_3654_" fill="#2F326A" fill-rule="nonzero"></path>
                <path d="M76.7,192.4 C76.3,193.2 76.6,192.4 76.5,192.3 C76.3,192.6 76.4,192.2 76.3,192.2 C76.3,191.9 76.3,191.6 76.5,191.3 C76.2,191.4 76.3,190.9 76.2,190.6 C76.1,190.5 76,190.5 75.8,190.4 C75.7,190.3 75.7,190.1 75.6,189.9 C75.3,189.5 75.1,189 74.9,188.5 C74.7,187.8 74.7,187.1 75,186.5 C75,186.2 74.6,186.2 74.5,185.9 C74.7,184.8 74.9,184.1 75,183.3 L75.3,181.1 L76.7,182.4 C77.4,183.1 78.3,183.6 79.2,184 C79.4,184.5 79.9,184.1 79.7,184.9 C80.1,185 80.4,185.2 80.7,185.4 C81,185.7 81.2,186 81.4,186.3 C81.8,186.1 82.2,186 82.7,186 C82.9,186 83.1,186.1 83.2,186.2 C83.4,186.3 83.5,186.4 83.6,186.6 C83.7,186.8 83.9,186.9 84,187 C84.2,187.2 84.4,187.4 84.6,187.6 C84.8,187.9 84.9,188.2 84.9,188.6 C84.9,188.9 84.8,189.2 84.6,189.5 C84.6,189.4 84.2,189.4 84.2,189.6 C84.2,189.8 84.2,190 84,190.2 C83.9,190.3 83.8,190.4 83.7,190.5 C83.5,190.7 83.2,190.8 83,190.9 C82.5,191.3 81.6,192.2 80.5,193 C79.9,193.1 79.2,193.3 78.7,193.6 C78.1,193.6 77.5,193.7 77,193.9 C76.4,194 75.9,194.1 75.7,193.9 C76,193.3 76.1,193.4 76.4,192.9 C76.7,192.5 76.1,193 76.5,192.6 C76.9,191.9 77,191.9 77,192.1 C77.3,191.8 77.3,191.9 77.4,191.9 C78,191.4 78.7,191 79.5,190.9 C79.9,190.7 80,190.1 80.4,190.3 C80.8,189.3 81.5,188.5 81.9,187.7 C82,187.7 82.1,187.7 82.2,187.7 L82.2,187.7 L82.2,187.7 L82.2,187.7 L82.2,187.7 L82.2,187.7 L82.2,187.8 L82.3,188 C82.4,188.1 82.5,188.2 82.6,188.4 C82.7,188.6 82.9,188.7 83.1,188.8 C83.1,188.8 83.2,188.8 83.1,188.8 L83.1,188.8 C83.1,188.8 83.1,188.8 83.1,188.8 C83.1,188.8 83.1,188.8 83,188.8 C82.9,188.9 82.8,189 82.7,189.1 C82.6,189.2 82.5,189.3 82.3,189.7 L82.2,189.8 L82.2,189.8 L82.2,189.8 L82.2,189.8 C82.1,189.8 82.1,189.7 82,189.6 C81.9,189.4 81.8,189.2 81.8,189 C80.3,189.3 79.5,188.6 78.3,187.7 C77.3,186.5 76,185.9 74.9,184.8 L77.6,183.4 L77.6,183.5 C77.2,183.8 77.7,184.3 76.9,184.5 C77.4,184.8 76.9,185.5 76.6,186 C77.1,186 76.8,186.1 77,186.2 C76.8,186.5 76.8,186.9 76.8,187.2 C76.8,187.6 77,187.9 77.2,188.2 C77.2,188.9 77,189.3 77.3,189.4 C77.3,189.7 76.9,190.2 77.2,190.1 C77.1,190.3 77.4,190 77.2,190.3 C77,190.8 77.2,190.5 76.8,191.2 C77,191.8 76.9,192.1 76.7,192.4 Z" id="Path_3655_" fill="#2F326A"></path>
                <path d="M117.8,193.5 C120.2,192.1 122.5,190.6 124.9,189.2 C125.1,189.1 125.3,188.9 125.2,188.7 C125.2,188.6 125.1,188.5 125,188.5 C122.6,186.8 120.2,185.2 117.7,183.5 L117.8,193.5 Z" id="Path_3656_" fill="#2F326A" fill-rule="nonzero"></path>
                <path d="M118.4,192.4 C118,193.2 118.3,192.4 118.2,192.3 C118,192.6 118.1,192.2 118,192.2 C118,191.9 118,191.6 118.2,191.3 C117.9,191.4 118,190.9 117.9,190.6 C117.8,190.5 117.6,190.5 117.5,190.4 C117.4,190.3 117.4,190.1 117.3,189.9 C117,189.5 116.8,189 116.6,188.5 C116.4,187.8 116.4,187.1 116.7,186.5 C116.7,186.2 116.3,186.2 116.2,185.9 C116.4,184.8 116.6,184.1 116.7,183.3 L117,181.1 L118.4,182.4 C119.1,183.1 120,183.6 120.9,184 C121.1,184.5 121.6,184.1 121.4,184.9 C121.8,185 122.1,185.2 122.4,185.4 C122.7,185.7 122.9,186 123.1,186.3 C123.5,186.1 123.9,186 124.4,186 C124.6,186 124.8,186.1 124.9,186.2 C125,186.3 125.2,186.4 125.3,186.6 C125.4,186.8 125.6,186.9 125.7,187 C125.9,187.2 126.1,187.4 126.3,187.6 C126.5,187.9 126.6,188.2 126.6,188.6 C126.6,188.9 126.5,189.2 126.3,189.5 C126.3,189.4 125.9,189.4 125.9,189.6 C125.9,189.8 125.9,190 125.7,190.2 C125.6,190.3 125.5,190.4 125.4,190.5 C125.2,190.7 124.9,190.8 124.7,190.9 C124.2,191.3 123.3,192.2 122.2,193 C121.6,193.1 120.9,193.3 120.4,193.6 C119.8,193.6 119.2,193.7 118.7,193.9 C118.1,194 117.6,194.1 117.4,193.9 C117.7,193.3 117.8,193.4 118.1,192.9 C118.4,192.5 117.8,193 118.2,192.6 C118.6,191.9 118.7,191.9 118.7,192.1 C119,191.8 119,191.9 119.1,191.9 C119.7,191.4 120.4,191 121.2,190.9 C121.6,190.7 121.7,190.1 122.1,190.3 C122.5,189.3 123.2,188.5 123.6,187.7 C123.7,187.7 123.8,187.7 123.9,187.7 L123.9,187.7 L123.9,187.7 L123.9,187.7 L123.9,187.7 L123.9,187.7 L123.9,187.8 L124,188 C124.1,188.1 124.2,188.2 124.3,188.4 C124.4,188.6 124.6,188.7 124.8,188.8 C124.8,188.8 124.9,188.8 124.8,188.8 L124.8,188.8 C124.8,188.8 124.8,188.8 124.8,188.8 C124.8,188.8 124.8,188.8 124.7,188.8 C124.6,188.9 124.5,189 124.4,189.1 C124.3,189.2 124.2,189.3 124,189.7 L123.9,189.8 L123.9,189.8 L123.9,189.8 L123.9,189.8 C123.8,189.8 123.8,189.7 123.7,189.6 C123.6,189.4 123.5,189.2 123.5,189 C122,189.3 121.2,188.6 120,187.7 C119,186.5 117.7,185.9 116.6,184.8 L119.3,183.4 L119.3,183.5 C118.9,183.8 119.4,184.3 118.6,184.5 C119.1,184.8 118.6,185.5 118.3,186 C118.8,186 118.5,186.1 118.7,186.2 C118.5,186.5 118.5,186.9 118.5,187.2 C118.5,187.6 118.7,187.9 118.9,188.2 C118.9,188.9 118.7,189.3 119,189.4 C119,189.7 118.6,190.2 118.9,190.1 C118.8,190.3 119.1,190 118.9,190.3 C118.7,190.8 118.9,190.5 118.5,191.2 C118.7,191.8 118.6,192.1 118.4,192.4 Z" id="Path_3657_" fill="#2F326A"></path>
                <path d="M19.2,119.1 C25.5,119.1 30.6,114 30.6,107.7 C30.6,101.4 25.5,96.3 19.2,96.3 C12.9,96.3 7.8,101.4 7.8,107.7 C7.8,113.9 12.9,119.1 19.2,119.1 Z" id="Path_3658_" stroke="#2F326A" fill="#2F326A" fill-rule="nonzero"></path>
                <path d="M188.4,45.6 L188.3,45.6 L188.2,45.6 L188.2,45.7 C188.2,45.7 188.2,45.7 188.2,45.8 C188.2,45.8 188.2,45.8 188.3,45.8 C188.3,45.8 188.3,45.8 188.4,45.8 C188.4,45.8 188.4,45.8 188.5,45.8 C188.5,45.8 188.5,45.8 188.5,45.8 C188.4,45.7 188.4,45.7 188.4,45.6 C188.4,45.6 188.4,45.6 188.4,45.6 C188.4,45.6 188.4,45.6 188.4,45.6 L188.4,45.6 C188.4,45.6 188.4,45.6 188.4,45.6 Z" id="Path_8063_" fill="#484B7D" fill-rule="nonzero"></path>
                <path d="M78.6,76.1 C77.9,76.2 78.3,75.7 78.2,75.4 C77.9,75.3 78,74.9 77.8,74.7 C77.8,74.4 77.7,74 78,73.8 C77.6,73.4 77.8,72.9 77.6,72.5 C77.5,72.3 77.3,72.1 77.2,71.8 C77.1,71.5 77.1,71.3 77,71 C76.6,69.9 76.1,68.1 76.6,66.7 C76.6,66.4 76.3,66.2 76.2,65.9 C76.7,63.7 76.8,61.4 76.6,59.1 C76.8,58.5 76.4,58.2 77,57.9 C76.8,56.9 76.9,55.9 77.2,55 C76.9,54.7 76.6,54.3 76.5,53.9 C76.2,52.9 76.7,52.1 76.5,50.9 C76.5,50.9 76.8,50.8 76.7,50.8 C76.2,50.6 76.4,49.7 76.3,49.2 C76.2,48.5 76,47.2 75.8,46.1 C76,45.4 76,44.8 76,44.1 C76.5,42.7 76.3,41.1 77.1,39.7 C77.7,39.6 77.5,40 77.8,40 C78.1,40.1 77.9,39.4 78.2,39.8 C78.9,39.7 78.5,40.4 78.4,40.5 C78.4,40.8 78.4,41.1 78.2,41.4 C78.3,42.6 78.1,43.8 77.8,45 C77.7,45.7 78.1,45.9 77.8,46.5 C78.3,47.6 78.6,48.8 78.9,50 C78.6,51.3 79.1,51.8 78.5,52.7 C79.3,54.1 79.2,55.4 79.2,57.4 C78.8,59.4 79.1,61.3 78.8,63.4 C78.5,63.8 78.8,64.6 78.3,64.9 C78.7,65.4 78.3,66.4 78.1,66.9 C78.5,67.2 78.3,67.2 78.5,67.5 C78.3,68.6 78.4,69.8 78.9,70.9 C79,72.1 78.8,72.5 79.3,73.3 C79.3,73.8 79,73.9 79.3,74.3 C79.3,74.5 79.6,74.6 79.3,74.6 C79.1,75.1 79.5,75.2 78.9,75.4 C78.9,75.6 79.2,76.1 78.6,76.1 Z" id="Path_8659_" fill="#C7C7D4"></path>
                <path d="M81.2,68.3 C81.8,68.6 81.3,68.6 81.4,68.8 C81.6,69 81.5,69.1 81.6,69.3 C81.5,69.4 81.5,69.7 81.2,69.6 C81.4,70 81.2,70.1 81.2,70.4 C81.2,70.5 81.3,70.7 81.4,70.9 C81.4,71.1 81.4,71.2 81.4,71.3 C81.5,72 81.5,73 80.7,73.4 C80.6,73.6 80.9,73.8 80.8,73.9 C79.9,74.6 79.2,75.6 78.8,76.7 C78.5,76.8 78.8,77.2 78.2,77.1 C78.2,77.3 78.1,77.6 77.9,77.8 L77.2,78.8 L76.7,77.7 C76.6,77.5 76.6,77.2 76.6,76.9 C76.3,76.9 76,76.9 75.7,76.8 C75.2,76.5 75.4,75.9 74.9,75.5 C74.9,75.5 75.1,75.3 75,75.4 C74.5,75.5 74.5,75.1 74.3,74.9 C73.9,74.5 73.5,74.1 73,73.8 C73,73.4 72.9,73.1 72.7,72.8 C72.8,72 72.2,71.3 72.6,70.3 C73.1,70 73,70.2 73.3,70.1 C73.6,70 73.2,69.8 73.6,69.8 C74.2,69.4 74,69.9 73.9,70 C74.1,70.1 74,70.3 74,70.5 C74.4,70.9 74.4,71.6 74.6,72.3 C74.7,72.6 75.1,72.6 75,72.9 C75.6,73.2 76.2,73.5 76.8,73.9 C76.8,74.6 77.5,74.6 77.2,75.3 C77.6,75.4 77.9,75.5 78.2,75.8 C78.5,76 78.7,76.3 78.8,76.7 L75.9,76.7 L76.1,76.4 C76.7,75.6 77.3,74.8 77.9,73.9 C78.3,73.9 78.2,73.3 78.7,73.5 C78.5,73.1 79,72.8 79.3,72.7 C79,72.4 79.2,72.5 79.1,72.3 C79.3,72.1 79.5,71.8 79.6,71.5 C79.7,71.2 79.7,70.9 79.6,70.6 C79.8,70 80.1,70 79.9,69.4 C80,69.2 80.3,69.3 80.1,69 C80.2,68.9 79.9,68.7 80.2,68.8 C80.5,68.7 80.2,68.4 80.7,68.6 C80.8,68.4 80.7,68 81.2,68.3 Z" id="Path_8660_" fill="#C7C7D4"></path>
                <path d="M77.3,33.1 C76.6,33.1 77,33 76.9,33 C76.6,33 76.7,32.9 76.5,32.9 C76.5,32.9 76.4,32.8 76.7,32.8 C76.3,32.7 76.5,32.7 76.3,32.6 C76.2,32.6 76,32.5 75.9,32.5 C75.8,32.5 75.8,32.4 75.7,32.4 C75.3,32.3 74.8,32 75.3,31.8 C75.3,31.8 75,31.7 74.9,31.7 C75.4,31.4 75.5,31.2 75.3,30.8 C75.5,30.7 75.1,30.7 75.7,30.6 C75.5,30.5 75.6,30.3 75.9,30.2 C75.7,30.2 75.4,30.1 75.2,30.1 C74.9,30 75.4,29.9 75.2,29.7 C75.2,29.7 75.5,29.7 75.4,29.7 C74.9,29.7 75.1,29.6 75,29.5 C74.8,29.3 74.7,29.2 74.5,29.1 C74.7,29 74.7,28.9 74.7,28.8 C75.2,28.6 75,28.4 75.8,28.2 C76,28.2 76.3,28.2 76.5,28.2 C76.8,28.2 76.6,28.1 76.9,28.2 C77.6,28.2 77.2,28.3 77.1,28.3 C77.2,28.4 77,28.4 76.9,28.4 C77.1,28.5 76.7,28.7 76.5,28.9 C76.4,29 76.8,29 76.5,29.1 C76.9,29.2 77.2,29.4 77.6,29.6 C77.3,29.8 77.8,29.8 77.2,30 C78,30.2 77.9,30.4 77.9,30.6 C77.5,30.9 77.8,31.1 77.5,31.4 C77.2,31.5 77.5,31.6 77,31.6 C77.4,31.7 77,31.8 76.8,31.9 C77.2,31.9 77,31.9 77.2,32 C77,32.2 77.1,32.3 77.6,32.4 C77.7,32.6 77.5,32.6 78,32.7 C78,32.8 77.7,32.8 78,32.8 C78,32.8 78.3,32.8 78,32.8 C77.8,32.9 78.2,32.9 77.6,32.9 C77.6,33.1 77.9,33.1 77.3,33.1 Z" id="Path_8661_" fill="#C7C7D4"></path>
                <path d="M75.5,124.7 C75.6,125.4 75.1,125 75,125.1 C74.9,125.4 74.6,125.3 74.5,125.5 C74.2,125.5 73.9,125.6 73.8,125.3 C73.5,125.7 73.1,125.5 72.7,125.7 C72.5,125.8 72.4,126 72.2,126.1 C72,126.2 71.8,126.2 71.6,126.3 C70.7,126.7 69.3,127.2 68.2,126.7 C67.9,126.7 67.8,127 67.6,127.1 C65.8,126.6 64,126.5 62.2,126.7 C61.7,126.5 61.5,126.9 61.2,126.3 C60.4,126.5 59.6,126.4 58.9,126.1 C58.7,126.4 58.3,126.6 58,126.8 C57.2,127.1 56.6,126.6 55.6,126.8 C55.6,126.8 55.6,126.5 55.5,126.6 C55.3,127.1 54.6,126.9 54.2,127 C53.6,127.1 52.6,127.3 51.7,127.5 C51.2,127.3 50.6,127.3 50.1,127.3 C49,126.8 47.7,127 46.6,126.2 C46.5,125.6 46.8,125.8 46.9,125.5 C47,125.2 46.4,125.4 46.7,125.1 C46.6,124.4 47.2,124.8 47.2,124.9 C47.3,124.9 47.5,124.9 47.6,124.9 C47.7,124.9 47.8,125 47.9,125.1 C48.9,125 49.8,125.2 50.8,125.5 C51.3,125.6 51.5,125.2 52,125.5 C52.9,125.1 53.8,124.7 54.8,124.4 C55.8,124.7 56.2,124.2 57,124.8 C58.1,124 59.2,124.1 60.8,124.1 C62.4,124.5 63.9,124.2 65.6,124.5 C65.9,124.8 66.6,124.5 66.8,125 C67.2,124.6 68,125 68.4,125.2 C68.6,124.8 68.6,125 68.8,124.8 C69.7,125 70.7,124.9 71.5,124.4 C72.5,124.3 72.7,124.5 73.4,124 C73.8,124 73.9,124.3 74.2,124 C74.4,124 74.4,123.7 74.5,124 C74.9,124.2 75,123.8 75.1,124.4 C75.1,124.4 75.5,124.2 75.5,124.7 Z" id="Path_8662_" fill="#C7C7D4"></path>
                <path d="M48.7,127.4 C48.5,128 48.5,127.6 48.4,127.7 C48.3,128 48.2,127.8 48.1,128 C48,127.9 47.9,128 47.9,127.7 C47.7,128 47.6,127.8 47.4,127.9 C47.3,127.9 47.2,128.1 47.1,128.2 C47,128.3 46.9,128.2 46.8,128.3 C46.4,128.5 45.7,128.8 45.5,128.1 C45.4,128.1 45.2,128.3 45.1,128.3 C44.6,127.6 44.3,127.3 43.5,127.2 C43.5,126.9 43.2,127.3 43.3,126.7 L43.2,126.7 L41.5,126.8 L43.4,125.6 C43.6,125.5 43.8,125.5 44.1,125.7 C44.1,125.4 44.2,125.2 44.2,124.9 C44.3,124.5 44.7,125 44.8,124.7 C44.8,124.7 44.9,125 44.9,124.9 C44.7,124.4 45,124.5 45,124.4 C45.1,124.2 45.2,123.9 45.2,123.6 C45.3,123.6 45.4,123.6 45.4,123.6 C45.5,123.6 45.5,123.5 45.6,123.5 C46.1,123.6 46.2,123.2 47,123.3 C47.5,123.5 47.3,123.5 47.6,123.7 C47.9,123.9 47.8,123.6 47.9,123.8 C48.5,124.1 48.1,124.1 47.9,124.1 C47.9,124.3 47.7,124.2 47.6,124.3 C47.6,124.7 47,124.8 46.6,124.9 C46.4,125 46.6,125.3 46.3,125.2 C46.3,125.7 46.2,126.3 45.9,126.7 C45.4,126.6 45.4,127.2 44.9,126.7 C44.7,127.6 44.1,127.7 43.4,127.7 L43.2,127.6 L43.9,124.6 C44.3,125.1 44.8,125.1 45.2,125.5 C45.2,125.8 45.5,125.6 45.3,126.2 C45.6,125.9 45.7,126.4 45.7,126.6 C45.9,126.3 45.8,126.5 46,126.3 C46.2,126.6 46.5,126.7 47,126.4 C47.4,126.4 47.4,126.7 47.7,126.3 C47.8,126.3 47.7,126.7 48,126.4 C48,126.5 48.2,126.1 48.1,126.4 C48.2,126.6 48.3,126.3 48.2,126.8 C48.7,127.1 48.9,126.9 48.7,127.4 Z" id="Path_8663_" fill="#C7C7D4"></path>
                <path d="M119.4,162.5 C119.5,163.2 118.9,162.8 118.6,162.9 C118.5,163.2 118,163.1 117.8,163.3 C117.4,163.3 116.9,163.4 116.7,163.1 C116.2,163.5 115.6,163.3 115,163.5 C114.7,163.6 114.5,163.8 114.2,163.9 C113.9,164 113.6,164 113.2,164.1 C111.8,164.5 109.6,165 107.9,164.5 C107.5,164.5 107.3,164.8 106.9,164.9 C104.1,164.4 101.3,164.3 98.5,164.5 C97.8,164.3 97.4,164.7 97,164.1 C95.8,164.3 94.6,164.2 93.4,163.9 C93,164.2 92.5,164.5 92,164.6 C90.8,164.9 89.8,164.4 88.2,164.6 C88.2,164.6 88.1,164.3 88.1,164.4 C87.8,164.9 86.8,164.7 86.1,164.8 C85.2,164.9 83.6,165.1 82.2,165.3 C81.4,165.1 80.5,165.1 79.7,165.1 C78,164.6 76,164.8 74.3,164 C74.2,163.4 74.7,163.6 74.7,163.3 C74.8,163 73.9,163.2 74.4,162.9 C74.3,162.2 75.1,162.6 75.2,162.7 C75.6,162.7 76,162.7 76.3,162.9 C77.8,162.8 79.3,163 80.8,163.3 C81.6,163.4 82,163 82.6,163.3 C84,162.8 85.5,162.5 86.9,162.2 C88.5,162.5 89.1,162 90.2,162.6 C91.9,161.8 93.6,161.9 96.1,161.9 C98.6,162.3 100.9,162 103.5,162.3 C104,162.6 105,162.3 105.3,162.8 C106,162.4 107.1,162.8 107.8,163 C108.1,162.6 108.2,162.8 108.5,162.6 C109.9,162.8 111.3,162.7 112.7,162.2 C114.2,162.1 114.6,162.3 115.6,161.8 C116.2,161.8 116.4,162.1 116.9,161.8 C117.1,161.8 117.3,161.5 117.3,161.8 C117.9,162 118.1,161.6 118.3,162.2 C118.7,162.2 119.3,162 119.4,162.5 Z" id="Path_8664_" fill="#C7C7D4"></path>
                <path d="M116.8,166 C116.6,165.4 116.8,165.7 116.9,165.6 C116.8,165.3 117,165.4 117,165.2 C117.1,165.2 117.2,165 117.3,165.3 C117.3,164.9 117.5,165 117.5,164.8 C117.5,164.7 117.5,164.5 117.6,164.4 C117.6,164.3 117.7,164.3 117.7,164.2 C117.9,163.7 118.2,163.1 118.7,163.5 C118.8,163.4 118.7,163.1 118.8,163.1 C119.3,163.3 119.8,163.3 120.2,163.1 L119.8,164.2 C119.7,164.1 119.6,164 119.4,163.9 C119.5,163.6 119.1,163.8 119.5,163.4 C119.2,163.3 119.1,163 119.2,162.7 C119,162.8 118.7,162.9 118.4,162.9 C118,162.9 118.3,162.4 117.9,162.3 C117.9,162.3 118.1,162.1 118,162.2 C117.6,162.5 117.6,162.2 117.5,162.1 C117.2,162 116.9,161.9 116.6,161.9 C116.6,161.8 116.6,161.7 116.6,161.6 C116.6,161.5 116.5,161.4 116.4,161.4 C116.5,160.8 116,160.7 116.3,159.8 C116.6,159.3 116.6,159.6 116.8,159.3 C117,159.1 116.7,159.1 117,159 C117.4,158.5 117.3,158.9 117.3,159 C117.4,159 117.4,159.2 117.4,159.3 C117.8,159.4 117.8,159.9 117.9,160.3 C118,160.5 118.3,160.3 118.2,160.6 C118.7,160.5 119.2,160.5 119.7,160.6 C119.7,161.1 120.2,160.8 119.9,161.4 C120.8,161.2 121,161.6 121.3,162.1 C121.4,162.5 121.5,162.8 121.7,163.2 L122.6,164.8 L121,165.3 C120.8,165.4 120.6,165.4 120.4,165.4 C120.2,165.2 120.1,165.6 119.8,165 C119.8,165.4 119.4,165.2 119.2,165 C119.3,165.4 119.2,165.2 119.2,165.4 C118.8,165.3 118.6,165.5 118.4,166.1 C118.1,166.3 118,166.1 117.9,166.7 C117.8,166.8 117.6,166.4 117.6,166.8 C117.5,166.8 117.6,167.1 117.5,166.8 C117.3,166.7 117.4,167 117.2,166.5 C117,166.3 117,166.6 116.8,166 Z" id="Path_8665_" fill="#C7C7D4"></path>
                <path d="M92.1444444,2.23162412 C94.3203802,10.2002651 97.0388987,15.7494584 100.3,18.879204 C103.561101,22.0089495 109.931471,25.1825482 119.41111,28.4 L92.1444444,28.1555556 L92.1444444,2.23162412 Z" id="Path-3" fill="#2F326A" opacity="0.2"></path>
            </g>
            <path d="M103.95,129.392183 C109.724526,120.2954 112.569452,113.071748 112.484779,107.721229 C112.400106,102.37071 109.324425,95.012884 103.257735,85.64775 L105.596853,87.2592744 L125.378498,107.036659 L103.95,128.9" id="Path-73" fill="#2F326A" opacity="0.2"></path>
            <path d="M37.7,178.3 L37.7,199.4 L19.2787707,209.9 L2.74294197,200.336559 C13.2424574,200.381 20.4614768,199.161819 24.4,196.679016 C28.3385232,194.196212 32.7718565,188.069874 37.7,178.3 Z" id="Path-74" fill="#2F326A" opacity="0.2"></path>
            <path d="M162.9,83.7 C164.249788,91.9931715 167.800523,97.8713326 173.552205,101.334483 C179.303886,104.797634 191.319818,108.292334 209.6,111.818584 L162.9,112.7 L162.9,83.7 Z" id="Path-75" fill="#2F326A" opacity="0.2"></path>
        </g>
    </g>
</svg>