<?xml version="1.0" encoding="UTF-8"?>
<svg width="216px" height="216px" viewBox="0 0 216 216" version="1.1" xmlns="http://www.w3.org/2000/svg" xmlns:xlink="http://www.w3.org/1999/xlink">
    <title>our-company</title>
    <g id="our-company" stroke="none" stroke-width="1" fill="none" fill-rule="evenodd">
        <g transform="translate(1.000000, 10.000000)" id="Path">
            <path d="M61.8,133.996584 C72.3684198,144.624879 86.2897939,151.267565 101.2,152.796584 C116.8,154.396584 131.9,149.296584 144.7,139.496584 C147.2,137.596584 149.5,135.596584 151.9,133.696584 L181,162.696584 C164.6,180.396584 144,190.196584 120.5,193.296584 C88.3,197.396584 59.9,188.196584 35.7,166.496584 C34.6,165.496584 33.7,164.296584 32.6,163.096584 L61.8,133.996584 Z" fill="#7132FE" fill-rule="nonzero"></path>
            <path d="M106.2,131.096994 C95.1240175,131.123563 84.4968179,126.721867 76.6836964,118.871183 C68.8705749,111.020498 64.5198996,100.37231 64.6,89.2965839 C64.871005,66.2853788 83.4882131,47.7126032 106.5,47.4965839 C129.7,47.5965839 148.7,66.7965839 148.3,89.8965839 C147.9,112.996584 129.6,131.196584 106.2,131.096994 Z" fill="#FECC01" fill-rule="nonzero"></path>
            <path d="M61.8,133.996584 L32.6,163.096584 C12.1,143.096584 2.8,118.496584 1.8,89.7965839 C11.8,89.7965839 21.4,89.0965839 30.9,89.9965839 C38.5,90.6965839 43.2,96.4965839 45.2,103.796584 C48.1996323,115.061578 53.8970636,125.426784 61.8,133.996584 L61.8,133.996584 Z" fill="#01EBBA" fill-rule="nonzero"></path>
            <path d="M181,162.696584 L151.9,133.696584 C159.566745,124.708878 165.195797,114.1672 168.4,102.796584 C171.1,93.5965839 177.1,90.1965839 186.7,90.5965839 C194.7,90.7965839 202.7,90.5965839 211.5,90.5965839 C210.5,118.096584 201.5,142.796584 181,162.696584 Z" fill="#AF64FE" fill-rule="nonzero"></path>
            <path d="M106.3,132.396584 C105.9,131.896584 106.7,131.796584 107.8,131.796584 L111.2,131.796584 C111.881111,131.439324 112.631818,131.234586 113.4,131.196584 L114.8,130.896584 L116,130.496584 L117.8,130.096584 L119.6,129.496584 L122.3,128.796584 C123.6,128.096584 124.9,127.296584 126.4,126.596584 L128.6,125.296584 L129.7,124.596584 L130.7,123.796584 L132.5,122.196584 C133,121.696584 133.5,120.996584 134.2,120.396584 C134.9,119.796584 136.6,117.796584 137.9,116.296584 C140.71345,112.375225 142.937073,108.062744 144.5,103.496584 C146.026798,98.5652156 146.900904,93.455059 147.1,88.2965839 C147.086612,87.3500121 146.952187,86.4090415 146.7,85.4965839 C146.4558,84.6407143 146.255538,83.7729138 146.1,82.8965839 C145.598474,78.7958122 144.415532,74.8076077 142.6,71.0965839 C142.1934,70.231007 141.725545,69.3955514 141.2,68.5965839 C141.004295,68.1757883 140.769957,67.7740654 140.5,67.3965839 L139.8,66.2965839 L138.2,63.9965839 L136.4,61.9965839 L135.5,60.9965839 L134.5,59.9965839 L132.5,58.1965839 C131.032829,56.961285 129.460136,55.8570537 127.8,54.8965839 C126.110237,53.8244259 124.338,52.8881496 122.5,52.0965839 L119.4,50.9965839 L118.6,50.6965839 L117.8,50.4965839 L116.1,50.0965839 L114.8,49.6965839 L113.5,49.4965839 L111.3,49.1965839 C110.675312,49.0479303 110.040099,48.9476334 109.4,48.8965839 L107.6,48.4965839 C106.699073,48.4298486 105.793522,48.4633875 104.9,48.5965839 L102.3,48.7965839 L99.6,49.1965839 L98.3,49.3965839 L97.1,49.6965839 L94.6,50.2965839 L92.1,51.0965839 C90.5,51.5965839 89,52.2965839 87.5,52.8965839 L86,54.0965839 L84.5,55.3965839 C83.9323771,55.7451151 83.4256702,56.1842611 83,56.6965839 L81.4,57.9965839 C80.7,58.5965839 80.2,59.1965839 79.6,59.7965839 C79,60.3965839 78.3,60.8965839 77.8,61.4965839 C76.6299158,62.5951246 75.5278728,63.7639581 74.5,64.9965839 L72.9,66.9965839 L71.5,69.2965839 C70.9168982,70.0591511 70.4454889,70.9009534 70.1,71.7965839 C69.6401168,72.7031001 69.239282,73.6383814 68.9,74.5965839 C69,74.3965839 68.4,74.8965839 68.4,75.2965839 C68.4,75.6965839 66.6,82.5965839 66.4,85.9965839 C66.18707,89.2090724 66.3887284,92.4356079 67,95.5965839 L67.3,96.9965839 C67.3518574,97.5050186 67.4523165,98.0073143 67.6,98.4965839 L68.5,101.296584 C68.9,102.296584 69.3,103.196584 69.6,104.196584 C69.9,105.196584 70.6,105.996584 71,106.796584 C72.8072361,111.049046 75.5004492,114.867272 78.9,117.996584 C82.3480647,121.743168 86.5826844,124.680082 91.3,126.596584 C96.0234353,128.572822 101.008763,129.852838 106.1,130.396584 C106.8,131.196584 104,130.796584 103.6,131.296584 C103.2,131.796584 108.3,131.696584 105.2,131.796584 C106,132.696584 100.8,132.096584 100.3,131.696584 C98.1014009,131.412756 95.9496412,130.841195 93.9,129.996584 C89.739998,128.811065 85.8157593,126.916605 82.3,124.396584 C78.6597716,121.775155 75.4827621,118.564348 72.9,114.896584 L71.1,112.396584 L69.7,110.296584 C69.5,109.896584 69.2,109.596584 69.1,109.296584 L68.5,108.196584 C68.2333333,107.529917 67.9333333,106.729917 67.6,105.796584 C67.2,105.096584 66.9,104.296584 66.5,103.496584 C66.073441,102.656494 65.7058857,101.787727 65.4,100.896584 L64.5,97.8965839 L63.9,94.5965839 C63.1165699,89.9990247 63.0827995,85.3049389 63.8,80.6965839 C64.5,78.3965839 64.9,76.4965839 65.6,74.7965839 C65.9869899,74.0319588 66.2888006,73.2271303 66.5,72.3965839 C66.8737895,71.7165758 67.2076873,71.0153904 67.5,70.2965839 C67.9,69.5965839 68.2,68.8965839 68.5,68.2965839 L69.7,66.4965839 C70.5539692,65.1820603 71.5610205,63.9735987 72.7,62.8965839 C75.610212,58.3541245 79.5067479,54.5259488 84.1,51.6965839 C84.6977729,51.2716685 85.3338586,50.9034083 86,50.5965839 L88,49.5965839 C89.3602314,48.8350409 90.8028893,48.2311375 92.3,47.7965839 L93.5,47.2965839 L94.7,46.9965839 L97.2,46.3965839 C98.0546714,46.1726716 98.9232407,46.0056391 99.8,45.8965839 L102.5,45.4965839 L105.4,45.4965839 C105.865347,45.4469489 106.334653,45.4469489 106.8,45.4965839 L108.2,45.4965839 L111,45.6965839 L113.7,46.0965839 C115.6,46.3965839 117.3,46.9965839 119.1,47.3965839 L121.7,48.3965839 L124.3,49.3965839 C131.20571,52.4974765 137.14758,57.4029741 141.5,63.5965839 C141.9,64.2965839 142.5,64.9965839 143,65.8965839 L144.6,68.6965839 C145.064422,69.5665489 145.465463,70.468892 145.8,71.3965839 C146.099674,72.0189135 146.237264,72.7068666 146.2,73.3965839 C146.762923,74.418499 147.231528,75.4895967 147.6,76.5965839 C148.004059,77.8774166 148.33789,79.179354 148.6,80.4965839 C149.015048,82.9399307 149.149253,85.4227343 149,87.8965839 C149.243219,88.5711162 149.37822,89.2798725 149.4,89.9965839 L149.4,92.0965839 C149.212502,94.1780243 148.912059,96.247741 148.5,98.2965839 C148.2,99.2965839 147.9,100.296584 147.7,101.196584 C147.613822,101.707982 147.479903,102.210178 147.3,102.696584 L146.8,104.096584 C145.483439,108.124928 143.633688,111.958959 141.3,115.496584 C139.361304,118.215986 137.075248,120.670134 134.5,122.796584 C132.5,124.396584 130.8,125.796584 128.3,127.496584 C127.979653,127.77178 127.604811,127.976239 127.2,128.096584 L126.3,128.596584 L124.6,129.196584 L123.1,129.896584 L121.3,130.696584 C119.9,131.096584 119.4,131.796584 118.9,131.496584 L115.1,132.296584 C114.405056,132.467009 113.675605,132.432273 113,132.196584 L110.9,132.496584 L108.8,132.496584 C107.4,132.796584 106.4,132.696584 106.3,132.396584 Z" fill="#2E316A"></path>
            <path d="M99.9,55.1965839 C100.1,55.9965839 99.5,55.5965839 99.2,55.6965839 C98.9,55.7965839 98.8,55.9965839 98.6,56.2965839 C98.4,56.5965839 97.9,56.4965839 97.7,56.0965839 C97.5,55.6965839 96.8,56.4965839 96.4,56.7965839 C96,57.0965839 96,57.1965839 95.8,57.3965839 L95,57.6965839 C94,58.3965839 92.5,59.4965839 91.1,59.1965839 C89.7,58.8965839 90.8,59.7965839 90.6,59.8965839 C88.3978529,60.0945841 86.356567,61.1331331 84.9,62.7965839 C84.3,62.8965839 84.5,63.5965839 83.7,63.2965839 C83.2070124,64.1267007 82.4751525,64.7888597 81.6,65.1965839 C81.6508065,65.6952932 81.6508065,66.1978745 81.6,66.6965839 C81.3,67.6965839 80.2,67.8965839 79.7,69.0965839 L79.5,69.0965839 C79.8,69.6965839 79.1,70.1965839 78.9,70.5965839 C78.7,70.9965839 78.2,72.4965839 77.9,73.4965839 C77.4157733,73.8776474 77.0655099,74.4030425 76.9,74.9965839 C76.3643072,75.4131978 75.9499553,75.9656668 75.7,76.5965839 C75.4067784,77.2612866 75.0007942,77.8702629 74.5,78.3965839 C73.7,78.3965839 74,78.0965839 73.5,77.9965839 C73,77.8965839 73.3,78.5965839 73,78.1965839 C72.7,77.7965839 72.7,77.3965839 72.9,77.3965839 C72.910134,77.0557331 73.0537882,76.7325111 73.3,76.4965839 C73.3,75.2965839 74.3,74.0965839 75.1,73.0965839 C75.9,72.0965839 75.2,72.0965839 75.8,71.7965839 C76.4,71.4965839 76.3,69.3965839 76.6,67.9965839 C76.9,66.5965839 77.5,66.3965839 78.7,66.0965839 C79.9,65.7965839 79.7,63.1965839 81.2,61.6965839 C82.7,60.1965839 84.5,58.9965839 86.7,58.0965839 C87.2,58.1965839 87.8,57.3965839 88.4,57.9965839 C89,58.5965839 89.9,57.2965839 90.5,57.3965839 C91.1,57.4965839 90.7,57.0965839 90.9,56.7965839 C92.1535282,56.704001 93.3447293,56.2135064 94.3,55.3965839 C95.5,54.9965839 95.9,55.2965839 96.6,54.5965839 C97.3,53.8965839 97.3,54.8965839 97.7,54.4965839 C98.1,54.0965839 98,53.9965839 98,54.3965839 C98,54.7965839 98.7,54.0965839 98.9,54.7965839 C99.1,55.4965839 99.8,54.4965839 99.9,55.1965839 Z" fill="#F7F8FA"></path>
            <path d="M85.1,72.1965839 C85.8,72.7965839 85.3,72.4965839 85.4,72.5965839 L85.7,72.9965839 L85.5,72.9965839 L85.8,73.3965839 C85.8,73.4965839 86,73.6965839 86.1,73.7965839 L86.1,73.9965839 C86.4,74.3965839 86.8,74.9965839 86.2,74.6965839 C85.6,74.3965839 86.4,74.9965839 86.5,74.9965839 C86.6,74.9965839 85.6,74.7965839 85.6,75.1965839 C85.6,75.5965839 85.8,75.4965839 85.2,74.9965839 C84.6,74.4965839 85.2,75.2965839 84.8,75.0965839 L85.4,75.7965839 C85.7,76.1965839 85.1,75.7965839 85.2,75.9965839 C85.3,76.1965839 84.9,75.7965839 85.1,75.8965839 C85.3,75.9965839 85.3,76.1965839 85.3,76.2965839 L85.6,76.9965839 C85.4,76.8632505 85.3,76.8632505 85.3,76.9965839 C84.7,76.6965839 84.8,76.9965839 83.9,76.3965839 C83.6416333,76.189704 83.4068798,75.9549506 83.2,75.6965839 C82.9,75.3965839 83.1,75.6965839 82.9,75.3965839 C82.7,75.0965839 82.6,75.0965839 82.7,75.1965839 L83,75.1965839 C82.9,74.9965839 83.3,75.1965839 83.6,75.2965839 C83.9,75.3965839 83.3,74.8965839 83.7,75.1965839 C83.3973961,74.78642 83.1297883,74.3515573 82.9,73.8965839 C83.3,74.0965839 82.7,73.5965839 83.4,73.9965839 C84.1,74.3965839 82.8,73.1965839 83,72.9965839 C83.2,72.7965839 83.4,72.8965839 83.8,72.8965839 C84.2,72.8965839 83.8,72.7965839 84.4,73.2965839 C85,73.7965839 84.5,73.0965839 84.7,73.2965839 C84.9,73.4965839 84.6,73.0965839 84.4,72.8965839 C84.2,72.6965839 84.7,72.7965839 84.3,72.2965839 C83.9,71.7965839 84.5,72.2965839 84.1,71.7965839 C83.7,71.2965839 84.5,72.0965839 84.2,71.6965839 L84.2,71.6965839 C84.4,71.7965839 84.1,71.4965839 84.6,71.9965839 C85.1,72.4965839 84.6,71.6965839 85.1,72.1965839 Z" fill="#F7F8FA"></path>
            <path d="M72.7,87.7965839 C71.9,87.5965839 72.4,87.6965839 72.3,87.5965839 L72,87.5965839 L71.6,87.3965839 L71.1,87.1965839 L70.9,87.1965839 C70.4,86.9965839 69.8,86.7965839 70.5,86.7965839 L70,86.5965839 C70.7,86.4965839 70.9,86.3965839 70.6,86.0965839 C70.3,85.7965839 70.3,85.9965839 71.1,86.0965839 C71.9,86.1965839 71,85.8965839 71.4,85.8965839 L70.5,85.6965839 C70,85.4965839 70.7,85.4965839 70.5,85.3965839 L70.7,85.3965839 C70.1,85.2965839 70.4,85.2965839 70.3,85.1965839 L69.6,84.7965839 L69.9,84.7965839 C70.5,84.7965839 70.3,84.5965839 71.4,84.6965839 L72.3,84.8965839 C72.8,84.9965839 72.5,84.7965839 72.8,84.8965839 C73.1,84.9965839 73.2,85.0965839 73,84.9965839 C72.8,84.8965839 72.9,85.0965839 72.8,85.0965839 C72.7,85.0965839 72.5,85.1965839 72.2,85.2965839 C71.9,85.3965839 72.6,85.3965839 72.2,85.3965839 L73.6,85.9965839 C73.1,85.9965839 73.9,86.1965839 73.1,86.0965839 C74.1,86.3965839 74,86.4965839 73.9,86.6965839 C73.8,86.8965839 73.7,86.9965839 73.4,87.0965839 C73.1,87.1965839 73.4,87.1965839 72.7,87.0965839 C72,86.9965839 72.7,87.1965839 72.4,87.1965839 L72.8,87.1965839 C72.5,87.2965839 72.7,87.3965839 73.3,87.5965839 C73.9,87.7965839 73.1,87.6965839 73.7,87.8965839 C74.3,88.0965839 73.3,87.8965839 73.7,87.9965839 L73.7,87.9965839 C73.5,87.9965839 73.9,88.0965839 73.2,87.9965839 C72.5,87.8965839 73.5,87.8965839 72.7,87.7965839 Z" fill="#F7F8FA"></path>
            <path d="M141.6,99.2965839 C140.8,98.9965839 141.5,98.7965839 141.4,98.4965839 C141.3,98.1965839 141.4,97.9965839 141.2,97.7965839 C141,97.5965839 141.3,97.0965839 141.7,97.0965839 C142.1,97.0965839 141.6,96.2965839 141.4,95.7965839 L141,95.1965839 C140.920106,94.9672343 140.853331,94.733523 140.8,94.4965839 C140.4,93.5965839 139.7,92.0965839 140.4,90.8965839 C141.1,89.6965839 140,90.5965839 139.9,90.2965839 C140.4,88.0965839 140.6,86.7965839 139.9,84.6965839 C139.2,82.5965839 139.5,83.9965839 140.2,83.5965839 C139.886393,82.8016381 139.816764,81.931277 140,81.0965839 C139.573488,80.9742404 139.191469,80.7311375 138.9,80.3965839 C138.2,79.6965839 138.8,78.8965839 138.2,77.9965839 C137.6,77.0965839 138.6,77.7965839 138.4,77.7965839 C138.2,77.7965839 137.7,77.0965839 137.5,76.7965839 C137.047604,76.0384604 136.510855,75.3339766 135.9,74.6965839 C135.873829,74.1291043 135.701605,73.5779903 135.4,73.0965839 C135.5,71.7965839 134.5,70.8965839 134.8,69.2965839 C135.1,67.6965839 135.3,69.2965839 135.7,68.9965839 C136.1,68.6965839 135.5,68.4965839 136,68.5965839 C136.5,68.6965839 136.7,68.7965839 136.5,68.9965839 C136.729286,69.1503449 136.846784,69.4245073 136.8,69.6965839 C137.431097,70.5787712 137.811245,71.615538 137.9,72.6965839 C138,73.2965839 138.6,73.2965839 138.4,73.8965839 C139.352651,74.5224708 140.197032,75.2993019 140.9,76.1965839 C140.8,77.3965839 141.7,77.5965839 141.1,78.5965839 C142.5,79.4965839 142.7,80.7965839 143,82.4965839 C143.3,84.1965839 143.3,85.9965839 143.1,87.7965839 C142.9,89.5965839 143.3,88.8965839 142.5,89.0965839 C141.7,89.2965839 142.6,90.3965839 142.3,90.8965839 C142,91.3965839 142.5,91.1965839 142.8,91.3965839 C142.545856,92.4110016 142.688948,93.4841924 143.2,94.3965839 C143.4,95.4965839 143,95.7965839 143.5,96.6965839 C144,97.5965839 142.9,97.1965839 143.2,97.6965839 C143.5,98.1965839 143.5,98.0965839 143.1,97.9965839 C142.7,97.8965839 143.1,98.7965839 142.4,98.6965839 C141.7,98.5965839 142.3,99.5965839 141.6,99.2965839 Z" fill="#F7F8FA"></path>
            <path d="M134.9,114.096584 C134.3,113.496584 134.7,113.796584 134.6,113.696584 C134.5,113.596584 134.5,113.496584 134.3,113.296584 L134.6,113.296584 C134.2,112.996584 134.4,113.096584 134.3,112.896584 L134,112.596584 L133.8,112.296584 C133.5,111.896584 133.1,111.396584 133.7,111.796584 C134.3,112.196584 133.4,111.396584 133.4,111.396584 C133.4,111.396584 134.2,111.596584 134.1,111.196584 C134,110.796584 133.9,110.996584 134.5,111.396584 C135.1,111.796584 134.5,111.196584 134.9,111.396584 L134.1,110.796584 C133.8,110.396584 134.4,110.796584 134.3,110.496584 C134.2,110.196584 134.6,110.696584 134.5,110.696584 C134.4,110.696584 134.2,110.396584 134.1,110.296584 C134,110.196584 133.9,109.996584 133.6,109.696584 C133.3,109.396584 133.9,109.796584 133.9,109.696584 C134.408304,109.796562 134.909407,109.93019 135.4,110.096584 L136.2,110.496584 L136.7,110.696584 C137.4,111.096584 137,110.996584 136.8,110.896584 L136.6,110.896584 C136.7,111.196584 136.3,111.096584 136,110.996584 C135.7,110.896584 136.3,111.296584 135.9,111.196584 C136.312668,111.475514 136.683119,111.812288 137,112.196584 C136.5,112.096584 137.2,112.496584 136.4,112.196584 C137.2,112.896584 137.1,112.996584 136.9,113.096584 C136.7,113.196584 136.5,113.396584 136.2,113.396584 C135.9,113.396584 136.1,113.496584 135.5,113.096584 C134.9,112.696584 135.4,113.196584 135.2,113.096584 C135,112.996584 135.3,113.196584 135.5,113.396584 C135.7,113.596584 135.3,113.496584 135.7,113.996584 C136.1,114.496584 135.4,113.996584 135.9,114.496584 C136.4,114.996584 135.5,114.296584 135.8,114.596584 C136.1,114.896584 136.1,114.896584 135.7,114.596584 C135.3,114.296584 135.9,114.796584 135.3,114.396584 C134.7,113.996584 135.5,114.596584 134.9,114.096584 Z" fill="#F7F8FA"></path>
            <path d="M125.7,118.696584 C126.3,119.296584 125.8,119.096584 125.8,119.296584 C125.8,119.496584 125.8,119.596584 125.9,119.896584 C126,120.196584 125.7,120.196584 125.4,119.996584 C125.1,119.796584 125.3,120.496584 125.2,120.796584 C125.1,121.096584 125.3,121.196584 125.3,121.396584 C125.3,121.553963 125.225903,121.702157 125.1,121.796584 C125,122.596584 124.6,123.796584 123.6,123.596584 C122.6,123.396584 123.6,124.096584 123.5,124.196584 C122.255044,124.246667 121.060789,124.703294 120.1,125.496584 C119.7,125.296584 119.7,125.896584 119.3,125.296584 C118.903657,125.685052 118.315266,125.80273 117.8,125.596584 L117.5,126.696584 C117.1,127.296584 116.5,126.596584 115.9,127.096584 L115.9,126.796584 C115.9,127.496584 115.4,127.296584 115.1,127.496584 L113.5,128.396584 C113.138365,128.184176 112.710976,128.112944 112.3,128.196584 C111.939835,127.946977 111.530843,127.776564 111.1,127.696584 C110.623667,127.508526 110.23247,127.152891 110,126.696584 C110,125.996584 110.2,126.196584 110.2,125.796584 C110.2,125.396584 109.9,125.596584 110.2,125.296584 C110.5,124.996584 110.5,124.896584 110.5,125.096584 C110.5,125.296584 110.8,125.196584 110.9,125.296584 C111,125.396584 112.1,125.596584 112.7,125.796584 C113.3,125.996584 113.1,125.396584 113.4,125.696584 C113.7,125.996584 114.4,124.696584 114.9,124.096584 C115.4,123.496584 115.6,123.596584 116.2,124.296584 C116.6,123.096584 117.2,122.996584 118,122.696584 C118.8,122.396584 119.8,122.196584 120.7,121.996584 C121.6,121.796584 121.2,121.696584 121.7,122.296584 C122.2,122.896584 122.3,121.896584 122.6,121.996584 C122.9,122.096584 122.7,121.696584 122.6,121.396584 C122.5,121.096584 123.5,120.996584 123.6,120.096584 C123.7,119.196584 124.2,119.696584 124.1,118.996584 C124,118.296584 124.6,119.196584 124.4,118.696584 C124.2,118.196584 124.2,118.296584 124.5,118.596584 C124.8,118.896584 124.6,118.296584 125.1,118.696584 C125.6,119.096584 125.1,118.196584 125.7,118.696584 Z" fill="#FFAA00"></path>
            <path d="M130.8,116.496584 L131.1,116.896584 L131.3,117.296584 L131.1,117.096584 L131.4,117.596584 C131.508611,117.704462 131.578864,117.844969 131.6,117.996584 L131.8,118.196584 C132,118.596584 132.4,119.196584 131.9,118.696584 L132.1,119.096584 C131.7,118.696584 131.5,118.596584 131.6,118.896584 C131.7,119.196584 131.7,119.196584 131.2,118.596584 C130.7,117.996584 131.3,118.796584 131,118.496584 L131.5,119.296584 C131.7,119.696584 131.3,119.096584 131.4,119.396584 C131.5,119.696584 131.2,119.096584 131.2,119.196584 L131.5,119.596584 C131.545776,119.849602 131.648349,120.088941 131.8,120.296584 C131.6,120.096584 131.5,120.096584 131.5,120.196584 L130.5,119.196584 C130,118.496584 130.2,118.696584 129.9,118.396584 C129.6,118.096584 129.8,118.296584 129.6,117.996584 C129.4,117.696584 129.4,117.596584 129.5,117.796584 L129.7,117.996584 C129.6,117.696584 129.9,118.096584 130.1,118.196584 C130.3,118.296584 129.9,117.896584 130.2,118.196584 L129.4,116.896584 C129.8,117.196584 129.3,116.596584 129.8,117.196584 C130.3,117.796584 129.4,116.396584 129.5,116.296584 C129.6,116.196584 129.7,116.396584 130,116.496584 L130.5,116.996584 C130.2,116.596584 130.5,116.996584 130.7,117.196584 L130.4,116.796584 C130.7,116.996584 130.6,116.796584 130.3,116.296584 C130,115.796584 130.5,116.396584 130.1,115.796584 L130.1,115.796584 C130.2,115.796584 129.9,115.496584 130.1,115.796584 C130.3,116.096584 130,115.596584 130.5,116.096584 C131,116.596584 130.3,115.896584 130.8,116.496584 Z" fill="#FFAA00"></path>
            <path d="M81.3,114.396584 C80.7,115.096584 80.9,114.496584 80.7,114.496584 C80.5,114.496584 80.3,114.496584 80.1,114.596584 C79.9,114.696584 79.7,114.396584 79.9,114.096584 C80.1,113.796584 79.4,113.896584 79,113.796584 L78.4,113.796584 L77.9,113.596584 C77.1,113.396584 75.9,112.996584 76,111.896584 C76.1,110.796584 75.5,111.896584 75.4,111.796584 C75.2033749,110.41311 74.6521846,109.104033 73.8,107.996584 C73.9,107.596584 73.3,107.696584 73.9,107.196584 C73.4165242,106.773956 73.2557,106.090453 73.5,105.496584 L72.3,105.296584 C71.7,104.796584 72.2,104.096584 71.8,103.496584 C71.4,102.896584 72.1,103.396584 72,103.396584 C71.9,103.396584 71.4,102.896584 71.3,102.596584 L70.2,100.996584 C70.3019883,100.569251 70.3019883,100.123916 70.2,99.6965839 C70.4221582,99.2957277 70.5583847,98.8529917 70.6,98.3965839 C70.6889879,97.8486691 70.9731288,97.3514224 71.4,96.9965839 C72.2,96.8965839 71.9,97.0965839 72.4,97.1965839 C72.9,97.2965839 72.5,96.7965839 72.8,96.9965839 C73.1,97.1965839 73.3,97.2965839 73.1,97.3965839 C72.9,97.4965839 73,97.6965839 72.9,97.8965839 C72.8,98.0965839 72.8,99.1965839 72.7,99.8965839 C72.6,100.596584 73.1,100.396584 72.8,100.696584 C72.5,100.996584 73.9,101.796584 74.6,102.196584 C75.3,102.596584 75.2,103.096584 74.6,103.796584 C75.8,104.196584 76,104.796584 76.4,105.796584 C76.8,106.796584 77.1,107.696584 77.4,108.796584 C77.7,109.896584 77.8,109.296584 77.2,109.796584 C76.6,110.296584 77.6,110.496584 77.6,110.896584 C77.6,111.296584 77.9,110.896584 78.2,110.896584 C78.5,110.896584 78.7,111.896584 79.7,111.996584 C80.7,112.096584 80.1,112.696584 80.8,112.596584 C81.5,112.496584 80.7,113.096584 81.2,112.996584 C81.7,112.896584 81.6,112.796584 81.3,113.096584 C81,113.396584 81.7,113.196584 81.3,113.696584 C80.9,114.196584 81.8,113.896584 81.3,114.396584 Z" fill="#FFAA00"></path>
            <path d="M147.9,145.896584 C148.8,146.196584 147.4,146.996584 147.2,147.496584 C147,147.996584 146.6,148.596584 146.4,149.196584 C146.2,149.796584 145.1,150.596584 144.5,150.596584 C144.257627,151.092846 143.917489,151.535026 143.5,151.896584 C142.9865,152.276576 142.516936,152.712599 142.1,153.196584 L140.9,154.596584 C140.4,155.096584 139.8,155.396584 139.2,155.896584 C137.843581,157.124233 136.330399,158.166647 134.7,158.996584 C132.918384,159.941331 130.992141,160.583412 129,160.896584 C128.2,161.096584 127.9,161.596584 127.1,161.896584 C123.6,162.496584 120.9,162.696584 118.1,162.996584 L109.1,163.596584 C107.6,163.196584 106.8,163.796584 105.8,162.996584 C104.8,162.196584 103.2,162.896584 101.9,162.696584 C100.64085,162.514944 99.4019022,162.213578 98.2,161.796584 C97.1827847,162.034033 96.1441718,162.168047 95.1,162.196584 C92.4,161.996584 90.4,160.796584 87.2,159.996584 C87.3,159.996584 87.2,159.596584 87,159.696584 C86.8,159.796584 84.2,158.996584 82.9,158.596584 C81.6,158.196584 77.9,156.896584 75,155.596584 L72.8,154.096584 L70.4,152.496584 C67.6,149.996584 64,147.396584 62.1,144.096584 C62.5,143.396584 63,144.296584 63.4,143.996584 C63.8,143.696584 62.3,142.796584 63.3,143.296584 C64.3,143.796584 64.8,143.996584 64.8,144.196584 C65.4151203,144.718568 65.9537336,145.324508 66.4,145.996584 C68.7,147.596584 71.2,149.996584 73.7,151.796584 C76.2,153.596584 76,152.696584 77,153.696584 C78,154.696584 79.6,154.496584 81.1,154.896584 L83.4,155.596584 L85.8,156.196584 C86.9372838,156.78709 88.1478277,157.224231 89.4,157.496584 C90.4275585,157.778788 91.4056422,158.217239 92.3,158.796584 C93.2009266,158.729849 94.1064783,158.763388 95,158.896584 L97.8,159.096584 L100.8,159.496584 C101.95148,159.739756 103.123346,159.873683 104.3,159.896584 C109.4,160.896584 114.2,160.496584 119.5,159.996584 C120.6,160.196584 122.5,159.496584 123.3,160.096584 C124.1,160.696584 127,159.196584 128.4,158.996584 C129.8,158.796584 129.1,158.596584 129.6,158.096584 C132.465652,157.498281 135.122121,156.152797 137.3,154.196584 L138.9,153.196584 L140.1,152.396584 L141.1,151.696584 L141.9,150.596584 C142.8,149.796584 143.4,149.896584 143.8,148.996584 C144.2,148.096584 144,148.196584 144.4,148.396584 C144.8,148.596584 145.3,147.196584 146.1,147.296584 C146.9,147.396584 147.3,145.496584 147.9,145.896584 Z" fill="#BC88FF"></path>
            <path d="M153.6,141.496584 C153.5,142.396584 153.5,141.896584 153.5,141.996584 C153.5,142.096584 153.4,142.296584 153.4,142.496584 L153.4,142.196584 C153.3,142.796584 153.3,142.496584 153.3,142.696584 L153.3,143.396584 C153.3,143.996584 153.4,144.596584 153.2,143.896584 L153.2,144.396584 C153.1,143.796584 152.9,143.596584 153,143.996584 L152.8,143.496584 C152.9,143.796584 152.8,143.696584 152.6,143.396584 L153.1,144.196584 C153.3,144.596584 152.9,143.996584 153,144.196584 L153,143.996584 C153.4,144.596584 153.2,144.396584 153.3,144.396584 C153.38256,144.626135 153.519861,144.832085 153.7,144.996584 C153.6,144.796584 153.6,144.696584 153.6,144.796584 C153.6,144.896584 153.4,144.496584 152.5,143.896584 L151.7,143.296584 L151.3,142.996584 C150.6,142.496584 151,142.696584 151.2,142.796584 L151.4,142.796584 C151.3,142.596584 151.7,142.796584 151.9,142.996584 C152.1,143.196584 151.7,142.596584 152,142.896584 C151.691732,142.507985 151.454737,142.067853 151.3,141.596584 C151.6,141.896584 151.2,141.296584 151.7,141.896584 C151.3,140.896584 151.5,140.896584 151.7,140.796584 C151.9,140.696584 152.1,140.896584 152.4,141.096584 C152.7,141.296584 152.5,140.996584 152.7,141.696584 C152.9,142.396584 152.8,141.696584 152.9,141.896584 C153,142.096584 152.9,141.696584 152.8,141.496584 C152.7,141.296584 153,141.596584 153.1,140.996584 C153.2,140.396584 153.2,141.096584 153.3,140.496584 C153.4,139.896584 153.4,140.896584 153.4,140.496584 L153.4,140.496584 C153.5,140.696584 153.5,140.296584 153.5,140.896584 C153.5,141.496584 153.6,140.796584 153.6,141.496584 Z" fill="#BC88FF"></path>
            <path d="M58.2,144.096584 L57.8,144.096584 L57.3,143.896584 C57.3,143.896584 57.2,143.796584 57.6,143.896584 L57.1,143.596584 L56.7,143.396584 L56.5,143.196584 C56.1,142.896584 55.6,142.296584 56.3,142.496584 L56,142.196584 C56.7,142.196584 57,142.296584 56.9,141.796584 C56.8,141.296584 56.8,141.496584 57.4,141.996584 C58,142.496584 57.5,141.696584 57.8,141.996584 L57.3,141.096584 C57.2,140.696584 57.7,141.196584 57.7,140.896584 L57.7,141.096584 C57.4,140.496584 57.7,140.696584 57.7,140.596584 L57.9,139.696584 C57.9801313,139.838521 58.1383714,139.917641 58.3,139.896584 C58.6,140.396584 58.8,140.096584 59.2,141.096584 C59.2524052,141.427857 59.2524052,141.76531 59.2,142.096584 C59.3,142.496584 59.3,142.196584 59.3,142.596584 C59.3,142.996584 59.4,142.996584 59.3,142.796584 C59.2,142.596584 59.3,142.696584 59.2,142.596584 C59.1,142.496584 59,142.396584 58.9,142.196584 C58.8,141.996584 58.9,142.596584 58.7,142.196584 C58.8064505,142.670516 58.9400033,143.137951 59.1,143.596584 L58.8,143.296584 C59.3,144.196584 59.3,144.096584 59.2,144.096584 C59.1,144.096584 59,144.096584 58.8,143.896584 L58.1,143.596584 L57.9,143.596584 C58.3,143.896584 58,143.796584 58.3,143.896584 C58.6,143.996584 58.1,143.996584 58.6,144.196584 L59.1,144.496584 L58.1,144.496584 L58.2,144.096584 Z" fill="#BC88FF"></path>
            <path d="M61.9,154.196584 L61.9,154.596584 C61.9,154.996584 61.8,154.896584 61.8,155.096584 L61.8,154.896584 C61.7,155.396584 61.7,155.096584 61.6,155.396584 L61.6,155.796584 C61.6,155.996584 61.5,155.896584 61.5,156.096584 C61.5,156.296584 61.3,157.296584 61.2,156.596584 C61.1,155.896584 61.1,156.996584 61.1,156.996584 C61.1,156.996584 60.8,156.196584 60.6,156.596584 C60.4,156.996584 60.5,156.796584 60.5,156.096584 C60.5,155.396584 60.3,156.196584 60.2,155.796584 C60.2272497,156.13322 60.1933708,156.47201 60.1,156.796584 C60,157.196584 60,156.496584 59.9,156.796584 L59.9,156.596584 C59.9,157.196584 59.8,156.996584 59.7,156.996584 L59.5,157.796584 C59.4,157.496584 59.4,157.496584 59.3,157.496584 C59.1453892,157.043312 59.0446958,156.573409 59,156.096584 L59,155.096584 C59,154.696584 58.9,154.996584 59,154.596584 L59,154.396584 C59.1,154.296584 59.1,154.496584 59.1,154.596584 C59.1,154.696584 59.3,154.896584 59.4,155.096584 C59.5,155.296584 59.5,154.696584 59.5,155.096584 C59.5,155.496584 59.7,154.196584 59.8,153.696584 C59.9,153.196584 59.9,153.396584 60,154.196584 C60.1,153.096584 60.2,153.196584 60.4,153.196584 C60.6,153.196584 60.7,153.396584 60.9,153.696584 C61.1,153.996584 61,153.596584 61,154.396584 C61,155.196584 61.1,154.396584 61.2,154.596584 L61.2,154.196584 C61.3,154.496584 61.4,154.296584 61.5,153.696584 C61.6,153.096584 61.6,153.796584 61.7,153.196584 C61.8,152.596584 61.7,153.596584 61.8,153.196584 L61.8,153.196584 C61.8,153.396584 61.8,152.996584 61.9,153.696584 L61.9,154.196584 Z" fill="#BC88FF"></path>
            <path d="M183.8,151.696584 C183,151.296584 184,150.896584 184.1,150.596584 C184.2,150.296584 184.4,149.796584 184.5,149.396584 C184.6,148.996584 185.1,148.396584 185.6,148.496584 C186.1,148.596584 186.2,147.196584 186.5,146.496584 C186.552821,146.086246 186.653506,145.683504 186.8,145.296584 C186.92499,144.912366 187.092706,144.54339 187.3,144.196584 C187.646192,143.143219 188.046729,142.108499 188.5,141.096584 C189.026312,140.044799 189.737654,139.096343 190.6,138.296584 C190.8,137.796584 190.6,137.396584 190.8,136.996584 C193.140237,134.314953 194.909556,131.184619 196,127.796584 C196.6,127.096584 196.3,126.396584 197.2,126.196584 C197.529555,124.664469 198.139833,123.206582 199,121.896584 C198.754365,121.294986 198.651672,120.644597 198.7,119.996584 C198.7,118.296584 199.7,117.296584 200,115.396584 C200,115.496584 200.4,115.396584 200.3,115.296584 C200.2,115.196584 200.3,113.496584 200.4,112.796584 C200.62501,111.139776 200.725292,109.46841 200.7,107.796584 C201.061255,106.830812 201.296527,105.822505 201.4,104.796584 C201.758976,103.679689 202.059385,102.54481 202.3,101.396584 C202.469028,100.240283 202.841442,99.123041 203.4,98.0965839 C204.2,97.9965839 203.9,98.5965839 204.3,98.6965839 C204.7,98.7965839 204.6,97.5965839 204.8,98.2965839 C205,98.9965839 205.2,99.2965839 205,99.3965839 C205.032996,99.8821304 204.929055,100.367191 204.7,100.796584 C204.70821,101.777547 204.573462,102.754473 204.3,103.696584 C204.1,104.596584 203.8,105.596584 203.5,106.496584 C203.2,107.396584 203.7,107.996584 203.2,108.796584 C203.425747,110.721151 203.492639,112.661038 203.4,114.596584 C202.5,116.496584 203,117.496584 201.8,118.696584 C201.982516,119.897526 201.91442,121.123249 201.6,122.296584 C201.257574,123.625141 200.823193,124.928283 200.3,126.196584 C199.487164,127.622134 198.752738,129.090985 198.1,130.596584 C197.4,131.996584 196.7,133.396584 195.8,134.896584 C194.9,136.396584 194.9,136.696584 194.1,136.596584 C193.3,136.496584 192.9,138.696584 192.2,139.296584 C191.5,139.896584 192.2,139.796584 192.2,140.296584 C190.970062,141.671364 190.079568,143.315353 189.6,145.096584 C188.6,146.896584 187.9,147.096584 187.7,148.496584 C187.5,149.896584 186.7,149.096584 186.6,149.796584 C186.5,150.496584 186.7,150.396584 186.3,150.196584 C185.9,149.996584 185.8,151.096584 185.1,150.896584 C184.4,150.696584 184.4,152.196584 183.8,151.696584 Z" fill="#7132FE"></path>
            <path d="M182.5,150.096584 L182.5,150.096584 L182.9,150.296584 L182.7,150.296584 C183.1,150.596584 182.9,150.496584 183,150.696584 L183.4,150.996584 C183.4,151.196584 183.4,151.196584 183.5,151.296584 C183.6,151.396584 183.8,152.496584 183.3,151.896584 C182.8,151.296584 183.5,152.396584 183.4,152.396584 C183.3,152.396584 182.7,151.796584 182.5,152.196584 C182.3,152.596584 182.4,152.496584 182.3,151.696584 C182.2,150.896584 182.1,151.896584 182.1,151.396584 C182.043022,151.741339 181.942205,152.077397 181.8,152.396584 C181.6,152.796584 181.6,152.096584 181.4,152.296584 L181.4,151.996584 C181.1,152.696584 181.1,152.396584 181,152.396584 L180.2,152.796584 C180.2,152.496584 180.2,152.396584 180,152.296584 C180.074644,152.071042 180.108507,151.834005 180.1,151.596584 C180.258389,151.330577 180.461347,151.093793 180.7,150.896584 L181.5,150.396584 L181.9,150.196584 L181.9,150.196584 C182.1,149.996584 181.8,150.296584 181.7,150.596584 L181.7,150.596584 L182.1,149.996584 L182.2,149.996584 L182.4,150.296584 L182.2,150.096584 L182.4,150.096584 L182.5,150.096584 Z" fill="#7132FE"></path>
            <path d="M176.2,147.696584 C176.7,148.396584 176.4,147.896584 176.4,148.096584 L176.7,148.496584 C176.6,148.496584 176.7,148.596584 176.5,148.296584 C176.3,147.996584 176.6,148.596584 176.7,148.796584 L176.9,149.196584 L176.9,149.496584 C177,149.996584 177,150.696584 176.7,149.996584 C176.4,149.296584 176.8,150.496584 176.7,150.496584 C176.6,150.496584 176.2,149.796584 175.9,150.196584 C175.6,150.596584 175.9,150.496584 175.8,149.696584 C175.7,148.896584 175.6,149.896584 175.6,149.496584 C175.555056,149.801002 175.488216,150.101782 175.4,150.396584 C175.2,150.796584 175.2,150.096584 175.1,150.296584 L175.1,150.096584 C174.9,150.796584 174.9,150.496584 174.8,150.496584 L174.2,151.096584 C174.2,150.896584 174.2,150.796584 174,150.796584 C173.8,150.796584 173.8,150.296584 174.3,149.296584 L174.8,148.496584 L175.1,148.096584 C175.6,147.296584 175.3,147.696584 175.2,147.896584 L175.2,148.096584 C175.4,147.896584 175.2,148.296584 175.2,148.596584 C175.2,148.896584 175.4,148.196584 175.3,148.596584 L175.8,147.296584 C175.7,147.696584 175.8,146.996584 175.7,147.796584 L175.9,146.896584 L175.9,146.896584 L175.9,147.096584 L175.9,147.096584 L175.9,147.296584 C176,147.696584 175.9,147.196584 176.1,147.996584 C176.3,148.796584 176.1,147.996584 176.2,148.196584 C176.3,148.396584 176.2,147.996584 176.1,147.696584 C176,147.396584 176.2,147.896584 176,147.296584 L175.9,147.296584 C176,147.296584 175.9,147.196584 176,147.396584 C176.1,147.596584 175.8,146.996584 176.2,147.696584 Z" fill="#7132FE"></path>
            <path d="M186,141.896584 C185.1,141.996584 185.6,141.896584 185.5,141.796584 L185,141.796584 C185,141.696584 184.9,141.696584 185.2,141.696584 C185.5,141.696584 185,141.596584 184.7,141.596584 L184,141.596584 C183.5,141.596584 182.8,141.796584 183.5,141.496584 L183,141.496584 C183.6,141.196584 183.7,140.996584 183.4,141.096584 C183.1,141.196584 183.1,141.196584 183.8,140.796584 C184.5,140.396584 183.6,140.796584 183.9,140.496584 L183,140.996584 C182.6,141.196584 183.2,140.796584 183,140.896584 L183.2,140.696584 C182.6,141.096584 182.8,140.896584 182.7,140.896584 L182.1,141.296584 L182.3,141.096584 C182.7,140.696584 182.5,140.796584 183.1,139.996584 L183.8,139.296584 C184.1,138.996584 183.9,139.096584 184.1,138.896584 C184.3,138.696584 184.5,138.596584 184.3,138.796584 C184.1,138.996584 184.3,138.896584 184.2,138.996584 C184.1,139.096584 184.2,139.296584 184.1,139.496584 C184,139.696584 184.4,139.296584 184.1,139.596584 L185.5,138.996584 C185.2,139.296584 185.8,138.996584 185.2,139.496584 C186.2,138.996584 186.2,139.196584 186.3,139.396584 C186.4,139.596584 186.3,139.896584 186.1,140.196584 C185.9,140.496584 186.2,140.296584 185.5,140.596584 C184.8,140.896584 185.6,140.696584 185.3,140.796584 L185.8,140.796584 C185.5,140.996584 185.7,141.096584 186.4,140.996584 C187.1,140.896584 186.2,141.196584 186.9,141.196584 C187.6,141.196584 186.5,141.296584 186.9,141.296584 C187.3,141.296584 187.3,141.296584 186.9,141.396584 L186.4,141.396584 C186.4,141.396584 186.7,141.796584 186,141.896584 Z" fill="#7132FE"></path>
            <path d="M30.7,150.596584 C30.2,151.296584 30,150.296584 29.6,150.096584 C29.2,149.896584 28.9,149.596584 28.5,149.496584 C28.1,149.396584 27.7,148.596584 27.8,148.196584 C27.9,147.796584 26.7,147.096584 26.1,146.596584 L25.1,145.896584 L24.1,144.896584 C22.7,143.596584 20.5,141.196584 20.1,138.796584 C19.8,138.396584 19.3,138.296584 19,137.896584 C17.8810413,134.2293 16.3372317,130.705386 14.4,127.396584 C14.3,126.296584 13.5,126.096584 14,125.196584 C13.028513,123.835869 12.4100163,122.255266 12.2,120.596584 C11.5960473,120.177686 11.0569514,119.672283 10.6,119.096584 C9.6,117.696584 9.8,116.096584 9,114.196584 C9,114.196584 9.3,113.996584 9.2,113.896584 C9.1,113.796584 8.2,112.196584 8,111.396584 C7.8,110.596584 6.8,108.096584 6.2,106.096584 C6.31434372,104.897021 6.2807584,103.68795 6.1,102.496584 C6.6,99.9965839 6.5,97.0965839 7.9,94.8965839 C8.7,94.7965839 8.3,95.3965839 8.8,95.5965839 C9.3,95.7965839 9.1,94.4965839 9.3,95.2965839 C9.5,96.0965839 9.6,96.2965839 9.4,96.3965839 C9.38784441,96.9212781 9.25071697,97.435506 9,97.8965839 C9.2,99.6965839 8.7,101.796584 8.7,103.896584 C8.7,105.996584 9.2,105.396584 8.9,106.296584 C8.6,107.196584 10.5,109.896584 11.5,111.696584 C12.5,113.496584 12.6,114.396584 12.4,116.096584 C14.1,117.896584 14.8,119.996584 16.1,122.996584 C17.4,125.996584 18.7,128.996584 20,132.296584 C19.9,133.096584 20.9,134.096584 20.4,134.796584 C19.9,135.496584 21.6,136.996584 21.8,137.896584 C22,138.796584 22.2,138.296584 22.6,138.496584 C23.2511696,140.334688 24.3922717,141.959894 25.9,143.196584 C27.1,144.696584 27.1,145.396584 28.4,146.096584 C29.7,146.796584 28.6,147.196584 29.4,147.496584 C30.2,147.796584 30,147.596584 29.7,147.896584 C29.4,148.196584 30.5,148.596584 30.1,149.196584 C29.7,149.796584 31.2,150.096584 30.7,150.596584 Z" fill="#00CCCC"></path>
            <path d="M32.4,151.296584 C33,151.896584 32.6,151.596584 32.7,151.696584 C32.8,151.796584 32.8,151.996584 33,152.096584 C33.2,152.196584 33,152.296584 32.7,151.996584 C32.4,151.696584 32.9,152.296584 33,152.496584 L33.3,152.896584 L33.3,153.096584 C33.6,153.496584 34.1,153.996584 33.4,153.696584 L33.8,153.996584 C33.1,153.896584 32.9,153.896584 33,154.296584 C33.1,154.696584 33.2,154.496584 32.5,154.096584 C31.8,153.696584 32.6,154.396584 32.2,154.296584 L33,154.796584 C33.3,155.096584 32.7,154.796584 32.9,155.096584 L32.6,155.096584 C33.2,155.396584 33,155.296584 33,155.396584 L33.6,155.896584 C33.3,155.896584 33.2,155.896584 33.3,155.996584 C32.7981882,156.001316 32.2967428,155.967887 31.8,155.896584 C31,155.696584 31.3,155.696584 30.9,155.496584 C30.5,155.296584 30.7,155.596584 30.4,155.396584 C30.1,155.196584 30,155.196584 30.2,155.296584 C30.4,155.396584 30.3,155.196584 30.5,155.196584 C30.7,155.196584 30.8,155.096584 31.1,154.996584 C31.4,154.896584 30.7,154.796584 31.1,154.896584 L30,153.896584 C30.5,153.896584 29.8,153.496584 30.6,153.796584 C29.7,153.196584 29.9,152.996584 30,152.796584 C30.1,152.596584 30.5,152.496584 30.9,152.396584 C31.3,152.296584 30.9,152.196584 31.6,152.696584 C32.3,153.196584 31.7,152.496584 31.9,152.596584 L31.6,152.296584 C31.9,152.296584 31.9,152.196584 31.5,151.596584 C31.1,150.996584 31.7,151.596584 31.3,151.096584 C30.9,150.596584 31.7,151.296584 31.4,150.996584 C31.1,150.696584 31.2,150.696584 31.5,150.896584 C31.8,151.096584 31.4,150.696584 31.9,151.196584 C32.4,151.696584 31.9,150.796584 32.4,151.296584 Z" fill="#00CCCC"></path>
            <path d="M16.5,101.196584 C16.1,101.996584 16.2,101.496584 16.1,101.596584 L15.8,101.996584 C15.8,101.896584 15.7,101.996584 15.8,101.696584 C15.9,101.396584 15.6,101.896584 15.5,102.096584 C15.4727145,102.246219 15.4033367,102.384974 15.3,102.496584 C15.3,102.696584 15.3,102.596584 15.2,102.696584 C15.1,102.796584 15,103.896584 15,103.196584 C15,102.496584 15,103.696584 15,103.696584 C15,103.696584 14.6,102.896584 14.6,103.296584 C14.6,103.696584 14.7,103.596584 14.3,102.896584 C13.9,102.196584 14.3,103.096584 14,102.796584 L14.5,103.596584 C14.8,103.996584 14.3,103.496584 14.4,103.696584 L14.2,103.696584 L14.6,103.996584 C14.7644984,104.176723 14.9704493,104.314023 15.2,104.396584 L15,104.196584 L14.5,103.996584 L12.6,103.996584 C12.2,103.896584 12.5,104.096584 12.2,103.996584 C11.9,103.896584 11.7,103.896584 11.9,103.896584 C12.1,103.896584 12,103.796584 12.2,103.796584 C12.4,103.796584 12.5,103.396584 12.8,103.396584 C13.1,103.396584 12.5,103.096584 12.9,103.196584 C12.4556804,102.928492 12.1329588,102.498196 12,101.996584 C12.5,102.096584 12,101.496584 12.7,101.896584 C13.4,102.296584 12.5,100.796584 12.8,100.596584 C13.1,100.396584 13.6,100.496584 14.1,100.596584 C14.6,100.696584 14.3,100.496584 14.5,101.296584 C14.7,102.096584 14.8,101.196584 14.8,101.496584 C14.8,101.796584 14.9,101.296584 14.9,100.996584 C14.9,100.696584 15.2,101.196584 15.6,100.596584 C16,99.9965839 15.9,100.796584 16.3,100.296584 C16.7,99.7965839 16.2,100.696584 16.5,100.296584 C16.8,99.8965839 16.7,99.9965839 16.6,100.396584 C16.5,100.796584 16.8,100.296584 16.5,100.896584 C16.2,101.496584 16.9,100.596584 16.5,101.196584 Z" fill="#00CCCC"></path>
            <path d="M142.9,183.296584 C143.5,183.996584 141.8,183.996584 141.2,184.396584 C140.6,184.796584 140,185.196584 139.5,185.596584 C139,185.996584 137.4,186.496584 136.8,186.296584 C136.2,186.096584 134.5,187.396584 133.2,187.996584 L131.3,188.996584 C130.6,189.396584 129.9,189.496584 129.1,189.896584 C127.110935,190.637516 125.072667,191.238972 123,191.696584 C120.756689,192.127968 118.455026,192.161816 116.2,191.796584 C115.2,191.896584 114.7,192.296584 113.8,192.296584 L103.6,190.796584 L93.5,189.296584 C91.9,188.696584 90.7,188.996584 89.8,187.896584 C88.3101836,187.586962 87.0105084,186.68441 86.2,185.396584 L84.5,182.396584 L87.3,184.296584 C87.9020053,184.690955 88.2457064,185.378357 88.2,186.096584 C88.1363108,186.659491 87.8905156,187.186195 87.5,187.596584 C86.7786737,188.275832 85.7604856,188.539807 84.8,188.296584 C83.6095879,188.696829 82.3393432,188.799822 81.1,188.596584 C79.6167732,188.370504 78.1908732,187.861254 76.9,187.096584 C75.4715719,186.319129 74.0028339,185.618141 72.5,184.996584 C72.6,184.996584 72.5,184.596584 72.3,184.596584 C72.1,184.596584 69.1,183.496584 67.8,182.896584 C66.5,182.296584 62.3,180.296584 59.1,178.596584 C57.4992093,177.276629 55.8302473,176.041597 54.1,174.896584 C51,171.996584 46.9,169.096584 44.6,165.496584 C44.8,164.696584 45.5,165.696584 46,165.496584 C46.5,165.296584 44.6,164.096584 45.8,164.696584 C47,165.296584 47.4,165.496584 47.4,165.796584 C48.1352596,166.353559 48.8060764,166.990834 49.4,167.696584 C52,169.596584 54.9,172.296584 57.7,174.496584 C60.5,176.696584 60.3,175.696584 61.4,176.896584 C62.5,178.096584 67.7,179.596584 71.1,180.796584 C74.5,181.996584 76,182.896584 78.2,184.696584 L83.4,185.596584 C84.0495438,185.810268 84.7504562,185.810268 85.4,185.596584 L85.4,185.596584 L85.8,186.196584 L85.8,186.196584 C85.7374203,186.086072 85.6260796,186.011845 85.5,185.996584 L86.3,185.996584 L88.8,183.996584 C88.9771243,184.280066 89.2165176,184.51946 89.5,184.696584 C90.9,185.996584 94.3,186.296584 97.1,186.896584 L105.9,188.396584 C107.1,188.896584 109.5,188.696584 110.2,189.496584 C110.9,190.296584 114.5,189.796584 116.2,189.996584 C117.9,190.196584 117.1,189.796584 117.8,189.496584 C121.147768,189.758272 124.509303,189.20945 127.6,187.896584 C130.9,186.896584 132.1,186.896584 134.1,185.496584 C136.1,184.096584 136,185.396584 136.9,184.596584 C137.8,183.796584 137.6,183.896584 137.9,184.196584 C138.2,184.496584 139.5,183.396584 140.2,183.896584 C140.9,184.396584 142.6,182.596584 142.9,183.296584 Z" fill="#592BD8"></path>
            <path d="M157.3,173.796584 C157.8,174.496584 157.4,174.096584 157.4,174.296584 L157.6,174.696584 C157.5,174.696584 157.6,174.896584 157.3,174.596584 C157,174.296584 157.3,174.996584 157.4,175.196584 C157.443195,175.361126 157.476587,175.528086 157.5,175.696584 C157.6,175.796584 157.5,175.796584 157.5,175.996584 C157.5,176.196584 157.7,177.296584 157,176.796584 L157.2,177.296584 C156.4,177.096584 156,177.096584 155.7,177.696584 C155.4,178.296584 155.7,177.996584 155.2,177.396584 C154.7,176.796584 155,177.696584 154.6,177.396584 C154.671707,177.737759 154.772063,178.072278 154.9,178.396584 C154.9,178.896584 154.4,178.296584 154.3,178.696584 C154.2,179.096584 154.1,178.396584 154.2,178.496584 C154.3,178.596584 154.1,178.996584 154.1,179.096584 C153.952899,179.378774 153.851633,179.682571 153.8,179.996584 L153.3,179.996584 C152.8,179.496584 152.6,179.896584 151.9,178.996584 C151.719558,178.719816 151.584521,178.415983 151.5,178.096584 C151.4,177.696584 151.4,178.096584 151.3,177.696584 C151.2,177.296584 151.3,177.296584 151.3,177.396584 C151.3,177.496584 151.5,177.496584 151.6,177.596584 C151.7,177.696584 152.1,177.596584 152.5,177.696584 C152.9,177.796584 152.4,177.296584 152.7,177.596584 C152.649692,177.064437 152.649692,176.528731 152.7,175.996584 C153.1,176.296584 152.8,175.596584 153.4,176.196584 C153.1,175.096584 153.4,175.096584 153.7,174.896584 C154,174.696584 154.5,174.696584 154.9,174.796584 C155.3,174.896584 155.1,174.596584 155.6,175.196584 C156.1,175.796584 155.8,175.096584 156,175.196584 C156.2,175.296584 156,174.996584 155.9,174.796584 C155.8,174.596584 156.3,174.696584 156.1,173.996584 C155.9,173.296584 156.5,173.996584 156.2,173.296584 C155.9,172.596584 156.6,173.596584 156.4,173.196584 C156.2,172.796584 156.2,172.896584 156.4,173.196584 C156.6,173.496584 156.4,172.996584 156.8,173.496584 C157.2,173.996584 156.8,173.196584 157.3,173.796584 Z" fill="#592BD8"></path>
            <path d="M169.2,167.696584 C169.7,168.496584 169.3,167.996584 169.4,168.196584 L169.6,168.596584 C169.5,168.596584 169.6,168.796584 169.3,168.496584 C169,168.196584 169.4,168.796584 169.5,168.996584 L169.5,169.396584 C169.6,169.596584 169.5,169.596584 169.6,169.696584 C169.7,169.796584 169.9,170.896584 169.4,170.396584 L169.6,170.796584 C169,170.396584 168.7,170.296584 168.6,170.796584 C168.5,171.296584 168.7,171.096584 168.2,170.496584 C167.7,169.896584 168.1,170.696584 167.8,170.496584 C167.975339,170.740094 168.110395,171.010206 168.2,171.296584 C168.3,171.796584 167.9,171.196584 167.9,171.496584 L167.9,171.296584 C168.2,171.896584 168,171.696584 167.9,171.796584 C167.8,171.896584 168,172.296584 168,172.596584 L167.7,172.596584 C167.2,172.096584 167.2,172.496584 166.5,171.596584 L166,170.796584 C165.8,170.396584 165.9,170.696584 165.7,170.396584 C165.5,170.096584 165.6,169.896584 165.7,170.096584 L165.9,170.296584 C165.9,169.996584 166.3,170.296584 166.5,170.496584 C166.7,170.696584 166.4,170.096584 166.7,170.396584 C166.486159,169.9216 166.351059,169.414976 166.3,168.896584 C166.6,169.196584 166.3,168.496584 166.8,169.196584 C166.4,168.196584 166.6,168.096584 166.8,167.996584 C167,167.896584 167.3,167.996584 167.7,168.096584 C168.1,168.196584 167.7,167.996584 168.2,168.596584 C168.7,169.196584 168.3,168.496584 168.5,168.696584 C168.7,168.896584 168.4,168.496584 168.3,168.296584 C168.2,168.096584 168.6,168.296584 168.4,167.596584 C168.2,166.896584 168.7,167.696584 168.4,167.096584 C168.1,166.496584 168.7,167.396584 168.5,166.996584 L168.5,166.996584 C168.7,167.196584 168.5,166.796584 168.9,167.396584 C169.3,167.996584 168.8,167.096584 169.2,167.696584 Z" fill="#592BD8"></path>
            <path d="M50.4,131.596584 C49.6,131.996584 49.9,131.096584 49.6,130.896584 C49.3,130.696584 49.1,130.396584 48.8,130.196584 C48.5,129.996584 48.3,129.296584 48.6,128.996584 C48.9,128.696584 47.9,127.996584 47.5,127.496584 C47.1,126.996584 46.9,127.096584 46.7,126.796584 C46.5,126.496584 46.3,126.196584 46.1,125.896584 C45.9,125.596584 43.5,122.796584 43.4,120.796584 C43.1,120.496584 42.7,120.396584 42.5,120.096584 C41.875206,117.116675 40.7238375,114.272118 39.1,111.696584 C39,110.896584 38.3,110.696584 38.8,109.996584 C37.9635189,108.955629 37.4121391,107.715024 37.2,106.396584 C36.635029,106.156668 36.0984143,105.854823 35.6,105.496584 C34.6,104.496584 34.7,103.196584 33.6,102.096584 C32.5,100.996584 33.9,101.796584 33.7,101.796584 C33.5,101.796584 32.6,100.996584 32.2,100.596584 C31.3231275,99.8227354 30.2509757,99.3039523 29.1,99.0965839 C28.6039618,98.5794963 27.9165129,98.2900441 27.2,98.2965839 C26.4224362,97.9209526 25.5622248,97.7489103 24.7,97.7965839 L21.8,97.4965839 C21.4,96.7965839 22,96.8965839 22,96.3965839 C22,95.8965839 21.1,96.4965839 21.5,95.9965839 C21.9,95.4965839 22.2,95.3965839 22.4,95.5965839 C22.6,95.7965839 23.3,95.4965839 23.7,95.4965839 C25.3850753,95.0971835 27.1572613,95.3098459 28.7,96.0965839 L29.8,96.3965839 C30.1470214,96.3715573 30.4704303,96.5736878 30.6,96.8965839 C32,96.7965839 33.8,97.9965839 35.3,99.0965839 C36.8,100.196584 37.1,101.096584 37.1,102.596584 C39,103.796584 39.7,105.396584 40.9,107.896584 C42.1,110.396584 43.1,112.696584 44,115.396584 C43.9,115.996584 44.8,116.896584 44.2,117.496584 C43.6,118.096584 45.1,119.296584 45.1,120.096584 C45.1,120.896584 45.5,120.396584 45.9,120.596584 C46.2060978,122.123862 46.9740862,123.520205 48.1,124.596584 C48.9,125.996584 48.8,126.596584 49.8,127.396584 C50.8,128.196584 49.7,128.296584 50.3,128.696584 C50.9,129.096584 50.8,128.896584 50.4,129.096584 C50,129.296584 51,129.796584 50.4,130.296584 C49.8,130.796584 51.1,131.296584 50.4,131.596584 Z" fill="#83FFDE"></path>
            <path d="M52.6,132.196584 C53.1,132.796584 52.7,132.396584 52.8,132.596584 L53.1,132.896584 C53.1,132.896584 53.2,133.096584 52.9,132.796584 C52.6,132.496584 53,133.096584 53.1,133.296584 L53.4,133.596584 L53.4,133.896584 C53.7,134.296584 54.1,134.896584 53.6,134.396584 L53.9,134.796584 C53.3,134.496584 53,134.496584 53.2,134.896584 C53.4,135.296584 53.3,135.096584 52.7,134.696584 C52.1,134.296584 52.8,134.896584 52.4,134.696584 L53.1,135.296584 C53.4,135.696584 52.8,135.296584 53,135.496584 L52.9,135.496584 C53.4,135.896584 53.2,135.796584 53.2,135.896584 L53.7,136.396584 L53.4,136.396584 C52.9223956,136.305028 52.4538824,136.171167 52,135.996584 L51.2,135.496584 L50.8,135.296584 C50,134.896584 50.4,134.996584 50.6,135.096584 L50.8,135.096584 C50.7,134.796584 51.1,134.996584 51.4,134.996584 C51.7,134.996584 51.1,134.696584 51.5,134.896584 C51.1137155,134.581796 50.7766576,134.211032 50.5,133.796584 C50.9,133.996584 50.3,133.496584 51,133.896584 C50.2,133.196584 50.4,133.096584 50.5,132.896584 C50.6,132.696584 50.9,132.696584 51.3,132.696584 L51.9,133.096584 C51.6,132.696584 52,132.996584 52.2,133.096584 C52.4,133.196584 52.1,132.996584 51.9,132.796584 C51.7,132.596584 52.2,132.696584 51.8,132.196584 C51.4,131.696584 52.1,132.196584 51.7,131.696584 C51.3,131.196584 52,131.896584 51.7,131.596584 C51.4,131.296584 51.5,131.296584 51.8,131.596584 C52.1,131.896584 51.7,131.396584 52.2,131.896584 C52.7,132.396584 52,131.596584 52.6,132.196584 Z" fill="#83FFDE"></path>
            <path d="M178.3,96.2965839 C179.1,96.3965839 178.5,96.7965839 178.5,97.0965839 C178.5,97.3965839 178.6,97.5965839 178.8,97.8965839 C179,98.1965839 178.7,98.6965839 178.3,98.7965839 C177.9,98.8965839 178.2,99.6965839 178.3,100.296584 C178.4,100.896584 178.5,100.796584 178.5,101.096584 C178.550352,101.394471 178.550352,101.698697 178.5,101.996584 C178.6,103.296584 178.5,105.396584 177.3,106.596584 C176.1,107.796584 177.6,107.196584 177.5,107.496584 C175.978177,109.473704 174.826321,111.70966 174.1,114.096584 C173.5,114.496584 173.9,115.096584 173.1,115.096584 C172.812566,116.144789 172.221003,117.08433 171.4,117.796584 C171.577911,118.277795 171.679144,118.783962 171.7,119.296584 C171.6,120.496584 170.5,120.996584 170.1,122.196584 C169.7,123.396584 169.7,122.096584 169.8,122.196584 C169.9,122.296584 169.5,123.396584 169.3,123.996584 C169.1,124.596584 168.5,125.996584 168.1,127.296584 C167.53406,127.77362 167.059663,128.349673 166.7,128.996584 C165.3,129.896584 164.5,131.496584 162.8,132.096584 C161.1,132.696584 162.5,131.496584 162.2,131.196584 C161.9,130.896584 161.7,131.696584 161.7,131.096584 C161.7,130.496584 161.7,130.396584 161.9,130.396584 C162.066661,130.089707 162.358733,129.870653 162.7,129.796584 C163.1,128.696584 164.3,127.796584 165.2,126.896584 C166.1,125.996584 165.4,125.796584 166.1,125.496584 C166.8,125.196584 166.6,122.996584 166.8,121.596584 C167,120.196584 167.5,119.796584 168.7,119.396584 C168.5,117.496584 169.2,116.296584 170.2,114.496584 C171.2,112.696584 172.1,110.796584 173.2,108.896584 C173.8,108.696584 173.7,107.696584 174.5,107.796584 C175.3,107.896584 175.1,106.296584 175.5,105.896584 C175.9,105.496584 175.5,105.496584 175.3,105.096584 C176.019317,104.081749 176.306997,102.823148 176.1,101.596584 C176.3,100.296584 176.8,100.096584 176.4,99.0965839 C176,98.0965839 177,98.5965839 176.7,97.9965839 C176.4,97.3965839 176.4,97.5965839 176.8,97.6965839 C177.2,97.7965839 176.8,96.9965839 177.5,96.9965839 C178.2,96.9965839 177.6,96.0965839 178.3,96.2965839 Z" fill="#DAC2FF"></path>
            <path d="M186.4,92.7965839 C186.3,93.6965839 186.3,93.1965839 186.2,93.2965839 C186.1,93.3965839 186.2,93.5965839 186.1,93.7965839 L186.1,93.4965839 C186,93.9965839 186,93.7965839 185.9,93.9965839 C185.856805,94.1611257 185.823413,94.3280858 185.8,94.4965839 C185.8,94.5965839 185.7,94.5965839 185.7,94.6965839 C185.7,94.7965839 185.3,95.8965839 185.3,95.0965839 C185.276587,95.2650819 185.243195,95.432042 185.2,95.5965839 C185,94.9965839 184.9,94.6965839 184.7,95.0965839 C184.5,95.4965839 184.6,95.2965839 184.6,94.5965839 C184.6,93.8965839 184.5,94.6965839 184.4,94.2965839 C184.417508,94.6092792 184.348296,94.9207338 184.2,95.1965839 C184.1,95.6965839 184.1,94.9965839 184,95.1965839 L184,94.9965839 C183.9,95.5965839 183.9,95.3965839 183.8,95.3965839 C183.66338,95.6124626 183.562106,95.8487704 183.5,96.0965839 C183.4,95.8965839 183.4,95.7965839 183.3,95.8965839 C183.2,95.9965839 183.1,95.4965839 183.1,94.3965839 C183.136113,94.0578614 183.203058,93.7231405 183.3,93.3965839 C183.4,92.9965839 183.3,93.2965839 183.3,92.8965839 C183.3,92.4965839 183.4,92.4965839 183.4,92.6965839 C183.4,92.8965839 183.5,92.7965839 183.5,92.9965839 C183.5,93.1965839 183.6,93.1965839 183.7,93.4965839 C183.8,93.7965839 183.8,93.0965839 183.8,93.4965839 L184.3,92.0965839 C184.3,92.4965839 184.5,91.7965839 184.4,92.5965839 C184.7,91.5965839 184.8,91.5965839 184.9,91.6965839 C185,91.7965839 185.2,91.8965839 185.4,92.1965839 C185.6,92.4965839 185.5,92.1965839 185.4,92.9965839 C185.3,93.7965839 185.5,92.9965839 185.5,93.1965839 C185.5,93.3965839 185.6,92.9965839 185.6,92.7965839 C185.6,92.5965839 185.8,92.8965839 186,92.2965839 C186.2,91.6965839 186.1,92.4965839 186.2,91.8965839 C186.3,91.2965839 186.2,92.2965839 186.3,91.8965839 L186.3,91.8965839 C186.4,92.0965839 186.4,91.6965839 186.3,92.3965839 C186.2,93.0965839 186.4,92.0965839 186.4,92.7965839 Z" fill="#DAC2FF"></path>
            <path d="M196.9,99.0965839 C197.5,99.6965839 197.1,99.3965839 197.2,99.4965839 L197.5,99.7965839 C197.5,99.7965839 197.5,99.9965839 197.3,99.6965839 C197.1,99.3965839 197.4,99.9965839 197.5,100.096584 C197.622444,100.23513 197.693118,100.411813 197.7,100.596584 L197.7,100.796584 C197.9,101.296584 198,102.096584 197.5,101.496584 L197.5,101.996584 C196.9,101.596584 196.7,101.396584 196.4,101.796584 C196.1,102.196584 196.4,102.096584 196.2,101.296584 C196,100.496584 196,101.496584 195.9,101.096584 C195.902751,101.440118 195.834668,101.780533 195.7,102.096584 C195.6,102.496584 195.5,101.796584 195.3,101.996584 C195.1,102.196584 195.4,101.596584 195.3,101.796584 C195.2,101.996584 195.1,102.196584 195,102.196584 L194.3,102.796584 C194.3,102.496584 194.2,102.396584 194.1,102.396584 C194,102.396584 193.8,101.896584 194.2,100.896584 C194.6,99.8965839 194.5,100.496584 194.8,100.096584 C195.1,99.6965839 194.8,99.8965839 195,99.6965839 C195.2,99.4965839 195.3,99.2965839 195.2,99.4965839 C195.1,99.6965839 195.2,99.5965839 195.1,99.6965839 C195,99.7965839 195.1,99.9965839 195.1,100.196584 C195.1,100.396584 195.3,99.8965839 195.2,100.296584 C195.438359,99.8587147 195.607049,99.3863846 195.7,98.8965839 C195.7,99.3965839 195.8,98.5965839 195.8,99.3965839 L195.8,98.4965839 C195.9,98.8965839 195.9,98.5965839 196,98.8965839 C196.1,99.1965839 196,98.7965839 196.3,99.5965839 C196.6,100.396584 196.3,99.4965839 196.5,99.6965839 L196.3,99.2965839 C196.5,99.5965839 196.5,99.3965839 196.2,98.7965839 L196.1,98.7965839 L195.9,98.5965839 L196,98.5965839 L196.2,98.8965839 L196.9,99.0965839 Z" fill="#DAC2FF"></path>
            <path d="M44.8,79.4965839 C44.7,80.2965839 43.4,78.5965839 42.7,78.0965839 C42,77.5965839 41.3,76.8965839 40.8,76.3965839 L39.6,74.7965839 C39.3336363,74.36124 39.1315499,73.8897051 39,73.3965839 L38.3,72.4965839 L37.7,71.2965839 C37.2898476,70.4960705 36.9550713,69.6591296 36.7,68.7965839 C36.3069378,68.0228 35.9726607,67.2205349 35.7,66.3965839 C35.4084714,65.4110616 35.1747403,64.4093567 35,63.3965839 C34.508103,60.6880983 34.4743001,57.9162596 34.9,55.1965839 C35.3183931,52.2188162 36.4885254,49.3967324 38.3,46.9965839 C38.4111165,46.7512382 38.5450383,46.516875 38.7,46.2965839 L39,45.5965839 L39.8,44.1965839 C40.7671037,43.1624245 41.9669893,42.3739283 43.3,41.8965839 C43.9758032,41.6716585 44.6938883,41.6032694 45.4,41.6965839 C46.196496,41.7495718 46.9287196,42.1522948 47.4,42.7965839 C47.8088816,43.3882019 48.0507002,44.0791122 48.1,44.7965839 C48.1,45.3965839 48,45.8965839 48,46.3965839 C47.9060469,47.4476474 47.705004,48.4863689 47.4,49.4965839 C46.7490983,51.5719316 45.6575341,53.4821689 44.2,55.0965839 C42.4709106,56.9742439 40.1326604,58.178797 37.6,58.4965839 C36.5815475,58.4709346 35.5717197,58.30263 34.6,57.9965839 L33.5,57.5965839 C33.1895815,57.4185691 32.9176454,57.180625 32.7,56.8965839 C30.9395212,55.8838012 29.434377,54.4812806 28.3,52.7965839 C27.3154686,51.1667792 26.6376285,49.3705028 26.3,47.4965839 C25.5883587,46.1711748 25.0505914,44.7595357 24.7,43.2965839 C24.41654,41.3756646 24.3829274,39.426133 24.6,37.4965839 C24.9,35.5965839 25.3,33.5965839 25.8,31.2965839 C25.8,31.3965839 26.2,31.0965839 26.1,30.8965839 C26.1157189,29.9653125 26.3198187,29.0468635 26.7,28.1965839 C27.1,26.9965839 27.6,25.7965839 28,24.8965839 C28.6902823,23.17944 29.4919889,21.5092179 30.4,19.8965839 C31.4897213,17.8647145 32.6915763,15.8950077 34,13.9965839 L39.1,7.89658385 C41.1655903,5.79834165 43.444612,3.92150028 45.9,2.29658385 C47.2002705,1.46258967 48.6151368,0.822531112 50.1,0.396583854 C51.4976584,0.00313346769 52.9612477,-0.0989774115 54.4,0.096583854 C54.8,0.696583854 53.3,0.496583854 53.2,0.896583854 C53.1,1.29658385 55.6,0.896583854 54,1.19658385 C54.2,1.59658385 53.7,1.59658385 53.1,1.69658385 C52.6013637,1.74880924 52.0986363,1.74880924 51.6,1.69658385 L48.5,2.69658385 C44.9,4.79658385 41.3,8.29658385 38.2,11.7965839 C36.6,13.6965839 36.2,14.7965839 34.8,16.1965839 L31.9,21.6965839 C30.8447435,23.8175415 29.9748376,26.0257642 29.3,28.2965839 C28.5028727,29.980862 27.931281,31.7628833 27.6,33.5965839 C27.3,34.9965839 27.1,36.3965839 26.7,37.9965839 C26.813607,40.6260344 27.1819987,43.2382658 27.8,45.7965839 C28.15044,47.1813164 28.653521,48.5228659 29.3,49.7965839 C29.9428324,51.2569966 30.8593307,52.5808275 32,53.6965839 C34.1249603,56.213587 37.7484112,56.8455843 40.6,55.1965839 C43.551549,53.3010168 45.4968688,50.1811644 45.9,46.6965839 C46.0989475,45.9089526 46.0989475,45.0842151 45.9,44.2965839 C45.8191985,44.0939393 45.6799651,43.9198976 45.5,43.7965839 L44.9,43.3965839 C43.8287153,43.7132391 42.8391592,44.2592011 42,44.9965839 C41.5,45.3965839 41.1,45.9965839 40.6,46.3965839 L40,47.0965839 L39.5,47.7965839 C39.4,48.7965839 39,48.7965839 38.8,49.7965839 C36.7039984,53.4958161 35.9614888,57.8094437 36.7,61.9965839 C36.7541913,62.906542 36.8880369,63.8099993 37.1,64.6965839 C37.1165207,65.4138625 37.2516816,66.1234572 37.5,66.7965839 L37.7,67.6965839 L38,68.4965839 C38.2596391,69.1159299 38.5603066,69.717265 38.9,70.2965839 C39.1866206,70.8744749 39.4208904,71.476883 39.6,72.0965839 C39.8272463,72.6062024 40.1307201,73.0782727 40.5,73.4965839 C40.8,74.1965839 41.4,74.1965839 41.2,74.4965839 C41,74.7965839 42.7,76.1965839 42.7,76.9965839 L43.4,77.7965839 L44.1,78.3965839 C44.6,78.8965839 44.9,79.2965839 44.8,79.4965839 Z" fill="#CCCFDB"></path>
            <path d="M82.1,30.9965839 C81.5,31.3965839 81.7,30.9965839 81.6,30.8965839 C81.5,30.7965839 81.3,30.7965839 81.1,30.7965839 C80.9,30.7965839 80.9,30.5965839 81.1,30.3965839 C81.3,30.1965839 80.7,30.0965839 80.4,29.9965839 L80,29.9965839 L79.6,29.6965839 C79,29.3965839 78.1,28.9965839 78.3,28.0965839 L77.8,28.0965839 C77.7310921,26.9752653 77.2710541,25.9136391 76.5,25.0965839 C76.6,24.6965839 76.1,24.7965839 76.5,24.3965839 C76.114306,24.082786 75.9239886,23.5879607 76,23.0965839 L75.1,23.0965839 C74.6,22.7965839 74.8,22.1965839 74.4,21.7965839 C74,21.3965839 74.6,21.5965839 74.5,21.5965839 C74.4,21.5965839 74,21.2965839 73.8,21.1965839 C73.4454904,20.7831884 73.0426042,20.4138761 72.6,20.0965839 C72.5932837,19.7731542 72.4886847,19.4593574 72.3,19.1965839 C72.4,18.3965839 71.8,17.7965839 72.2,16.7965839 C72.6,15.7965839 72.6,16.7965839 72.9,16.5965839 C73.2,16.3965839 72.8,16.2965839 73.1,16.2965839 C73.4,16.2965839 73.6,16.3965839 73.5,16.4965839 C73.6170001,16.642717 73.6170001,16.8504507 73.5,16.9965839 C73.9,17.3965839 73.9,18.0965839 74.1,18.6965839 C74.3,19.2965839 74.5,18.8965839 74.4,19.2965839 C75.0287372,19.5352932 75.6317902,19.8368197 76.2,20.1965839 C76.2,20.8965839 76.8,20.7965839 76.5,21.4965839 C76.2,22.1965839 77.8,22.2965839 78.2,23.0965839 C78.6,23.8965839 79,24.7965839 79.3,25.7965839 C79.6,26.7965839 79.7,26.2965839 79.2,26.6965839 C78.7,27.0965839 79.6,27.2965839 79.5,27.5965839 C79.4,27.8965839 79.7,27.6965839 80,27.6965839 C80.3,27.6965839 80.4,28.5965839 81.1,28.8965839 C81.8,29.1965839 81.4,29.5965839 82,29.6965839 C82.6,29.7965839 81.8,30.0965839 82.2,30.0965839 C82.6,30.0965839 82.5,30.0965839 82.3,30.2965839 C82.1,30.4965839 82.6,30.4965839 82.2,30.7965839 C81.8,31.0965839 82.5,30.6965839 82.1,30.9965839 Z" fill="#CCCFDB"></path>
            <path d="M104.6,27.1965839 C103.9,27.0965839 104.4,26.8965839 104.3,26.7965839 C104.2,26.6965839 104.1,26.4965839 104,26.2965839 C103.9,26.0965839 103.9,25.9965839 104.2,25.8965839 C104.5,25.7965839 104.1,25.3965839 104,25.1965839 L103.7,24.7965839 L103.5,24.2965839 C103.2,23.6965839 102.9,22.6965839 103.5,22.0965839 C104.1,21.4965839 103.2,21.7965839 103.2,21.5965839 C103.774966,20.5612899 104.019243,19.3748031 103.9,18.1965839 C104.2,17.8965839 103.7,17.6965839 104.3,17.5965839 C104.185415,17.0766355 104.294249,16.5324651 104.6,16.0965839 L103.9,15.3965839 C103.6,14.8965839 104.2,14.4965839 104,13.8965839 C103.8,13.2965839 104.3,13.8965839 104.2,13.7965839 C104.1,13.6965839 103.9,13.1965839 103.9,12.9965839 L103.4,11.2965839 C103.612035,11.0095678 103.685334,10.6430738 103.6,10.2965839 C104.1,9.59658385 103.9,8.69658385 104.8,7.99658385 C105.7,7.29658385 105.1,8.19658385 105.5,8.19658385 C105.9,8.19658385 105.6,7.89658385 105.8,8.09658385 C106,8.29658385 106.2,8.39658385 106,8.49658385 C105.8,8.59658385 105.9,8.79658385 105.8,8.89658385 C105.7,8.99658385 105.6,10.1965839 105.4,10.7965839 C105.2,11.3965839 105.7,11.2965839 105.4,11.5965839 C105.812305,12.1851021 106.148318,12.8235275 106.4,13.4965839 C106,14.0965839 106.6,14.3965839 106,14.8965839 C106.558397,15.6013018 106.744398,16.531307 106.5,17.3965839 C106,18.3965839 106.2,19.3965839 105.8,20.4965839 C105.4,21.5965839 105.8,21.1965839 105.2,21.1965839 C104.6,21.1965839 105.1,21.9965839 104.9,22.2965839 C104.7,22.5965839 105,22.3965839 105.2,22.5965839 C104.914914,23.1851105 104.992679,23.8849913 105.4,24.3965839 C105.4,25.0965839 105.1,25.1965839 105.5,25.6965839 C105.9,26.1965839 105.2,25.9965839 105.4,26.1965839 C105.6,26.3965839 105.7,26.3965839 105.4,26.3965839 C105.1,26.3965839 105.5,26.6965839 105,26.7965839 C104.5,26.8965839 105.1,27.1965839 104.6,27.1965839 Z" fill="#CCCFDB"></path>
            <path d="M124.1,30.6965839 C123.4,30.4965839 123.9,30.3965839 123.9,30.1965839 C123.9,29.9965839 123.8,29.8965839 123.6,29.6965839 C123.4,29.4965839 123.7,29.2965839 124,29.2965839 C124.3,29.2965839 124,28.7965839 123.9,28.4965839 C123.8,28.1965839 123.7,28.0965839 123.7,27.9965839 C123.7,27.8965839 123.7,27.6965839 123.7,27.4965839 C123.7,27.2965839 123.3,25.5965839 124.1,25.0965839 C124.9,24.5965839 123.9,24.6965839 123.9,24.5965839 C124.710179,23.5774872 125.259403,22.3760609 125.5,21.0965839 C125.8,20.7965839 125.4,20.4965839 126.1,20.4965839 C126.075957,19.9125882 126.336968,19.3532777 126.8,18.9965839 C126.551631,18.7906324 126.376289,18.5100854 126.3,18.1965839 C126.1,17.4965839 126.8,17.2965839 126.8,16.4965839 C126.8,15.6965839 127.1,16.5965839 127,16.4965839 C126.9,16.3965839 126.9,15.8965839 127,15.5965839 C127.1,15.2965839 127.1,14.3965839 127.1,13.6965839 C127.325895,13.3963084 127.495317,13.0574654 127.6,12.6965839 C128.3,12.0965839 128.4,11.1965839 129.4,10.6965839 C130.4,10.1965839 129.7,10.9965839 130,11.0965839 C130.3,11.1965839 130.3,10.7965839 130.4,11.0965839 C130.5,11.3965839 130.6,11.4965839 130.5,11.4965839 C130.4,11.4965839 130.3,11.7965839 130.1,11.8965839 C129.9,11.9965839 129.5,13.1965839 129.1,13.7965839 C128.7,14.3965839 129.2,14.3965839 128.9,14.4965839 C129.104626,15.2459408 129.205565,16.0198107 129.2,16.7965839 C128.7,17.2965839 129.1,17.7965839 128.4,18.0965839 C127.7,18.3965839 128.6,19.7965839 128.2,20.8965839 C127.8,21.9965839 127.4,22.8965839 126.8,23.8965839 C126.2,24.8965839 126.6,24.5965839 126,24.4965839 C125.4,24.3965839 125.7,25.2965839 125.5,25.5965839 C125.3,25.8965839 125.6,25.7965839 125.7,25.9965839 C125.28201,26.5370915 125.168879,27.253585 125.4,27.8965839 C125.3,28.5965839 125,28.6965839 125.3,29.2965839 C125.6,29.8965839 124.9,29.4965839 125.1,29.7965839 C125.3,30.0965839 125.4,30.0965839 125.1,29.9965839 C124.8,29.8965839 125.1,30.3965839 124.6,30.2965839 C124.1,30.1965839 124.6,30.7965839 124.1,30.6965839 Z" fill="#CCCFDB"></path>
            <path d="M141.8,37.4965839 C141.2,37.1965839 141.6,37.2965839 141.6,37.1965839 C141.6,37.0965839 141.5,36.8965839 141.4,36.7965839 C141.3,36.6965839 141.4,36.5965839 141.7,36.6965839 C142,36.7965839 141.6,36.2965839 141.6,36.0965839 C141.6,35.8965839 141.4,35.8965839 141.4,35.7965839 C141.4,35.6965839 141.4,35.5965839 141.3,35.4965839 C141.2,35.3965839 141,34.2965839 141.7,34.1965839 C142.4,34.0965839 141.5,33.8965839 141.5,33.7965839 C142.210157,33.565138 142.718829,32.9390805 142.8,32.1965839 C143.1,32.1965839 142.8,31.8965839 143.3,32.0965839 C143.296406,31.7458919 143.552884,31.4466669 143.9,31.3965839 L143.5,30.7965839 C143.4,30.2965839 143.9,30.3965839 144,29.9965839 C144.1,29.5965839 144.2,30.0965839 144.1,29.9965839 C144,29.8965839 144,29.5965839 144.1,29.3965839 L144.1,28.2965839 C144.321455,28.2517595 144.507657,28.1027982 144.6,27.8965839 C145.2,27.7965839 145.2,27.2965839 146.2,27.2965839 C147.2,27.2965839 146.4,27.5965839 146.7,27.7965839 C147,27.9965839 146.9,27.6965839 147.1,27.8965839 C147.3,28.0965839 147.3,28.1965839 147.1,28.1965839 C146.9,28.1965839 147,28.2965839 146.8,28.2965839 C146.6,28.2965839 146.3,28.8965839 146,29.0965839 C145.7,29.2965839 146.1,29.4965839 145.7,29.3965839 C145.925384,29.8673843 146.061034,30.3760721 146.1,30.8965839 C145.7,31.0965839 146.1,31.4965839 145.4,31.3965839 C144.7,31.2965839 145.6,32.4965839 145.3,32.9965839 C145,33.4965839 144.6,33.8965839 144.1,34.3965839 C143.6,34.8965839 143.9,34.6965839 143.4,34.4965839 C142.9,34.2965839 143.2,34.8965839 142.9,34.8965839 C142.6,34.8965839 143,35.0965839 143.1,35.1965839 C143.2,35.2965839 142.7,35.6965839 142.9,36.2965839 C143.1,36.8965839 142.6,36.5965839 142.9,37.0965839 C143.2,37.5965839 142.5,37.0965839 142.7,37.3965839 L142.7,37.3965839 C142.5,37.4965839 142.7,37.6965839 142.2,37.4965839 C141.7,37.2965839 142.3,37.7965839 141.8,37.4965839 Z" fill="#CCCFDB"></path>
            <path d="M170.5,78.0965839 C170.3,77.6965839 170.8,77.7965839 171.4,77.7965839 C172.072935,77.8968937 172.760254,77.8281617 173.4,77.5965839 C173.8,77.2965839 175.3,76.7965839 175.8,76.1965839 C176.3,75.5965839 177.9,74.0965839 178.5,73.6965839 C179.203784,72.0286348 179.7073,70.2831147 180,68.4965839 C180,67.6965839 179.9,66.8965839 179.9,65.8965839 C179.90412,64.9309175 179.699446,63.9757718 179.3,63.0965839 C178.85932,62.2100165 177.859279,61.7516644 176.9,61.9965839 C175.725622,62.4059386 174.710634,63.1759297 174,64.1965839 C173.608587,64.7270201 173.273448,65.2967564 173,65.8965839 C172.767554,66.360723 172.66395,66.8787455 172.7,67.3965839 C172.7,67.5965839 172.8,67.6965839 172.8,67.7965839 C172.894427,67.9224868 173.042621,67.9965839 173.2,67.9965839 C173.687401,68.0636701 174.182884,67.9574951 174.6,67.6965839 C175.003741,67.4420007 175.345417,67.1003244 175.6,66.6965839 L176.6,65.6965839 C178.307397,64.24796 179.760741,62.5242261 180.9,60.5965839 C181.974046,58.9181121 182.815071,57.1014985 183.4,55.1965839 C183.930984,53.2407935 184.2,51.223172 184.2,49.1965839 C184.159063,48.1203889 184.025232,47.049742 183.8,45.9965839 C183.583965,44.9277907 183.102524,43.9305199 182.4,43.0965839 C181.98109,42.4558702 181.339929,41.99281 180.6,41.7965839 C179.958036,41.6646312 179.323758,41.497716 178.7,41.2965839 C176.854729,41.5666868 175.084728,42.2134179 173.5,43.1965839 C172.001464,44.0616717 171.084511,45.6663388 171.1,47.3965839 C171.736041,48.5503542 172.765108,49.4374809 174,49.8965839 C174.735198,50.2020808 175.509257,50.4040091 176.3,50.4965839 C177.04581,50.5391944 177.792829,50.4373281 178.5,50.1965839 C180.31578,49.5563806 181.888106,48.3684014 183,46.7965839 C182.9,46.8965839 183.4,46.7965839 183.4,46.4965839 C183.742875,45.7014411 184.143965,44.9326867 184.6,44.1965839 C185.2,43.1965839 185.9,42.0965839 186.3,41.2965839 L186.8,40.2965839 L187.3,39.0965839 C187.708727,38.1919187 188.043164,37.2554955 188.3,36.2965839 C189.043854,34.221468 189.579817,32.0776173 189.9,29.8965839 C190.538437,27.45033 190.808076,24.9224659 190.7,22.3965839 C190.841745,19.6326709 190.537862,16.8639545 189.8,14.1965839 C189.5,13.4965839 189.3,12.7965839 189.1,12.1965839 L188.3,10.1965839 C188,9.29658385 186.6,8.29658385 186.3,8.69658385 L186.1,8.69658385 C186,8.59658385 186.1,8.39658385 186.2,8.29658385 C186.3,8.19658385 186.9,7.99658385 187,7.89658385 C187.1,7.79658385 187.1,7.79658385 186.8,7.69658385 C186.486875,7.67350104 186.173878,7.7430558 185.9,7.89658385 L185.4,8.49658385 L185.4,8.19658385 C185.382408,7.98282337 185.503109,7.78165443 185.7,7.69658385 C185.5,7.69658385 185.5,7.49658385 185.9,7.19658385 C186.343231,7.01128862 186.834932,6.97616716 187.3,7.09658385 C187.979255,7.31066409 188.551406,7.77553677 188.9,8.39658385 C189.219946,8.68355892 189.490256,9.02144651 189.7,9.39658385 C189.8,9.69658385 190,9.89658385 190.1,10.1965839 C190.312058,10.7146579 190.479337,11.2499489 190.6,11.7965839 C191.539207,13.959605 192.146062,16.2521683 192.4,18.5965839 C192.667006,21.02477 192.633419,23.4766227 192.3,25.8965839 C192.219799,26.4595188 192.186351,27.0281283 192.2,27.5965839 L192,28.9965839 C191.971078,29.8940348 191.767268,30.7772127 191.4,31.5965839 C191.2,34.9965839 189.4,40.3965839 187.1,44.7965839 C185.963791,46.4956712 184.693045,48.1008247 183.3,49.5965839 C182.141322,50.952184 180.553114,51.8698152 178.8,52.1965839 C177.293368,52.8770157 175.598474,53.0182568 174,52.5965839 C172.217145,52.1047368 170.68309,50.9631143 169.7,49.3965839 C169.166702,48.4546456 168.923201,47.3762859 169,46.2965839 C169.094618,45.1695957 169.511153,44.0935476 170.2,43.1965839 C171.549155,41.495594 173.405867,40.2694638 175.5,39.6965839 C176.618627,39.4590136 177.75678,39.3251133 178.9,39.2965839 C180.128285,39.2597115 181.341862,39.5717739 182.4,40.1965839 C183.472587,40.7963402 184.342751,41.7013107 184.9,42.7965839 C185.399425,43.8128944 185.768994,44.8880043 186,45.9965839 C186.283444,48.0516399 186.317022,50.1334557 186.1,52.1965839 C185.827735,54.3007054 185.255245,56.3549321 184.4,58.2965839 L183.7,59.6965839 L182.9,61.1965839 C182.51411,62.054912 181.889212,62.7839599 181.1,63.2965839 C180.464145,64.5331139 179.618225,65.6497284 178.6,66.5965839 C177.529622,67.4822398 176.392962,68.2845878 175.2,68.9965839 C174.908531,69.3311375 174.526512,69.5742404 174.1,69.6965839 C173.627834,69.8996617 173.108879,69.9688556 172.6,69.8965839 C172.186673,69.7975159 171.807069,69.5904591 171.5,69.2965839 C171.144223,69.0239618 170.896282,68.6343391 170.8,68.1965839 C170.597182,67.5112749 170.597182,66.7818928 170.8,66.0965839 C171.143123,64.9555187 171.722317,63.8993414 172.5,62.9965839 C173.202555,61.9987855 174.126714,61.1773103 175.2,60.5965839 C175.843175,60.2344614 176.562598,60.0289122 177.3,59.9965839 C178.164327,60.0036016 179.004327,60.2836016 179.7,60.7965839 C180.29797,61.2999882 180.747412,61.9568654 181,62.6965839 C181.169617,63.2540955 181.303226,63.8219327 181.4,64.3965839 C181.450311,65.1957928 181.450311,65.9973749 181.4,66.7965839 C181.31009,68.2709587 181.143196,69.7396279 180.9,71.1965839 C180.644171,71.9627332 180.30902,72.7000667 179.9,73.3965839 L178.9,75.1965839 C178.4,75.8965839 178.2,76.4965839 177.9,76.3965839 L175.9,77.7965839 C175.499263,78.0007367 175.04357,78.0708433 174.6,77.9965839 C173.779042,78.359106 172.896798,78.5627008 172,78.5965839 C171.1,78.5965839 170.5,78.2965839 170.5,78.0965839 Z" fill="#CCCFDB"></path>
            <path d="M61.7,132.796584 C62.4,132.996584 58.7,136.196584 57.1,137.896584 C55.5,139.596584 53.8,141.396584 52.5,142.896584 C51.2,144.396584 47.6,147.996584 46.3,148.796584 C43.8,151.896584 40.6,154.896584 37.4,158.396584 C35.9,159.996584 34.8,161.396584 33.2,163.296584 L33,163.496584 L33,162.796584 L35.4,165.396584 C36.2713948,166.235693 37.2076328,167.004746 38.2,167.696584 C39.2767525,168.63484 40.4124031,169.503278 41.6,170.296584 L45.4,173.096584 L49.7,175.796584 C51.1,176.796584 52.7,177.596584 54.2,178.596584 C60.317954,181.994339 66.6286433,185.032819 73.1,187.696584 C75.9,188.696584 77.5,188.596584 80.3,189.396584 C85.679616,190.869031 91.1614529,191.938658 96.7,192.596584 C101.65129,193.07676 106.630079,193.210419 111.6,192.996584 L118.9,192.396584 L122.7,191.896584 L124.6,191.596584 L126.5,191.296584 C132.117235,190.220009 137.635985,188.681448 143,186.696584 C145.09131,186.052595 147.13054,185.250275 149.1,184.296584 C150.622487,183.507299 152.233939,182.903004 153.9,182.496584 C162.021878,178.086807 169.605731,172.751264 176.5,166.596584 C177.186807,165.875706 177.821727,165.107119 178.4,164.296584 L180.2,161.996584 L180.2,163.496584 L176.5,160.296584 C169.5,153.896584 164.4,147.896584 156,139.796584 C156.2,139.996584 155.9,139.096584 155.4,138.896584 C153.725526,137.695374 152.15348,136.357462 150.7,134.896584 L152.9,134.896584 L146,140.496584 C142.416754,143.340876 138.603672,145.88293 134.6,148.096584 C129.494139,150.838742 124.046431,152.890039 118.4,154.196584 C111.782551,155.259021 105.046338,155.360064 98.4,154.496584 C91.3257485,153.227028 84.4825898,150.901028 78.1,147.596584 C74.8724256,145.85488 71.79517,143.847974 68.9,141.596584 L64.9,138.196584 L63.2,136.396584 C62.7119517,135.873932 62.2765202,135.304522 61.9,134.696584 C61.3,133.296584 63.8,135.996584 64.4,135.996584 C65,135.996584 64.6,135.796584 64.2,135.496584 C63.7813301,135.014273 63.3119598,134.578429 62.8,134.196584 L61.8,133.296584 C61.7,133.196584 62,133.296584 62.9,133.996584 C63.8,134.696584 63,133.596584 63.6,133.996584 L64.5,134.696584 L65.4,135.496584 L68.2,138.196584 C71.1,140.296584 72.9,141.796584 75,143.196584 C79.7899065,146.037153 84.8899267,148.318741 90.2,149.996584 C92.9952121,150.815975 95.832688,151.483617 98.7,151.996584 C101.545382,152.456603 104.418589,152.723878 107.3,152.796584 L111.4,152.596584 L114.7,152.096584 L121.1,150.996584 C125.872581,149.297266 130.489693,147.189454 134.9,144.696584 C137.400554,143.179591 139.805123,141.509752 142.1,139.696584 L143.9,138.296584 L145.6,136.796584 L148.9,133.896584 C149.570994,133.446228 150.206215,132.944738 150.8,132.396584 L152,131.496584 L153,132.496584 C160.1,139.996584 164.1,143.096584 169.3,149.296584 C173.7,153.096584 177.9,156.996584 182.4,161.296584 L183.8,162.596584 L182.5,164.196584 C176.233715,171.112305 168.990537,177.075293 161,181.896584 C156.783123,184.265947 152.405789,186.337662 147.9,188.096584 C143.479938,189.892682 138.934492,191.363267 134.3,192.496584 C124.859741,194.904736 115.141393,196.048071 105.4,195.896584 L97.7,195.396584 C95.5626209,195.29159 93.4464929,194.922107 91.4,194.296584 L86.8,193.696584 L84.3,193.196584 L81.7,192.596584 C80,192.196584 78.3,191.596584 76.7,191.096584 C75.1,190.596584 73.7,189.996584 72.5,189.496584 C71.3,188.996584 69.7,188.696584 67.2,187.996584 C62.2939326,185.846564 57.5189717,183.408997 52.9,180.696584 L49.5,178.696584 L46.1,176.496584 L42.7,174.196584 L39.1,171.696584 L34.5,167.796584 C33.3426474,166.716186 32.2726384,165.545863 31.3,164.296584 L30.2,163.096584 L31.4,161.896584 C34.6,158.696584 36.8,156.396584 40,152.696584 C43.2,148.996584 44.7,148.696584 47.2,145.696584 C48.6,144.396584 49.2,143.296584 49.7,143.396584 C53.2,140.196584 54.1,138.896584 55.4,138.396584 C57.8,136.196584 61.5,132.296584 61.7,132.796584 Z" fill="#2E316A"></path>
            <path d="M63,133.896584 C62.7,134.196584 62.3,133.596584 61.6,132.696584 C61.0390453,131.932154 60.4382129,131.197803 59.8,130.496584 C59.1,130.296584 57.9,128.596584 57.1,127.796584 C56.3,126.996584 54.6,124.396584 54.4,123.496584 C54.2,122.596584 51.6,119.396584 50.2,116.996584 L48.1,113.696584 C47.4217749,112.365612 46.8207795,110.996678 46.3,109.596584 C45.6333333,108.129917 44.9333333,106.429917 44.2,104.496584 C43.649976,102.595568 42.8424907,100.778726 41.8,99.0965839 C40.8410911,97.3330431 39.5508292,95.771147 38,94.4965839 C36.6119682,93.2160723 34.9792161,92.2296179 33.2,91.5965839 L32.1,91.3965839 L29,91.3965839 C23.8,90.7965839 19.4,90.6965839 15.1,90.5965839 L1.8,90.5965839 L2.8,89.4965839 C2.86666667,91.0299172 2.96666667,92.7299172 3.1,94.5965839 C3.3,96.3965839 3.5,98.4965839 3.8,100.596584 C4.1,102.696584 4.7,105.496584 4.4,107.596584 C5.6,113.196584 6.9,118.696584 8.2,123.696584 C8.7,124.696584 9.3,125.496584 9.8,126.396584 L11.4,129.296584 C12,130.596584 12.6,131.796584 13.1,132.996584 C13.6,134.196584 14.3,135.396584 14.8,136.596584 C15.3,137.796584 16.1,139.096584 16.8,140.396584 L17.9,142.396584 L19.3,144.396584 C19.2,144.296584 19.1,144.896584 19.4,145.096584 C19.8505683,145.403949 20.2546886,145.774393 20.6,146.196584 L22,148.096584 L23.5,150.196584 L25,151.996584 L26.6,153.896584 C27.2,154.596584 28,155.296584 28.7,156.196584 C29.4,157.096584 32.1,159.496584 34.1,161.396584 L31.1,161.396584 L34.1,158.196584 C36.6,155.996584 39.3,153.396584 42.2,150.496584 C45.1,147.596584 48.2,145.096584 51.4,142.296584 C54.6,139.496584 57.7,136.496584 61.1,133.796584 C62.2,133.396584 60.4,134.996584 60.7,135.196584 C61,135.396584 63.4,132.596584 62,134.296584 C63.3,133.896584 60.1,136.796584 59.6,137.096584 C59.1,137.396584 56.9,139.696584 55.7,140.796584 C51.5,145.396584 45.7,150.696584 40.6,155.296584 C37.9,157.896584 37.2,159.396584 34.7,161.196584 L33,163.296584 L32.7,163.696584 L32.2,163.296584 C27.7902266,159.551765 23.7086968,155.43678 20,150.996584 C16.1,144.796584 13.9,142.496584 12.2,137.396584 C7.7,130.596584 4.7,123.196584 2.3,111.996584 C0.999831902,104.661612 0.231165324,97.2423084 0,89.7965839 L0,87.8965839 L13.7,87.8965839 C16.1,88.1965839 20.7,87.6965839 22.1,88.4965839 C24.0317489,88.3339469 25.9750057,88.3674514 27.9,88.5965839 L31,88.9965839 L32.5,89.2965839 L33.7,89.7965839 C35.4,89.6965839 35.5,90.0965839 37.1,90.5965839 C40.0070517,92.3744946 42.3885562,94.8940574 44,97.8965839 C44.8190039,99.3034306 45.5213539,100.775021 46.1,102.296584 L47,104.696584 C47.2,105.396584 47.6,106.196584 47.9,106.996584 C49.1,110.196584 49.9,112.196584 50.7,113.896584 C51.5006768,115.622627 52.4721906,117.26415 53.6,118.796584 C54.9,121.096584 54.9,122.096584 56.5,123.596584 C58.1,125.096584 57.7,124.696584 57.5,125.096584 C58.9,127.496584 59.8,127.796584 59.8,128.896584 L60.8,130.096584 C61.1105485,130.604736 61.479748,131.074627 61.9,131.496584 C62.3576797,131.980279 62.6996023,132.561547 62.9,133.196584 C63.1,133.596584 63.1,133.896584 63,133.896584 Z" fill="#2E316A"></path>
            <path d="M181,163.896584 C180.8,163.696584 181.3,163.196584 182,162.596584 C182.7,161.996584 183.6,161.196584 184.1,160.596584 C184.6,159.996584 184.8,159.596584 185.2,158.996584 C185.668813,158.493084 186.103132,157.958538 186.5,157.396584 L188.4,155.196584 C188.851359,154.619649 189.353354,154.084188 189.9,153.596584 C190.4,152.596584 191.2,151.596584 191.9,150.496584 C192.6,149.396584 193.4,148.396584 194.1,147.196584 C194.8,145.996584 195.1,144.996584 195.8,143.796584 L197.8,139.796584 C199.2,136.996584 200.7,133.196584 202.2,129.296584 C203.7,125.396584 205.1,121.196584 206.3,117.596584 C206.8,115.896584 206.6,114.896584 207,113.196584 C208.967689,105.809288 210.141006,98.2330139 210.5,90.5965839 L211.5,91.5965839 L196.6,91.8965839 C193.4,91.5965839 191.7,92.0965839 189.6,91.2965839 C186.827286,91.2278045 184.05325,91.361493 181.3,91.6965839 C180.001676,91.8422583 178.725742,92.1444534 177.5,92.5965839 C176.321337,93.0277384 175.183493,93.5631945 174.1,94.1965839 C172.86249,95.8009677 171.883961,97.5893148 171.2,99.4965839 C170.7,100.696584 170.4,101.896584 170,103.096584 C169.6,104.296584 169.2,105.696584 168.7,106.896584 C168.2,108.096584 166.6,112.196584 165.2,115.496584 C165.3,115.296584 164.7,115.596584 164.7,115.896584 C164.7,116.196584 162.3,121.696584 160.9,124.096584 C158.678377,127.922281 156.206322,131.596957 153.5,135.096584 L153.5,132.196584 L156.9,135.296584 C159.1,137.796584 161.6,140.496584 164.5,143.296584 C167.4,146.096584 169.8,149.296584 172.6,152.396584 C175.4,155.496584 178.3,158.696584 181,161.996584 C181.4,163.196584 179.8,161.296584 179.6,161.596584 C179.4,161.896584 182.2,164.296584 180.5,162.996584 C181,164.296584 178.1,161.096584 177.8,160.496584 C176.489116,159.307811 175.253399,158.038697 174.1,156.696584 C169.6,152.596584 164.4,146.796584 159.7,141.796584 C157.1,139.096584 155.7,138.396584 153.9,135.996584 C153.081231,135.429104 152.311832,134.793514 151.6,134.096584 L151.2,133.796584 L151.5,133.296584 C154.762022,128.833415 157.607302,124.080124 160,119.096584 C161.443285,116.790979 162.649436,114.345174 163.6,111.796584 C164.5,109.796584 165.2,107.896584 166.4,105.596584 C166.518079,104.655224 166.68497,103.720631 166.9,102.796584 C167.072473,101.741205 167.340235,100.703629 167.7,99.6965839 C168.423418,97.5114294 169.541969,95.4777008 171,93.6965839 C171.875035,92.7625168 172.8472,91.9244434 173.9,91.1965839 C175.075061,90.5108391 176.314274,89.941471 177.6,89.4965839 C180.308248,88.6152248 183.156131,88.2422877 186,88.3965839 C194.7,88.9965839 202.8,88.6965839 211.6,88.7965839 L213.6,88.7965839 L213.6,90.6965839 C213.4,93.1965839 213.2,95.9965839 212.9,98.6965839 C212.700014,99.3822288 212.566071,100.085431 212.5,100.796584 C212.415497,101.60396 212.281917,102.405443 212.1,103.196584 C212.045859,104.48892 211.704237,105.752923 211.1,106.896584 C211.1,110.096584 209.5,115.196584 208.4,118.096584 C207.3,120.996584 208.2,119.796584 208,121.296584 C205.7,127.696584 203.8,132.696584 201.1,139.296584 C200.3,140.796584 199.6,142.096584 198.9,143.196584 C198.2,144.296584 197.7,145.096584 197.2,145.996584 L195.8,148.396584 L194.2,151.096584 C193.604149,151.953035 192.934962,152.756059 192.2,153.496584 C191.604412,154.182556 191.069095,154.918617 190.6,155.696584 C189.9,156.496584 189.9,157.196584 189.4,157.196584 C187.4,159.196584 187.2,159.996584 186,160.296584 L183,162.996584 C181.8,163.796584 181.1,164.196584 181,163.896584 Z" fill="#2E316A"></path>
        </g>
    </g>
</svg>