    <svg
      xmlns="http://www.w3.org/2000/svg"
      width="586"
      height="586"
      version="1"
    >
      <g transform="translate(-11.346 -14.183)">
        <path
          fill="#fdfdfd"
          d="M65.24 311.755V76.587h471.173v470.336H65.241V311.755z"
        ></path>
        <path
          fill="#000"
          d="M69.851 593.998c-25.427-2.467-40.956-14.906-47.527-38.07-1.742-6.14-1.824-17.18-1.824-246.428 0-226.776.098-240.382 1.779-246.935 2.655-10.357 7.467-19.302 13.747-25.56 6.65-6.626 12.873-10.12 23.504-13.198L67.5 21.5H307c228.657 0 239.79.082 245.92 1.821 23.9 6.781 35.964 22.015 39.057 49.318.8 7.063 1.033 75.981.82 242.861l-.298 233-2.184 7.654c-3.052 10.694-6.674 17.346-12.666 23.262-6.292 6.212-13.029 9.925-23.325 12.854l-7.824 2.226-234.5.122c-128.975.067-237.942-.211-242.149-.62zm373.89-78.238c12.317-12.305 19.255-19.965 19.248-21.25-.006-1.106-13.506-54.174-30-117.931S403 259.732 403 258.599c0-1.386 18.274-20.373 55.897-58.079 62.056-62.192 61.47-61.491 61.447-73.52-.016-7.858-1.818-12.39-7.29-18.326-5.919-6.42-12.573-9.034-21.514-8.45-4.544.297-8.635 1.26-11.54 2.717-3.154 1.582-21.145 18.869-60.155 57.8l-55.655 55.545-121.717-32.268-121.716-32.268-20.129 20.172c-17.747 17.785-19.93 20.32-18.46 21.425.917.69 45.576 24.406 99.242 52.703 53.665 28.298 97.577 51.902 97.582 52.455.004.552-17.936 18.945-39.869 40.872l-39.876 39.867-31.198-3.786-31.198-3.786-15.913 15.89c-12.39 12.371-15.64 16.147-14.676 17.05.68.637 16.088 8.91 34.238 18.385 18.15 9.474 33.761 17.963 34.692 18.864.93.902 9.585 16.683 19.231 35.07 9.647 18.388 18.008 33.9 18.581 34.473.723.723 5.924-3.856 16.964-14.93L245.89 480.5l-3.44-28.5c-1.891-15.675-3.442-29.837-3.445-31.47-.004-2.58 5.17-8.152 39.228-42.25C299.81 356.675 318.159 339 319.007 339c1.032 0 18.338 32.381 52.376 98 27.959 53.9 51.344 98 51.966 98 .623 0 9.799-8.658 20.392-19.24z"
        ></path>
      </g>
    </svg>