<?xml version="1.0" encoding="UTF-8"?>
<svg width="216px" height="216px" viewBox="0 0 216 216" version="1.1" xmlns="http://www.w3.org/2000/svg" xmlns:xlink="http://www.w3.org/1999/xlink">
    <title>bulb</title>
    <g id="bulb" stroke="none" stroke-width="1" fill="none" fill-rule="evenodd">
        <g transform="translate(21.000000, 3.000000)">
            <path d="M89.4322353,1 C47.9408314,0.781742744 13.5576756,34.4477951 13.0085834,75.879869 C12.7326437,94.1811941 19.1180973,111.960508 30.9788739,125.915379 C42.5413808,139.336396 50.6495522,155.372136 54.5998223,172.631139 L54.6796903,173 L123.336183,173 L123.336183,172.850462 C126.972168,155.840539 134.837937,140.018358 146.20837,126.842516 C165.785159,104.489886 170.506763,72.7886474 158.29164,45.7144407 C146.076517,18.6402339 119.169328,1.16823821 89.4322353,1 Z" id="Path" fill="#EBECF2" fill-rule="nonzero"></path>
            <path d="M88.5,123 C111.972102,123 131,103.972102 131,80.5 C131,57.0278981 111.972102,38 88.5,38 C65.0278981,38 46,57.0278981 46,80.5 C46,103.972102 65.0278981,123 88.5,123 Z" id="Path-2" fill="#FFCD00" fill-rule="nonzero"></path>
            <path d="M31.262905,124.893021 C31.3528231,125.689635 30.4036878,124.654037 29.1847982,123.15043 C27.9659087,121.646822 26.6171374,119.555712 25.7579202,118.360792 C24.8544158,117.416802 24.0693703,116.366869 23.4200501,115.234085 C22.9604688,114.547006 22.550842,113.780265 22.1312242,113.093186 C21.7116065,112.406107 21.3219615,111.738944 20.9922619,111.20123 C19.0939912,107.536808 16.9959027,102.677467 16.7761029,100.556484 C15.6931611,98.0542043 14.8566582,95.4529961 14.2783784,92.7895039 C13.6689336,89.9515689 13.1593978,86.9343959 12.7897346,83.8276039 C12.5699348,82.3936999 12.4700259,81.0494149 12.2901897,79.6652992 C12.1103535,78.2811835 12.0404173,76.8373219 12.0104446,75.1943068 C11.9804719,73.5512918 12.0104446,71.9082768 12.160308,70.2154735 C12.2302443,69.3889872 12.2702079,68.5425855 12.360126,67.6862262 C12.4500441,66.8298668 12.559944,65.9436345 12.6598529,65.0275292 C13.1590653,60.9562645 13.9944743,56.9329949 15.1575774,52.9986678 C16.5281096,48.4438495 18.3452256,44.0345728 20.5826351,39.8346325 C22.9252965,35.4720086 25.7214507,31.3668227 28.9250349,27.5867024 C31.9711998,23.975225 35.3977479,20.7002856 39.1457236,17.8182314 C42.33282,15.1694921 43.6815912,13.6758421 47.138442,11.3955364 C53.7577608,7.35956183 60.9483281,4.33849144 68.4690092,2.43363641 C69.3282264,2.19465241 70.1874437,1.99549907 71.0466609,1.82621874 L73.6043308,1.28850474 C75.3227652,1.0296054 77.0012361,0.691044738 78.6996888,0.541679738 C82.0418122,0.149994519 85.4055329,-0.0296054312 88.770514,0.00396573675 C92.1462915,0.0544941014 95.51597,0.307210686 98.8613209,0.760748405 C100.559774,0.949944072 102.248235,1.30842007 103.976661,1.61710774 C104.835878,1.78638807 105.685104,2.00545674 106.554312,2.20461007 C107.423521,2.40376341 108.292729,2.60291674 109.151946,2.87177374 C112.769153,3.85598907 116.308821,5.10406495 119.742298,6.60589875 C123.52004,8.23126565 127.15589,10.1663781 130.612395,12.3913031 C132.150993,13.3870698 133.419837,14.4624978 134.608754,15.3088994 C135.797671,16.1553011 136.846715,17.0315758 137.825823,17.8182314 C138.804931,18.6048871 139.664148,19.4015004 140.483402,20.2080714 C141.285704,21.0442274 142.039572,21.925248 142.741345,22.8468531 C147.406193,27.3492897 151.433013,32.4649002 154.710441,38.0522101 C157.797003,43.3546912 160.149551,49.0490193 161.704069,54.9802435 C163.540496,59.5005072 164.808977,64.2297808 165.480629,69.0603842 C166.262144,75.2570228 166.161238,81.5326384 165.180902,87.7011362 C164.05558,94.5819123 162.120655,101.306555 159.416154,107.735962 C159.605981,107.307782 158.746764,108.273676 158.586909,108.960755 C157.66014,111.854313 156.360457,114.61574 154.720432,117.17583 C152.717849,120.447665 150.473688,123.566392 148.006548,126.506163 L145.718633,129.393887 C144.869406,130.389653 144.040162,131.534785 143.120999,132.70979 C141.362601,135.109587 139.504294,137.837988 137.725914,140.825288 C134.022815,147.141668 131.00839,153.834799 128.734106,160.79041 C127.165205,164.873802 125.88981,169.063282 124.917583,173.327112 L124.537929,175 L122.839476,175 C118.843117,175 114.636949,175 110.270926,175 C92.487128,174.382625 71.6960693,174.661439 54.1320706,173.576054 L53.5326167,173.576054 L53.4526895,173.068213 L53.4526895,172.898932 C53.5825712,172.510583 53.7424255,172.61016 53.9122708,172.978594 L54.0221707,173.20762 L54.1520524,173.20762 C55.1511422,172.968636 57.8886482,173.018424 58.3082659,172.689821 C59.1974559,172.401049 55.3909237,172.430922 54.1520524,172.391091 L54.7115426,172.839186 C54.6316155,172.401049 54.6316155,172.291515 54.7914698,172.839186 L54.1020979,172.271599 L55.3709419,172.18198 C54.0421525,171.305706 62.9939971,171.743843 64.0330505,171.942996 C69.0284995,171.833462 72.1256779,172.032615 75.5825286,172.18198 C89.5697858,171.942996 106.554312,172.411007 121.780441,172.659948 L122.779531,172.659948 L122.519767,172.869059 C123.418948,169.055273 124.078348,166.316915 124.807683,163.77771 C125.556033,161.087428 126.525085,158.463037 127.705043,155.931068 C129.918547,149.375545 132.87851,143.094432 136.527006,137.210655 C138.651274,133.751728 140.986889,130.426233 143.520635,127.252988 C144.819452,125.609973 146.068314,124.126281 147.227258,122.523097 C148.386202,120.919912 149.47521,119.30677 150.494282,117.693628 C154.04436,112.616539 156.834401,107.051663 158.776736,101.173859 C160.416183,96.3210605 161.727922,91.3643428 162.703159,86.3369359 C163.333768,77.407203 162.54475,68.4342421 160.365289,59.7499658 C159.154419,54.9182113 157.481618,50.2132702 155.36984,45.6996981 C152.94807,40.5226582 149.930539,35.6438333 146.378032,31.1615048 C142.614237,26.2439123 138.2209,21.8384068 133.309937,18.0572154 C128.443148,14.3349324 123.13045,11.2308358 117.494346,8.81650075 C111.794909,6.4178511 105.822703,4.72243696 99.7105473,3.76796374 C93.4121793,2.81578262 87.0208823,2.63187075 80.6778866,3.22029207 C77.3070751,3.42767888 73.9626236,3.94434461 70.6869886,4.76373041 C67.220147,5.61013208 64.083005,6.57602575 62.5643885,6.75526375 C59.3872829,8.16925242 55.1411513,10.1109974 51.054874,12.3713878 C47.316156,14.4266727 43.7361779,16.7565695 40.3446313,19.3417544 C39.2556234,20.6163358 38.5562606,21.2536264 37.8868704,21.9307478 C37.0115473,22.7284858 36.1904784,23.5834161 35.4291095,24.4898681 C30.3525931,29.3657989 26.0685022,34.9995707 22.7306781,41.1888751 C21.1088998,44.2411535 19.7098824,47.4059273 18.5444919,50.6586161 C17.3441997,54.157909 16.412365,57.7430268 15.7570313,61.3830232 C14.6487862,66.8388996 14.1230009,72.3963562 14.1884603,77.9625382 C14.228765,82.231753 14.7822097,86.4807738 15.8369585,90.6187325 C15.9768311,91.3356845 16.0967218,92.0028482 16.2166126,92.6102659 C16.3365034,93.2176835 16.4663851,93.7852705 16.5862758,94.3130269 C16.8060756,95.3685395 16.9959027,96.3045602 17.2356842,97.1808349 C17.6975865,99.0965054 18.3676025,100.956294 19.2338638,102.727255 C19.5627933,103.59213 19.9431209,104.436708 20.3728262,105.256503 C20.6666276,105.64329 20.8246108,106.115663 20.8224166,106.600788 C21.2860818,107.784842 21.8096092,108.944736 22.3909876,110.076013 C22.840578,111.07178 23.2601957,111.748901 23.6098771,112.376234 C23.9162853,112.911765 24.1931125,113.463578 24.4391217,114.029207 C24.6685678,114.505843 24.842864,115.006949 24.9586484,115.522857 C25.2383935,115.98091 25.5281296,116.518624 25.8378474,116.966719 L26.8369372,118.470326 C27.5163183,119.466093 28.2756265,120.46186 28.9450167,121.387923 C30.3737151,123.130514 31.462723,124.474799 31.262905,124.893021 Z" id="Path-3" fill="#2F326A"></path>
            <path d="M54,173 L54,192 C54,201.388841 61.6111593,209 71,209 L106,209 C110.50868,209 114.832697,207.208934 118.020815,204.020815 C121.208934,200.832697 123,196.50868 123,192 L123,173 L54,173 Z" id="Path-4" fill="#2F326A" fill-rule="nonzero"></path>
            <path d="M54.6785565,174.456069 C53.494775,173.842052 56.8053504,174.238192 57.9389717,174.139157 C58.2700293,173.851955 60.3165668,173.960894 61.2294831,173.802438 C62.9041133,173.717729 64.5830802,173.784027 66.2455065,174.000508 C68.0312108,173.604368 70.7097673,173.802438 73.1876829,173.624175 C74.3514003,173.544947 75.2542845,173.336973 76.5684827,173.218131 C77.8826808,173.099289 79.2269751,173.119096 80.7016859,173.000254 C86.500209,172.534789 96.1008778,171.80193 103.715201,172.475368 C105.440713,172.475368 106.183085,172.039614 107.918629,172 C113.75728,172.227781 118.522502,172.415947 122.866379,172.514982 L124,172.514982 L124,173.574657 C123.919744,176.951752 123.889647,180.180295 123.89968,183.606907 C123.89968,185.320213 123.89968,187.083037 123.94984,188.944896 C123.94984,189.875825 123.94984,190.826562 124,191.807009 C124,192.282377 124,192.797359 124,193.351955 C124,193.898789 123.959259,194.444882 123.879615,194.986034 C123.789327,195.382174 123.699039,195.748603 123.618782,196.095226 L123.337885,197.085576 C123.194706,197.658854 123.020568,198.224161 122.816218,198.779076 C122.657748,199.272631 122.431601,199.742455 122.144071,200.17547 C121.886695,200.615063 121.546113,201.001714 121.140867,201.314373 C119.806595,203.760475 117.836285,205.811508 115.432632,207.256475 C113.160184,208.635791 110.564484,209.410323 107.898565,209.504571 C105.91366,210.061913 103.876884,210.420252 101.819144,210.574149 C96.4720635,211.019807 92.078027,210.316658 85.5170684,210.574149 C85.7076773,210.574149 85.206075,210.197816 84.9151456,210.336465 C83.5808834,210.990096 79.1065905,210.742509 76.4581301,210.811833 L73.1174585,210.920772 L71.1110492,211 C70.3987739,211 69.5560819,211 68.7334541,211 C67.0050366,210.8671 65.3017634,210.510833 63.6672704,209.940325 C61.9740563,209.339956 60.3736599,208.510014 58.9120803,207.474352 C57.454469,206.193773 56.1668313,204.736289 55.0798384,203.136618 C53.9050822,201.366287 53.0024347,199.433941 52.4012819,197.402489 C52.2009641,196.368692 52.0669371,195.323445 52,194.272981 C52,193.203403 52,192.133824 52,191.10386 C52.0902884,189.024124 52.1805768,186.904774 52.2708653,184.795328 C52.4815382,180.596242 52.8426919,176.496191 53.2740699,173.188421 C53.8258325,173.188421 53.6151595,175.089893 53.9662812,175.634586 C54.3073708,176.476384 54.0264735,172.36643 54.3073708,174.782885 C54.9293577,174.862113 54.7387488,178.100559 54.568204,178.417471 C54.6668827,179.920236 54.623221,181.428814 54.4377874,182.923565 C54.5882681,185.775775 54.568204,188.806247 54.4377874,191.975368 C54.2307227,195.141822 54.9479451,198.300472 56.504389,201.076689 C56.8879207,201.73242 57.3311621,202.3523 57.8286192,202.928644 C58.3001254,203.394109 58.7114393,203.819959 59.1428173,204.186389 L61.8915982,206.444388 C64.402874,207.603279 67.1452311,208.192099 69.9172356,208.167598 C70.6696391,208.167598 71.5223631,208.098273 72.365055,208.048756 L74.9131949,207.8903 L79.9292183,207.543677 C86.6707538,207.979431 89.5298871,207.226765 94.4154939,208.019045 C98.2218339,207.518204 102.053149,207.223958 105.892155,207.137633 C107.770466,207.071591 109.621856,206.675876 111.359621,205.96902 C113.3556,205.167154 115.147286,203.939528 116.606381,202.374048 C118.287952,200.769997 119.527491,198.769199 120.207886,196.560691 C120.38059,196.015958 120.514675,195.460018 120.609168,194.896902 L120.749617,194.055104 C120.749617,193.767902 120.749617,193.480701 120.809809,193.203403 C120.870001,192.926105 120.809809,192.648807 120.859969,192.331894 L120.859969,189.430168 C120.859969,184.270442 120.859969,179.071102 121.020482,173.584561 L122.745994,175.287963 L122.655706,175.287963 C120.428591,174.91163 116.185036,175.347384 114.890901,174.574911 C112.031768,175.089893 107.055873,174.574911 104.096419,174.327324 C102.822349,174.842306 102.541452,174.525394 101.227254,174.782885 C95.3446325,174.473073 89.4469829,174.585609 83.5808834,175.119604 C77.3208862,175.218639 75.2342204,174.91163 71.4019785,175.386998 C68.9441271,175.386998 67.8305699,174.990858 66.0749617,175.30777 C65.071757,175.30777 64.8008917,175.594972 64.2992894,175.30777 C61.5806047,175.1097 61.1592587,175.406805 59.8249965,174.891823 C57.9289397,174.782885 55.3406716,175.000762 54.6785565,174.456069 Z" id="Path-5" fill="#2F326A"></path>
            <path d="M94.76489,174.882645 C94.1031964,175.820125 94.5543511,170.893369 94.4641202,168.898731 C94.173376,167.901412 94.3137353,164.630205 94.1633503,162.914816 C94.1057339,160.25257 94.1927498,157.58917 94.4240175,154.936263 C94.0731194,151.4257 94.3037096,147.226987 94.1834017,142.898622 C94.1834017,140.903984 93.9628371,139.158675 93.8826318,136.914707 C93.8024265,134.670739 93.8826318,132.436744 93.7723495,129.933474 C93.6319903,124.946878 93.4715797,118.434384 93.431477,111.682534 C93.3913744,104.930684 93.431477,97.9195304 93.9026831,91.8159375 C94.0029397,88.9536317 93.7823752,87.5873045 94.0530681,84.7150255 C94.6359219,79.322299 96.2200794,74.0840645 98.7250264,69.2665527 C99.8636446,66.9632145 101.659564,65.0448736 103.888242,63.7513781 C105.073822,63.1036074 106.441834,62.8651075 107.778199,63.0732011 C108.463527,63.1871435 109.11643,63.4455779 109.6931,63.8311636 C110.222872,64.2285334 110.686394,64.7064581 111.066616,65.2473567 C111.792528,66.1859195 112.32721,67.2564621 112.640645,68.3988851 C112.933555,69.5991853 113.048395,70.8356518 112.981517,72.0690193 C112.824922,74.5756584 112.262953,77.0407684 111.317258,79.3693952 C109.393686,84.6130614 105.893082,89.1400304 101.291596,92.3345435 C99.4330126,93.4438896 97.4425945,94.3183062 95.3664297,94.9375463 C93.742923,95.4248276 92.031524,95.5508083 90.3535989,95.3065544 C85.7847754,95.4787659 81.223315,94.8092858 76.8991608,93.3318626 C72.7648519,91.9555175 69.0518916,89.5526648 66.1115487,86.3506289 C63.4174531,84.1093233 61.3463222,81.2180478 60.0961516,77.953202 C59.2910323,75.7991362 58.9230199,73.5077068 59.0133802,71.2113249 C59.0531226,69.9707637 59.3973137,68.758704 60.0159463,67.6808153 C60.7714155,66.4743846 62.0286424,65.666218 63.4447227,65.4767401 C66.0531356,65.294066 68.6053917,66.2905745 70.3925063,68.189448 C72.3393993,70.0479204 73.8699379,72.2943293 74.8840027,74.7817273 C74.7536691,74.4725584 74.8138231,75.390092 75.0945416,75.7790464 C76.073018,77.6617379 76.7656278,79.6782791 77.1498023,81.762961 C77.4605978,83.0893954 77.7012137,84.4956153 77.9318039,85.8320229 C78.1623941,87.1684305 78.40301,88.4549722 78.553395,89.5520232 C79.5559611,95.7453748 80.9796051,107.154705 81.841812,117.556744 C81.9921969,122.972186 82.2528641,129.04586 82.523557,135.638139 C82.4734287,148.054762 82.8945065,162.565755 81.6914271,174.812833 C81.0898874,175.670527 81.3806316,172.199857 81.0497847,171.820876 C80.7389892,170.823557 80.7891175,177.545487 80.6387326,173.815514 C79.9569876,174.713101 80.4382194,168.529723 80.5785786,167.831599 C80.5785786,164.390848 80.6888609,162.226666 80.7991432,159.853047 C80.59863,150.119212 80.7089122,138.39074 80.3880911,127.789237 C80.2978601,124.79728 80.1173982,122.802642 79.9469619,120.808004 C79.7765257,118.813366 79.6762691,117.117923 79.6461921,114.754277 C78.6436259,107.154705 77.4605978,94.6483238 75.054439,84.1166341 C74.1621551,78.6612986 72.8588191,74.9512715 70.9238663,72.1986708 C70.0156629,70.870481 68.8786461,69.7124043 67.5652697,68.7778663 C66.3368737,67.8127443 64.7627714,67.3942184 63.2141324,67.6209762 C62.12888,68.2271436 61.4635085,69.3749283 61.479693,70.6129335 C61.3997502,71.3054569 61.3997502,72.0048069 61.479693,72.6973304 C61.54239,73.4212343 61.6495304,74.1406468 61.8005141,74.8515396 C62.4646205,77.8063096 63.783303,80.5763822 65.6603939,82.9597439 C67.7259327,85.6033446 70.3335976,87.7791914 73.3099738,89.3425862 C76.7964015,91.1592013 80.5890922,92.3221559 84.4986124,92.7733639 C86.6291507,93.0862435 88.7817304,93.2263295 90.9350872,93.1922379 C92.9687822,93.1458931 94.9768347,92.7301607 96.8602534,91.9655354 C100.671137,90.347391 103.935055,87.6751548 106.264324,84.2662319 C107.45506,82.5511251 108.447208,80.7076933 109.221894,78.7710037 C110.030052,76.8610061 110.560071,74.8460563 110.795923,72.7870891 C111.073964,70.8301349 110.741516,68.8354397 109.843485,67.0724507 C109.723177,66.8729868 109.612895,66.6535766 109.482562,66.464086 L109.031407,65.9155605 L108.810842,65.6462843 C108.752166,65.5846293 108.688452,65.5279203 108.620355,65.4767401 C108.476184,65.360939 108.317857,65.263759 108.149149,65.1875176 C107.376784,64.8584598 106.509845,64.82297 105.712913,65.0877856 C104.793513,65.315664 103.945804,65.7681517 103.2466,66.4042469 C102.380108,67.18966 101.633662,68.0968343 101.030929,69.0970084 C99.8077979,71.161459 98.9355653,73.2757755 98.3039486,74.0836039 C97.5153205,76.9348838 96.8728497,79.8241859 96.3790216,82.7403337 C95.8576872,85.9517012 95.5168147,89.2029615 95.3163014,91.6164737 C95.627097,93.9502004 95.3864811,94.2892889 95.536866,96.6030692 C95.1859678,107.214544 95.2260705,115.611971 95.536866,126.692186 C95.536866,137.45326 95.2761988,140.654654 95.6872509,147.755566 C95.6872509,151.964252 95.3062758,153.350526 95.59702,156.781304 C95.536866,158.486719 95.8777385,159.384307 95.59702,159.773261 C95.3965067,164.131545 95.6972766,165.328328 95.1659165,166.754495 C95.1258139,169.89605 95.3363528,174.673208 94.76489,174.882645 Z" id="Path-6" fill="#2F326A"></path>
            <path d="M12.7807807,29.7679118 C12.3300894,30.2500539 12.4837342,29.8281795 12.3403324,29.8482688 C12.0945008,30.0290721 12.0740148,29.8482688 11.9101271,29.9286258 C11.8384262,29.8281795 11.6540525,29.8080903 11.8076973,29.5770639 C11.4287069,29.7478225 11.4389499,29.4967069 11.2033613,29.4967069 C10.9677726,29.4967069 10.9063147,29.5770639 10.773156,29.5871085 C10.6399972,29.5971531 10.5887823,29.5167961 10.4453805,29.5167961 C9.88201641,29.5167961 9.05233477,29.4464837 9.08306372,28.7232706 C8.98063389,28.6630029 8.72455931,28.8438061 8.62212947,28.793583 C8.44142299,27.9682666 7.88183632,27.2712055 7.10616795,26.9051932 C7.10616795,26.5938098 6.72717757,26.9051932 7.02422409,26.3426941 C6.63178699,26.2523419 6.35800233,25.9041533 6.36867316,25.5089901 C6.11951866,25.6421779 5.84952195,25.7338285 5.56972047,25.780195 C5.06781429,25.780195 5.21121605,25.2076513 4.75028181,25.0670266 C4.75028181,25.0670266 4.92441252,24.8360001 4.84246866,24.9063125 C4.44299231,25.2277406 4.34056248,24.9063125 4.17667474,24.8159109 C3.77998112,24.6788188 3.37224163,24.5746579 2.95775974,24.5045275 C2.91302171,24.2533932 2.75489179,24.03556 2.52755444,23.9118945 C2.45585356,23.2389045 1.87200351,23.038012 2.02564826,22.0837725 C2.37390969,21.611675 2.35342373,21.8627907 2.58901234,21.6016304 C2.82460096,21.3404701 2.47633953,21.370604 2.76314306,21.2701577 C3.1626194,20.7277479 3.14213344,21.1496222 3.07043255,21.2701577 C3.23432029,21.2701577 3.20359134,21.4710502 3.20359134,21.611675 C3.63379663,21.7221659 3.76695542,22.2947096 3.97181508,22.7165839 C4.09473088,22.9375657 4.43274933,22.7165839 4.38153441,23.0581012 C4.94153446,22.9727201 5.5116266,22.9727201 6.07162665,23.0581012 C6.19454244,23.6005111 6.72717757,23.2991723 6.57353282,23.9721623 C7.49540132,23.7210466 7.83341976,24.0726085 8.35581191,24.5748399 C8.65285842,25.3281868 9.30840935,25.6295256 9.7078857,26.3025156 C9.61569885,26.613899 10.0663901,26.5737205 9.7078857,27.0558626 C10.127848,26.9051932 10.107362,27.4074245 10.117605,27.6886741 C10.4658665,27.4676923 10.3122217,27.6886741 10.5170814,27.5681386 C10.6604831,28.0301914 10.9882586,28.1808608 11.6540525,28.1607715 C12.0740148,28.3616641 11.971585,28.6429136 12.5349491,28.5022888 C12.6783508,28.6027351 12.4632482,28.8940293 12.8012666,28.7634491 C12.8012666,28.8438061 13.0983132,28.6228244 12.8934535,28.8538508 C12.8934535,29.0949218 13.170014,28.8538508 12.8319956,29.3159036 C12.8524816,29.4063052 13.180257,29.3661267 12.7807807,29.7679118 Z" id="Path-7" fill="#C7C7D4"></path>
            <path d="M20.5409253,17.7012919 C20.0284698,18.1118127 20.2846975,17.8039221 20.1672598,17.8412422 C20.0498221,17.8785623 19.9537367,17.8972223 19.7935943,17.9718624 C19.633452,18.0465026 19.6227758,17.9718624 19.7935943,17.757272 C19.430605,17.9345424 19.5266904,17.757272 19.3451957,17.8039221 C19.1637011,17.8505722 19.0782918,17.9065523 18.9715302,17.9252123 C18.8647687,17.9438724 18.8434164,17.9252123 18.7259786,17.9252123 C18.2775801,17.9998525 17.658363,18.0465026 17.9252669,17.5613417 C17.86121,17.5613417 17.5836299,17.6826319 17.5302491,17.6546419 C17.6370107,17.0481907 17.6263345,16.7682902 17.113879,16.5257098 C17.2740214,16.3297794 16.8362989,16.5257098 17.3060498,16.1711691 C17.0391459,16.1245191 16.9857651,15.9472487 17.1779359,15.6766782 C16.9295936,15.7614496 16.6720456,15.8239702 16.4092527,15.8632786 C15.9928826,15.8632786 16.4092527,15.5087379 16.1209964,15.4247678 C16.1209964,15.4247678 16.3879004,15.2848175 16.2811388,15.3221376 C15.7900356,15.5087379 15.8967972,15.3221376 15.8007117,15.2568275 C15.5414248,15.1579104 15.2737102,15.0768047 15,15.014247 C15.1073901,14.9004843 15.1073901,14.736149 15,14.6223863 C15.3309609,14.2211956 15,14.0532553 15.683274,13.5214443 C15.9182589,13.4279529 16.1609315,13.3499843 16.4092527,13.2881939 C16.7402135,13.1762337 16.4092527,13.1575736 16.7402135,13.1202536 C17.3807829,12.8496831 17.1032028,13.1202536 16.9644128,13.1202536 C17.0711744,13.1202536 16.9644128,13.2322138 16.8576512,13.3161839 C17.113879,13.4001541 16.8576512,13.7267047 16.7935943,13.9692851 C16.7295374,14.2118656 17.1565836,13.9692851 16.911032,14.1745455 C17.3479553,14.1418567 17.787276,14.1418567 18.2241993,14.1745455 C18.0213523,14.4917661 18.5978648,14.2958357 18.1281139,14.6970264 C18.9715302,14.5104261 19.0462633,14.6970264 19.1957295,14.9582669 C19.0569395,15.3967777 19.4199288,15.5180679 19.4412811,15.8912686 C19.227758,16.096529 19.6014235,16.0218889 19.1209964,16.3670995 C19.5266904,16.2178192 19.2918149,16.5443698 19.1743772,16.7216401 C19.5480427,16.5350398 19.3451957,16.6749901 19.5480427,16.5910199 C19.4733096,16.8709204 19.6761566,16.9269005 20.2099644,16.7962803 C20.455516,16.8615904 20.2740214,17.0575208 20.7651246,16.8615904 C20.8398577,16.8615904 20.5622776,17.1321609 20.8718861,16.9828806 C20.8718861,17.0295307 21.1601423,16.8336003 20.8718861,16.9828806 C20.797153,17.1321609 21.0640569,16.9828806 20.658363,17.2907712 C20.7224199,17.4400515 20.9893238,17.3560813 20.5409253,17.7012919 Z" id="Path-8" fill="#C7C7D4"></path>
            <path d="M3.97613166,38.8887127 C3.89835892,39.4853809 3.89835892,39.109021 3.85947254,39.2099956 C3.81086458,39.4762014 3.7816998,39.3844063 3.74281342,39.5312784 C3.74281342,39.5312784 3.65531908,39.613894 3.67476227,39.3568677 C3.58726793,39.6965096 3.55810315,39.5220989 3.490052,39.6689711 C3.42200084,39.8158432 3.41227925,39.8984588 3.37339288,39.9902539 C3.3345065,40.082049 3.31506332,40.06369 3.26645535,40.1463056 C3.10118826,40.4767679 2.84842684,40.9265639 2.77065409,40.4216909 C2.77065409,40.4216909 2.68315975,40.7154352 2.64427338,40.7337942 C2.43039833,40.2839982 2.30401761,40.1095875 1.99292663,40.3207163 C1.99292663,40.0912285 1.87626751,40.5043065 1.91515388,39.9718949 C1.78877317,40.1279466 1.69155724,40.06369 1.63322768,39.7699457 C1.57576998,39.9880229 1.50434697,40.202606 1.41935262,40.4125114 C1.27352872,40.7062557 1.25408554,40.2105621 1.10826164,40.4125114 C1.10826164,40.4125114 1.10826164,40.1463056 1.10826164,40.2472802 C1.0207673,40.6970762 0.952716144,40.513486 0.894386584,40.550204 C0.745421893,40.6867287 0.611846285,40.8374662 0.495801259,41 C0.495801259,40.8347688 0.388863732,40.7796918 0.311090986,40.8072303 C0.223596646,40.3666138 0.0291647799,40.531845 -2.22044605e-15,39.7607662 C0.0680511531,39.2375341 0.0777727464,39.4303038 0.126380713,39.109021 C0.17498868,38.7877381 0.0777727464,38.9988668 0.126380713,38.7785586 C0.204153459,38.1727109 0.233318239,38.4848143 0.223596646,38.6225069 C0.272204613,38.5582504 0.281926206,38.695943 0.291647799,38.7969176 C0.427750105,38.6500455 0.515244445,38.9896873 0.622181972,39.1732775 C0.729119498,39.3568677 0.758284278,38.9162512 0.777727464,39.1732775 C0.919441669,38.8547886 1.08851322,38.547781 1.28325032,38.2553265 C1.37074466,38.5674299 1.49712537,38.0625568 1.51656856,38.6133274 C1.76932998,37.9156847 1.89571069,37.9799412 2.09986415,38.0258388 C2.26513124,38.3838397 2.48872789,38.209429 2.67343816,38.4297372 C2.67343816,38.695943 2.80954047,38.4297372 2.75121091,38.9437898 C2.85814843,38.5949684 2.9067564,38.9437898 2.93592118,39.1365595 C3.01369392,38.7785586 2.98452914,38.9988668 3.0428587,38.8152766 C3.14007464,39.0447644 3.24701216,38.9529693 3.44144403,38.5307118 C3.58726793,38.4205577 3.58726793,38.659225 3.73309183,38.2369675 C3.7816998,38.2369675 3.73309183,38.5398913 3.84002936,38.2369675 C3.84002936,38.2369675 3.90808051,37.9615822 3.84002936,38.2369675 C3.7719782,38.5123528 3.9275237,38.0992749 3.84002936,38.5766094 C3.95668848,38.6500455 4.04418282,38.3746602 3.97613166,38.8887127 Z" id="Path-9" fill="#C7C7D4"></path>
            <path d="M33.1469639,13.9547852 C32.4711059,14.0565185 32.8829569,13.9547852 32.7562335,13.9547852 C32.630256,13.9735172 32.5020409,13.9735172 32.3760634,13.9547852 C32.3760634,13.9547852 32.2599003,13.9547852 32.5555881,13.853052 C32.1542974,13.853052 32.3338222,13.853052 32.1648577,13.7920121 L31.7846876,13.7920121 C31.6790848,13.7920121 31.6896451,13.7920121 31.5840422,13.7920121 C31.1721913,13.7920121 30.6124963,13.6699322 31.1510707,13.476639 C31.1510707,13.476639 30.8025814,13.476639 30.7709006,13.476639 C31.2249927,13.191786 31.3728366,13.0391861 31.0665884,12.8560663 C31.3094749,12.7746797 30.8342622,12.8560663 31.425638,12.7034665 C31.2249927,12.6424265 31.2672338,12.5508666 31.573482,12.4287867 C31.2461132,12.4287867 30.9609856,12.4287867 30.8025814,12.4287867 C30.4329715,12.4287867 30.9821062,12.2456669 30.8025814,12.1744537 L30.9926665,12.1744537 C30.4646524,12.2253203 30.6652977,12.123587 30.6019361,12.0930671 C30.4071288,12.0128524 30.2058053,11.9482036 30,11.8997739 C30.1689645,11.8285607 30.2217659,11.7573474 30.1584042,11.7064808 C30.6336169,11.523361 30.3907304,11.4114544 31.2144324,11.1876413 C31.4660941,11.1486856 31.7200347,11.1249016 31.9747727,11.116428 C32.323262,11.116428 32.0803755,11.0452148 32.3443825,11.0452148 C33.0413611,10.9434815 32.6928718,11.0452148 32.5450279,11.0452148 C32.6295101,11.0452148 32.4816662,11.1062547 32.3655031,11.146948 C32.5661484,11.2181613 32.2176591,11.3707611 32.0381344,11.5030143 C31.8586096,11.6352675 32.3655031,11.5030143 32.0381344,11.6250942 C32.431784,11.6467108 32.8234324,11.6942978 33.2103256,11.7675207 C32.8829569,11.9201206 33.4848929,11.8896006 32.8723966,12.0422005 C33.7066588,12.0422005 33.6855383,12.1744537 33.6855383,12.3474002 C33.3264887,12.5712133 33.5799355,12.6932931 33.3792901,12.9069329 C33.1786448,13.1205727 33.4426518,13.0086662 32.8301555,13.1103994 C33.2525667,13.1103994 32.8301555,13.2324793 32.661191,13.3036925 C32.7871934,13.2852764 32.9153587,13.2852764 33.0413611,13.3036925 C32.8090349,13.4359457 32.9463186,13.4969857 33.4532121,13.537679 C33.6221766,13.6190656 33.3476093,13.6902788 33.8545028,13.6902788 C33.8545028,13.6902788 33.5165738,13.7920121 33.8545028,13.7716654 C33.8545028,13.7716654 34.1818715,13.7716654 33.8545028,13.7716654 C33.6960986,13.8327054 34.0234673,13.7716654 33.4848929,13.8937453 C33.4637724,13.8123587 33.7277794,13.822532 33.1469639,13.9547852 Z" id="Path-10" fill="#C7C7D4"></path>
            <path d="M159.823074,9.35253688 C160.221157,9.84649952 159.823074,9.62801605 159.823074,9.76100599 C159.823074,9.89399593 159.823074,9.99848802 159.823074,10.1694751 C159.823074,10.3404622 159.669965,10.3784593 159.455612,10.1694751 C159.567892,10.5399471 159.322918,10.4829514 159.282089,10.7014349 C159.24126,10.9199183 159.282089,10.976914 159.282089,11.109904 C159.282089,11.2428939 159.190223,11.2713917 159.169809,11.3948824 C159.077943,11.8983443 158.90442,12.6202897 158.200118,12.4683012 C158.128668,12.5537947 158.271569,12.8102753 158.200118,12.8957689 C157.373313,12.9085754 156.607741,13.3039969 156.158665,13.9501891 C155.852447,13.8931934 156.066799,14.282664 155.597265,13.9501891 C155.464489,14.288213 155.089909,14.4885574 154.709233,14.4251532 C154.818129,14.6635673 154.883669,14.9171737 154.903171,15.1755964 C154.903171,15.6220627 154.311149,15.4130785 154.137626,15.8120483 C154.137626,15.8120483 153.923273,15.6220627 153.984517,15.7075562 C154.260113,16.106526 153.923273,16.1540224 153.841615,16.2965117 C153.673008,16.6343763 153.543003,16.9877888 153.453739,17.3509319 C153.203866,17.3546833 152.973165,17.4763463 152.841303,17.6739075 C152.167623,17.6739075 151.943063,18.1678701 151.014202,17.9398874 C150.565082,17.5789147 150.810056,17.6264111 150.565082,17.388929 C150.320107,17.151447 150.330315,17.4649233 150.248657,17.2084427 C149.738293,16.7999736 150.156791,16.8569693 150.248657,16.9329635 C150.248657,16.7904743 150.452802,16.8284714 150.595704,16.8379707 C150.728398,16.4579994 151.310212,16.3915045 151.738918,16.2490153 C151.963478,16.1540224 151.738918,15.8310469 152.106379,15.9165404 C152.070381,15.4034523 152.115085,14.8882219 152.239074,14.3871561 C152.790266,14.3871561 152.545292,13.8171992 153.18835,14.0451819 C153.025034,13.1807473 153.423117,12.9147674 153.974309,12.5062983 C154.760269,12.3448106 155.137938,11.7938522 155.852447,11.5563702 C156.148458,11.6893601 156.168872,11.2713917 156.597577,11.6703616 C156.505712,11.2618925 157.005868,11.3663846 157.271257,11.413881 C157.097733,11.0624076 157.271257,11.2333946 157.210013,11.0244104 C157.689755,10.9674147 157.883693,10.7014349 157.965351,10.0744823 C158.23074,9.73250814 158.485922,9.87499737 158.445093,9.3430376 C158.56758,9.2385455 158.812554,9.48552682 158.741104,9.15305197 C158.822762,9.15305197 158.649238,8.85857424 158.843176,9.086557 C159.077943,9.086557 158.935042,8.84907496 159.282089,9.22904622 C159.486234,9.21004766 159.506649,8.91556993 159.823074,9.35253688 Z" id="Path-11" fill="#C7C7D4"></path>
            <path d="M166.802561,23.4304508 C167.17664,23.922996 166.869703,23.6767234 166.888887,23.7903877 C166.90807,23.9040519 166.888887,23.9987721 166.975213,24.1408525 C167.061539,24.2829328 166.90807,24.3018769 166.735418,24.1408525 C166.879295,24.4818453 166.735418,24.3871251 166.735418,24.5670935 C166.735418,24.7470619 166.812152,24.8133661 166.821744,24.9175583 C166.831336,25.0217506 166.821744,25.0406946 166.821744,25.1448869 C166.821744,25.5711279 166.821744,26.1678653 166.332564,25.9026487 C166.332564,25.9594808 166.438073,26.2057534 166.399706,26.2720575 C165.728282,26.2057534 165.440529,26.2720575 165.114408,26.7456587 C164.893798,26.6225224 165.114408,27.0108753 164.711554,26.6035783 C164.654003,26.8593229 164.452576,26.9256271 164.145639,26.7930188 C164.243681,27.0118952 164.317642,27.240534 164.36625,27.4750044 C164.36625,27.8444133 163.963396,27.5223645 163.87707,27.8159972 C163.87707,27.8159972 163.704418,27.5981407 163.761968,27.6928609 C163.992171,28.1096299 163.761968,28.0527978 163.704418,28.147518 C163.607026,28.395247 163.536297,28.652407 163.493399,28.9147518 C163.349814,28.8424074 163.174647,28.8777899 163.071361,29 C162.591772,28.7916155 162.447895,29.1420803 161.766879,28.6495352 C161.431167,28.2138221 161.603819,28.3274864 161.421576,28.0527978 C161.239332,27.7781091 161.258515,28.0527978 161.191373,27.7970531 C160.807702,27.295036 161.105047,27.4750044 161.191373,27.5791966 C161.191373,27.4750044 161.33525,27.5791966 161.431167,27.5791966 C161.507902,27.31398 161.910756,27.4465883 162.208101,27.4560603 C162.361569,27.4560603 162.208101,27.1150675 162.438304,27.295036 C162.386137,26.8893679 162.386137,26.4788131 162.438304,26.0731451 C162.821975,26.1868093 162.591772,25.6847921 163.071361,26.0731451 C162.860342,25.3059112 163.071361,25.192247 163.435848,24.9838625 C163.963396,25.0406946 164.145639,24.6618137 164.596453,24.5955096 C164.826655,24.775478 164.769105,24.4250132 165.133592,24.8512542 C164.999307,24.4818453 165.363795,24.6712857 165.55563,24.766006 C165.373386,24.4250132 165.55563,24.6049816 165.450121,24.4250132 C165.766649,24.4723733 165.862567,24.2829328 165.795424,23.7714436 C165.910526,23.525171 166.111953,23.6861954 165.977668,23.2315383 C166.044811,23.1652342 166.25583,23.4115068 166.140728,23.1178741 C166.140728,23.1178741 166.016035,22.8526574 166.198279,23.1178741 C166.361339,23.1841782 166.198279,22.9284336 166.524399,23.3073145 C166.543583,23.2599544 166.486032,22.9947378 166.802561,23.4304508 Z" id="Path-12" fill="#C7C7D4"></path>
            <path d="M142.865566,9.70054446 C143.056014,10.3865699 142.865566,9.97277677 142.865566,10.1034483 C142.878467,10.2338189 142.878467,10.3650921 142.865566,10.4954628 C142.865566,10.4954628 142.865566,10.615245 142.731133,10.3321234 C142.831958,10.7350272 142.731133,10.5607985 142.731133,10.7459165 C142.731133,10.9310345 142.809552,11.0181488 142.831958,11.1270417 C142.825896,11.1922447 142.825896,11.2578461 142.831958,11.323049 C142.92158,11.7368421 143.145636,12.2595281 142.831958,11.7803993 C142.831958,11.7803993 143,12.107078 143,12.1397459 C142.641511,11.76951 142.417455,11.7041742 142.507077,12.0090744 C142.305427,11.8348457 142.630308,12.2050817 142.182196,11.76951 C142.283021,11.9546279 142.182196,11.9437387 141.902126,11.76951 L142.462266,12.3357532 C142.731133,12.5970962 142.23821,12.2704174 142.372644,12.4446461 C142.372644,12.4446461 142.114979,12.2595281 142.204602,12.3357532 C142.652713,12.6624319 142.462266,12.5644283 142.495874,12.6188748 C142.633207,12.7670822 142.791652,12.8954248 142.966392,13 C142.787147,12.923775 142.731133,12.923775 142.764741,13 C142.37036,12.8945863 141.970153,12.8109678 141.566042,12.7495463 C140.949889,12.5644283 141.173945,12.6079855 140.804252,12.4882033 C140.43456,12.3684211 140.669819,12.4882033 140.412154,12.3901996 C139.706378,12.1833031 140.087273,12.215971 140.244113,12.2704174 C140.176896,12.2050817 140.344938,12.2704174 140.468168,12.2704174 C140.322532,12.0961887 140.737036,12.1288566 140.972294,12.1288566 C141.207553,12.1288566 140.71463,11.9110708 140.972294,12.0199637 C140.642522,11.7661469 140.358564,11.4606939 140.132085,11.1161525 C140.51298,11.2032668 140.042462,10.7894737 140.63621,11.1161525 C140.042462,10.4627949 140.210504,10.3430127 140.412154,10.1905626 C140.871469,10.3103448 140.882672,9.99455535 141.229958,10.0381125 C141.454014,10.2667877 141.319581,9.91833031 141.700476,10.430127 C141.510028,10.0381125 141.823707,10.3321234 141.980546,10.4954628 C141.778895,10.1034483 141.913329,10.3321234 141.834909,10.1252269 C142.070168,10.2885662 142.081371,10.1252269 142.002951,9.61343013 C142.081371,9.40653358 142.215804,9.61343013 142.126182,9.14519056 C142.182196,9.14519056 142.31663,9.45009074 142.249413,9.14519056 C142.249413,9.14519056 142.182196,8.8185118 142.249413,9.14519056 C142.361441,9.29764065 142.249413,8.9600726 142.462266,9.49364791 C142.675119,9.39564428 142.675119,9.11252269 142.865566,9.70054446 Z" id="Path-13" fill="#C7C7D4"></path>
            <path d="M172.966572,35.9698079 C172.873658,36.6724611 172.892241,36.2333028 172.864366,36.3540714 C172.864366,36.6724611 172.799326,36.5626715 172.76216,36.7383349 C172.76216,36.7383349 172.69712,36.8371455 172.715703,36.5297347 C172.641371,36.946935 172.63208,36.7383349 172.585622,36.9139982 C172.539165,37.0896615 172.539165,37.1884721 172.511291,37.2982617 C172.483416,37.4080512 172.511291,37.3860933 172.446251,37.4958829 C172.344044,37.9130833 172.260421,38.4730101 172.195381,37.8801464 C172.195381,37.8801464 172.195381,38.242452 172.195381,38.2753888 C172.065301,37.7703568 171.93522,37.6056725 171.823723,37.9130833 C171.758683,37.6605672 171.823723,38.1436414 171.702934,37.5288198 C171.702934,37.7374199 171.610019,37.6825252 171.498522,37.3751144 C171.498522,37.715462 171.572853,38.0118939 171.582145,38.1655993 C171.582145,38.5388838 171.442773,37.978957 171.433482,38.1655993 C171.433482,38.1655993 171.35915,37.8691674 171.377733,37.978957 C171.48923,38.5059469 171.377733,38.3193047 171.377733,38.3851784 C171.358854,38.5895119 171.358854,38.7956665 171.377733,39 C171.303401,38.8353156 171.247652,38.7913998 171.238361,38.8572736 C171.006075,38.4181153 171.024657,38.6596523 170.606542,37.8911253 C170.355672,37.3311985 170.46717,37.5178408 170.318507,37.1774931 C170.169843,36.8371455 170.225592,37.1006404 170.15126,36.8371455 C169.863225,36.200366 170.058346,36.4858188 170.15126,36.6285453 C170.15126,36.5297347 170.225592,36.6285453 170.290632,36.7712717 C170.290632,36.5516926 170.53221,36.8481244 170.671582,37.0018298 C170.810954,37.1555352 170.671582,36.6614822 170.773788,37.0018298 C170.706423,36.5970768 170.687656,36.1831273 170.718039,35.7721866 C170.903868,36.0795974 170.810954,35.4647758 171.033949,36.0795974 C170.968909,35.2122598 171.117572,35.2232388 171.303401,35.2012809 C171.544979,35.5526075 171.684351,35.3000915 171.888763,35.5196706 C171.944512,35.8270814 172.000261,35.4647758 172.037426,36.1015554 C172.037426,35.6623971 172.158215,36.1015554 172.204673,36.2991766 C172.204673,35.8600183 172.204673,36.1235133 172.25113,35.9039341 C172.353336,36.1564501 172.418376,36.0356816 172.557748,35.5196706 C172.678537,35.3659652 172.687828,35.6623971 172.808617,35.1463861 C172.855075,35.1463861 172.808617,35.5086917 172.901532,35.1463861 C172.901532,35.1463861 172.966572,34.8170174 172.901532,35.1463861 C172.836492,35.4757548 172.985155,34.9817017 172.901532,35.5526075 C172.957281,35.6294602 173.050195,35.3659652 172.966572,35.9698079 Z" id="Path-14" fill="#C7C7D4"></path>
            <path d="M174.907487,50.0223881 C174.763578,50.738806 174.814974,50.2910448 174.773857,50.4029851 C174.745631,50.5343767 174.704267,50.6620042 174.650507,50.7835821 C174.650507,50.7835821 174.578552,50.8843284 174.650507,50.5708955 C174.557994,50.9850746 174.557994,50.7835821 174.496318,50.9514925 C174.434643,51.119403 174.434643,51.2313433 174.403806,51.3432836 C174.380292,51.4055344 174.359707,51.4690496 174.34213,51.5335821 C174.229059,51.9477612 174.157104,52.5298507 174.115988,51.9253731 C174.115988,51.9253731 174.115988,52.2947761 174.115988,52.3283582 C174.023475,51.8134328 173.889845,51.6343284 173.81789,51.9477612 C173.756215,51.6902985 173.81789,52.1828358 173.69454,51.5559701 C173.69454,51.7686567 173.622585,51.7126866 173.499235,51.3992537 C173.56091,51.7350746 173.612306,52.0373134 173.632864,52.1940299 C173.69454,52.5634328 173.509514,52.0037313 173.519793,52.1940299 C173.519793,52.1940299 173.417001,51.891791 173.458118,52.0037313 C173.622585,52.5298507 173.530072,52.3395522 173.530072,52.4067164 C173.556443,52.6088133 173.601206,52.8075528 173.663702,53 C173.571189,52.8320896 173.530072,52.7873134 173.540352,52.8432836 C173.273092,52.4067164 173.345046,52.630597 172.820807,51.9029851 C172.481592,51.3656716 172.625501,51.5447761 172.430196,51.2201493 C172.234891,50.8955224 172.327404,51.141791 172.214333,50.8955224 C171.823723,50.2798507 172.070424,50.5597015 172.152658,50.6940299 C172.152658,50.6044776 172.234891,50.6940299 172.317125,50.8171642 C172.317125,50.5932836 172.574105,50.8171642 172.728294,51.0298507 C172.882482,51.2425373 172.656339,50.6940299 172.820807,51.0298507 C172.710117,50.6305796 172.654686,50.2155736 172.656339,49.7985075 C172.872203,50.1007463 172.738573,49.4850746 173.005832,50.0895522 C172.882482,49.2052239 173.057228,49.2052239 173.252534,49.1940299 C173.519793,49.5522388 173.653423,49.2835821 173.879566,49.5074627 C173.930962,49.8320896 173.992637,49.4514925 174.033754,50.1007463 C174.033754,49.6529851 174.157104,50.1007463 174.198221,50.3022388 C174.204523,50.1665346 174.22172,50.0316916 174.249617,49.8992537 C174.34213,50.1679104 174.414085,50.0335821 174.578552,49.5186567 C174.712182,49.3731343 174.701903,49.6753731 174.856091,49.1492537 C174.856091,49.1492537 174.856091,49.5186567 174.958883,49.1492537 C174.958883,49.1492537 175.051396,48.8134328 174.958883,49.1492537 C174.86637,49.4850746 175.051396,48.9925373 174.958883,49.5634328 C174.928045,49.6865672 175.030838,49.4179104 174.907487,50.0223881 Z" id="Path-15" fill="#C7C7D4"></path>
        </g>
        <path d="M125.096419,177.327324 C130.318936,161.822657 136.620129,149.191948 144,139.435196 C155.069806,124.800068 164.179816,121.668982 173.179816,100.290071 C179.179816,86.0374636 182.119877,73.1223409 182,61.5447027 L186,80.0588589 L179.929618,108.5 L167.20837,129.842516 L153.07233,152.411184 L144,177.327324 L125.096419,177.327324 Z" id="Path-142" fill="#2F326A" opacity="0.2"></path>
    </g>
</svg>