<?xml version="1.0" encoding="UTF-8"?>
<svg width="216px" height="216px" viewBox="0 0 216 216" version="1.1" xmlns="http://www.w3.org/2000/svg" xmlns:xlink="http://www.w3.org/1999/xlink">
    <title>all-features</title>
    <g id="all-features" stroke="none" stroke-width="1" fill="none" fill-rule="evenodd">
        <g transform="translate(27.000000, 2.000000)">
            <rect id="Rectangle" fill="#C45C0C" fill-rule="nonzero" x="2.20405925" y="21.4" width="156.8" height="188.3" rx="13.8"></rect>
            <rect id="Rectangle" fill="#232357" fill-rule="nonzero" opacity="0.2" x="21.7040593" y="44.5" width="117.9" height="152.38"></rect>
            <path d="M145.504059,210.9 C144.904059,210.7 145.204059,210.6 146.004059,210.5 L146.704059,210.5 L147.504059,210.3 C148.152548,210.253067 148.791692,210.11851 149.404059,209.9 C150.936866,209.425316 152.38726,208.716984 153.704059,207.8 C154.844277,206.989786 155.85567,206.012106 156.704059,204.9 C157.687639,203.235596 158.460244,201.455246 159.004059,199.6 C159.285508,198.387207 159.419809,197.144922 159.404059,195.9 C159.304059,194.7 159.304059,193.6 159.204059,192.7 C159.304059,186.8 159.104059,179.3 159.504059,176.3 C159.004059,169.1 159.204059,160.5 159.004059,151.6 C158.904059,147.5 158.704059,144 158.504059,139.3 C158.304059,134.6 158.404059,130.1 158.304059,124.9 C157.804059,104.4 157.104059,71.8 157.804059,46.8 C157.804059,43.9 157.704059,41.8 157.604059,39.6 C157.504059,37.4 157.504059,37.5 157.404059,36.3 C157.399251,35.1271233 157.298919,33.9565867 157.104059,32.8 C156.588448,30.2682529 155.294875,27.960799 153.404059,26.2 C151.605861,24.5255784 149.337002,23.4435072 146.904059,23.1 C146.310577,22.9839697 145.708537,22.9170764 145.104059,22.9 L131.504059,22.9 L102.804059,22.6 C84.0040593,22.5 65.0040593,22.6 40.7040593,22.8 C30.3040593,22.4 24.7040593,23 18.1040593,22.3 L14.7040593,22.3 C13.5968632,22.3649486 12.511561,22.6362741 11.5040593,23.1 C9.49078603,23.8344074 7.70013676,25.0740877 6.30405925,26.7 C4.85562942,28.3137489 3.85570592,30.2791158 3.40405925,32.4 C3.24706426,32.9210545 3.14648745,33.4574642 3.10405925,34 C3.10405925,34.5 3.00405925,35 3.00405925,35.6 L3.00405925,38.9 C3.00405925,47.9 2.90405925,56.7 2.70405925,65 C3.10405925,71.7 3.40405925,78.1 3.60405925,85.5 C4.10405925,103.7 3.30405925,118.7 3.60405925,141 C3.60405925,140.4 3.20405925,142.1 3.40405925,143.1 C4.00405925,147.6 3.80405925,162.9 3.80405925,171.9 C3.90405925,175.1 3.90405925,178.9 4.00405925,183.3 L4.00405925,190 C4.10405925,191.2 4.10405925,192.4 4.10405925,193.6 L4.10405925,197.1 C4.67361309,201.683927 7.8236858,205.534016 12.2040593,207 C13.3095042,207.319943 14.4533067,207.488149 15.6040593,207.5 L19.6040593,207.5 L27.6040593,207.3 C38.7040593,207.6 51.1040593,207.6 64.6040593,207.6 C90.0040593,208.2 119.704059,207.9 144.804059,209 C146.604059,209.8 139.504059,209.5 138.604059,210 C137.704059,210.5 150.404059,210.1 142.704059,210.5 C144.604059,211.3 131.904059,210.9 130.404059,210.7 C123.304059,210.8 118.904059,210.6 114.004059,210.5 C94.0040593,210.7 70.0040593,210.2 48.2040593,210 C36.0040593,209.9 31.2040593,210.4 21.5040593,210 L15.1040593,210.2 C13.9178546,210.138356 12.7430664,209.936963 11.6040593,209.6 C10.3644397,209.291113 9.18264635,208.78463 8.10405925,208.1 C5.75937101,206.63718 3.85785836,204.562802 2.60405925,202.1 C1.98241289,200.808201 1.57702372,199.423121 1.40405925,198 C1.30405925,197.3 1.30405925,196.6 1.20405925,195.9 L1.20405925,193.8 C0.904059253,182.6 0.704059253,170.6 0.504059253,159.4 C0.904059253,136.5 0.204059253,126.7 1.00405925,110.1 C0.404059253,97.3 0.204059253,84.8 0.104059253,71 C0.104059253,64 0.00405925296,56.8 0.00405925296,49 L0.00405925296,35.3 C-0.012367397,34.6982681 0.0210803052,34.0962094 0.104059253,33.5 C0.264412161,32.246056 0.532060435,31.0081827 0.904059253,29.8 C1.7978625,27.3498743 3.27350989,25.1535619 5.20405925,23.4 C6.1633475,22.5215739 7.24037253,21.7811192 8.40405925,21.2 C9.55738986,20.5444126 10.8056277,20.0721064 12.1040593,19.8 C13.3715013,19.4380761 14.6863078,19.2695112 16.0040593,19.3 L59.8040593,19.3 C77.7040593,19.3 95.7040593,19.3 114.704059,19.5 C122.304059,19.9 137.104059,19.4 141.404059,20.2 L145.504059,20.2 C147.142264,20.1302745 148.77702,20.4027339 150.304059,21 C153.758903,22.1855034 156.624062,24.6567034 158.304059,27.9 C159.179664,29.5089386 159.723724,31.2771325 159.904059,33.1 C160.054244,34.7632834 160.054244,36.4367166 159.904059,38.1 C159.904059,41.2 159.804059,44.1 159.704059,46.6 C160.304059,51.4 159.904059,52.1 160.204059,56.9 C159.904059,78.7 160.104059,95.9 160.704059,118.6 C161.304059,141.3 160.504059,147.2 161.204059,161.7 C161.204059,170.3 160.704059,173.2 161.204059,180.2 C161.104059,183.7 161.604059,185.5 161.204059,186.4 C161.104059,190.8 161.104059,193.7 161.104059,195.8 C161.184153,197.730675 160.697485,199.642584 159.704059,201.3 C159.026874,203.11028 158.008442,204.773719 156.704059,206.2 C155.391926,207.674384 153.792604,208.865368 152.004059,209.7 C150.629312,210.39896 149.137926,210.839597 147.604059,211 L146.104059,211 C145.704059,211.1 145.504059,211 145.504059,210.9 Z" id="Path" fill="#2E316A"></path>
            <rect id="Rectangle" fill="#2E316A" fill-rule="nonzero" x="43.6040593" y="14.1" width="74" height="23.44"></rect>
            <path d="M118.404059,38.4 C117.804059,38.3 118.204059,35.7 118.204059,34.4 C118.204059,33.1 118.004059,31.6 117.804059,30.4 C117.604059,29.2 117.704059,26.4 118.004059,25.7 C117.604059,23.4 117.804059,20.9 117.604059,18.3 C117.404059,15.7 117.304059,16 117.104059,14.7 L117.104059,14.1 L117.604059,14.6 L113.904059,14.8 C107.904059,15.3 98.4040593,16 91.1040593,15.3 C89.4040593,15.3 88.6040593,15.7 86.9040593,15.8 C73.0040593,15.2 65.0040593,14.9 50.8040593,15.3 C47.8040593,15 46.2040593,15.6 44.2040593,14.8 L43.6040593,14.8 L44.3040593,14.1 C44.4907931,19.1335008 44.4240419,24.1732107 44.1040593,29.2 C44.5238008,31.1801979 44.8243409,33.1837986 45.0040593,35.2 C45.1040593,36 45.1040593,36.8 45.2040593,37.6 L43.6040593,36 C47.9040593,35.9 51.8040593,36.4 57.2040593,36.2 C57.0040593,36.2 57.6040593,36.6 57.8040593,36.4 C58.0040593,36.2 63.5040593,36 66.0040593,36 L82.3040593,35.4 C85.5040593,35.7 89.1040593,35.8 93.0040593,35.8 C100.604059,36.4 109.004059,36.3 117.004059,37.1 C118.104059,37.6 115.804059,37.4 115.904059,37.8 C116.004059,38.2 119.404059,37.9 117.404059,38.1 C118.604059,38.7 114.504059,38.5 113.904059,38.3 C112.270279,38.372419 110.633524,38.3390159 109.004059,38.2 C103.204059,38.4 95.9040593,38 89.4040593,37.8 C85.8040593,37.7 84.5040593,38.2 81.5040593,37.8 C78.5040593,37.4 69.7040593,38.7 63.1040593,39.3 C56.5040593,39.9 53.4040593,39.6 48.5040593,38.8 L43.6040593,39.3 L42.0040593,39.5 L41.8040593,37.6 C41.4040593,31.7 41.4040593,25.5 41.4040593,17.1 C41.5040593,16.1 41.5040593,15.1 41.5040593,14.1 L41.5040593,12 L43.5040593,12 C53.2040593,12.3 62.3040593,12.1 72.4040593,12.3 C74.6040593,12.7 78.9040593,12.3 80.2040593,13 C83.1040593,12.5 88.1040593,13 91.0040593,13.3 C93.9040593,13.6 92.6040593,13.1 94.0040593,12.8 C100.007593,13.1291574 106.028056,12.9619223 112.004059,12.3 L119.204059,12.3 L119.204059,14 C119.140187,16.5731205 119.273913,19.147348 119.604059,21.7 C119.604059,24.4 119.104059,25.1 119.504059,27.5 C119.904059,29.9 119.804059,29.3 119.404059,29.4 C119.104059,32.1 119.404059,33.1 118.904059,33.6 C118.404059,34.1 119.004059,38.8 118.404059,38.4 Z" id="Path" fill="#2E316A"></path>
            <circle id="Oval" fill="#2E316A" fill-rule="nonzero" cx="80.6040593" cy="15.4" r="14.2"></circle>
            <path d="M96.1040593,15.4 C95.2040593,15.7 95.7040593,14.2 95.5040593,13.7 C95.3040593,13.2 95.1040593,12.5 94.7040593,12.1 C94.3040593,11.7 94.0040593,10.3 94.2040593,9.8 C93.7939048,9.43158356 93.4549426,8.99093273 93.2040593,8.5 C92.9043672,8.01019661 92.5701894,7.54234762 92.2040593,7.1 C91.7766124,6.74297893 91.3063181,6.44064691 90.8040593,6.2 L89.3040593,5 C87.8823911,4.3231169 86.411522,3.75482655 84.9040593,3.3 L80.1040593,2.4 C79.3040593,2.4 79.1040593,2.9 78.4040593,3 C75.9002178,3.19868119 73.5218346,4.17801544 71.6040593,5.8 C70.6794522,6.5915537 69.9009719,7.53926877 69.3040593,8.6 C68.557892,9.74543128 68.0793777,11.044256 67.9040593,12.4 C67.7017321,12.8790043 67.5671055,13.3838541 67.5040593,13.9 C67.5574406,14.3701157 67.4124883,14.8412106 67.1040593,15.2 C67.2762595,17.4434785 67.7126103,19.6587978 68.4040593,21.8 L70.6040593,23.5 C71.5040593,24.2 72.1040593,24.9 72.9040593,25.6 C73.7976865,26.4135483 74.8545181,27.0271925 76.0040593,27.4 C75.9040593,27.4 75.9040593,27.8 76.1040593,27.7 C76.3040593,27.6 78.5040593,28 79.6040593,28 C81.8545287,27.9642088 84.0450253,27.268813 85.9040593,26 C87.2678618,25.5863576 88.4832093,24.7877007 89.4040593,23.7 C90.6776834,22.7834769 91.6797255,21.5395626 92.3040593,20.1 C93.0498012,18.6277656 93.6525631,17.0873741 94.1040593,15.5 C94.9040593,15.2 94.6040593,16.2 95.1040593,16.3 C95.6040593,16.4 95.3040593,14.7 95.6040593,15.8 C95.9040593,16.9 95.9040593,17.4 95.7040593,17.5 C95.5920558,18.3120126 95.3201453,19.0937553 94.9040593,19.8 C94.5446674,21.2660315 93.8612494,22.6328676 92.9040593,23.8 C91.9376109,25.0394515 90.7511553,26.0903121 89.4040593,26.9 C88.1040593,27.8 87.7040593,28.5 86.3040593,28.8 C85.1511136,29.6154031 83.8653548,30.2244467 82.5040593,30.6 C80.8646996,30.9741245 79.1850404,31.1420904 77.5040593,31.1 L75.4040593,30.3 L74.5040593,30 L73.7040593,29.7 L72.3040593,28.9 C71.8313786,28.5398852 71.4252694,28.0999336 71.1040593,27.6 C69.2429496,26.8361318 67.6688427,25.506886 66.6040593,23.8 C65.2402811,21.7735689 64.4143856,19.4335318 64.2040593,17 C64.1733224,14.250902 64.7183414,11.525807 65.8040593,9 C66.9393256,6.44100011 68.7771055,4.25646922 71.1040593,2.7 L73.0040593,1.6 C73.544826,1.27677042 74.1876919,1.16962611 74.8040593,1.3 L75.9040593,0.7 C76.3565445,0.5425623 76.8267933,0.4417947 77.3040593,0.4 C78.203024,0.276016698 79.1167288,0.309857618 80.0040593,0.5 C80.7040593,-0.1 80.8040593,0.2 81.5040593,0 L83.7040593,0.4 L85.8040593,1 C87.2671098,1.44978287 88.7028522,1.9840126 90.1040593,2.6 C91.1357331,3.27877918 92.048043,4.12351058 92.8040593,5.1 L94.8040593,7.2 C95.0704229,7.63534388 95.2725093,8.10687879 95.4040593,8.6 C95.49991,9.04411081 95.7062811,9.45685289 96.0040593,9.8 C96.1040593,10.3 96.7040593,10.4 96.3040593,10.7 C96.3609261,11.1748772 96.4613491,11.6435178 96.6040593,12.1 C96.6972695,12.4038498 96.5740778,12.732361 96.3040593,12.9 C96.4040593,13.8 96.8040593,15.3 96.1040593,15.4 Z" id="Path" fill="#2E316A"></path>
            <path d="M84.2040593,15.9 C83.4040593,16 83.9040593,15.7 83.7040593,15.5 C83.5040593,15.3 83.5040593,15.3 83.2040593,15.3 C82.9040593,15.3 83.0040593,15 83.3040593,14.8 C83.6040593,14.6 82.9040593,14.5 82.6040593,14.5 L81.7040593,14.5 L80.9040593,14.8 C80.8040593,14.9 80.7040593,14.9 80.5040593,14.6 L80.5040593,15.1 C80.0040593,14.5 79.1040593,14.8 79.4040593,15.5 C79.7040593,16.2 79.6040593,15.7 78.9040593,15.8 C78.2040593,15.9 79.1040593,16.3 78.8040593,16.7 L79.8040593,16.5 C80.0040593,16.4 80.0040593,16.5 80.0040593,16.6 C80.0040593,16.7104569 80.0936023,16.8 80.2040593,16.8 C80.2040593,16.8 80.1040593,17.1 80.2040593,17 C80.3040593,16.9 80.4040593,16.7 80.5040593,16.6 C80.6859502,16.4131814 80.7263653,16.1302753 80.6040593,15.9 C80.7040593,16.1 80.8040593,16.1 80.8040593,16 C80.8040593,15.9 81.2040593,16.2 81.4040593,16.1 L82.3040593,15.8 C83.1040593,15.8 82.8040593,15.9 83.3040593,16 C83.8040593,16.1 83.4040593,15.7 83.8040593,15.9 C84.2040593,16.1 84.2040593,16.3 84.0040593,16.3 C83.8040593,16.3 83.8040593,16.6 83.6040593,16.7 C83.6930777,17.0562476 83.5281421,17.4273529 83.2040593,17.6 L82.2040593,18 C81.9040593,18 82.1040593,18.5 81.7040593,18.3 C81.3040593,18.1 80.7040593,19.5 79.8040593,19.9 C79.5037838,19.6741046 79.1649408,19.5046831 78.8040593,19.4 C78.6040593,19.4 78.3040593,19.2 78.3040593,18.7 C78.3040593,18.2 76.1040593,17.8 76.0040593,16.3 C76.1443341,15.5516702 76.3449901,14.8159314 76.6040593,14.1 C76.9070286,13.4112552 77.4362724,12.8467285 78.1040593,12.5 C78.5040593,12.6 78.8040593,12 79.3040593,12.7 C79.8040593,13.4 80.2040593,12.4 80.5040593,12.6 C80.8040593,12.8 80.6040593,12.4 80.8040593,12.2 C81.537508,12.4753269 82.3245268,12.5779816 83.1040593,12.5 C83.377151,12.6483149 83.6157222,12.8528045 83.8040593,13.1 C84.0092147,13.3314455 84.2958096,13.474743 84.6040593,13.5 C84.8040593,13.8 84.4040593,14.1 84.9040593,14.2 C85.4040593,14.3 85.4040593,14.3 85.0040593,14.5 C84.6040593,14.7 85.3040593,14.9 84.7040593,15.2 C84.1040593,15.5 85.0040593,15.9 84.2040593,15.9 Z" id="Path" fill="#FFFFFF"></path>
            <rect id="Rectangle" fill="#FFFFFF" fill-rule="nonzero" x="21.7040593" y="37.6" width="117.9" height="152.38"></rect>
            <rect id="Rectangle" fill="#232357" fill-rule="nonzero" opacity="0.06" x="47.6040593" y="58" width="91.9" height="131.97"></rect>
            <path d="M140.404059,190.6 C139.804059,191.6 140.204059,183.8 140.104059,180.3 C139.804059,178.3 139.904059,173 139.704059,169.9 C139.804059,165.1 139.604059,158.9 139.904059,156.7 C139.504059,150.6 139.704059,143.7 139.604059,136.4 C139.504059,133 139.304059,130.1 139.104059,126.2 C138.904059,122.3 139.004059,118.7 138.904059,114.5 C138.404059,97.6 137.704059,71.4 138.404059,51.3 C138.304059,46.6 137.904059,44.4 137.904059,39.7 L137.904059,37.6 L139.504059,39.2 C102.204059,38.6 80.3040593,38.4 41.7040593,38.7 C33.2040593,38.4 28.7040593,39 23.3040593,38.3 L21.7040593,38.3 L22.4040593,37.6 C22.6040593,51.9 22.5040593,66.3 22.1040593,79.2 C22.5040593,84.7 22.9040593,89.9 23.1040593,95.9 C23.5040593,110.7 22.8040593,122.8 23.1040593,140.9 C23.0040593,140.4 22.7040593,141.8 22.8040593,142.6 C23.5040593,146.3 23.2040593,158.6 23.3040593,165.9 C23.4040593,171.3 23.5040593,178.9 23.6040593,190 L21.7040593,188 L43.9040593,187.6 C52.8040593,187.9 62.8040593,188 73.6040593,188 C84.4040593,188 94.9040593,188.4 106.004059,188.6 C117.104059,188.8 128.304059,189.1 138.804059,189.5 C140.804059,190 134.804059,189.8 134.504059,190.2 C134.204059,190.6 144.104059,190.2 138.204059,190.5 C140.304059,191.1 129.604059,190.9 128.304059,190.7 C122.604059,190.8 118.804059,190.7 114.704059,190.6 C98.6040593,190.8 78.7040593,190.5 61.0040593,190.2 C51.1040593,190.1 47.2040593,190.6 39.3040593,190.2 C34.5040593,190.5 28.5040593,190.7 21.7040593,190.8 L20.8040593,190.8 L20.8040593,190 C20.5040593,179.4 20.2040593,167.1 19.9040593,155.9 C20.4040593,137.3 19.6040593,129.4 20.4040593,115.9 C19.4040593,95.1 19.4040593,75.4 19.5040593,45.9 C19.5040593,43.1 19.5040593,40.3 19.6040593,37.6 L19.6040593,35.5 L21.7040593,35.5 C48.4040593,35.8 73.9040593,35.6 101.704059,35.9 C107.904059,36.3 119.904059,35.8 123.404059,36.6 C126.904059,37.4 133.704059,36.3 139.504059,36.4 L140.704059,36.4 L140.704059,37.5 C140.604059,42.6 140.404059,47.6 140.304059,51.4 C140.204059,55.2 140.504059,55.9 140.804059,59.8 C140.404059,77.5 140.604059,91.5 141.104059,110.3 C141.604059,129.1 140.904059,133.6 141.404059,145.8 C141.404059,152.9 141.004059,155 141.304059,161 C141.204059,163.8 141.604059,165.6 141.304059,166 C141.004059,173.2 141.304059,175.4 140.804059,177.5 C140.704059,182.6 140.904059,190.8 140.404059,190.6 Z" id="Path" fill="#2E316A"></path>
            <polygon id="Path" fill="#FFCD00" fill-rule="nonzero" points="43.8 54 46.5 59.4 52.6 60.3 48.2 64.6 49.2 70.6 43.8 67.8 38.4 70.6 39.4 64.6 35 60.3 41.1 59.4"></polygon>
            <path d="M44.1,51.1440478 C44.2,51.9440478 43.7,52.1440478 43.4,52.7440478 C43.3012105,53.2526263 43.1675618,53.7538087 43,54.2440478 C42.7,54.6440478 42.5,55.4440478 42.1,55.4440478 C41.7,55.4440478 41.6,56.9440478 41.4,57.8440478 L41.4,57.8440478 C41.1049292,58.1018275 40.7663095,58.3049993 40.4,58.4440478 L39.1,58.9440478 C37.972295,59.4497574 36.8007634,59.8514253 35.6,60.1440478 L36.3,57.7440478 C37.2699846,58.4070594 38.0602705,59.300426 38.6,60.3440478 C39,60.6440478 39.5,60.5440478 39.9,60.9440478 L40.7,61.9440478 L41.3,62.7440478 L41.3,63.2440478 C40.6244297,65.1960158 40.1224817,67.2038077 39.8,69.2440478 L38.3,68.1440478 L41.7,66.2440478 C42.6,66.0440478 42.8,65.3440478 43.7,65.6440478 L44.5,65.6440478 C46.0299956,66.1740115 47.4282304,67.0265937 48.6,68.1440478 L50.1,68.1440478 L48.3,69.4440478 L48,69.0440478 C47.3,67.4440478 47.8,65.9440478 47.2,64.0440478 C47.2,64.0440478 47.5,63.8440478 47.4,63.7440478 C47.3,63.6440478 47.1,63.6440478 47,63.4440478 L47,63.4440478 L47.5,62.1440478 C47.7,61.5440478 48.5,60.9440478 49,60.4440478 L51.4,57.4440478 L52.5,61.0440478 L51.1,61.0440478 C50.0149791,60.6027766 48.8679462,60.3328865 47.7,60.2440478 L46.5,59.8440478 L45.3,59.4440478 L45.1,58.8440478 C44.9183784,58.0865668 44.7847791,57.318371 44.7,56.5440478 C44.5,55.6440478 44.4,54.5440478 44.1,53.2440478 C43.8,51.9440478 44.3,53.1440478 44.4,52.7440478 C44.5,52.3440478 43.8,51.6440478 44.2,51.9440478 C44.6,52.2440478 44.9,52.4440478 44.9,52.7440478 C45.3047594,53.2348183 45.5798337,53.8193512 45.7,54.4440478 C46.4315938,55.3779808 47.0058125,56.4250855 47.4,57.5440478 L46.9,57.2440478 L49.6,58.0440478 C50.7,58.2440478 51.2,57.8440478 52,58.3440478 L52.9,58.1440478 L53.9,58.1440478 L53.3,59.2440478 C52.6,60.5440478 51.4,62.0440478 50.5,63.5440478 C50.1637553,63.7266195 49.859722,63.9630899 49.6,64.2440478 L50,62.8440478 C50.2,64.2440478 50.7,64.9440478 50.3,66.2440478 C50.81911,67.0506124 51.2230125,67.9257344 51.5,68.8440478 L52.7,72.3440478 L48.6,70.9440478 C46.9629506,70.2900893 45.3896345,69.4866938 43.9,68.5440478 L43.1,68.0440478 L45.1,68.0440478 C43.1,68.8440478 41.4,69.7440478 39.6,70.6440478 L36.2,72.3440478 L36.9,68.7440478 C37.0137265,67.7615205 37.2145158,66.7910391 37.5,65.8440478 C38,65.2440478 37.8,63.8440478 38.6,63.5440478 C38.5179718,63.3203027 38.4839016,63.0818111 38.5,62.8440478 L38.9,63.9440478 C38.2403288,63.3114819 37.6985424,62.5665256 37.3,61.7440478 C36.6,61.7440478 36.8,61.5440478 36.3,61.4440478 C35.8103372,60.745816 35.2396955,60.1080399 34.6,59.5440478 L33,58.1440478 L35.2,57.6440478 C36.236459,57.4321348 37.243685,57.0963929 38.2,56.6440478 C39.6,56.2440478 40.4,56.3440478 41.1,56.0440478 L39.7,57.0440478 C39.8576245,56.6260618 39.9585225,56.188837 40,55.7440478 C40.6,54.7440478 41.1,54.7440478 41.3,53.6440478 C41.5,52.5440478 41.5,52.7440478 41.8,53.0440478 C42.1,53.3440478 42.6,51.7440478 43,52.1440478 C43.4,52.5440478 44.1,50.4440478 44.1,51.1440478 Z" id="Path" fill="#2E316A"></path>
            <g id="Group-2" transform="translate(61.000000, 58.000000)" fill="#2E316A">
                <path d="M64.9357448,2.50823145 C65.1357448,3.19648588 64.1357448,2.85235867 63.7357448,2.85235867 L62.5357448,2.85235867 C62.0036263,3.02755161 61.4678632,3.02755161 60.9357448,2.85235867 L55.9357448,2.85235867 C53.4067328,3.49332893 50.8687819,3.60824709 48.3357448,3.19648588 L46.9357448,3.19648588 C42.3357448,2.85235867 39.6357448,2.50823145 34.9357448,2.85235867 C34.2009004,2.95536152 33.4648434,2.84022642 32.7357448,2.50823145 L27.4357448,2.50823145 L25.4357448,3.19648588 C23.6371473,3.54230436 21.8343422,3.54230436 20.0357448,3.19648588 L19.8357448,3.19648588 C18.9096054,3.69021998 17.9697596,3.80572945 17.0357448,3.54061309 L11.4357448,4.22886751 L7.83574476,4.22886751 C5.33574476,3.8847403 2.43574476,3.8847403 0.0357447554,3.19648588 C-0.164255245,2.50823145 0.535744755,2.50823145 0.635744755,2.16410424 C0.735744755,1.81997703 -0.464255245,2.16410424 0.235744755,1.81997703 C0.935744755,1.47584982 1.33574476,1.47584982 1.43574476,1.47584982 L3.03574476,1.47584982 C5.03574476,1.13172261 7.33574476,1.81997703 9.43574476,1.81997703 C11.5357448,1.81997703 11.1357448,1.47584982 12.0357448,1.81997703 L18.2357448,0.787595393 C20.5357448,1.13172261 21.4357448,0.443468181 23.0357448,1.13172261 C25.8604743,0.200059197 28.6989571,-0.144693457 31.5357448,0.0993409692 C35.0357448,0.787595393 38.4357448,0.443468181 42.1357448,0.787595393 L44.7357448,0.787595393 C45.9364611,0.563543015 47.1404942,0.678637618 48.3357448,1.13172261 L49.3357448,1.13172261 C51.4357448,1.47584982 53.1357448,1.13172261 55.3357448,0.787595393 C57.5357448,0.443468181 58.1357448,0.787595393 59.5357448,0.0993409692 C60.1315192,0.445891733 60.7399703,0.445891733 61.3357448,0.0993409692 C61.6357448,0.443468181 61.8357448,-0.244786243 61.9357448,0.0993409692 C62.0357448,0.443468181 63.0357448,0.0993409692 63.3357448,0.787595393 C63.6357448,1.47584982 64.9357448,1.81997703 64.9357448,2.50823145 Z" id="Path"></path>
            </g>
            <g id="Group" transform="translate(61.000000, 91.955556)" fill="#2E316A">
                <path d="M40.8801622,2.19801587 C41.004481,2.88015873 40.3828872,2.19801587 40.1342497,2.5390873 L38.3937871,2.5390873 C38.0208308,3.22123016 37.5235558,2.88015873 36.901962,3.22123016 L35.2858182,3.22123016 C33.72716,3.97664448 32.1406559,4.20572929 30.5617055,3.90337302 L29.6914742,3.90337302 C27.2117703,3.27486236 24.7183096,3.16084789 22.2323488,3.56230159 C21.610755,3.22123016 21.2377988,3.56230159 20.8648425,2.88015873 C19.791002,3.22135676 18.7063953,3.22135676 17.6325548,2.88015873 L16.3893673,3.56230159 C15.2713703,3.73367543 14.1507578,3.73367543 13.0327608,3.56230159 L11.1679795,3.56230159 L7.68705432,4.24444444 L5.44931671,4.24444444 C3.95749163,3.56230159 2.09271029,3.90337302 0.600885213,2.88015873 C-0.890939862,1.85694444 0.849522725,2.5390873 0.973841481,2.19801587 C1.09816024,1.85694444 0.227928944,2.19801587 0.725203969,1.85694444 C1.22247899,1.51587302 1.34679775,1.51587302 1.47111651,1.51587302 L2.46566656,1.51587302 C3.79273596,1.29390988 5.12443835,1.40808353 6.44386676,1.85694444 C6.98075457,1.6848119 7.52312277,1.6848119 8.06001059,1.85694444 L11.913892,0.49265873 C13.2813984,1.17480159 13.9029921,0.49265873 14.8975422,1.17480159 C16.6168087,0.261705078 18.3698137,-0.0818242432 20.1189299,0.151587302 L26.707824,0.151587302 C27.2050991,0.49265873 28.0753303,0.151587302 28.3239679,0.833730159 C29.071641,0.608977442 29.8277078,0.724215609 30.5617055,1.17480159 L31.1832993,1.17480159 C32.4316627,1.28839727 33.6810422,1.05988382 34.9128619,0.49265873 C35.7841458,0.762401123 36.665557,0.647250051 37.5235558,0.151587302 L38.6424246,0.151587302 C38.8910621,0.151587302 39.0153809,-0.189484127 39.0153809,0.151587302 L39.8856122,0.151587302 C40.2585685,1.85694444 40.8801622,1.51587302 40.8801622,2.19801587 Z" id="Path"></path>
            </g>
            <g id="Group-3" transform="translate(60.968314, 126.800000)" fill="#2E316A">
                <path d="M56.9389656,1.49090909 C57.1143357,2.23636364 56.2374848,1.86363636 55.8867445,1.86363636 L54.8345234,2.60909091 L49.0473075,2.60909091 C46.8297412,3.30333156 44.6043366,3.42780044 42.3832408,2.98181818 L41.1556495,2.98181818 C37.1221355,2.60909091 34.754638,2.23636364 30.6334389,2.60909091 C29.9890899,2.72065423 29.3436777,2.59595036 28.7043669,2.23636364 C27.1548584,2.48867132 25.6032238,2.36422586 24.0570572,1.86363636 L22.3033554,2.98181818 L17.3929904,2.98181818 C16.5809043,3.51658602 15.7567997,3.64169537 14.9378079,3.35454545 L10.027443,4.1 L6.87077976,4.1 C4.67865254,3.35454545 2.13578496,3.72727273 0.0313428206,2.60909091 C-0.144027357,1.86363636 0.469768265,2.23636364 0.557453354,1.86363636 C0.645138443,1.49090909 -0.407082624,1.49090909 0.206712999,1.11818182 C0.820508621,0.745454545 1.17124898,0.745454545 1.25893407,1.11818182 L2.66189549,1.11818182 L8.27374118,1.86363636 L10.5535535,1.86363636 L15.990029,0.372727273 C18.0067861,0.745454545 18.7959519,0 20.1989133,0.745454545 C21.6018747,1.49090909 24.4954826,0 27.6521458,0 L36.9467653,0 C37.7098939,0.0189819012 38.471744,0.268092175 39.2265776,0.745454545 C40.2769655,0.37207792 41.3328529,0.37207792 42.3832408,0.745454545 L43.2600917,0.745454545 C45.0135356,1.17716204 46.7721114,1.05257431 48.521197,0.372727273 L54.3084129,0.372727273 C55.0975787,0.372727273 55.2729489,0 55.5360041,0.745454545 C55.7990594,1.49090909 56.9389656,0.745454545 56.9389656,1.49090909 Z" id="Path"></path>
            </g>
            <g id="Group-4" transform="translate(61.000000, 157.855556)" fill="#2E316A">
                <path d="M32.8833424,2.40560147 C32.9833424,3.05188246 32.4833424,2.40560147 32.2833424,2.72874197 L30.8833424,2.72874197 C30.5833424,3.37502296 30.1833424,3.05188246 29.6833424,3.37502296 L28.3833424,3.37502296 C27.1295829,4.09072336 25.8534246,4.30776463 24.5833424,4.02130395 L23.8833424,4.02130395 C21.8887086,3.42583558 19.8830091,3.31781513 17.8833424,3.69816345 C17.3833424,3.37502296 17.0833424,3.69816345 16.7833424,3.05188246 L14.1833424,3.05188246 L13.1833424,3.69816345 C12.2833424,4.02130395 11.5833424,3.37502296 10.4833424,3.69816345 L8.98334236,3.69816345 L6.18334236,4.34444444 L4.38334236,4.34444444 C3.18334236,3.69816345 1.68334236,4.02130395 0.483342362,3.05188246 C-0.716657638,2.08246097 0.683342362,2.72874197 0.783342362,2.40560147 C0.883342362,2.08246097 0.183342362,2.40560147 0.583342362,2.08246097 C0.983342362,1.75932048 1.08334236,1.75932048 1.18334236,1.75932048 L1.98334236,1.75932048 C3.05081556,1.54902647 4.12201546,1.65719774 5.18334236,2.08246097 C5.61520625,1.91937785 6.05147847,1.91937785 6.48334236,2.08246097 L9.58334236,0.78989899 C10.3873366,0.802549322 11.1897897,1.0186369 11.9833424,1.43617998 C13.3662926,0.571087118 14.7763815,0.245617947 16.1833424,0.466758494 L21.4833424,0.466758494 C21.8833424,0.78989899 22.5833424,0.466758494 22.7833424,1.11303949 C23.3847585,0.900102551 23.9929265,1.00928237 24.5833424,1.43617998 C24.8833424,0.78989899 24.8833424,1.11303949 25.0833424,1.11303949 C26.0875058,1.22066317 27.0924864,1.00416321 28.0833424,0.466758494 C28.784189,0.722319891 29.493182,0.613222583 30.1833424,0.143617998 L31.0833424,0.143617998 C31.2833424,0.143617998 31.3833424,-0.179522498 31.3833424,0.143617998 L32.0833424,0.143617998 C32.3833424,2.08246097 32.8833424,1.75932048 32.8833424,2.40560147 Z" id="Path"></path>
            </g>
            <polygon id="Path" fill="#DB234B" fill-rule="nonzero" points="44.0040593 85.6 46.7040593 91 52.8040593 91.9 48.4040593 96.2 49.4040593 102.2 44.0040593 99.4 38.6040593 102.2 39.6040593 96.2 35.2040593 91.9 41.3040593 91"></polygon>
            <path d="M44.1,84.1440478 C44.2,84.8440478 43.7,85.1440478 43.4,85.7440478 C43.3012105,86.2526263 43.1675618,86.7538087 43,87.2440478 C42.7,87.6440478 42.5,88.4440478 42.1,88.4440478 C41.7,88.4440478 41.6,89.9440478 41.4,90.8440478 L41.4,90.8440478 L40.4,91.4440478 L39.1,91.9440478 C37.972295,92.4497574 36.8007634,92.8514253 35.6,93.1440478 L36.3,90.7440478 C37.2699846,91.4070594 38.0602705,92.300426 38.6,93.3440478 C39,93.6440478 39.5,93.5440478 39.9,93.9440478 L40.7,94.9440478 L41.3,95.7440478 L41.3,96.2440478 C40.6244297,98.1960158 40.1224817,100.203808 39.8,102.244048 L38.3,101.144048 L41.7,99.2440478 C42.6,99.0440478 42.8,98.3440478 43.7,98.6440478 L44.5,98.6440478 C46.0299956,99.1740115 47.4282304,100.026594 48.6,101.144048 L50.1,101.144048 L48.3,102.444048 L48,102.044048 C47.3,100.444048 47.8,98.9440478 47.2,97.0440478 C47.2,97.0440478 47.5,96.8440478 47.4,96.7440478 C47.3,96.6440478 47.1,96.6440478 47,96.4440478 L47,96.4440478 L47.5,95.1440478 C47.7,94.5440478 48.5,93.9440478 49,93.4440478 L51.4,90.4440478 L52.5,93.8440478 L51.1,93.8440478 C49.9960254,93.4857552 48.8557238,93.2509872 47.7,93.1440478 L46.5,92.7440478 L45.3,92.3440478 L45.1,91.7440478 C44.9183784,90.9865668 44.7847791,90.218371 44.7,89.4440478 C44.5,88.5440478 44.4,87.4440478 44.1,86.1440478 C43.8,84.8440478 44.3,86.0440478 44.4,85.6440478 C44.5,85.2440478 43.8,84.5440478 44.2,84.8440478 C44.6,85.1440478 44.9,85.3440478 44.9,85.6440478 C45.3047594,86.1348183 45.5798337,86.7193512 45.7,87.3440478 C46.4412378,88.308394 47.0158425,89.3900028 47.4,90.5440478 L46.9,90.2440478 L49.6,91.0440478 C50.7,91.2440478 51.2,90.8440478 52,91.3440478 L52.9,91.1440478 L53.9,91.1440478 L53.3,92.2440478 C52.6,93.5440478 51.4,95.0440478 50.5,96.5440478 C50.1637553,96.7266195 49.859722,96.9630899 49.6,97.2440478 L50,95.8440478 C50.2,97.1440478 50.7,97.9440478 50.3,99.2440478 C50.81911,100.050612 51.2230125,100.925734 51.5,101.844048 L52.7,105.344048 L48.6,103.844048 C46.9665665,103.222096 45.393363,102.452231 43.9,101.544048 L43.1,101.044048 L45.1,101.044048 C43.1,101.844048 41.4,102.744048 39.6,103.644048 L36.2,105.344048 L36.9,101.744048 C37.0137265,100.761521 37.2145158,99.7910391 37.5,98.8440478 C38,98.2440478 37.8,96.8440478 38.6,96.5440478 C38.5179718,96.3203027 38.4839016,96.0818111 38.5,95.8440478 L38.9,96.8440478 C38.2220868,96.2670342 37.6763834,95.5507985 37.3,94.7440478 C36.6,94.7440478 36.8,94.5440478 36.3,94.3440478 C35.784251,93.6979248 35.2156217,93.0958467 34.6,92.5440478 L33,91.1440478 L35.2,90.6440478 C36.236459,90.4321348 37.243685,90.0963929 38.2,89.6440478 C39.6,89.2440478 40.4,89.3440478 41.1,89.0440478 L39.7,90.0440478 C39.8576245,89.6260618 39.9585225,89.188837 40,88.7440478 C40.6,87.7440478 41.1,87.7440478 41.3,86.6440478 C41.5,85.5440478 41.5,85.7440478 41.8,86.0440478 C42.1,86.3440478 42.6,84.7440478 43,85.1440478 C43.4,85.5440478 44.1,83.4440478 44.1,84.1440478 Z" id="Path" fill="#2E316A"></path>
            <polygon id="Path" fill="#00ECBB" fill-rule="nonzero" points="44.0040593 118.3 46.7040593 123.7 52.8040593 124.6 48.4040593 128.9 49.4040593 134.9 44.0040593 132.1 38.6040593 134.9 39.6040593 128.9 35.2040593 124.6 41.3040593 123.7"></polygon>
            <path d="M44.0040593,117 C44.1040593,117.7 43.6040593,118 43.3040593,118.5 C43.2301986,119.013995 43.0959368,119.517477 42.9040593,120 C42.6040593,120.5 42.4040593,121.3 42.0040593,121.3 C41.6040593,121.3 41.5040593,122.8 41.3040593,123.7 L41.3040593,123.7 L40.3040593,124.3 L39.0040593,124.8 C37.8763543,125.30571 36.7048227,125.707378 35.5040593,126 L36.2040593,123.6 C37.1740439,124.263012 37.9643297,125.156378 38.5040593,126.2 C38.9040593,126.5 39.4040593,126.4 39.8040593,126.8 L40.6040593,127.8 L41.2040593,128.6 L41.2040593,129.1 C40.5284889,131.051968 40.0265409,133.05976 39.7040593,135.1 L38.1040593,134 L41.5040593,132.1 C42.4040593,131.9 42.6040593,131.1 43.5040593,131.5 L44.3040593,131.5 C45.8340548,132.029964 47.2322896,132.882546 48.4040593,134 L50.0040593,134 L48.2040593,135.3 L47.9040593,134.9 C47.2040593,133.3 47.7040593,131.8 47.1040593,129.8 C47.1040593,129.9 47.4040593,129.7 47.3040593,129.6 C47.2040593,129.5 47.0040593,129.5 46.9040593,129.3 L46.9040593,129.3 L47.4040593,128 C47.6040593,127.4 48.4040593,126.8 48.9040593,126.3 L51.3040593,123.3 L52.4040593,126.9 L51.0040593,126.9 C49.9000846,126.541707 48.7597831,126.306939 47.6040593,126.2 L46.4040593,125.8 L45.2040593,125.4 L45.0040593,124.8 C44.8142383,124.010446 44.6805706,123.208439 44.6040593,122.4 C44.4040593,121.6 44.3040593,120.5 44.0040593,119.2 C43.7040593,117.9 44.2040593,119.1 44.3040593,118.7 C44.4040593,118.3 43.7040593,117.6 44.1040593,117.9 C44.5040593,118.2 44.8040593,118.4 44.8040593,118.7 C45.2088187,119.190771 45.4838929,119.775303 45.6040593,120.4 C46.345297,121.364346 46.9199017,122.445955 47.3040593,123.6 L46.8040593,123.3 L49.5040593,124.1 C50.6040593,124.3 51.1040593,123.9 51.9040593,124.4 L52.8040593,124.2 L53.8040593,124.2 L53.2040593,125.3 C52.5040593,126.6 51.3040593,128.1 50.4040593,129.6 C50.0678146,129.782572 49.7637813,130.019042 49.5040593,130.3 L49.9040593,128.9 C50.1040593,130.2 50.6040593,131 50.2040593,132.3 C50.7231693,133.106565 51.1270717,133.981687 51.4040593,134.9 L52.6040593,138.4 L48.5040593,137 C46.8706258,136.378048 45.2974223,135.608183 43.8040593,134.7 L43.0040593,134.2 L45.0040593,134.2 C43.0040593,135 41.3040593,135.9 39.5040593,136.8 L36.1040593,138.5 L36.8040593,134.9 C36.9177858,133.917473 37.118575,132.946991 37.4040593,132 C37.9040593,131.4 37.7040593,130 38.5040593,129.7 C38.422031,129.476255 38.3879608,129.237763 38.4040593,129 L38.8040593,130 C38.1261461,129.422986 37.5804426,128.706751 37.2040593,127.9 C36.5040593,127.9 36.7040593,127.7 36.2040593,127.5 C35.6883102,126.853877 35.119681,126.251799 34.5040593,125.7 L32.9040593,124 L35.1040593,123.5 C36.1405183,123.288087 37.1477442,122.952345 38.1040593,122.5 C39.5040593,122.1 40.3040593,122.2 41.0040593,121.9 L39.6040593,122.9 C39.7616837,122.482014 39.8625817,122.044789 39.9040593,121.6 C40.5040593,120.6 41.0040593,120.6 41.2040593,119.5 C41.4040593,118.4 41.4040593,118.6 41.7040593,118.9 C42.0040593,119.2 42.5040593,117.6 42.9040593,118 C43.3040593,118.4 44.0040593,116.3 44.0040593,117 Z" id="Path" fill="#2E316A"></path>
            <polygon id="Path" fill="#00D9F5" fill-rule="nonzero" points="44.0040593 150.9 46.7040593 156.4 52.8040593 157.3 48.4040593 161.6 49.4040593 167.6 44.0040593 164.8 38.6040593 167.6 39.6040593 161.6 35.2040593 157.3 41.3040593 156.4"></polygon>
            <path d="M44.1,150.133512 C44.2,150.833512 43.7,151.133512 43.4,151.633512 C43.3261394,152.147506 43.1918775,152.650988 43,153.133512 C42.7,153.633512 42.5,154.433512 42.1,154.433512 C41.7,154.433512 41.6,155.933512 41.4,156.833512 L41.4,156.833512 L40.4,157.433512 L39.1,157.933512 C37.972295,158.439221 36.8007634,158.840889 35.6,159.133512 L36.3,156.733512 C37.2699846,157.396523 38.0602705,158.28989 38.6,159.333512 C39,159.633512 39.5,159.533512 39.9,159.933512 L40.7,160.933512 L41.3,161.733512 L41.3,162.233512 C40.6244297,164.18548 40.1224817,166.193272 39.8,168.233512 L38.3,167.133512 L41.7,165.233512 C42.6,165.033512 42.8,164.233512 43.7,164.633512 L44.5,164.633512 C46.0054634,165.168494 47.396463,165.982738 48.6,167.033512 L50.1,167.033512 L48.3,168.333512 L48,167.933512 C47.3,166.333512 47.8,164.833512 47.2,162.833512 C47.2,162.933512 47.5,162.733512 47.4,162.633512 C47.3,162.533512 47.1,162.533512 47,162.333512 L47,162.333512 L47.5,161.033512 C47.7,160.433512 48.5,159.833512 49,159.333512 L51.4,156.333512 L52.5,159.933512 L51.1,159.933512 C49.9960254,159.575219 48.8557238,159.340451 47.7,159.233512 L46.5,158.833512 L45.3,158.433512 L45.1,157.833512 C44.9101791,157.043957 44.7765114,156.241951 44.7,155.433512 C44.5,154.633512 44.4,153.533512 44.1,152.233512 C43.8,150.933512 44.3,152.133512 44.4,151.733512 C44.5,151.333512 43.8,150.633512 44.2,150.933512 C44.6,151.233512 44.9,151.433512 44.9,151.733512 C45.3047594,152.224282 45.5798337,152.808815 45.7,153.433512 C46.4412378,154.397858 47.0158425,155.479467 47.4,156.633512 L46.9,156.333512 L49.6,157.133512 C50.7,157.333512 51.2,156.933512 52,157.433512 L52.9,157.233512 L53.9,157.233512 L53.3,158.333512 C52.6,159.633512 51.4,161.133512 50.5,162.633512 C50.1637553,162.816083 49.859722,163.052554 49.6,163.333512 L50,161.933512 C50.2,163.233512 50.7,164.033512 50.3,165.333512 C50.81911,166.140076 51.2230125,167.015198 51.5,167.933512 L52.7,171.433512 L48.6,170.033512 C46.9665665,169.41156 45.393363,168.641694 43.9,167.733512 L43.1,167.233512 L45.1,167.233512 C43.1,168.033512 41.4,168.933512 39.6,169.833512 L36.2,171.533512 L36.9,167.933512 C37.0137265,166.950984 37.2145158,165.980503 37.5,165.033512 C38,164.433512 37.8,163.033512 38.6,162.733512 C38.5179718,162.509767 38.4839016,162.271275 38.5,162.033512 L38.9,163.033512 C38.2220868,162.456498 37.6763834,161.740262 37.3,160.933512 C36.6,160.933512 36.8,160.733512 36.3,160.533512 C35.784251,159.887389 35.2156217,159.285311 34.6,158.733512 L33,157.333512 L35.2,156.833512 C36.236459,156.621599 37.243685,156.285857 38.2,155.833512 C39.6,155.433512 40.4,155.533512 41.1,155.233512 L39.7,156.233512 C39.8576245,155.815526 39.9585225,155.378301 40,154.933512 C40.6,153.933512 41.1,153.933512 41.3,152.833512 C41.5,151.733512 41.5,151.933512 41.8,152.233512 C42.1,152.533512 42.6,150.933512 43,151.333512 C43.4,151.733512 44.1,149.433512 44.1,150.133512 Z" id="Path" fill="#2E316A"></path>
            <path d="M13.4040593,12.6 C13.0040593,13.1 13.2040593,12.7 13.0040593,12.8 C12.8040593,12.9 12.8040593,12.9 12.7040593,12.9 C12.6040593,12.9 12.5040593,12.9 12.7040593,12.7 C12.9040593,12.5 12.4040593,12.7 12.2040593,12.7 L11.9040593,12.9 L11.6040593,12.9 C11.2040593,12.9 10.5040593,13 10.7040593,12.4 L10.3040593,12.4 C10.3040593,11.6 10.2040593,11.3 9.70405925,11 C9.20405925,10.7 9.40405925,10.9 9.80405925,10.5 C10.2040593,10.1 9.40405925,10.2 9.60405925,9.9 L8.80405925,10.1 C8.40405925,10.1 8.80405925,9.6 8.50405925,9.5 L8.60405925,9.5 C8.20405925,9.7 8.20405925,9.4 8.10405925,9.3 L7.30405925,9 C7.40405925,8.8 7.40405925,8.6 7.20405925,8.5 C7.00405925,8.4 7.20405925,7.7 7.80405925,7.1 C8.40405925,6.5 8.20405925,7 8.50405925,6.9 C8.80405925,6.8 8.50405925,6.7 8.80405925,6.7 C9.10405925,6.7 9.10405925,6.7 9.00405925,6.7 C8.90405925,6.7 9.00405925,6.9 8.90405925,7 C8.80405925,7.1 9.00405925,7.5 8.90405925,7.8 C8.80405925,8.1 9.30405925,7.9 9.10405925,8.1 C8.90405925,8.3 9.90405925,8.2 10.4040593,8.2 C10.9040593,8.2 10.8040593,8.4 10.4040593,8.9 C10.0040593,9.4 11.3040593,8.9 11.5040593,9.3 C11.7040593,9.7 11.8040593,10 11.9040593,10.4 C12.0040593,10.8 12.1040593,10.6 11.7040593,11 C11.3040593,11.4 11.9040593,11.2 11.8040593,11.5 C11.7040593,11.8 12.0040593,11.4 12.2040593,11.3 C12.4040593,11.2 12.4040593,11.7 12.9040593,11.6 C13.4040593,11.5 13.0040593,11.9 13.5040593,11.7 C14.0040593,11.5 13.3040593,12 13.6040593,11.8 C13.9040593,11.6 13.9040593,11.7 13.7040593,11.9 C13.5040593,12.1 13.9040593,11.8 13.5040593,12.2 C13.1040593,12.6 13.8040593,12.2 13.4040593,12.6 Z" id="Path" fill="#CCCFDB"></path>
            <path d="M21.8040593,11.8 C21.1040593,11.9 21.5040593,11.7 21.4040593,11.7 L21.0040593,11.7 C21.0040593,11.6 20.9040593,11.6 21.2040593,11.5 C21.5040593,11.4 20.9040593,11.4 20.8040593,11.3 L20.2040593,11.3 C19.8040593,11.1 19.2040593,10.8 19.7040593,10.5 L19.3040593,10.5 C19.7040593,9.9 19.8040593,9.6 19.5040593,9.1 C19.2040593,8.6 19.2040593,8.9 19.8040593,8.8 C20.4040593,8.7 19.6040593,8.4 19.9040593,8.2 L19.1040593,8.2 C18.8040593,8 19.3040593,7.8 19.0040593,7.6 L19.2040593,7.6 C18.7040593,7.6 18.9040593,7.4 18.8040593,7.3 L18.2040593,6.8 C18.2835967,6.68266549 18.3190231,6.54095982 18.3040593,6.4 C18.7040593,6 18.4040593,5.7 19.2040593,5.3 C20.0040593,4.9 19.6040593,5.3 19.9040593,5.3 C20.2040593,5.3 20.0040593,5.1 20.3040593,5.2 C20.6040593,5.3 20.6040593,5.3 20.5040593,5.3 C20.4040593,5.3 20.4040593,5.4 20.3040593,5.5 C20.2040593,5.6 20.2040593,6 20.1040593,6.3 C20.0040593,6.6 20.4040593,6.4 20.1040593,6.6 C20.5270871,6.70488901 20.9317101,6.87348193 21.3040593,7.1 C21.0040593,7.4 21.6040593,7.4 21.0040593,7.7 C21.9040593,7.8 21.8040593,8.1 21.9040593,8.5 C22.0040593,8.9 21.9040593,9.3 21.7040593,9.8 C21.5040593,10.3 21.8040593,10 21.2040593,10.1 C20.6040593,10.2 21.3040593,10.4 21.1040593,10.6 L21.5040593,10.6 C21.3040593,10.9 21.4040593,11.1 21.9040593,11.2 C22.4040593,11.3 21.9040593,11.6 22.4040593,11.6 C22.9040593,11.6 22.1040593,11.8 22.4040593,11.8 C22.7040593,11.8 22.7040593,11.9 22.4040593,11.9 C22.1040593,11.9 22.6040593,12 22.1040593,12.1 C21.6040593,12.2 22.3040593,11.7 21.8040593,11.8 Z" id="Path" fill="#CCCFDB"></path>
            <path d="M31.8040593,11.1 C31.1040593,10.9 31.5040593,10.9 31.5040593,10.8 L31.1040593,10.6 L31.4040593,10.6 C31.0040593,10.4 31.2040593,10.4 31.1040593,10.3 L30.8040593,10.1 L30.6040593,9.9 C30.3040593,9.6 29.9040593,9.2 30.5040593,9.1 L30.1040593,8.9 C30.7040593,8.6 30.9040593,8.3 30.7040593,7.8 C30.5040593,7.3 30.5040593,7.7 31.1040593,7.7 C31.7040593,7.7 31.0040593,7.3 31.3040593,7.2 L30.6040593,6.9 C30.3040593,6.7 30.8040593,6.6 30.7040593,6.4 L30.8040593,6.4 C30.3040593,6.3 30.5040593,6.2 30.5040593,6.1 L30.0040593,5.5 C30.1040593,5.4 30.2040593,5.3 30.1040593,5.2 C30.0040593,5.1 30.4040593,4.7 31.2040593,4.4 L31.9040593,4.4 C32.3040593,4.4 32.0040593,4.3 32.3040593,4.4 C32.6040593,4.5 32.6040593,4.5 32.5040593,4.5 C32.4040593,4.5 32.4040593,4.6 32.3040593,4.7 C32.2040593,4.8 32.1040593,5.1 31.9040593,5.3 C31.7040593,5.5 32.2040593,5.5 31.9040593,5.6 C31.6040593,5.7 32.6040593,6 33.0040593,6.3 C33.4040593,6.6 33.2040593,6.6 32.6040593,6.8 C32.0040593,7 33.3040593,7.3 33.2040593,7.7 C33.1040593,8.1 33.0040593,8.4 32.7040593,8.8 C32.4040593,9.2 32.7040593,9 32.1040593,9 C31.5040593,9 32.1040593,9.2 31.9040593,9.3 L32.2040593,9.5 C31.9040593,9.6 32.0040593,9.8 32.4040593,10.2 C32.8040593,10.6 32.2040593,10.4 32.6040593,10.7 C33.0040593,11 32.3040593,10.7 32.6040593,10.9 C32.9040593,11.1 32.8040593,11.1 32.5040593,11 L32.2040593,11 C32.1040593,11.1 32.3040593,11.2 31.8040593,11.1 Z" id="Path" fill="#CCCFDB"></path>
            <path d="M129.304059,11.2 C128.604059,11.3 129.004059,11.1 128.904059,11.1 L128.504059,11.1 C128.504059,11 128.404059,10.9 128.704059,10.9 C129.004059,10.9 128.404059,10.7 128.304059,10.7 L127.704059,10.7 C127.304059,10.5 126.704059,10.3 127.204059,9.9 L126.804059,9.9 C127.204059,9.4 127.404059,9.1 127.104059,8.6 C126.804059,8.1 126.804059,8.5 127.404059,8.4 C128.004059,8.3 127.204059,8 127.504059,7.8 L126.804059,7.8 C126.404059,7.6 127.004059,7.4 126.704059,7.2 L126.904059,7.2 C126.404059,7.1 126.604059,7 126.604059,6.9 L126.004059,6.3 C126.204059,6.2 126.204059,6.1 126.104059,5.9 C126.004059,5.7 126.404059,5.3 127.204059,5.1 C128.004059,4.9 127.604059,5.1 127.904059,5.1 C128.204059,5.1 128.004059,5 128.304059,5.1 C128.604059,5.2 128.604059,5.2 128.504059,5.2 C128.404059,5.2 128.404059,5.3 128.304059,5.4 C128.204059,5.5 128.104059,5.8 128.004059,6 C127.904059,6.2 128.304059,6.2 128.004059,6.3 C127.704059,6.4 128.704059,6.7 129.104059,6.9 C129.504059,7.1 129.304059,7.2 128.704059,7.4 C128.104059,7.6 129.504059,7.8 129.504059,8.2 C129.504059,8.6 129.504059,8.9 129.304059,9.2 C129.104059,9.5 129.404059,9.5 128.804059,9.6 C128.204059,9.7 128.804059,9.8 128.604059,10 L129.004059,10 C128.804059,10.3 129.004059,10.4 129.504059,10.6 C130.004059,10.8 129.404059,10.9 129.904059,10.9 C130.404059,10.9 129.604059,11.1 129.904059,11.1 L129.904059,11.1 C129.804059,11.3 130.104059,11.2 129.604059,11.3 C129.104059,11.4 129.804059,11.1 129.304059,11.2 Z" id="Path" fill="#CCCFDB"></path>
            <path d="M136.204059,13.6 C135.604059,13.7 136.004059,13.5 135.904059,13.5 C135.804059,13.5 135.704059,13.3 135.604059,13.2 C135.504059,13.1 135.504059,13 135.804059,13 C136.104059,13 135.604059,12.7 135.504059,12.6 L135.204059,12.3 L135.004059,12 C134.804059,11.6 134.504059,10.8 135.104059,10.6 L134.904059,10.3 C135.553058,9.93659181 136.02339,9.32154287 136.204059,8.6 C136.404059,8.6 136.104059,8.3 136.604059,8.4 C137.104059,8.5 136.804059,7.9 137.204059,7.8 C137.604059,7.7 136.804059,7.3 136.804059,7.1 C136.804059,6.9 137.204059,6.8 137.204059,6.4 L137.304059,6.4 C136.904059,6.2 137.204059,6 137.204059,5.9 C137.21186,5.56382712 137.178274,5.22797134 137.104059,4.9 C137.304059,4.9 137.404059,4.7 137.404059,4.5 C137.625514,4.45517569 137.811716,4.30621432 137.904059,4.1 L138.704059,3.7 L139.404059,3.9 C139.704059,4 139.604059,3.8 139.804059,3.9 C140.004059,4 140.104059,4.2 139.904059,4.2 C139.704059,4.2 139.804059,4.4 139.704059,4.4 C139.604059,4.4 139.304059,5.1 139.004059,5.4 C138.704059,5.7 139.204059,5.7 138.904059,5.8 C139.13009,6.24328692 139.298136,6.71381763 139.404059,7.2 C138.904059,7.4 139.304059,7.8 138.704059,7.8 C138.104059,7.8 138.904059,8.8 138.604059,9.3 C138.304059,9.8 138.004059,10.2 137.504059,10.6 C137.004059,11 137.404059,10.9 136.904059,10.8 C136.404059,10.7 136.704059,11.1 136.504059,11.2 C136.304059,11.3 136.604059,11.3 136.704059,11.5 C136.804059,11.7 136.404059,12 136.804059,12.4 C137.204059,12.8 136.604059,12.8 137.004059,13 C137.404059,13.2 136.704059,13.1 137.004059,13.2 C137.304059,13.3 137.304059,13.3 137.004059,13.3 C136.704059,13.3 137.104059,13.5 136.604059,13.5 C136.104059,13.5 136.804059,13.7 136.204059,13.6 Z" id="Path" fill="#CCCFDB"></path>
            <path d="M147.004059,15 C146.404059,14.6 146.804059,14.7 146.804059,14.6 C146.804059,14.5 146.704059,14.4 146.604059,14.2 C146.504059,14 146.704059,14 146.904059,14.1 C147.104059,14.2 146.904059,13.7 146.904059,13.5 L146.704059,13.1 L146.704059,12.8 C146.604059,12.3 146.504059,11.5 147.204059,11.5 L147.004059,11.1 C147.804059,10.6 148.204059,10.3 148.404059,9.4 C148.604059,8.5 148.404059,9 148.904059,9.2 C148.900465,8.84930805 149.156943,8.55008306 149.504059,8.5 C149.304059,8.2 149.104059,8 149.104059,7.8 C149.104059,7.6 149.504059,7.4 149.504059,6.9 L149.704059,6.9 C149.304059,6.6 149.604059,6.5 149.604059,6.3 C149.612291,5.9307363 149.578744,5.56172583 149.504059,5.2 C149.638002,5.17598751 149.756371,5.09841995 149.831854,4.98519631 C149.907336,4.87197268 149.93341,4.73287478 149.904059,4.6 C150.604059,4.4 150.604059,3.9 151.504059,3.8 C152.404059,3.7 151.804059,4 152.104059,4.2 C152.404059,4.4 152.304059,4 152.504059,4.2 C152.704059,4.4 152.704059,4.5 152.604059,4.5 C152.504059,4.5 152.404059,4.7 152.304059,4.7 C152.204059,4.7 151.804059,5.4 151.504059,5.7 C151.204059,6 151.604059,6.1 151.304059,6.1 C151.541966,6.56608802 151.678299,7.07733956 151.704059,7.6 C151.304059,7.8 151.704059,8.2 151.004059,8.2 C150.304059,8.2 151.204059,9.4 150.904059,10 C150.604059,10.6 150.104059,11 149.604059,11.5 C149.104059,12 149.404059,11.9 148.904059,11.7 C148.404059,11.5 148.604059,12.1 148.404059,12.1 C148.204059,12.1 148.504059,12.3 148.604059,12.5 C148.704059,12.7 148.104059,13 148.304059,13.6 C148.504059,14.2 147.904059,14 148.104059,14.5 C148.304059,15 147.704059,14.5 147.904059,14.8 C148.104059,15.1 148.104059,15 147.904059,14.9 C147.704059,14.8 147.904059,15.1 147.404059,14.9 C146.904059,14.7 147.404059,15.3 147.004059,15 Z" id="Path" fill="#CCCFDB"></path>
        </g>
        <path d="M186.004059,115.79 C184.087411,155.557624 180.86181,181.260957 176.327256,192.9 C171.792703,204.539043 162.562841,210.8058 148.637669,211.700273 L172.988359,211.700273 C181.272631,211.700273 187.988359,204.984544 187.988359,196.700273 C187.988359,196.577392 187.986849,196.454517 187.98383,196.331674 L186.004059,115.79 L186.004059,115.79 Z" id="Path-194" fill-opacity="0.2" fill="#2F326A"></path>
    </g>
</svg>