<?xml version="1.0" standalone="no"?>
<!DOCTYPE svg PUBLIC "-//W3C//DTD SVG 20010904//EN"
 "http://www.w3.org/TR/2001/REC-SVG-20010904/DTD/svg10.dtd">
<svg version="1.0" xmlns="http://www.w3.org/2000/svg"
 width="216.000000pt" height="216.000000pt" viewBox="0 0 216.000000 216.000000"
 preserveAspectRatio="xMidYMid meet">

<g transform="translate(0.000000,216.000000) scale(0.100000,-0.100000)"
fill="#000000" stroke="none">
<path d="M655 2041 c-58 -26 -90 -96 -70 -155 16 -45 32 -64 274 -321 106
-113 192 -208 189 -210 -2 -2 -134 133 -292 300 -312 329 -332 345 -412 330
-49 -9 -100 -60 -110 -109 -13 -72 12 -105 306 -416 151 -160 277 -296 279
-303 4 -14 -7 -3 -282 284 -207 217 -258 259 -307 259 -76 0 -138 -81 -125
-162 8 -45 14 -51 338 -387 177 -184 215 -231 189 -231 -5 0 -82 75 -172 166
-207 209 -213 214 -257 214 -107 0 -157 -115 -88 -205 37 -49 514 -554 612
-648 121 -117 268 -231 354 -277 93 -49 195 -75 242 -61 l32 9 -35 1 c-53 1
-146 28 -214 61 -79 38 -193 125 -319 241 -101 94 -585 607 -644 683 -52 66
-41 138 25 165 17 7 37 9 50 4 23 -9 413 -391 409 -402 -1 -3 1 -7 6 -8 18 -7
27 -2 27 14 0 9 8 25 17 35 19 21 28 58 14 58 -5 0 -11 -4 -13 -8 -3 -8 -325
323 -471 484 -62 69 -67 78 -67 120 0 37 6 51 29 75 64 64 98 42 372 -247 128
-135 244 -254 258 -265 21 -17 23 -23 13 -40 -10 -15 -10 -19 2 -19 8 0 23 15
35 33 11 17 26 40 33 49 7 9 9 21 5 25 -5 4 -11 3 -15 -3 -4 -6 -77 64 -167
158 -387 406 -424 448 -435 487 -26 96 60 163 157 122 16 -6 72 -58 124 -114
52 -56 183 -195 291 -308 135 -141 194 -209 187 -216 -8 -8 -7 -13 2 -19 8 -5
17 -1 23 11 6 10 20 29 32 41 24 25 35 49 27 58 -3 3 -11 -1 -17 -10 -10 -13
-48 23 -235 224 -123 131 -230 250 -237 263 -35 63 8 149 74 149 59 0 112 -46
382 -325 149 -154 323 -330 387 -391 l117 -110 -26 -65 c-64 -162 -78 -241
-58 -325 7 -30 17 -57 22 -60 11 -7 10 15 -3 75 -9 44 -7 62 16 148 40 148 55
185 92 220 18 18 33 36 33 41 0 5 -25 80 -55 167 -64 181 -69 231 -31 310 40
87 129 137 154 88 5 -10 81 -202 167 -428 176 -457 183 -487 151 -615 -22 -86
-82 -211 -139 -285 -55 -74 -173 -191 -247 -246 -70 -52 -75 -58 -25 -29 199
116 389 362 431 558 28 134 18 186 -88 472 -141 379 -221 576 -241 598 -70 75
-215 -70 -217 -217 0 -29 20 -102 56 -208 56 -162 59 -192 21 -177 -9 3 -186
180 -392 392 -207 212 -391 397 -410 410 -36 26 -107 38 -140 23z"/>
<path d="M1284 1108 c-10 -18 -23 -71 -30 -118 -7 -47 -20 -114 -28 -150 -15
-65 -12 -165 5 -154 5 3 9 29 9 57 0 29 7 75 16 102 8 28 21 93 29 147 7 53
18 105 24 116 14 25 14 32 1 32 -5 0 -17 -15 -26 -32z"/>
<path d="M1520 140 c-8 -5 -10 -10 -5 -10 6 0 17 5 25 10 8 5 11 10 5 10 -5 0
-17 -5 -25 -10z"/>
<path d="M1448 113 c7 -3 16 -2 19 1 4 3 -2 6 -13 5 -11 0 -14 -3 -6 -6z"/>
<path d="M1388 103 c6 -2 18 -2 25 0 6 3 1 5 -13 5 -14 0 -19 -2 -12 -5z"/>
</g>
</svg>
