<svg height="216" viewBox="0 0 216 216" width="216" xmlns="http://www.w3.org/2000/svg"><g fill="none" fill-rule="evenodd" transform="translate(0 19)"><path d="m108.63 95.1578281-104.06 41.2499999 104.06 41.24 104.06-41.24z" fill="#00ecbb" fill-rule="nonzero"/><path d="m32.94 125.157828 75.69 30 75.68-30-75.68-29.9999999z" fill="#232357" fill-rule="nonzero" opacity=".2"/><path d="m108.78 96.4578281c-1.21-1.35 5 1.67 7.69 2.57 1.3.11 5.45 1.8999999 7.71 2.5699999 3.68 1.49 8.4 3.2 10.23 4.31 4.53 1.27 9.88 3.64 15.45 5.63 2.6.93 4.83 1.55 7.78 2.58s5.77 2.16 9.05 3.33c12.24 4.33 31.44 11.24 46.47 17.77l3 1.31-3 1.06-2.68.94c-3.63 1.48-5.19 2.53-8.81 4-29.86 11.18-47 17.72-77.19 30.08-6.61 2.28-9.89 4.22-14.31 5.15l-1.28.54-.25.1-.27-.1c-11.12-4.18-22.16-8.65-32-13-4.33-1.27-8.46-2.52-13.18-4.2-11.53-4.08-20.62-8.45-34.67-13.73.42.15-.52-.62-1.19-.73-3.08-.51-12.49-4.52-18.15-6.68l-5.25-2-3.93-1.49 3.94-1.65 30.71-12.87c7-2.53 14.86-5.55 23.35-9 16.06-5.69 34.73-13.3299999 50.45-18.4299999 1.12.32-3.34 1.81-3.85 2.48-1.21.93 7.33-2.76 2.57-.53 1.18.41-6.74 3.12-7.68 3.29-4.39 1.8499999-7.17 2.7499999-10.25 3.8299999-12.41 5.18-27.43 10.65-41.07 15.79-7.62 2.94-10.52 4.66-16.67 6.66-6.72 3.13-16.5 7.3-26.5 11.57v-2.41l13.09 4.74c14.18 6.09 20.55 7.8 30.64 12.65 16.42 5.37 31.63 11.45 54.27 20.45l6.36 2.65h-1.53c20.75-7.89 40.26-15.84 61.76-24.09 4.94-1.54 14-5.62 17-6 6.06-3 16.89-6.72 23.19-8.93.811449-.498405 1.653069-.945933 2.52-1.34v2c-1.11-.38-2-.78-3.82-1.34-13.43-5.66-24.22-9.77-38.45-14.74-13.73-5.26-17.74-7.23-26.85-10.18-5.35-2.1-7.08-3.27-11.47-4.57-2.17-.92-3.32-.91-3.81-1.53-5.53-2.42-7.06-2.6-8.9-4-3.87-1.5699999-9.93-3.6499999-10.22-4.5099999z" fill="#2e316a"/><path d="m45.87 120.037828 62.76 24.87 62.75-24.87-62.75-24.8799999z" fill="#2e316a" fill-rule="nonzero"/><path d="m47.2 120.037828c-1.6.28 2.71-1.17 4.16-1.79.38-.33 3-1.29 4.17-1.85 2.1139241-.899239 4.2735571-1.686988 6.47-2.36 2.2-1.2 5.67-2.4 8.82-3.81 1.47-.66 2.58-1.3 4.23-2.09s3.39-1.46 5.27-2.34c3.5-1.64 8-3.77 13-5.9199999 5-2.15 10.17-4.27 14.92-5.86l.55-.18.39.18 1.55.73c2.21.83 3.39.87 5.6 1.7 17.64 7.6499999 27.82 11.9299999 46.27 18.8599999 3.79 1.84 6.12 2.12 8.34 3.82l.79.28 1.67.61-1.67.72c-6.58 2.83-13.29 5.4-19.45 7.42-2.37 1.38-4.64 2.67-7.38 4-6.69 3.13-12.59 4.7-20.91 8.28.25-.1-.54-.19-.86.09-1.47 1.29-7.29 3.32-10.66 4.74l-3.13 1.3-.59.25-.67-.25c-4.35-1.58-12.12-4.38-19.42-7.12-4.17-2-8.93-4-14.19-6.17-4.64-2.25-9.82-4.51-14.89-6.75s-10.12-4.49-14.29-6.49c.1-.27 2.51.8 3.29.91 1.17.27-4.29-1.73-1.07-.61.17-.28 4.52 1.52 4.88 1.76 2.76 1 4.23 1.65 5.94 2.4 7.74 2.8 16.26 6.37 24.24 9.78 4.5 1.89 6.66 2.21 10 3.95 4.39 1.27 10.4 3.34 16.5 5.44h-.95l7.65-3.49c8.8-3 12.2-5.18 18.75-6.92 9.27-4.79 18.47-8.38 32.16-13.78l3.91-1.42v3.87c-12.33-5.23-24.22-9.72-37-15.07-2.75-1.5-8.49-3.3-9.8-4.66-4-1-10.21-3.9999999-13.85-5.7499999-.579985-.0498033-1.153132-.1604105-1.71-.33h.77c-.744797.2922991-1.472608.6261571-2.18 1-8.18 2.88-14.57 5.6099999-22.43 9.1999999-8 3.15-10.7 3.9-15.5 6.12-3.16 1.15-4.68 1.41-6.88 2.47-1.36.46-1.58.8-2.3.83-3.55 1.17-4 1.55-5.87 1.89-2.1643466.932373-4.3814819 1.737087-6.64 2.41z" fill="#2e316a"/><path d="m108.63 53.9178281-104.06 41.24 104.06 41.2499999 104.06-41.2499999z" fill="#00ecbb" fill-rule="nonzero"/><path d="m34.37 83.3478281 74.26 29.4299999 74.26-29.4299999-74.26-29.43z" fill="#232357" fill-rule="nonzero" opacity=".2"/><path d="m108.78 55.2078281c-1.21-1.34 5 1.67 7.69 2.57 1.3.12 5.45 1.91 7.71 2.58 3.68 1.49 8.4 3.2 10.23 4.31 4.53 1.26 9.88 3.64 15.45 5.62 2.6.93 4.83 1.56 7.78 2.58s5.77 2.17 9.05 3.33c12.24 4.34 31.44 11.24 46.47 17.78l3 1.3-3 1.06-2.68 1c-3.63 1.48-5.19 2.53-8.81 3.9999999-29.86 11.17-47 17.71-77.19 30.08-6.61 2.27-9.89 4.22-14.31 5.15l-1.28.54-.25.1-.27-.1c-11.12-4.19-22.16-8.65-32-13-4.33-1.27-8.46-2.52-13.18-4.19-11.53-4.08-20.62-8.45-34.67-13.74.42.16-.52-.62-1.19-.73-3.08-.51-12.49-4.51-18.15-6.6799999l-5.25-2-3.93-1.54 3.94-1.65 30.71-12.87c7-2.53 14.86-5.56 23.35-9 16.06-5.67 34.73-13.3 50.45-18.41 1.12.33-3.34 1.82-3.85 2.49-1.21.92 7.33-2.77 2.57-.54 1.18.42-6.74 3.12-7.68 3.29-4.39 1.86-7.17 2.76-10.25 3.83-12.41 5.18-27.43 10.67-41.07 15.8-7.62 2.9-10.52 4.6-16.67 6.61-6.72 3.15-16.5 7.31-26.5 11.58v-2.4l13.09 4.73c14.18 6.0899999 20.55 7.7999999 30.64 12.6599999 16.38 5.37 31.59 11.46 54.26 20.48l6.36 2.64h-1.53c20.75-7.88 40.26-15.84 61.76-24.08 4.94-1.55 14-5.62 17-5.95 6.06-3 16.89-6.7199999 23.19-8.9399999.813721-.4944235 1.6551-.9418232 2.52-1.34v2c-1.11-.39-2-.78-3.82-1.34-13.47-5.66-24.22-9.78-38.47-14.78-13.73-5.25-17.74-7.22-26.85-10.18-5.35-2.09-7.08-3.27-11.47-4.57-2.17-.92-3.32-.9-3.81-1.52-5.53-2.42-7.06-2.6-8.9-4-3.84-1.62-9.9-3.73-10.19-4.56z" fill="#2e316a"/><path d="m45.87 78.7878281 62.76 24.8799999 62.75-24.8799999-62.75-24.87z" fill="#2e316a" fill-rule="nonzero"/><path d="m47.2 78.7578281c-1.6.27 2.71-1.18 4.16-1.79.38-.33 3-1.3 4.17-1.86 2.25-.86 4.93-2 6.42-2.36 2.2-1.19 5.67-2.4 8.82-3.8 1.47-.66 2.58-1.31 4.23-2.09s3.39-1.46 5.27-2.34c3.5-1.64 8-3.78 13-5.92s10.17-4.27 14.92-5.86l.55-.19.39.19 1.55.72c2.21.84 3.39.87 5.6 1.71 17.64 7.65 27.82 11.92 46.27 18.85 3.79 1.85 6.12 2.13 8.34 3.82l.79.29 1.67.6-1.67.72c-6.58 2.84-13.29 5.4-19.45 7.42-2.37 1.38-4.64 2.68-7.38 4-6.69 3.14-12.59 4.71-20.91 8.29.25-.11-.54-.2-.86.08-1.47 1.2999999-7.29 3.3299999-10.66 4.7399999l-3.13 1.31-.59.24-.67-.24c-4.35-1.58-12.12-4.39-19.42-7.1199999-4.17-2-8.93-4-14.19-6.18-4.64-2.24-9.82-4.5-14.89-6.75s-10-4.44-14.21-6.37c.1-.27 2.51.81 3.29.91 1.17.27-4.29-1.72-1.07-.61.17-.28 4.52 1.53 4.88 1.77 2.76 1 4.23 1.65 5.94 2.39 7.74 2.8 16.26 6.38 24.24 9.79 4.5 1.88 6.66 2.21 10 3.95 4.39 1.26 10.4 3.3299999 16.5 5.4299999h-.95l7.65-3.4799999c8.8-3 12.2-5.18 18.75-6.92 9.27-4.8 18.47-8.38 32.16-13.78l3.91-1.42v3.86c-12.33-5.22-24.22-9.71-37-15.07-2.75-1.5-8.49-3.29-9.8-4.66-4-1-10.21-4-13.85-5.74-.579328-.0544626-1.152008-.1649799-1.71-.33h.74c-.743401.295573-1.471037.6293511-2.18 1-8.18 2.89-14.57 5.61-22.43 9.21-8 3.15-10.7 3.9-15.5 6.11-3.16 1.15-4.68 1.42-6.88 2.48-1.36.46-1.58.79-2.3.82-3.55 1.18-4 1.56-5.87 1.9-2.1671832.8882889-4.384272 1.6495784-6.64 2.28z" fill="#2e316a"/><path d="m108.63 12.6678281-104.06 41.25 104.06 41.24 104.06-41.24z" fill="#c7c7d4" fill-rule="nonzero"/><path d="m108.78 13.9678281c-1.21-1.35 5 1.67 7.69 2.57 1.3.12 5.45 1.9 7.71 2.58 3.68 1.49 8.4 3.19 10.23 4.3 4.53 1.27 9.88 3.64 15.45 5.63 2.6.93 4.83 1.55 7.78 2.58s5.77 2.16 9.05 3.33c12.24 4.33 31.44 11.24 46.47 17.77l3 1.31-3 1.06-2.68.94c-3.63 1.49-5.19 2.54-8.81 4-29.86 11.18-47 17.72-77.19 30.08-6.61 2.28-9.89 4.22-14.31 5.15l-1.28.54-.25.1-.27-.1c-11.12-4.18-22.16-8.65-32-13-4.33-1.27-8.46-2.52-13.18-4.19-11.53-4.09-20.62-8.46-34.67-13.74.42.15-.52-.62-1.19-.73-3.08-.51-12.49-4.52-18.15-6.68l-5.25-2-3.93-1.49 3.94-1.65 30.71-12.87c7-2.53 14.86-5.55 23.35-9 16.06-5.66 34.73-13.3 50.45-18.42 1.12.32-3.34 1.82-3.85 2.49-1.21.92 7.33-2.77 2.57-.54 1.18.41-6.74 3.12-7.68 3.29-4.39 1.87-7.17 2.76-10.25 3.85-12.41 5.18-27.43 10.66-41.07 15.8-7.62 2.9-10.52 4.6-16.67 6.61-6.72 3.14-16.5 7.31-26.5 11.58v-2.41l13.09 4.74c14.18 6.09 20.55 7.8 30.64 12.66 16.42 5.36 31.63 11.46 54.27 20.47l6.36 2.65h-1.53c20.75-7.88 40.26-15.84 61.76-24.09 4.94-1.54 14-5.62 17-5.94 6.06-3 16.89-6.72 23.19-8.94.813721-.4944235 1.6551-.9418232 2.52-1.34v2c-1.11-.39-2-.79-3.82-1.35-13.48-5.66-24.23-9.77-38.48-14.74-13.73-5.26-17.74-7.23-26.85-10.18-5.35-2.1-7.08-3.27-11.47-4.57-2.17-.92-3.32-.91-3.81-1.52-5.53-2.43-7.06-2.61-8.9-4-3.84-1.65-9.9-3.73-10.19-4.59z" fill="#2e316a"/><g fill="#2f326a"><path d="m192.06 51.0978281c.21.84 0 .34 0 .48.01927.1594198.01927.3205802 0 .48 0 0 0 .15-.15-.21.08.51 0 .28 0 .5v.48.26c0 .52 0 1.23-.32.56v.49c-.4-.54-.6-.72-.79-.31-.13-.3 0 .29-.23-.44-.05.26-.17.21-.35-.17 0 .41.1.77.1 1 0 .47-.25-.21-.31.07 0 0-.09-.37-.07-.23.13.65 0 .42-.05.51-.074981.2516879-.128506.5092756-.16.77-.11-.21-.2-.26-.26-.19-.28-.57-.38-.26-.76-1.3-.18-.75-.08-.49-.18-.94s-.1-.13-.13-.47c-.21-.86 0-.44 0-.25 0-.11.08.08.14.22.06-.26.3.17.47.38s0-.41.15 0c-.03654-.4959946-.03654-.9940054 0-1.49.22.4.11-.35.38.41-.09-1.05.06-1 .26-1.05.31.43.44.11.72.34.12.36.11-.09.3.66-.06-.52.15 0 .26.19-.03065-.1582332-.04738-.318847-.05-.48.19.27.25.1.24-.54.08-.22.19.12.13-.53 0 0 .16.41.11 0 0 0-.07-.41 0 0 .1.2 0-.22.19.45.22-.03.2-.38.36.35z"/><path d="m20.15 58.7078281c-.78-.38-.22-.3-.31-.43-.33-.23-.15-.27-.31-.44.08-.08 0-.28.36-.15-.39-.36-.1-.39-.21-.64s-.23-.29-.31-.43 0-.2-.08-.35c-.27-.58-.58-1.45.27-1.52 0-.11-.31-.35-.29-.46 1-.49 1.4-.84 1.52-1.81.37 0-.1-.39.63-.14-.05-.42.18-.69.68-.77-.2564114-.2306434-.4786455-.4966509-.66-.79-.23-.52.53-.42.5-.92 0 0 .34.17.23.08-.55-.39-.19-.51-.17-.7.0045088-.4329842-.0357044-.8652767-.12-1.29l3.66 2.88v-.16c-.0042781-.0432278-.0042781-.0867723 0-.13-.0049202-.0538038.0176454-.1064568.06-.14-.1416976-.1213395-.3235301-.1855156-.51-.18-.3019047.0594266-.5719677.2264392-.76.47-.6.48-.44.23-.85.45s.05.34-.34.35c-.7.57-.58-.1-.4-.21-.19-.16 0-.38.07-.54-.1689566-.2653911-.1689566-.604609 0-.87.1713627-.2591945.4007604-.4748968.67-.63.18-.12.05-.38.2-.46l3.64-2.24-3 2.76c-.0615364.0213357-.1284636.0213357-.19 0 .3228737.5409691.562237 1.1275776.71 1.74-.59.17 0 .69-.86.59.262471.2371854.4187525.5698001.4337927.9232428.0150401.3534428-.11242.6981315-.3537927.9567572-.75.37-.81 1.07-1.4 1.56-.4-.05-.14.4-.87.1.38.42-.22.46-.54.5.43.33.14.19.33.4-.46.21-.48.56-.13 1.24 0 .45-.39.39 0 .94 0 .16-.48 0-.16.31-.08 0 .31.28-.06.1-.26 0 .08.28-.55 0-.08.07.13.38-.53.05z"/><path d="m111.71 22.8378281c-.28.85-.86-.13-1.34-.2-.36.25-.94-.16-1.38-.05-.6-.22-1.36-.08-1.77-.35-.35.33-.69.55-1 .83-.367093.2647975-.615012.6636236-.69 1.11-.018595.243483.052544.4853553.2.68l-.26-.22c.109162-.0792678.209711-.1697625.3-.27.249647-.2198939.403873-.528346.43-.86.006337-.2189843-.052858-.434873-.17-.62-.12-.17-.25-.19-.33-.16l1.23.06c-1.408794 1.2339768-3.103362 2.0967281-4.93 2.51-.51.28-.58.77-1.09 1-3.9308072 1.0345873-7.7756265 2.3719158-11.5 4-1.07 0-1.39.79-2.25.28-1.5574066.8033335-3.2550212 1.299037-5 1.46-.4422818.602449-.9792366 1.1292726-1.59 1.56-1.53 1-3.14.81-5.1 1.78.06 0-.23-.33-.27-.16-.19.78-1.66 1-2.45 1.41-1.12.55-3.13 1.63-4.88 2.73-1.1612211.2391536-2.280225.6503538-3.32 1.22-1.2621064.2951672-2.4940656.7069361-3.68 1.23-1.228981.564801-2.5320187.9520086-3.87 1.15-.55-.57.2-.68 0-1.12s-1.08.45-.59-.21c-.62-.66.71-.91.94-.81.4510312-.3262099.9774549-.5326506 1.53-.6 1.8742475-1.0912435 3.894606-1.9094887 6-2.43 1.13-.39 1.38-1 2.41-1 .71792-.6936915 1.5170475-1.2980737 2.38-1.8 1-.6 2-1.21 2.93-1.83 2.27-.38 2.92-1.39 4.72-1.18 2-1.81 4.33-2.52 7.68-3.64 3.54-.71 6.58-2.08 10.07-3.18.83.09 2-.87 2.66-.32.68-.87 2.39-1.05 3.37-1.25.19-.68.39-.42.69-.86 1.412524-.4266075 2.722756-1.1378767 3.85-2.09l.54-.43.86.5c.455739.260806.835043.6366615 1.1 1.09.251559.4572694.40803.9606962.46 1.48-.013725.9103337-.37091 1.7818649-1 2.44-.554027.5847859-1.306575.941444-2.11 1l-1.65.11-.22-1.67c-.126222-1.2035411.205852-2.4104365.93-3.38.437836-.3936129.973004-.6629232 1.55-.78.505479-.1111083 1.000596-.2649959 1.48-.46.58 0 .91-.37 1 .05.67.21 1 .3 1.31.4.271603.0794102.450803.3377916.43.62.68.34 1.74.58 1.39 1.23z"/><path d="m134.42 32.2078281c-.37.79-.35.2-.52.27-.24.32-.33.12-.52.26-.13-.1-.38-.05-.27-.42-.41.37-.5 0-.81.12-.15 0-.34.22-.51.28s-.27 0-.45 0c-.72.21-1.78.46-2.06-.47-.16 0-.39.31-.55.28-.603309-.9515452-1.609272-1.5742842-2.73-1.69-.13-.4-.49.11-.37-.67-.526811.0577009-1.028292-.239926-1.23-.73-.241447.2827248-.528802.5227507-.85.71-.59.26-.72-.54-1.36-.49 0 0 .09-.37 0-.24-.33.59-.62.21-.86.21-.556388.0203833-1.109248.0974486-1.65.23-.187554-.2892249-.496867-.4770225-.84-.51-.46-.78-1.28-.72-1.64-1.95.15-.76.27-.44.41-.89s-.27-.22 0-.49c.18-.87.4-.34.39-.14.21-.05.27.17.36.35.59-.09 1.08.54 1.57.94.28.21.55-.25.68.21.649686-.3828099 1.354693-.6627887 2.09-.83.45.61 1 0 1.11.89 1-.75 1.63-.46 2.54-.07.76.82 1.74.92 2.57 1.6 0 .43.59.19.37.95.47-.37.68.29.81.64.34-.43.23-.13.46-.32.4.53.88.59 1.72.3.62.1.62.5 1.27.11.22.09.08.54.45.24.06.09.32-.29.15.08.12.3.37 0 .12.61.1.15.5-.03.15.63z"/><path d="m98.62 75.6678281c-.73-.48-.19-.32-.26-.46-.3-.26-.12-.28-.26-.46.08-.07 0-.27.37-.09-.33-.41 0-.39-.12-.64s-.18-.32-.24-.48 0-.2 0-.35c-.17-.61-.29-1.53.56-1.42 0-.11-.23-.41-.18-.52 1-.26 1.54-.46 1.94-1.35.36.09 0-.41.63 0 .08-.4.38-.59.88-.49-.171985-.3122628-.293486-.6497677-.36-1 0-.57.64-.21.79-.68 0 0 .26.28.18.16-.36-.56 0-.55.12-.71.170718-.4057076.311103-.8235208.42-1.25.261286.0689846.538793-.020912.71-.23.76.22 1.07-.33 2.06.33.45.62.2.46.44.86s.25 0 .33.36c.51.72.08.47 0 .32 0 .15-.22 0-.37 0-.16.4-.77.25-1.23.29-.24 0 0 .5-.38.28.064753.6049388.064753 1.2150612 0 1.82-.59-.09-.22.6-1 .18.35 1.08 0 1.3-.45 1.7-.79.08-1 .7-1.64 1-.37-.17-.22.32-.85-.15.28.48-.29.36-.61.32.35.41.1.21.25.45-.48.09-.57.42-.31 1.13-.09.4-.43.28-.08.87-.06.13-.46-.11-.18.25-.08 0 .27.31-.07.08-.25 0 .06.28-.53-.09-.13.06.05.39-.56-.03z"/><path d="m113.39 71.1178281c.54.67 0 .38 0 .56.19.36 0 .34 0 .57-.13.06-.19.29-.47 0 .16.51-.15.44-.2.74v.56c0 .18-.12.22-.15.4-.11.71-.35 1.73-1.26 1.5-.1.11.08.48 0 .59-1.071296-.0047738-2.081041.5000988-2.72 1.36-.39-.11-.16.45-.73-.07-.2014.4627131-.715999.7028594-1.2.56.153042.3643848.234524.7548189.24 1.15-.09.63-.81.26-1.1.79 0 0-.24-.3-.18-.17.3.61-.15.61-.29.8-.279475.445286-.520353.9136596-.72 1.4-.326631-.0398369-.651956.0835621-.87.33-.87-.15-1.29.5-2.43 0-.48-.6-.18-.48-.43-.86s-.32 0-.36-.34c-.56-.69 0-.51.1-.37.08-.18.28-.08.47 0 .25-.48 1-.44 1.58-.55.3-.08.1-.56.53-.37.037372-.7101616.178884-1.410979.42-2.08.71 0 .46-.72 1.26-.31-.1-1.21.41-1.51 1.15-2 1-.13 1.52-.85 2.44-1.15.37.2.41-.37 1 .2-.11-.57.52-.4.87-.32-.22-.51 0-.26-.08-.54.62-.06.87-.43 1-1.26.32-.47.66-.28.57-1 .15-.15.48.2.37-.26.1 0-.13-.41.12-.09.3 0 .11-.33.57.19.11-.15.11-.56.5.04z"/><path d="m42.68 82.5278281c.37.78-.21.44-.33.64 0 .4-.26.38-.33.64-.24.06-.48.32-.74 0-.09.6-.51.52-.78.86-.12.17-.15.45-.28.65s-.3.26-.44.47c-.57.82-1.44 2-2.69 1.89-.2.15-.11.55-.3.7-1.7550653.2284879-3.4038054.9693774-4.74 2.13-.54-.06-.45.58-1.07.06-.5337886.5892145-1.2950217.9206605-2.09.91-.0119292.4362086-.1140745.865219-.3 1.26-.46.78-1.38.44-2.11 1.12 0 0-.21-.32-.18-.17.12.68-.59.74-.91 1s-1.26 1-2 1.7c-.5681349-.0152118-1.1302762.1192883-1.63.39-.6237491-.0572108-1.2522737-.0336831-1.87.07-.653718.0630584-1.3114525-.0691845-1.89-.38-.26-.73.1-.54 0-1s-.51 0-.28-.42c-.3-.83.31-.54.42-.37.25-.18.48 0 .71 0 .8714127-.3414261 1.8051595-.4947787 2.74-.45.52-.09.51-.64 1-.42.5261867-.859032 1.1286166-1.6689656 1.8-2.42 1 0 1.05-.89 2-.51.44-1.42 1.34-1.85 2.68-2.58 1.58-.35 2.69-1.33 4.24-1.88.47.18.8-.52 1.34.07.12-.66 1-.57 1.5-.54-.07-.57.11-.3.17-.63.9444562-.1532924 1.7545681-.7580763 2.17-1.62.79-.6 1.21-.37 1.54-1.22.34-.18.63.2.76-.32.16 0 .07-.46.25-.1.45.06.41-.37.77.22.32.03.61-.45.87.25z"/><path d="m42.87 89.6678281c.39.77.07.34.09.49.16.37 0 .27.1.48-.07 0-.07.18-.26-.14.16.49 0 .31 0 .55s.09.34.1.48 0 .14 0 .28c0 .55.08 1.3-.47.78 0 .07.13.43.1.49-.7-.32-1.05-.38-1.29.17-.25-.23 0 .32-.44-.31 0 .31-.23.33-.58.07.129393.3006962.2330966.6118072.31.93.09.47-.41-.06-.46.28 0 0-.21-.32-.15-.19.32.59.06.45 0 .56-.0621774.2957787-.0890318.5978915-.08.9-.21-.13-.35-.12-.43 0-.55-.38-.63 0-1.46-.75-.1871918-.260277-.3543394-.5343991-.5-.82-.23-.38-.18 0-.31-.37-.52-.72-.15-.43 0-.27 0-.13.16 0 .28.1 0-.32.51-.07.83 0 .17 0-.07-.43.23-.15-.1370195-.5124166-.2109005-1.0396584-.22-1.57.44.24.13-.46.7.13-.32-1 0-1.12.29-1.29.59.22.76-.21 1.25-.16.26.3.18-.17.59.5-.15-.51.24-.15.46 0-.21-.49 0-.21-.13-.47.34.17.43 0 .36-.73.12-.27.34 0 .2-.63.07-.07.3.34.18-.09 0 0-.13-.39 0 0 .18.15 0-.24.35.37.09.06.04-.25.36.38z"/><path d="m103 117.947828c.29.82-.15.39-.23.56 0 .4-.19.32-.24.56-.18 0-.37.22-.53-.12-.11.54-.41.34-.66.58-.114222.17322-.237736.340131-.37.5-.16.13-.31.11-.51.22-.4985064.278344-1.0785725.373843-1.64.27-.6916103-.120077-1.225707-.674405-1.32-1.37-.19-.2-.61-.14-.77-.41-.0899539-.528002-.0729511-1.068693.05-1.59.09-.41.2-.75.29-1.06.2010709-.594779.2593082-1.228537.17-1.85.34-.26-.26-.35.48-.54-.1793059-.216715-.2782205-.48873-.28-.77l.92.17c-.1627159.020084-.3272841.020084-.49 0 .0741597.379747.0741597.770253 0 1.15-.24.68-1 .31-1.46.9 0 0-.23-.31-.18-.17.23.64-.31.66-.51.87-.4154493.486119-.7963793 1.000709-1.14 1.54-.4023861-.01118-.794522.12785-1.1.39-1-.12-1.62.6-2.86.07-.45-.63-.12-.51-.34-.92s-.38.06-.36-.34c-.51-.73.06-.55.2-.41.13-.2.36-.1.56-.06.4-.52 1.28-.51 2-.65.38-.1.24-.62.71-.43.202319-.788547.5118723-1.545606.92-2.25.84 0 .7-.8 1.55-.39.0065076-.72278.3842673-1.391415 1-1.77l1.64-1.11 1.26 1.65c.357681.469638.606977 1.012625.73 1.59-.014142.831504-.114682 1.659286-.3 2.47-.090823.514674-.2280495 1.02007-.41 1.51-.41.18 0 .41-.72.56.55.11.1.4 0 .75.47-.25.22-.05.48-.18 0 .46.59.57 1 0 .34-.15.55.17.76-.5.17 0 .33.39.41-.07.1 0 0-.43.15 0 .27.16.24-.27.49.38.22-.04.41-.44.65.27z"/><path d="m177.19 86.0378281c.71.49.11.4.14.59.28.3 0 .37.15.59-.14.12-.15.4-.5.24.27.49-.09.54-.08.89 0 .16.13.39.15.59s-.08.28-.08.49c0 .8 0 2-1.05 2.16-.08.16.19.47.12.63-1.185882.5243286-2.121702 1.4888331-2.61 2.69-.44.06-.06.55-.79.26-.114451.5795231-.562555 1.0354883-1.14 1.16.199152.3294752.337989.6918071.41 1.07.05.7-.79.65-1 1.35 0 0-.33-.19-.23-.08.46.49 0 .72-.11 1-.178953.5991279-.312662 1.2108479-.4 1.8299999-.367202.137464-.665421.414125-.83.77-.94.28-1.21 1.17-2.55 1.18-.67-.38-.32-.41-.69-.69s-.32.21-.47-.17c-.76-.44-.17-.51 0-.44 0-.24.27-.24.48-.28.14-.63.94-1 1.52-1.37.3-.24 0-.6499999.46-.6599999-.134557-.796242-.158115-1.6072905-.07-2.41.76-.32.32-1 1.26-1-.39-1.24.09-1.81.77-2.69 1.05-.62 1.44-1.63 2.36-2.38.44 0 .36-.59 1.06-.22-.24-.56.48-.67.87-.75-.34-.43-.07-.26-.19-.54.65-.33.84-.84.76-1.77.26-.65.66-.59.43-1.34.14-.22.56 0 .35-.44.1-.05-.22-.38.11-.15.34-.08.05-.4.65 0 .23-.11.14-.56.74-.11z"/><path d="m185.81 91.8678281c.7.51.16.34.22.5.28.28.09.3.22.49-.1.08-.07.29-.4.11.31.43 0 .41.07.69 0 .12.17.33.21.49s0 .21 0 .38c.14.64.26 1.58-.61 1.52 0 .12.23.41.19.53-1.07.36-1.59.65-1.93 1.63-.38 0 0 .43-.66.06 0 .44-.33.68-.86.69.210335.279222.375669.5896455.49.92.13.5699999-.62.3499999-.7.8699999 0 0-.31-.22-.21-.12.46.49.07.57 0 .75-.098759.446829-.152362.902451-.16 1.36-.280707.008383-.532479.17494-.65.43-.81 0-1 .65-2.14.35-.62-.45-.32-.39-.67-.69s-.26.09-.42-.24c-.72-.52-.21-.44 0-.34 0-.18.22-.12.4-.11.06-.47.73-.55 1.2-.73.24-.12-.1-.52.34-.42-.20003-.614026-.307871-1.2543276-.32-1.8999999.63-.09.16-.72 1-.48-.427535-.6360874-.277578-1.4961374.34-1.95.84-.28 1.05-1 1.75-1.41.4.12.24-.39.9 0-.29-.49.32-.44.65-.43-.35-.41-.09-.22-.24-.46.51-.15.61-.51.4-1.27.13-.47.49-.35.17-1 .08-.15.49.1.23-.29.09 0-.25-.34.08-.1.28 0 0-.3.56.08.1 0-.04-.37.55.09z"/><path d="m191.48 94.9478281c.65.58.22.26.32.37.11253.115327.21616.2390144.31.37 0 0 0 .14-.23-.1.35.37.14.23.27.41s.23.26.31.37 0 .11.13.22c.31.42.7 1 .09.6 0 0 .3.33.31.38-.61-.24-.87-.29-.77.12-.27-.17.16.25-.43-.24.12.23 0 .25-.35 0 .226909.2310883.440582.4748099.64.73.27.37-.31-.06-.19.2 0 0-.28-.26-.18-.16.47.47.23.35.26.43.088483.2428836.198941.477188.33.7-.2-.12-.29-.12-.3 0-.54-.33-.43 0-1.32-.69-.236621-.1954774-.463558-.4023904-.68-.62-.32-.3-.15 0-.37-.31-.65-.59-.28-.33-.13-.2-.06-.1.11 0 .23.1-.11-.24.32 0 .57.08s-.24-.33.09-.09c-.305889-.3870077-.589675-.7909845-.85-1.21.4.22-.12-.33.52.15-.68-.8-.56-.85-.42-1 .48.2.39-.12.72-.06.31.23 0-.13.62.39-.36-.4.07-.12.3 0-.38-.37-.14-.16-.32-.36.3.13.25 0-.15-.55-.06-.2.22 0-.21-.48 0 0 .36.26.06-.07 0 0-.28-.29 0 0 .18.11-.12-.18.4.28.09 0-.13-.26.42.24z"/><path d="m46.91 123.037828c.43.76-.18.45-.28.66.08.39-.24.38-.29.64-.24.08-.46.36-.73.07-.07.59-.5.51-.76.86-.12.17-.16.45-.28.65s-.31.26-.46.47c-.59.82-1.57 2-2.83 1.79-.21.14-.15.55-.36.68-1.7908345.090363-3.5215738.675353-5 1.69-.53-.11-.5.53-1.07-.05-.5889511.535352-1.3785068.793686-2.17.71-.0493106.432717-.1853542.851051-.4 1.23-.52.72-1.4.33-2.15 1 0 0-.19-.33-.17-.18.09.68-.58.71-.89.93-.6123402.491898-1.162998 1.055986-1.64 1.68-.4680468.010913-.91319.204766-1.24.54-.506015.053016-.9907286.231776-1.41.52-.485541.30962-1.030596.514015-1.6.6-.69-.34-.3-.44-.66-.73s-.42.37-.51-.1c-.8-.39-.07-.69.13-.62.12-.33.41-.38.67-.45.43-.87 1.61-1.25 2.51-1.55.5-.2.41-.74 1-.61.4632447-.943299 1.0818771-1.801948 1.83-2.54 1.09 0 1.15-.87 2.12-.43.56-1.4 1.53-1.76 2.95-2.36 1.62-.2 2.83-1 4.41-1.44.46.21.85-.45 1.33.19.17-.65 1-.48 1.53-.42 0-.56.13-.28.2-.61.9416664-.083781 1.77161-.652235 2.19-1.5.78-.56 1.18-.35 1.48-1.19.32-.17.62.2.72-.32.15 0 0-.46.23-.1.44 0 .36-.39.76.19.28-.08.52-.56.84.1z"/><path d="m40.36 135.267828c.79.36.25.25.36.36.34.2.18.22.35.37-.06 0 0 .22-.31.08.4.33.13.32.26.53s.24.26.33.39 0 .17.09.3c.3.51.53 1.39-.3 1.27 0 .1.24.39.21.5-.796883.028234-1.5448778.391339-2.06 1-.29-.21-.17.38-.55-.28-.0958273.169386-.2753863.274105-.47.274105s-.3741727-.104719-.47-.274105c-.0425616.357892-.169362.700596-.37 1-.44.42-.65-.33-1.12-.2 0 0 .09-.37 0-.24-.29.6-.53.25-.73.22-.5297339-.008509-1.0566517-.078989-1.57-.21-.0653684-.373-.2352892-.719777-.49-1 .06-.48 0-.86 0-1.27.049084-.470467.3766249-.865095.83-1 .77.06.49.14 1 .18s.15-.1.48 0c.88.08.44.07.24.09.1 0-.09.07-.23.13.25.06-.15.37-.16.76 0 .2.41-.13.23.24.4596192-.229296.873161-.541147 1.22-.92 0 .23.07.17.12.15s.08 0 .08.4c.34-1 .28-1 .33-.95.0289921.074405.0864518.134181.1596535.166089.0732016.031909.1561039.033316.2303465.003911.1344333-.0759.2856467-.11714.44-.12.31.23.1-.18.69.34-.31-.44.18-.23.46-.16-.37-.39-.12-.19-.3-.4.4 0 .41-.29 0-.85 0-.31.31-.21-.17-.67 0-.1.45.09.1-.19.07 0-.33-.24 0-.06.24 0-.13-.22.51.06.16-.08-.09-.34.58-.02z"/><path d="m49.71 136.227828c-.79.35-.33.09-.47.12-.1529148.053473-.3101673.093622-.47.12 0 0-.15 0 .18-.19-.48.19-.29 0-.5.09l-.45.17c-.13 0-.12 0-.25.05-.5.15-1.13.44-.58 0-.05 0-.39.22-.43.23.41-.49.47-.76.08-.66.2-.26-.25.14.28-.41-.24.11-.23 0 0-.35-.3.29-.56.54-.7.66-.34.31.06-.28-.17-.13 0 0 .23-.31.14-.19-.41.52-.3.28-.37.32-.199245.148393-.3804732.319553-.54.51.09-.21.09-.29 0-.26.22-.59 0-.37.36-1.43.29-.71.22-.44.41-.87s0-.16.16-.45c.34-.81.25-.37.17-.18.09-.08 0 .12 0 .26.22-.16.15.33.13.61s.29-.3.13.07c.3299838-.390137.717821-.727387 1.15-1-.13.45.39-.11 0 .59.8-.7.94-.51 1.12-.29-.14.54.24.53.19.94-.27.28.16.09-.45.58.46-.25.12.14-.06.34.46-.28.19-.09.43-.22-.17.3 0 .3.64.13.25.05 0 .26.58.07.06.05-.35.27.07.13 0 0 .39-.13 0 0-.17.15.23 0-.4.3-.04.15.31.06-.38.34z"/><path d="m109.78 155.357828c.4.77.13.31.19.44.17.36.09.25.18.45 0 0 0 .13-.15-.2.07348.145566.127285.300254.16.46 0 .1.13.32.18.45s0 .11.07.23c.18.48.4 1.14 0 .53 0 0 .18.4.18.44-.39-.49-.56-.65-.52-.27-.17-.28.09.27-.27-.41.06.24 0 .2-.24-.14.17.37.32.71.38.88.16.43-.2-.19-.14.07 0 0-.17-.34-.11-.21.29.6.13.38.14.46s.1.41.18.72c-.13-.19-.19-.24-.2-.17-.30678-.377069-.587434-.774662-.84-1.19-.35-.69-.21-.45-.41-.87s-.09-.12-.22-.42c-.4-.79-.17-.41-.08-.23 0-.1.07.07.15.19-.06-.24.21.15.37.35s-.13-.38.07 0c-.25-.6-.31-.87-.49-1.37.26.37-.06-.33.34.37-.4-1-.32-.95-.21-1 .3.39.26.09.48.3s0-.09.39.61c-.21-.48.05 0 .2.17-.071657-.142931-.135093-.289836-.19-.44.19.25.16.09-.06-.51 0-.2.14.11-.11-.48 0 0 .22.38 0 0 0 .05-.17-.37 0 0 .12.18-.07-.2.25.41.13.06 0-.29.33.38z"/><path d="m119.77 155.617828c.63.6.2.28.27.41.27.29.14.23.27.4 0 0 0 .17-.26-.07.33.4.1.27.21.47s.2.29.27.41 0 .13.09.25c.24.48.55 1.14-.1.78 0 .06.27.35.26.41-.7-.17-1-.17-1 .35-.29-.17.11.29-.47-.21.07.27-.09.32-.47.13.210623.247821.401223.511986.57.79.22.42-.37 0-.31.31 0 0-.28-.27-.18-.16.44.49.18.4.18.5.031444.283012.095193.561493.19.83-.23-.1-.35-.08-.38 0-.58-.3-.55.07-1.46-.57-.232839-.221337-.450027-.458574-.65-.71-.3-.33-.17 0-.36-.32-.64-.61-.25-.37-.1-.24 0-.11.13 0 .26.08-.06-.28.41-.08.7 0s-.18-.37.15-.14c-.258765-.440436-.479562-.902103-.66-1.38.44.19 0-.4.61.07-.59-.88-.42-1-.2-1.16.55.14.54-.26.95-.27.32.23.08-.17.66.36-.32-.42.13-.16.37 0-.35-.4-.11-.18-.28-.4.34.1.33-.1 0-.68 0-.26.27 0-.1-.58 0-.07.37.24.1-.1 0 0-.26-.32 0 0 .2.1-.08-.21.42.26.11-.05-.08-.35.45.18z"/><path d="m183.4 126.927828c.78.38.16.39.22.58.32.25.09.37.23.57-.12.15-.1.43-.47.33.33.45 0 .56 0 .91 0 .16.18.38.23.57s0 .31 0 .51c.12.81.21 2-.8 2.36-.06.18.24.45.19.63-1.141465.702981-1.976768 1.809578-2.34 3.1-.44.12 0 .57-.78.37-.053967.597166-.441306 1.112327-1 1.33.235067.295935.408478.635957.51 1 .11.72-.74.76-.86 1.5 0 0-.35-.16-.24-.06.5.45 0 .73 0 1-.138602.632219-.228863 1.274075-.27 1.92-.366681.180852-.649603.496006-.79.88-.93.38-1.15 1.32-2.5 1.45-.69-.33-.34-.39-.73-.65s-.31.25-.48-.12c-.8-.39-.21-.52 0-.46 0-.24.26-.26.47-.32.1-.66.88-1.08 1.44-1.55.29-.27-.08-.66.42-.72-.197891-.800888-.28205-1.625648-.25-2.45.73-.4.23-1 1.18-1.09-.51-1.22-.07-1.85.52-2.82 1-.76 1.28-1.83 2.12-2.71.45 0 .29-.64 1-.37-.3-.53.4-.74.78-.88-.38-.4-.1-.26-.25-.52.61-.44.74-1 .54-1.91.18-.69.59-.7.26-1.41.11-.25.56-.09.29-.5.1-.07-.27-.35.1-.17.32-.14 0-.41.64-.15.11-.04-.03-.51.62-.15z"/></g><g fill="#cccfdb"><path d="m51.54 17.2878281c-.42.5-.27.1-.39.13-.23.2-.23.05-.39.14 0-.08-.22-.08-.07-.31-.34.2-.31 0-.53 0s-.26.11-.38.13-.17 0-.29 0c-.5.06-1.23.09-1.16-.57-.08 0-.32.15-.41.11-.24-.85-.44-1.26-1.19-1.59.05-.29-.32 0 0-.51-.16147-.0217134-.306774-.10923-.4014713-.2418063-.0946973-.1325762-.1303576-.2984096-.0985287-.4581937-.2288553.134563-.4742492.2387714-.73.31-.44.05-.25-.5-.64-.6 0 0 .18-.22.09-.15-.39.31-.43 0-.57 0-.3265545-.1013207-.6610737-.1749149-1-.22-.0024583-.2190228-.1203008-.4204955-.31-.53 0-.61-.46-.77-.2-1.65.37-.44.32-.22.56-.46s-.06-.21.2-.31c.43-.51000003.35-.13.26 0 .14 0 .09.18.07.31.36.08.4.6.52 1 .09.19.41 0 .31.28.4863671-.1014654.983977-.1384499 1.48-.11 0 .49.54.18.33.8.4678172-.2536416 1.0488831-.1498799 1.4.25.18.66.72.87 1 1.44-.11.29.29.2-.06.68.39-.18.33.28.31.53.33-.24.17-.06.37-.16.09.41.37.51 1 .4.35.13.25.4.74.2.12.07-.09.36.22.2 0 .06.27-.17.07.06 0 .21.24 0-.08.42.05.15.34.07-.03.48z"/><path d="m64.34 12.1678281c-.61.22-.29-.08-.41-.12-.3.05-.24-.1-.41-.12s-.17-.22.08-.35c-.41 0-.27-.23-.48-.35s-.28-.07-.41-.13-.12-.14-.24-.21c-.48-.27-1.14-.75-.74-1.35000003-.06-.1-.36-.07-.42-.17.2792946-.79055648.1989202-1.66371434-.22-2.39.19-.25-.27-.25.26-.5-.241859-.28328704-.2623947-.69400028-.05-1-.2721386-.03328325-.5362235-.11454014-.78-.24-.41-.27.06-.66-.21-1 0 0 .27-.08.16-.08-.5 0-.37-.31-.45-.47-.2187756-.35309671-.46628-.68756213-.74-1 .1281666-.22574328.1501245-.49655744.06-.74.38-.56.08-1.09.82-1.69.56-.12.38 0 .73 0s.11-.29.34-.22c.65-.14.36.15.22.2.09.12 0 .22-.13.33.23.34 0 .85-.15 1.29-.05.24.35.26.08.49.53.21.82.65 1.28 1-.24.49.36.56-.17 1 .87.31.92.76 1 1.43-.2.75.16 1.32.12 2.06-.24.21.15.4-.4.62.43.08.14.49 0 .72.41 0 .18.06.4.09-.12.46.07.74000003.65 1.00000003.24.36 0 .55.57.68.06.15-.26.3.09.33 0 .07.32 0 0 .11-.1.2.21.16-.27.36.05.15.35.29-.18.42z"/><path d="m77.76 5.93782807c.53.38.14.23.19.34.22.2.09.2.19.34-.06 0 0 .19-.26 0 .25.3 0 .27.11.45s.15.23.2.34 0 .14 0 .24c.15.43.34 1-.27 1 0 .07.21.28.19.35-.7.19-1 .36-1.14 1-.26 0 .07.28000003-.45 0 0 .28000003-.14.43000003-.51.43000003.1815384.1792046.3394794.3808314.47.6.16.37-.39.22-.37.55 0 0-.25-.14-.16-.07.39.31.13.36.11.48.0035101.2888231.0336375.5767079.09.86-.1741052.0006862-.3277694.1139125-.38.28-.56 0-.56.42-1.42.25-.51-.28-.29-.25-.58-.44s-.17.07-.33-.14c-.58-.33-.21-.29-.08-.22 0-.12.14-.09.26-.08 0-.3.43-.37.73-.49s-.15-.34.17-.28c-.2220464-.3841027-.387104-.798431-.49-1.23.43-.06 0-.47.63-.31-.48-.70000003-.27-.93000003 0-1.29000003.56-.17.62-.64 1.07-.89.29.09.12-.26.63 0-.25-.33.18-.27.41-.26-.29-.28-.09-.14-.22-.31.34-.08.38-.31.16-.82.05-.31.31-.21 0-.65 0-.09.35.09.14-.18.06 0-.2-.24 0-.06.19 0 0-.2.39.08.2.04.07-.21.52.13z"/><path d="m172.07 1.62782807c.22.63-.62.34-.94.49-.12.31-.66.29-.91.51-.46.07-1 .29-1.31.08-.46.52-1.16.48-1.77.87-.29.17-.49.42-.8.63s-.63.33-1 .56c-1.540931 1.25727802-3.238423 2.30938722-5.05 3.13-.35.26-.33.65-.66.92-1.325507.75329137-2.546006 1.67791193-3.63 2.75000003-1.115408 1.1058972-2.053148 2.3775814-2.78 3.77-.219654.1827992-.374054.4319446-.44.71-.06.19-.11.28-.4.44.045006.1934781.158715.3640413.32.48.16.07.14.07.27 0 .217698-.1522694.410055-.337877.57-.55l.61-.74c-.07-.58-.18-1.09-.2-1.61-.018724-.5771466-.002026-1.1548983.05-1.73.091146-.6425748-.013396-1.2977046-.3-1.88 0 0 .25-.17.12-.18-.57-.1-.74-.66000003-1.26-.82000003-1.22883-.27335737-2.505827-.24246226-3.72.09-.836387-.09218934-1.682514.02819455-2.46.35-.934014.10994223-1.835755.40938833-2.65.88000003-.86.45-1.67 1-2.58 1.43-.53-.27 0-.55-.23-.83s-.71.64-.49 0c-.61-.31.37-.91.57-.87.296637-.3581668.693667-.61937122 1.14-.75000003 1.389824-1.14903243 3.109755-1.82509473 4.91-1.93.95-.11 1.3-.55 2.1-.29.768351-.30879378 1.592303-.45519855 2.42-.43 1.12184-.06986366 2.237389.21339485 3.19.81.58838.73191569 1.029803 1.57061954 1.3 2.47000003.228764.6470418.228764 1.3529581 0 2 .395443 1.1605732.395443 2.4194268 0 3.58-.216416.6638156-.526187 1.2934597-.92 1.87-.326311.5316785-.798319.9585685-1.36 1.23-.485639.208242-1.024771.2572541-1.54.14-.466235-.1073055-.894725-.3388281-1.24-.67-.272784-.304758-.480369-.6620769-.61-1.05-.126562-.3727839-.174238-.7678093-.14-1.16.062695-.56913.246844-1.1181674.54-1.61.24-.41.45-.69.66-1l.63-.91c.878841-1.2225576 1.884425-2.3488124 3-3.36000003.65-.23 1.29-1.32 2-1.08.35-.84 1.68-1.39 2.44-1.67.09-.54.28-.37.49-.75 1.517729-.71229863 2.941812-1.609068 4.24-2.67 1.63-.81 2.22-.7 3.24-1.51.69-.2 1 .08 1.49-.37.29 0 .37-.39.5-.1.76 0 .9-.34 1.23.14.49 0 1.29-.4 1.36.19z"/><path d="m170.28 21.2678281c-.5-.43-.05-.31-.06-.45-.17-.25 0-.28-.05-.46.11-.08.16-.29.4-.14-.15-.39.12-.39.16-.65s0-.31 0-.46.1-.21.13-.36c.08-.6.32-1.51 1.11-1.49.09-.12-.06-.38 0-.5.980929-.2199983 1.854422-.7752141 2.47-1.57.34 0 .17-.4.64 0 .218438-.4033381.652415-.6418299 1.11-.61-.057645-.2837688-.057645-.5762313 0-.86.15-.53.75-.3 1.07-.76 0 0 .18.22.14.12-.19-.47.21-.51.36-.68.300617-.3851653.580995-.7857064.84-1.2.312924.0008201.615308-.1130186.85-.32.75.08 1.25-.47 2.17-.05.33.48.08.39.24.7s.29 0 .26.26c.37.55 0 .41-.15.3-.1.15-.26.07-.42 0-.3.39-.95.38-1.47.49-.29.08-.17.46-.53.33-.136077.5918015-.340797 1.1656881-.61 1.71-.62 0-.48.62-1.13.34 0 1-.49 1.26-1.15 1.74-.88.22-1.36.87-2.15 1.26-.32-.11-.36.36-.82 0 .09.45-.45.42-.76.42.18.37 0 .2.06.43-.52.15-.74.5-.8 1.2-.27.45-.55.36-.46.94-.12.15-.42-.06-.3.28-.08 0 .13.31-.1.1-.25 0-.07.29-.48 0-.19-.01-.17.33-.57-.06z"/><path d="m186.41 20.5378281c.44.48.05.28.07.41.17.25 0 .24.07.41s-.1.22-.32 0c.15.37-.07.32-.08.54s.07.28.07.4-.06.17-.07.29c0 .52-.1 1.26-.76 1.12-.06.08.1.34.05.43-.734545.0022537-1.417105.3793589-1.81 1-.28-.07-.06.34-.52 0-.101451.3358201-.451077.5305487-.79.44.105033.2451404.172459.5047316.2.77 0 .45-.55.2-.71.59 0 0-.2-.21-.14-.11.26.43-.06.44-.14.58-.155059.321841-.282192.6564035-.38 1-.228498-.0218265-.451926.0766332-.59.26-.63-.09-.87.39-1.72 0-.39-.42-.17-.34-.38-.62s-.22 0-.29-.23c-.45-.48-.07-.37 0-.27 0-.13.2-.07.33 0 .14-.35.67-.34 1.07-.43.21-.06 0-.41.34-.28-.029707-.5064576.010675-1.0145914.12-1.51.5 0 .26-.54.86-.26-.18-.87.16-1.1.64-1.47.7-.12 1-.65 1.62-.89.28.14.25-.28.69.12-.13-.41.33-.3.58-.25-.19-.36 0-.18-.1-.39.43-.06.57-.33.56-.94.19-.34.44-.21.31-.74.1-.11.36.13.24-.19.07 0-.13-.29.08-.07.22 0 0-.24.41.12.16.05.08-.25.49.17z"/></g></g></svg>