<?xml version="1.0" standalone="no"?>
<!DOCTYPE svg PUBLIC "-//W3C//DTD SVG 20010904//EN"
 "http://www.w3.org/TR/2001/REC-SVG-20010904/DTD/svg10.dtd">
<svg version="1.0" xmlns="http://www.w3.org/2000/svg"
 width="180.000000pt" height="180.000000pt" viewBox="0 0 180.000000 180.000000"
 preserveAspectRatio="xMidYMid meet">
<metadata>
Created by potrace 1.14, written by Peter Selinger 2001-2017
</metadata>
<g transform="translate(0.000000,180.000000) scale(0.100000,-0.100000)"
fill="#000000" stroke="none">
<path d="M793 1492 c-158 -57 -244 -180 -240 -346 2 -67 7 -90 31 -136 69
-134 185 -203 332 -196 256 11 410 284 291 512 -74 142 -267 219 -414 166z"/>
<path d="M29 1152 c0 -4 0 -32 1 -63 1 -49 7 -81 34 -189 25 -97 118 -253 210
-349 218 -226 521 -311 851 -237 162 36 368 178 485 334 93 124 167 346 165
492 0 13 -22 15 -135 15 -130 0 -137 -1 -167 -25 -31 -25 -50 -59 -75 -135
-73 -218 -289 -369 -514 -359 -89 4 -127 14 -209 54 -134 65 -219 161 -270
301 -54 151 -79 168 -254 168 -67 0 -121 -3 -122 -7z"/>
</g>
</svg>
