<svg width="293" height="142" viewBox="0 0 293 142" fill="none" xmlns="http://www.w3.org/2000/svg">
<path d="M145.847 47.4676C158.843 47.4676 169.379 36.9321 169.379 23.9358C169.379 10.9396 158.843 0.404007 145.847 0.404007C132.851 0.404007 122.315 10.9396 122.315 23.9358C122.315 36.9321 132.851 47.4676 145.847 47.4676Z" fill="#FFCD00"/>
<path d="M146.001 59.2335C145.976 59.2336 145.95 59.2336 145.924 59.2336C129.431 59.2336 115.58 47.9219 111.706 32.6334C110.514 27.93 106.693 23.9359 101.841 23.9359H87.0947C87.0947 56.4265 113.434 82.7654 145.924 82.7654C145.95 82.7654 145.976 82.7653 146.001 82.7653V59.2335Z" fill="#00ECBB"/>
<path d="M145.847 59.2335C145.873 59.2336 145.898 59.2336 145.924 59.2336C162.417 59.2336 176.268 47.9219 180.142 32.6334C181.334 27.93 185.155 23.9359 190.007 23.9359H204.753C204.753 56.4265 178.415 82.7654 145.924 82.7654C145.898 82.7654 145.873 82.7653 145.847 82.7653V59.2335Z" fill="#AF64FF"/>
<path d="M187.523 65.5345C176.877 76.1805 162.17 82.7652 145.924 82.7652C129.679 82.7652 114.972 76.1805 104.326 65.5345L120.965 48.895C127.353 55.2826 136.177 59.2335 145.924 59.2335C155.672 59.2335 164.496 55.2826 170.884 48.895L187.523 65.5345Z" fill="#7131FF"/>
</svg>
