<svg width="143" height="100" viewBox="0 0 143 100" fill="none" xmlns="http://www.w3.org/2000/svg">
<path d="M71.334 57.1428C87.1136 57.1428 99.9054 44.3509 99.9054 28.5714C99.9054 12.7918 87.1136 0 71.334 0C55.5545 0 42.7626 12.7918 42.7626 28.5714C42.7626 44.3509 55.5545 57.1428 71.334 57.1428Z" fill="#FFCD00"/>
<path d="M71.5222 71.4285C71.4906 71.4286 71.459 71.4286 71.4287 71.4286C51.4035 71.4286 34.5862 57.6944 29.8826 39.1317C28.4353 33.421 23.796 28.5715 17.9049 28.5715H0C0 68.0203 31.9794 100 71.4287 100C71.459 100 71.4906 99.9999 71.5222 99.9999V71.4285Z" fill="#00ECBB"/>
<path d="M71.3352 71.4285C71.3656 71.4286 71.3971 71.4286 71.4287 71.4286C91.4538 71.4286 108.271 57.6944 112.975 39.1317C114.421 33.421 119.061 28.5715 124.953 28.5715H142.857C142.857 68.0203 110.877 100 71.4287 100C71.3971 100 71.3656 99.9999 71.3352 99.9999V71.4285Z" fill="#AF64FF"/>
<path d="M121.937 79.0789C109.011 92.0049 91.1527 99.9998 71.4287 99.9998C51.7047 99.9998 33.8468 92.0049 20.9208 79.0789L41.1245 58.8759C48.8793 66.6315 59.5943 71.4285 71.4287 71.4285C83.2631 71.4285 93.9781 66.6315 101.733 58.8759L121.937 79.0789Z" fill="#7131FF"/>
</svg>
