<svg width="293" height="142" viewBox="0 0 293 142" fill="none" xmlns="http://www.w3.org/2000/svg">
<path fill-rule="evenodd" clip-rule="evenodd" d="M252.017 114.356H258.331V141.244H252.017V114.356ZM255.199 109.926C254.054 109.926 253.095 109.573 252.32 108.868C251.546 108.13 251.158 107.223 251.158 106.149C251.158 105.075 251.546 104.186 252.32 103.481C253.095 102.742 254.054 102.373 255.199 102.373C256.344 102.373 257.304 102.725 258.079 103.43C258.853 104.102 259.24 104.958 259.24 105.998C259.24 107.106 258.853 108.046 258.079 108.818C257.338 109.556 256.378 109.926 255.199 109.926ZM242.715 141.596C241.57 141.596 240.594 141.21 239.786 140.438C238.977 139.632 238.573 138.625 238.573 137.417C238.573 136.175 238.961 135.168 239.735 134.396C240.543 133.624 241.537 133.238 242.715 133.238C243.894 133.238 244.871 133.624 245.645 134.396C246.453 135.168 246.858 136.175 246.858 137.417C246.858 138.625 246.453 139.632 245.645 140.438C244.837 141.21 243.86 141.596 242.715 141.596ZM270.357 139.834C272.545 141.009 275.004 141.596 277.731 141.596C280.493 141.596 282.968 141.009 285.157 139.834C287.346 138.659 289.046 137.031 290.259 134.95C291.505 132.835 292.128 130.452 292.128 127.8C292.128 125.148 291.505 122.782 290.259 120.701C289.046 118.619 287.346 116.991 285.157 115.817C282.968 114.642 280.493 114.054 277.731 114.054C275.004 114.054 272.545 114.642 270.357 115.817C268.168 116.991 266.45 118.619 265.204 120.701C263.992 122.782 263.386 125.148 263.386 127.8C263.386 130.452 263.992 132.835 265.204 134.95C266.45 137.031 268.168 138.659 270.357 139.834ZM283.49 133.892C281.975 135.436 280.055 136.209 277.731 136.209C275.408 136.209 273.488 135.436 271.973 133.892C270.491 132.348 269.75 130.318 269.75 127.8C269.75 125.282 270.491 123.252 271.973 121.708C273.488 120.164 275.408 119.391 277.731 119.391C280.055 119.391 281.975 120.164 283.49 121.708C285.005 123.252 285.763 125.282 285.763 127.8C285.763 130.318 285.005 132.348 283.49 133.892ZM104.987 139.795C104.251 140.395 103.348 140.846 102.279 141.146C101.242 141.446 100.139 141.596 98.969 141.596C96.0271 141.596 93.7538 140.829 92.1491 139.295C90.5444 137.761 89.7421 135.527 89.7421 132.592V108.632H96.0104V114.734H103.181V119.737H96.0104V132.442C96.0104 133.743 96.3279 134.743 96.9631 135.443C97.5983 136.11 98.5177 136.444 99.7212 136.444C101.125 136.444 102.295 136.077 103.231 135.343L104.987 139.795ZM14.4923 141.596C11.7176 141.596 9.22694 141.012 7.0205 139.845C4.81406 138.678 3.09236 137.061 1.85542 134.993C0.618472 132.892 0 130.525 0 127.89C0 125.256 0.618472 122.905 1.85542 120.837C3.09236 118.77 4.79734 117.152 6.97035 115.985C9.1768 114.818 11.6841 114.234 14.4923 114.234C17.1334 114.234 19.4401 114.768 21.4125 115.835C23.4184 116.902 24.9228 118.436 25.9257 120.437L21.1116 123.238C20.3427 122.004 19.3732 121.087 18.2032 120.487C17.0665 119.853 15.8128 119.537 14.4422 119.537C12.102 119.537 10.163 120.304 8.62519 121.837C7.08736 123.338 6.31845 125.356 6.31845 127.89C6.31845 130.425 7.07065 132.459 8.57504 133.993C10.1129 135.493 12.0686 136.244 14.4422 136.244C15.8128 136.244 17.0665 135.944 18.2032 135.343C19.3732 134.71 20.3427 133.776 21.1116 132.542L25.9257 135.343C24.8893 137.344 23.3682 138.895 21.3624 139.995C19.39 141.062 17.0999 141.596 14.4923 141.596ZM66.1667 140.746C68.2395 141.313 70.3623 141.596 72.5353 141.596C76.2796 141.596 79.2382 140.846 81.4112 139.345C83.5843 137.844 84.6708 135.844 84.6708 133.342C84.6708 131.442 84.1693 129.974 83.1664 128.941C82.1969 127.907 81.0268 127.173 79.6561 126.74C78.2855 126.306 76.5303 125.923 74.3907 125.589C72.2512 125.222 70.6632 124.839 69.6268 124.439C68.6239 124.005 68.1225 123.288 68.1225 122.288C68.1225 121.387 68.5905 120.67 69.5265 120.137C70.496 119.57 71.9001 119.286 73.7388 119.286C76.5805 119.286 79.1379 119.953 81.4112 121.287L83.8183 116.535C82.6482 115.835 81.1438 115.285 79.3051 114.885C77.4664 114.451 75.6277 114.234 73.789 114.234C70.1784 114.234 67.3034 115.001 65.1638 116.535C63.0577 118.036 62.0046 120.053 62.0046 122.588C62.0046 124.522 62.506 126.039 63.509 127.14C64.5453 128.207 65.7488 128.957 67.1195 129.391C68.5236 129.824 70.3289 130.208 72.5353 130.541C74.6415 130.875 76.1626 131.225 77.0986 131.592C78.0682 131.959 78.5529 132.609 78.5529 133.543C78.5529 135.51 76.6808 136.494 72.9365 136.494C71.2984 136.494 69.6268 136.26 67.9219 135.794C66.2503 135.293 64.8128 134.643 63.6093 133.843L61.2022 138.595C62.4392 139.462 64.094 140.179 66.1667 140.746ZM113.975 139.845C116.148 141.012 118.589 141.596 121.297 141.596C124.038 141.596 126.495 141.012 128.668 139.845C130.841 138.678 132.529 137.061 133.733 134.993C134.97 132.892 135.588 130.525 135.588 127.89C135.588 125.256 134.97 122.905 133.733 120.837C132.529 118.77 130.841 117.152 128.668 115.985C126.495 114.818 124.038 114.234 121.297 114.234C118.589 114.234 116.148 114.818 113.975 115.985C111.802 117.152 110.097 118.77 108.86 120.837C107.657 122.905 107.055 125.256 107.055 127.89C107.055 130.525 107.657 132.892 108.86 134.993C110.097 137.061 111.802 138.678 113.975 139.845ZM127.013 133.943C125.509 135.477 123.603 136.244 121.297 136.244C118.99 136.244 117.084 135.477 115.58 133.943C114.109 132.409 113.374 130.391 113.374 127.89C113.374 125.389 114.109 123.371 115.58 121.837C117.084 120.304 118.99 119.537 121.297 119.537C123.603 119.537 125.509 120.304 127.013 121.837C128.518 123.371 129.27 125.389 129.27 127.89C129.27 130.391 128.518 132.409 127.013 133.943ZM175.381 114.234C178.758 114.234 181.432 115.218 183.405 117.185C185.377 119.12 186.363 122.038 186.363 125.939V141.246H180.095V126.74C180.095 124.405 179.577 122.655 178.54 121.487C177.504 120.287 176.016 119.687 174.077 119.687C171.971 119.687 170.283 120.387 169.013 121.787C167.742 123.155 167.107 125.122 167.107 127.69V141.246H160.839V126.74C160.839 124.405 160.321 122.655 159.284 121.487C158.248 120.287 156.76 119.687 154.821 119.687C152.682 119.687 150.977 120.37 149.706 121.737C148.469 123.105 147.851 125.089 147.851 127.69V141.246H141.582V126.299C141.582 118.806 147.257 114.234 154.675 114.234C156.681 114.234 160.103 114.618 161.641 115.385C163.212 116.118 164.449 117.219 165.352 118.686C166.455 117.286 167.876 116.202 169.614 115.435C171.353 114.634 173.275 114.234 175.381 114.234ZM219.691 129.891C219.758 129.091 219.792 128.474 219.792 128.04C219.792 125.306 219.207 122.905 218.037 120.837C216.9 118.736 215.295 117.119 213.223 115.985C211.183 114.818 208.86 114.234 206.252 114.234C203.611 114.234 201.238 114.818 199.131 115.985C197.025 117.152 195.37 118.786 194.167 120.887C192.997 122.955 192.412 125.289 192.412 127.89C192.412 130.525 193.014 132.892 194.217 134.993C195.454 137.061 197.192 138.678 199.432 139.845C201.672 141.012 204.263 141.596 207.205 141.596C209.512 141.596 211.584 141.229 213.423 140.496C215.262 139.762 216.783 138.678 217.986 137.244L214.627 133.392C212.721 135.327 210.297 136.294 207.355 136.294C205.049 136.294 203.11 135.727 201.538 134.593C200.001 133.426 199.048 131.858 198.68 129.891H219.691ZM201.137 121.037C202.541 119.837 204.246 119.236 206.252 119.236C208.291 119.236 209.996 119.837 211.367 121.037C212.738 122.238 213.557 123.805 213.824 125.739H198.63C198.931 123.772 199.767 122.204 201.137 121.037ZM241.308 114.234V120.187C240.773 120.087 240.288 120.037 239.854 120.037C237.413 120.037 235.508 120.754 234.137 122.188C232.766 123.588 232.081 125.622 232.081 128.29V141.246H225.813V127.777C225.813 118.014 232.081 113.011 241.308 114.234ZM43.5611 141.596C39.9902 141.592 36.1738 140.608 34.1053 138.645C32.066 136.644 31.0464 133.693 31.0464 129.791V114.534H37.3147V128.941C37.3147 131.342 37.8496 133.142 38.9193 134.343C40.0226 135.51 41.5771 136.094 43.583 136.094C45.5783 136.09 47.1255 135.506 48.2247 134.343C49.2945 133.143 49.8294 131.342 49.8294 128.941V114.535H56.0977V129.791C56.0977 133.693 55.0781 136.644 53.0388 138.645C50.9661 140.612 47.1382 141.596 43.5611 141.596Z" fill="white"/>
<path d="M145.847 47.4676C158.843 47.4676 169.379 36.9321 169.379 23.9358C169.379 10.9396 158.843 0.404007 145.847 0.404007C132.851 0.404007 122.315 10.9396 122.315 23.9358C122.315 36.9321 132.851 47.4676 145.847 47.4676Z" fill="#FFCD00"/>
<path d="M146.001 59.2335C145.976 59.2336 145.95 59.2336 145.924 59.2336C129.431 59.2336 115.58 47.9219 111.706 32.6334C110.514 27.93 106.693 23.9359 101.841 23.9359H87.0947C87.0947 56.4265 113.434 82.7654 145.924 82.7654C145.95 82.7654 145.976 82.7653 146.001 82.7653V59.2335Z" fill="#00ECBB"/>
<path d="M145.847 59.2335C145.873 59.2336 145.898 59.2336 145.924 59.2336C162.417 59.2336 176.268 47.9219 180.142 32.6334C181.334 27.93 185.155 23.9359 190.007 23.9359H204.753C204.753 56.4265 178.415 82.7654 145.924 82.7654C145.898 82.7654 145.873 82.7653 145.847 82.7653V59.2335Z" fill="#AF64FF"/>
<path d="M187.523 65.5345C176.877 76.1805 162.17 82.7652 145.924 82.7652C129.679 82.7652 114.972 76.1805 104.326 65.5345L120.965 48.895C127.353 55.2826 136.177 59.2335 145.924 59.2335C155.672 59.2335 164.496 55.2826 170.884 48.895L187.523 65.5345Z" fill="#7131FF"/>
</svg>
