<svg width="296" height="145" viewBox="0 0 296 145" fill="none" xmlns="http://www.w3.org/2000/svg">
<path d="M147.941 46.5798C160.738 46.5798 171.113 36.2055 171.113 23.4082C171.113 10.6109 160.738 0.236599 147.941 0.236599C135.144 0.236599 124.769 10.6109 124.769 23.4082C124.769 36.2055 135.144 46.5798 147.941 46.5798Z" fill="white"/>
<path fill-rule="evenodd" clip-rule="evenodd" d="M255.032 117.132H261.422V144.341H255.032V117.132ZM258.253 112.648C257.094 112.648 256.123 112.292 255.339 111.578C254.555 110.831 254.163 109.914 254.163 108.827C254.163 107.74 254.555 106.84 255.339 106.126C256.123 105.379 257.094 105.005 258.253 105.005C259.411 105.005 260.382 105.362 261.166 106.075C261.95 106.755 262.342 107.621 262.342 108.674C262.342 109.795 261.95 110.746 261.166 111.527C260.416 112.275 259.445 112.648 258.253 112.648ZM245.619 144.697C244.461 144.697 243.472 144.307 242.654 143.526C241.837 142.71 241.428 141.691 241.428 140.468C241.428 139.212 241.82 138.193 242.603 137.411C243.421 136.63 244.427 136.239 245.619 136.239C246.812 136.239 247.8 136.63 248.584 137.411C249.402 138.193 249.811 139.212 249.811 140.468C249.811 141.691 249.402 142.71 248.584 143.526C247.766 144.307 246.778 144.697 245.619 144.697ZM273.591 142.914C275.806 144.103 278.294 144.697 281.054 144.697C283.849 144.697 286.353 144.103 288.568 142.914C290.784 141.725 292.505 140.078 293.731 137.972C294.992 135.832 295.623 133.42 295.623 130.736C295.623 128.053 294.992 125.658 293.731 123.552C292.505 121.446 290.784 119.799 288.568 118.61C286.353 117.421 283.849 116.826 281.054 116.826C278.294 116.826 275.806 117.421 273.591 118.61C271.376 119.799 269.638 121.446 268.377 123.552C267.15 125.658 266.537 128.053 266.537 130.736C266.537 133.42 267.15 135.832 268.377 137.972C269.638 140.078 271.376 141.725 273.591 142.914ZM286.882 136.902C285.348 138.464 283.406 139.246 281.054 139.246C278.703 139.246 276.76 138.464 275.227 136.902C273.727 135.339 272.978 133.284 272.978 130.736C272.978 128.189 273.727 126.134 275.227 124.571C276.76 123.009 278.703 122.227 281.054 122.227C283.406 122.227 285.348 123.009 286.882 124.571C288.415 126.134 289.182 128.189 289.182 130.736C289.182 133.284 288.415 135.339 286.882 136.902ZM106.242 142.875C105.498 143.483 104.585 143.938 103.502 144.242C102.453 144.546 101.337 144.697 100.153 144.697C97.1758 144.697 94.8753 143.921 93.2514 142.369C91.6275 140.817 90.8156 138.556 90.8156 135.586V111.339H97.1589V117.515H104.416V122.577H97.1589V135.434C97.1589 136.75 97.4803 137.763 98.1231 138.471C98.7659 139.146 99.6962 139.484 100.914 139.484C102.335 139.484 103.519 139.112 104.466 138.37L106.242 142.875ZM14.6657 144.697C11.8577 144.697 9.33732 144.107 7.10448 142.926C4.87165 141.745 3.12936 140.108 1.87761 138.016C0.625871 135.89 0 133.494 0 130.828C0 128.162 0.625871 125.782 1.87761 123.69C3.12936 121.598 4.85473 119.961 7.05374 118.78C9.28658 117.599 11.8239 117.008 14.6657 117.008C17.3383 117.008 19.6727 117.548 21.6687 118.628C23.6985 119.708 25.2209 121.26 26.2358 123.285L21.3642 126.12C20.5861 124.871 19.605 123.943 18.4209 123.336C17.2707 122.695 16.002 122.374 14.6149 122.374C12.2468 122.374 10.2846 123.15 8.72837 124.703C7.17215 126.221 6.39404 128.263 6.39404 130.828C6.39404 133.392 7.15523 135.451 8.67762 137.003C10.2338 138.522 12.2129 139.281 14.6149 139.281C16.002 139.281 17.2707 138.977 18.4209 138.37C19.605 137.729 20.5861 136.784 21.3642 135.535L26.2358 138.37C25.1871 140.395 23.6478 141.964 21.6179 143.078C19.6219 144.158 17.3045 144.697 14.6657 144.697ZM66.9583 143.837C69.0558 144.411 71.204 144.697 73.4031 144.697C77.1921 144.697 80.1861 143.938 82.3851 142.42C84.5841 140.901 85.6837 138.876 85.6837 136.345C85.6837 134.422 85.1762 132.937 84.1613 131.891C83.1802 130.844 81.9961 130.102 80.609 129.663C79.222 129.225 77.4458 128.837 75.2807 128.499C73.1155 128.128 71.5085 127.74 70.4598 127.335C69.4448 126.896 68.9374 126.171 68.9374 125.158C68.9374 124.247 69.411 123.521 70.3583 122.982C71.3394 122.408 72.7603 122.121 74.621 122.121C77.4966 122.121 80.0846 122.796 82.3851 124.146L84.821 119.337C83.6369 118.628 82.1145 118.071 80.2538 117.666C78.3931 117.228 76.5324 117.008 74.6717 117.008C71.018 117.008 68.1085 117.785 65.9433 119.337C63.812 120.855 62.7463 122.897 62.7463 125.462C62.7463 127.419 63.2538 128.955 64.2687 130.068C65.3175 131.148 66.5354 131.907 67.9224 132.346C69.3433 132.785 71.1702 133.173 73.4031 133.51C75.5344 133.848 77.0737 134.202 78.021 134.573C79.0021 134.945 79.4926 135.603 79.4926 136.548C79.4926 138.539 77.5981 139.534 73.809 139.534C72.1513 139.534 70.4598 139.298 68.7344 138.826C67.0428 138.319 65.5881 137.661 64.3702 136.851L61.9344 141.66C63.1861 142.538 64.8608 143.263 66.9583 143.837ZM115.339 142.926C117.538 144.107 120.007 144.697 122.748 144.697C125.522 144.697 128.008 144.107 130.207 142.926C132.406 141.745 134.115 140.108 135.333 138.016C136.585 135.89 137.21 133.494 137.21 130.828C137.21 128.162 136.585 125.782 135.333 123.69C134.115 121.598 132.406 119.961 130.207 118.78C128.008 117.599 125.522 117.008 122.748 117.008C120.007 117.008 117.538 117.599 115.339 118.78C113.14 119.961 111.414 121.598 110.163 123.69C108.945 125.782 108.336 128.162 108.336 130.828C108.336 133.494 108.945 135.89 110.163 138.016C111.414 140.108 113.14 141.745 115.339 142.926ZM128.533 136.953C127.01 138.505 125.082 139.281 122.748 139.281C120.413 139.281 118.485 138.505 116.963 136.953C115.474 135.4 114.73 133.359 114.73 130.828C114.73 128.297 115.474 126.255 116.963 124.703C118.485 123.15 120.413 122.374 122.748 122.374C125.082 122.374 127.01 123.15 128.533 124.703C130.055 126.255 130.816 128.297 130.816 130.828C130.816 133.359 130.055 135.4 128.533 136.953ZM177.479 117.008C180.896 117.008 183.603 118.004 185.599 119.995C187.595 121.952 188.593 124.905 188.593 128.853V144.343H182.249V129.663C182.249 127.301 181.725 125.529 180.676 124.348C179.627 123.133 178.122 122.526 176.16 122.526C174.028 122.526 172.32 123.235 171.034 124.652C169.749 126.036 169.106 128.027 169.106 130.625V144.343H162.763V129.663C162.763 127.301 162.238 125.529 161.19 124.348C160.141 123.133 158.635 122.526 156.673 122.526C154.508 122.526 152.783 123.218 151.497 124.601C150.245 125.985 149.619 127.993 149.619 130.625V144.343H143.276V129.217C143.276 121.635 149.019 117.008 156.525 117.008C158.555 117.008 162.019 117.396 163.575 118.173C165.165 118.915 166.417 120.029 167.33 121.514C168.446 120.096 169.884 118.999 171.643 118.223C173.403 117.413 175.348 117.008 177.479 117.008ZM222.32 132.852C222.387 132.042 222.421 131.418 222.421 130.979C222.421 128.212 221.829 125.782 220.645 123.69C219.495 121.564 217.871 119.927 215.773 118.78C213.71 117.599 211.358 117.008 208.72 117.008C206.047 117.008 203.645 117.599 201.514 118.78C199.382 119.961 197.708 121.615 196.49 123.741C195.306 125.833 194.714 128.195 194.714 130.828C194.714 133.494 195.322 135.89 196.54 138.016C197.792 140.108 199.551 141.745 201.818 142.926C204.085 144.107 206.707 144.697 209.684 144.697C212.018 144.697 214.116 144.326 215.976 143.584C217.837 142.841 219.376 141.745 220.594 140.294L217.194 136.396C215.266 138.353 212.813 139.332 209.836 139.332C207.502 139.332 205.539 138.758 203.949 137.611C202.393 136.43 201.429 134.843 201.057 132.852H222.32ZM203.543 123.893C204.964 122.678 206.69 122.07 208.72 122.07C210.783 122.07 212.509 122.678 213.896 123.893C215.283 125.108 216.112 126.694 216.382 128.651H201.006C201.311 126.66 202.156 125.074 203.543 123.893ZM244.195 117.008V123.032C243.653 122.931 243.163 122.88 242.723 122.88C240.253 122.88 238.325 123.606 236.938 125.057C235.551 126.474 234.857 128.533 234.857 131.233V144.343H228.514V130.714C228.514 120.833 234.857 115.771 244.195 117.008ZM44.0822 144.698C40.4686 144.694 36.6065 143.698 34.5133 141.711C32.4496 139.686 31.4178 136.7 31.4178 132.751V117.312H37.761V131.891C37.761 134.32 38.3023 136.143 39.3849 137.358C40.5013 138.539 42.0745 139.129 44.1043 139.129C46.1235 139.125 47.6893 138.535 48.8016 137.358C49.8842 136.143 50.4255 134.321 50.4255 131.891V117.312H56.7688V132.751C56.7688 136.7 55.737 139.686 53.6733 141.711C51.5758 143.702 47.7021 144.698 44.0822 144.698Z" fill="white"/>
<path d="M120.433 44.6562C117.877 41.3517 115.903 37.5741 114.665 33.4771C113.033 28.0774 108.611 23.4082 102.97 23.4082H90.0122C90.0122 37.8114 95.2687 50.9869 103.968 61.1209L120.433 44.6562Z" fill="white"/>
<path d="M110.228 67.3814C120.363 76.0806 133.538 81.3372 147.941 81.3372C162.344 81.3372 175.52 76.0807 185.654 67.3814L169.189 50.9167C163.314 55.4613 155.943 58.1656 147.941 58.1656C139.939 58.1656 132.568 55.4613 126.693 50.9167L110.228 67.3814Z" fill="white"/>
<path d="M175.45 44.6562L191.914 61.1209C200.614 50.9869 205.87 37.8114 205.87 23.4082H192.912C187.271 23.4082 182.849 28.0774 181.218 33.4771C179.98 37.5742 178.006 41.3518 175.45 44.6562Z" fill="white"/>
</svg>
