<svg width="296" height="145" viewBox="0 0 296 145" fill="none" xmlns="http://www.w3.org/2000/svg">
<path d="M147.941 46.5798C160.738 46.5798 171.113 36.2055 171.113 23.4082C171.113 10.6109 160.738 0.236599 147.941 0.236599C135.144 0.236599 124.769 10.6109 124.769 23.4082C124.769 36.2055 135.144 46.5798 147.941 46.5798Z" fill="white"/>
<path d="M120.433 44.6562C117.877 41.3517 115.903 37.5741 114.665 33.4771C113.033 28.0774 108.611 23.4082 102.97 23.4082H90.0122C90.0122 37.8114 95.2687 50.9869 103.968 61.1209L120.433 44.6562Z" fill="white"/>
<path d="M110.228 67.3814C120.363 76.0806 133.538 81.3372 147.941 81.3372C162.344 81.3372 175.52 76.0807 185.654 67.3814L169.189 50.9167C163.314 55.4613 155.943 58.1656 147.941 58.1656C139.939 58.1656 132.568 55.4613 126.693 50.9167L110.228 67.3814Z" fill="white"/>
<path d="M175.45 44.6562L191.914 61.1209C200.614 50.9869 205.87 37.8114 205.87 23.4082H192.912C187.271 23.4082 182.849 28.0774 181.218 33.4771C179.98 37.5742 178.006 41.3518 175.45 44.6562Z" fill="white"/>
</svg>
