<svg width="143" height="100" viewBox="0 0 143 100" fill="none" xmlns="http://www.w3.org/2000/svg">
<path d="M71.4278 57.1429C87.2073 57.1429 99.9992 44.351 99.9992 28.5715C99.9992 12.7919 87.2073 0 71.4278 0C55.6482 0 42.8563 12.7919 42.8563 28.5715C42.8563 44.351 55.6482 57.1429 71.4278 57.1429Z" fill="white"/>
<mask id="mask0_2:57790" style="mask-type:alpha" maskUnits="userSpaceOnUse" x="0" y="28" width="143" height="72">
<path fill-rule="evenodd" clip-rule="evenodd" d="M14.5463 28.5714C22.2922 28.5714 28.3458 35.0171 30.8351 42.3519C36.5735 59.2609 52.5801 71.4285 71.4285 71.4285C90.2771 71.4285 106.284 59.2609 112.022 42.3519C114.511 35.0171 120.565 28.5714 128.311 28.5714H142.857C142.857 68.0202 110.877 100 71.4285 100C31.9796 100 0 68.0202 0 28.5714H14.5463Z" fill="#8D6FFF"/>
</mask>
<g mask="url(#mask0_2:57790)">
<path fill-rule="evenodd" clip-rule="evenodd" d="M37.5099 54.7712C31.906 47.5271 28.5714 38.4387 28.5714 28.5714H0C0 46.3312 6.48158 62.5772 17.2083 75.0727L37.5099 54.7712ZM24.9278 82.7922C37.4233 93.5185 53.6691 100 71.4285 100C89.1884 100 105.434 93.5184 117.93 82.7917L97.6284 62.4901C90.3842 68.0939 81.2958 71.4285 71.4285 71.4285C61.5616 71.4285 52.4734 68.0941 45.2293 62.4906L24.9278 82.7922ZM105.348 54.7706L125.649 75.0722C136.376 62.5767 142.857 46.3309 142.857 28.5714H114.286C114.286 38.4384 110.951 47.5266 105.348 54.7706Z" fill="white"/>
<path d="M71.428 71.4282C95.0973 71.4282 114.285 52.2404 114.285 28.571C114.285 4.90171 95.0973 -14.2861 71.428 -14.2861C47.7587 -14.2861 28.5709 4.90171 28.5709 28.571C28.5709 52.2404 47.7587 71.4282 71.428 71.4282Z" fill="#574699"/>
</g>
</svg>
